<svg xmlns="http://www.w3.org/2000/svg" viewBox="0 0 1536 1875">
<style>
#e2da663e-731d-4fe0-be53-4f293e6bd129{
  pointer-events: none;
}
.popup{
  opacity: 0;
  pointer-events: none;
  transition: opacity 300ms linear 0s;
}
</style>
  <g id="b749d5c5-4ceb-4c6d-b818-0b95718065c1" data-name="text">
    <g>
      <g>
        <path d="M905.77,1267.39h-1.52a.47.47,0,0,1-.46-.46v-11a2,2,0,0,0-2-2h-2.37a7.47,7.47,0,0,0-2.28,5.56,9.87,9.87,0,0,0,2.1,6v1.25a.71.71,0,0,1-.7.7h-3.77a.47.47,0,0,1-.45-.46v-1.22a.46.46,0,0,1,.45-.45h2a8.84,8.84,0,0,1-2-5.62,7.72,7.72,0,0,1,2.22-5.72h-2.13a.44.44,0,0,1-.42-.45V1252a.41.41,0,0,1,.42-.43h6.87a4.42,4.42,0,0,1,4.44,4.44v11A.44.44,0,0,1,905.77,1267.39Z" style="fill: #647c6e"/>
        <path d="M917,1267.54a.42.42,0,0,1-.57.24l-1.58-.55a.45.45,0,0,1-.25-.63l5.08-12.4c.06-.16,0-.28-.15-.28h-8.15a.46.46,0,0,1-.45-.45v-7.33a.47.47,0,0,1,.45-.46h1.49a.48.48,0,0,1,.46.46v5.38h7.53a1.58,1.58,0,0,1,.64.12,1.65,1.65,0,0,1,.82,2.1Z" style="fill: #647c6e"/>
        <path d="M938.2,1253.92h-2.28v13a.47.47,0,0,1-.45.46H934a.45.45,0,0,1-.46-.46v-13h-6.26a.47.47,0,0,1-.46-.45V1252a.45.45,0,0,1,.46-.43H938.2a.44.44,0,0,1,.46.43v1.52A.46.46,0,0,1,938.2,1253.92Z" style="fill: #647c6e"/>
        <path d="M954.62,1267.39h-1.49a.48.48,0,0,1-.46-.46v-11a2,2,0,0,0-2.06-2H944a.47.47,0,0,1-.46-.45V1252a.45.45,0,0,1,.46-.43h6.57a4.45,4.45,0,0,1,4.46,4.44v11A.47.47,0,0,1,954.62,1267.39Zm-8.51-5.57v5.11a.45.45,0,0,1-.43.46h-1.52a.47.47,0,0,1-.45-.46v-5.17c0-.73.3-3.64.3-3.64a.41.41,0,0,1,.49-.4l1.49.15a.41.41,0,0,1,.39.49S946.11,1261.16,946.11,1261.82Z" style="fill: #647c6e"/>
        <path d="M981.22,1267.39H979.7a.47.47,0,0,1-.46-.46v-11a2,2,0,0,0-2-2h-2.37a7.51,7.51,0,0,0-2.28,5.56,9.87,9.87,0,0,0,2.1,6v1.25a.71.71,0,0,1-.7.7h-3.77a.47.47,0,0,1-.45-.46v-1.22a.46.46,0,0,1,.45-.45h2a8.84,8.84,0,0,1-2-5.62,7.76,7.76,0,0,1,2.22-5.72h-2.12a.44.44,0,0,1-.43-.45V1252a.41.41,0,0,1,.43-.43h6.86a4.42,4.42,0,0,1,4.44,4.44v11A.44.44,0,0,1,981.22,1267.39Z" style="fill: #647c6e"/>
        <path d="M994.78,1260.67l3.61,5.35a.42.42,0,0,1-.09.61l-1.24.88a.41.41,0,0,1-.61-.09l-6-8.88c-1.19.85-1.46,2.13-1.46,4.17v4.22a.45.45,0,0,1-.43.46h-1.51a.47.47,0,0,1-.46-.46v-4.22c0-2.59.64-4.62,2.61-6l-2.7-4a.41.41,0,0,1,.09-.61l1.25-.88a.39.39,0,0,1,.6.09l4.84,7.14L996,1252a.62.62,0,0,1,.73-.49H998a.49.49,0,0,1,.48.73Z" style="fill: #647c6e"/>
        <path d="M1017.64,1261.16a.46.46,0,0,1-.67,0l-1-.92a.41.41,0,0,1,0-.6c1.88-2,1.85-2.68,1.85-5.48a.19.19,0,0,0-.21-.21h-4.56a.46.46,0,0,1-.46-.45V1252a.44.44,0,0,1,.46-.43h5.56a1.56,1.56,0,0,1,1.61,1.52v1.88A7.6,7.6,0,0,1,1017.64,1261.16Z" style="fill: #647c6e"/>
        <path d="M1031,1267.54a.43.43,0,0,1-.58.24l-1.58-.55a.45.45,0,0,1-.24-.63l5.08-12.4c.06-.16,0-.28-.15-.28h-8.15a.47.47,0,0,1-.46-.45v-7.33a.48.48,0,0,1,.46-.46h1.49a.47.47,0,0,1,.45.46v5.38h7.54a1.58,1.58,0,0,1,.64.12,1.65,1.65,0,0,1,.82,2.1Z" style="fill: #647c6e"/>
        <path d="M1051.5,1252.1a.57.57,0,0,1,.55-.58h8.12a3,3,0,0,1,3,3v12.46a.47.47,0,0,1-.45.46h-1.52a.45.45,0,0,1-.43-.46v-12.55a.45.45,0,0,0-.48-.46h-6.36v13a.47.47,0,0,1-.45.46H1052a.48.48,0,0,1-.46-.46Z" style="fill: #647c6e"/>
        <path d="M1079.86,1267.39h-1.52a.47.47,0,0,1-.45-.46v-11a2,2,0,0,0-2-2h-2.37a7.47,7.47,0,0,0-2.28,5.56,9.87,9.87,0,0,0,2.1,6v1.25a.72.72,0,0,1-.7.7h-3.77a.48.48,0,0,1-.46-.46v-1.22a.47.47,0,0,1,.46-.45h2a8.84,8.84,0,0,1-1.95-5.62,7.72,7.72,0,0,1,2.22-5.72H1069a.44.44,0,0,1-.42-.45V1252a.41.41,0,0,1,.42-.43h6.87a4.43,4.43,0,0,1,4.44,4.44v11A.45.45,0,0,1,1079.86,1267.39Z" style="fill: #647c6e"/>
        <path d="M1086.25,1258a8.22,8.22,0,0,1,.76-4l-1.67-.79a.44.44,0,0,1-.22-.58l.67-1.42a.44.44,0,0,1,.58-.19l1.16.55h7.26a2.11,2.11,0,0,1,2.13,2.13v12a1.7,1.7,0,0,1-1.7,1.71h-9.37a.47.47,0,0,1-.45-.46v-1.49a.46.46,0,0,1,.45-.45h8.45c.16,0,.22-.07.22-.22V1254.1c0-.12-.09-.18-.22-.18h-4.86a6.15,6.15,0,0,0-.85,3.68v1h2.22a.41.41,0,0,1,.42.43v1.43a.44.44,0,0,1-.42.45h-3.62c-.58,0-.94-.27-.94-1Z" style="fill: #647c6e"/>
        <path d="M971.52,1321.93H970a.45.45,0,0,1-.46-.46v-12.64c0-.06,0-.09-.09-.12l-3.49-.88a.45.45,0,0,1-.31-.55l.37-1.4a.45.45,0,0,1,.58-.33l4.34,1.12a1.17,1.17,0,0,1,1,1.31v13.49A.47.47,0,0,1,971.52,1321.93Z" style="fill: #647c6e"/>
        <path d="M987.78,1306.06a1.38,1.38,0,0,1,.43.07,1.51,1.51,0,0,1,1.09,1.88l-4.13,13.53a.42.42,0,0,1-.58.24l-1.58-.49a.37.37,0,0,1-.27-.51l3.86-12c.06-.15,0-.27-.15-.27h-8.79a.47.47,0,0,1-.45-.46v-1.52a.44.44,0,0,1,.45-.43Zm-10.51,10.25c0-.73.3-3.65.3-3.65a.41.41,0,0,1,.49-.4l1.49.16a.4.4,0,0,1,.39.48s-.27,2.8-.27,3.47v8.72a.43.43,0,0,1-.46.43h-1.49a.44.44,0,0,1-.45-.43Z" style="fill: #647c6e"/>
        <path d="M999.55,1321.93h-1.49a.45.45,0,0,1-.46-.46v-12.64c0-.06,0-.09-.09-.12l-3.49-.88a.44.44,0,0,1-.31-.55l.37-1.4a.44.44,0,0,1,.57-.33l4.35,1.12a1.16,1.16,0,0,1,1,1.31v13.49A.46.46,0,0,1,999.55,1321.93Z" style="fill: #647c6e"/>
        <path d="M1007.15,1306.06c.33,0,.52.13.52.46l.18,6.44c1.88-.33,2.52-1.21,2.52-4.1v-2.28c0-.33.15-.52.49-.52h1.21a.49.49,0,0,1,.55.52l-.06,2.43c-.09,4-1.13,5-4.68,5.81l.15,5c5.75-.67,7.23-4,7.23-11.15v-2c0-.33.16-.52.49-.52h1.4a.5.5,0,0,1,.55.52l-.06,2c-.22,7.6-1.59,12.92-10.67,13.52a.92.92,0,0,1-1.1-.91l-.48-14.65c0-.33.15-.52.48-.52Z" style="fill: #647c6e"/>
        <path d="M1037.91,1325.52h-1.49a.45.45,0,0,1-.45-.46v-16.23c0-.06,0-.09-.09-.12l-3.5-.88a.44.44,0,0,1-.3-.55l.36-1.4a.42.42,0,0,1,.58-.33l4.34,1.12a1.26,1.26,0,0,1,1,1.4v17A.47.47,0,0,1,1037.91,1325.52Z" style="fill: #647c6e"/>
        <path d="M1048,1315.7a.46.46,0,0,1-.67,0l-1-.91a.44.44,0,0,1,0-.61c1.89-2,1.86-2.68,1.86-5.47a.19.19,0,0,0-.21-.21h-4.56a.47.47,0,0,1-.46-.46v-1.52a.45.45,0,0,1,.46-.43H1049a1.56,1.56,0,0,1,1.61,1.52v1.89A7.58,7.58,0,0,1,1048,1315.7Z" style="fill: #647c6e"/>
        <path d="M1055.58,1307.22a.42.42,0,0,1,0-.67l1-1a.41.41,0,0,1,.64,0l1.55,1.46c5.47-2,7.75-.58,7.93,2.06l.73,11.31a1.44,1.44,0,0,1-1.43,1.61h-4.47a.46.46,0,0,1-.45-.46V1320a.46.46,0,0,1,.45-.46h3.25a.19.19,0,0,0,.22-.21l-.58-9.79c-.09-1.46-1.12-1.89-5.14-.43l-1.4,12.37a.49.49,0,0,1-.54.46h-1.37a.43.43,0,0,1-.46-.52l1.46-12.94Z" style="fill: #647c6e"/>
        <path d="M1079.74,1305.94a.39.39,0,0,1,.55.31l.33,1.3a.51.51,0,0,1-.39.67,11,11,0,0,1-2.71.58v12.67a.44.44,0,0,1-.42.46h-1.52a.47.47,0,0,1-.46-.46V1308.8a11,11,0,0,1-2.67-.58c-.34-.12-.49-.33-.4-.67l.34-1.3a.38.38,0,0,1,.54-.31l.76.25a9.9,9.9,0,0,0,5.29,0Z" style="fill: #647c6e"/>
        <path d="M1096.61,1321.93h-1.49a.46.46,0,0,1-.45-.46v-11a2,2,0,0,0-2.07-2H1086a.47.47,0,0,1-.46-.46v-1.52a.45.45,0,0,1,.46-.43h6.56a4.46,4.46,0,0,1,4.47,4.44v11A.47.47,0,0,1,1096.61,1321.93Zm-8.51-5.56v5.1a.44.44,0,0,1-.42.46h-1.52a.47.47,0,0,1-.46-.46v-5.16c0-.73.31-3.65.31-3.65a.41.41,0,0,1,.48-.4l1.49.16a.41.41,0,0,1,.4.48S1088.1,1315.7,1088.1,1316.37Z" style="fill: #647c6e"/>
        <path d="M1052.08,1380.06h-1.49a.45.45,0,0,1-.46-.45v-16.23c0-.07,0-.1-.09-.13l-3.49-.88a.43.43,0,0,1-.31-.54l.37-1.4a.42.42,0,0,1,.58-.34l4.34,1.13a1.26,1.26,0,0,1,1,1.4v17A.46.46,0,0,1,1052.08,1380.06Z" style="fill: #647c6e"/>
        <path d="M1059.37,1360.61c.34,0,.52.12.52.46l.18,6.44c1.89-.34,2.53-1.22,2.53-4.1v-2.28c0-.34.15-.52.48-.52h1.22a.49.49,0,0,1,.55.52l-.07,2.43c-.09,4-1.12,5-4.68,5.8l.16,5c5.74-.67,7.23-4,7.23-11.16v-2c0-.34.15-.52.49-.52h1.39a.49.49,0,0,1,.55.52l-.06,2c-.21,7.6-1.58,12.92-10.67,13.53a.92.92,0,0,1-1.09-.91l-.49-14.65c0-.34.15-.52.49-.52Z" style="fill: #647c6e"/>
        <path d="M1079.56,1370.24a.44.44,0,0,1-.67,0l-1-.91a.44.44,0,0,1,0-.61c1.88-2,1.85-2.67,1.85-5.47a.19.19,0,0,0-.21-.21H1075a.47.47,0,0,1-.46-.46V1361a.45.45,0,0,1,.46-.43h5.56a1.56,1.56,0,0,1,1.61,1.52V1364A7.58,7.58,0,0,1,1079.56,1370.24Z" style="fill: #647c6e"/>
        <path d="M1096.19,1370.28c-.67,3.34-1.4,4.25-4.5,5.92l-4.23,2.28a.35.35,0,0,1-.51-.15l-.7-1.34a.39.39,0,0,1,.18-.57l4.5-2.38-4.26-12.7a.52.52,0,0,1,.55-.7h1.37a.57.57,0,0,1,.58.43l3.67,11.79a2.53,2.53,0,0,0,.85-1.76l1.83-10.06a.47.47,0,0,1,.51-.43h1.56a.39.39,0,0,1,.42.49Z" style="fill: #647c6e"/>
        <path d="M905.89,1417.46l-1.43-.67a.4.4,0,0,1-.21-.57l.67-1.43a.39.39,0,0,1,.57-.18l1.19.54h7.81a2.12,2.12,0,0,1,2.13,2.13v12a1.7,1.7,0,0,1-1.7,1.7h-8.48a.57.57,0,0,1-.55-.58Zm8.33.28c0-.12-.06-.19-.22-.19h-5.77v11.07H914c.16,0,.22-.06.22-.21Z" style="fill: #647c6e"/>
        <path d="M927.62,1431.17a.42.42,0,0,1-.57.25l-1.58-.55a.46.46,0,0,1-.25-.64l5.08-12.4c.06-.15,0-.28-.15-.28H922a.47.47,0,0,1-.46-.45v-7.33a.47.47,0,0,1,.46-.45h1.49a.46.46,0,0,1,.45.45v5.38h7.54a1.58,1.58,0,0,1,.64.12,1.65,1.65,0,0,1,.82,2.1Z" style="fill: #647c6e"/>
        <path d="M939.75,1415.15c.34,0,.52.12.52.46l.18,6.44c1.89-.33,2.53-1.21,2.53-4.1v-2.28c0-.33.15-.52.48-.52h1.22a.49.49,0,0,1,.54.52l-.06,2.43c-.09,4-1.12,5-4.68,5.81l.15,4.95c5.75-.67,7.24-4,7.24-11.15v-2c0-.33.15-.52.49-.52h1.39a.49.49,0,0,1,.55.52l-.06,2c-.21,7.59-1.58,12.91-10.67,13.52a.91.91,0,0,1-1.09-.91l-.49-14.65c0-.33.15-.52.49-.52Z" style="fill: #647c6e"/>
        <path d="M961,1431.17a.42.42,0,0,1-.58.25l-1.58-.55a.46.46,0,0,1-.24-.64l5.08-12.4c.06-.15,0-.28-.15-.28h-8.15a.47.47,0,0,1-.46-.45v-7.33a.47.47,0,0,1,.46-.45h1.49a.46.46,0,0,1,.45.45v5.38h7.54a1.61,1.61,0,0,1,.64.12,1.65,1.65,0,0,1,.82,2.1Z" style="fill: #647c6e"/>
        <path d="M985.66,1424.79a.46.46,0,0,1-.67,0l-1-.91a.44.44,0,0,1,0-.61c1.89-2,1.86-2.68,1.86-5.47a.2.2,0,0,0-.21-.22H981.1a.46.46,0,0,1-.46-.45v-1.52a.45.45,0,0,1,.46-.43h5.56a1.56,1.56,0,0,1,1.61,1.52v1.89A7.58,7.58,0,0,1,985.66,1424.79Z" style="fill: #647c6e"/>
        <path d="M999,1431.17a.42.42,0,0,1-.58.25l-1.58-.55a.46.46,0,0,1-.24-.64l5.08-12.4c.06-.15,0-.28-.16-.28h-8.14a.46.46,0,0,1-.46-.45v-7.33a.46.46,0,0,1,.46-.45h1.49a.46.46,0,0,1,.45.45v5.38h7.54a1.61,1.61,0,0,1,.64.12,1.66,1.66,0,0,1,.82,2.1Z" style="fill: #647c6e"/>
        <path d="M1024.48,1434.61H1023a.45.45,0,0,1-.46-.46v-16.23c0-.06,0-.09-.09-.12l-3.5-.88a.44.44,0,0,1-.3-.55l.36-1.4a.42.42,0,0,1,.58-.33l4.35,1.12a1.26,1.26,0,0,1,1,1.4v17A.47.47,0,0,1,1024.48,1434.61Z" style="fill: #647c6e"/>
        <path d="M1041,1431h-1.52a.46.46,0,0,1-.45-.46v-11a2,2,0,0,0-2-2h-2.37a7.49,7.49,0,0,0-2.28,5.57,9.87,9.87,0,0,0,2.1,6v1.25a.71.71,0,0,1-.7.7H1030a.47.47,0,0,1-.46-.46v-1.21a.47.47,0,0,1,.46-.46h2a8.84,8.84,0,0,1-2-5.62,7.72,7.72,0,0,1,2.22-5.72h-2.13a.44.44,0,0,1-.42-.45v-1.52a.42.42,0,0,1,.42-.43H1037a4.43,4.43,0,0,1,4.44,4.44v11A.44.44,0,0,1,1041,1431Z" style="fill: #647c6e"/>
        <path d="M1053,1431h-6.32a.47.47,0,0,1-.46-.46v-1.49a.46.46,0,0,1,.46-.45h5.38c.18,0,.24-.06.24-.21v-10.67c0-.12-.09-.19-.24-.19h-2.71a.46.46,0,0,1-.45-.45v-1.52a.44.44,0,0,1,.45-.43h3.23a2.14,2.14,0,0,1,2.12,2.13v12A1.7,1.7,0,0,1,1053,1431Z" style="fill: #647c6e"/>
        <path d="M1077.89,1424.3l3.61,5.35a.4.4,0,0,1-.09.61l-1.24.88a.41.41,0,0,1-.61-.09l-6-8.88c-1.18.86-1.46,2.13-1.46,4.17v4.22a.44.44,0,0,1-.42.46h-1.52a.47.47,0,0,1-.46-.46v-4.22c0-2.59.64-4.62,2.61-6l-2.7-4a.42.42,0,0,1,.09-.61l1.25-.88a.42.42,0,0,1,.61.09l4.83,7.14,2.73-6.44c.19-.46.37-.49.73-.49h1.28a.5.5,0,0,1,.49.73Z" style="fill: #647c6e"/>
        <path d="M1092.08,1431.17a.42.42,0,0,1-.57.25l-1.58-.55a.46.46,0,0,1-.25-.64l5.08-12.4c.06-.15,0-.28-.15-.28h-8.15a.46.46,0,0,1-.45-.45v-7.33a.46.46,0,0,1,.45-.45H1088a.47.47,0,0,1,.46.45v5.38h7.53a1.58,1.58,0,0,1,.64.12,1.65,1.65,0,0,1,.82,2.1Z" style="fill: #647c6e"/>
        <path d="M781.25,1485.56h-1.52a.46.46,0,0,1-.46-.45v-11a2,2,0,0,0-2-2h-2.37a7.51,7.51,0,0,0-2.28,5.56,9.89,9.89,0,0,0,2.1,6v1.25a.7.7,0,0,1-.7.69h-3.77a.46.46,0,0,1-.45-.45v-1.22a.46.46,0,0,1,.45-.45h2a8.87,8.87,0,0,1-2-5.63,7.7,7.7,0,0,1,2.22-5.71h-2.13a.44.44,0,0,1-.42-.46v-1.52a.41.41,0,0,1,.42-.42h6.87a4.42,4.42,0,0,1,4.44,4.44v11A.44.44,0,0,1,781.25,1485.56Z" style="fill: #647c6e"/>
        <path d="M792,1485.56h-1.49a.45.45,0,0,1-.46-.45v-12.65c0-.06,0-.09-.09-.12l-3.49-.88a.43.43,0,0,1-.31-.55l.37-1.39a.44.44,0,0,1,.57-.34l4.35,1.13a1.15,1.15,0,0,1,1,1.3v13.5A.46.46,0,0,1,792,1485.56Z" style="fill: #647c6e"/>
        <path d="M802.4,1479.33a.43.43,0,0,1-.66,0l-1-.91a.44.44,0,0,1,0-.61c1.89-2,1.86-2.67,1.86-5.47a.19.19,0,0,0-.22-.21h-4.55a.47.47,0,0,1-.46-.46v-1.52a.44.44,0,0,1,.46-.42h5.56a1.56,1.56,0,0,1,1.61,1.52v1.88A7.56,7.56,0,0,1,802.4,1479.33Z" style="fill: #647c6e"/>
        <path d="M811.16,1485.9a.45.45,0,0,1-.48-.46l-.73-15.29a.4.4,0,0,1,.42-.45h1.49a.41.41,0,0,1,.46.42l.6,13.29c4.84-.61,6.69-3.65,6.69-8.76v-2.25c0-.15-.06-.18-.21-.21l-3.44-.46a.38.38,0,0,1-.36-.48l.24-1.49a.43.43,0,0,1,.52-.37l3.95.55a1.73,1.73,0,0,1,1.7,1.92v2.79C822,1481.7,818.49,1485.9,811.16,1485.9Z" style="fill: #647c6e"/>
        <path d="M833.41,1485.56h-6.32a.47.47,0,0,1-.46-.45v-1.49a.48.48,0,0,1,.46-.46h5.38c.18,0,.24-.06.24-.21v-10.67c0-.12-.09-.18-.24-.18h-2.7a.47.47,0,0,1-.46-.46v-1.52a.44.44,0,0,1,.46-.42H833a2.13,2.13,0,0,1,2.12,2.13v12A1.69,1.69,0,0,1,833.41,1485.56Z" style="fill: #647c6e"/>
        <path d="M851.35,1485a.39.39,0,0,1-.4.54h-1.42a.56.56,0,0,1-.58-.39l-1.67-5.78-5.81,6.42a.41.41,0,0,1-.61,0l-1.12-1a.44.44,0,0,1,0-.63l6.81-7.3-1.31-4.59c0-.12-.09-.15-.21-.15H843.2a.44.44,0,0,1-.42-.46v-1.52a.46.46,0,0,1,.48-.42h2.56a1.21,1.21,0,0,1,1.36,1Z" style="fill: #647c6e"/>
        <path d="M860.1,1479.33a.43.43,0,0,1-.66,0l-1-.91a.44.44,0,0,1,0-.61c1.89-2,1.86-2.67,1.86-5.47a.19.19,0,0,0-.22-.21h-4.56a.46.46,0,0,1-.45-.46v-1.52a.44.44,0,0,1,.45-.42h5.57a1.56,1.56,0,0,1,1.61,1.52v1.88A7.59,7.59,0,0,1,860.1,1479.33Z" style="fill: #647c6e"/>
        <path d="M873.42,1485.72a.43.43,0,0,1-.58.24l-1.58-.55a.46.46,0,0,1-.24-.64l5.07-12.4c.06-.15,0-.27-.15-.27H867.8a.47.47,0,0,1-.46-.46v-7.32a.47.47,0,0,1,.46-.46h1.48a.47.47,0,0,1,.46.46v5.38h7.54a1.57,1.57,0,0,1,1.46,2.22Z" style="fill: #647c6e"/>
        <path d="M884.85,1485.9a.46.46,0,0,1-.49-.46l-.73-15.29a.41.41,0,0,1,.43-.45h1.49a.41.41,0,0,1,.46.42l.6,13.29c4.84-.61,6.69-3.65,6.69-8.76v-2.25c0-.15-.06-.18-.21-.21l-3.44-.46a.38.38,0,0,1-.36-.48l.24-1.49a.42.42,0,0,1,.52-.37l4,.55a1.73,1.73,0,0,1,1.7,1.92v2.79C895.7,1481.7,892.18,1485.9,884.85,1485.9Z" style="fill: #647c6e"/>
        <path d="M907.1,1485.56h-6.32a.47.47,0,0,1-.46-.45v-1.49a.48.48,0,0,1,.46-.46h5.38c.18,0,.24-.06.24-.21v-10.67c0-.12-.09-.18-.24-.18h-2.71a.46.46,0,0,1-.45-.46v-1.52a.44.44,0,0,1,.45-.42h3.23a2.13,2.13,0,0,1,2.12,2.13v12A1.7,1.7,0,0,1,907.1,1485.56Z" style="fill: #647c6e"/>
        <path d="M918.9,1479.33a.44.44,0,0,1-.67,0l-1-.91a.42.42,0,0,1,0-.61c1.88-2,1.85-2.67,1.85-5.47a.19.19,0,0,0-.21-.21h-4.56a.47.47,0,0,1-.46-.46v-1.52a.44.44,0,0,1,.46-.42h5.56a1.56,1.56,0,0,1,1.61,1.52v1.88A7.58,7.58,0,0,1,918.9,1479.33Z" style="fill: #647c6e"/>
        <path d="M934.49,1478.85l3.62,5.35a.4.4,0,0,1-.09.6l-1.25.89a.41.41,0,0,1-.61-.1l-6-8.87c-1.19.85-1.46,2.13-1.46,4.16v4.23a.44.44,0,0,1-.43.45h-1.52a.46.46,0,0,1-.45-.45v-4.23c0-2.58.63-4.62,2.61-6l-2.71-4a.4.4,0,0,1,.1-.6l1.24-.89a.41.41,0,0,1,.61.1l4.83,7.14,2.74-6.45c.18-.45.36-.48.73-.48h1.27a.5.5,0,0,1,.49.73Z" style="fill: #647c6e"/>
        <path d="M963,1485.56h-1.52a.44.44,0,0,1-.43-.45v-11a2,2,0,0,0-2.07-2h-6.5a.47.47,0,0,1-.46-.46v-1.52a.44.44,0,0,1,.46-.42H959a4.44,4.44,0,0,1,4.47,4.44v11A.46.46,0,0,1,963,1485.56Z" style="fill: #647c6e"/>
        <path d="M981.49,1474.35c0,6.32-2.46,10.79-9.79,11.49a.91.91,0,0,1-1.09-1L970,1472l-1.49-.67a.45.45,0,0,1-.21-.58l.67-1.43a.4.4,0,0,1,.57-.18l1.25.55h8.54a2.14,2.14,0,0,1,2.16,2.13Zm-2.4-2.07c0-.12-.09-.18-.25-.18h-6.47l.52,11.15c4.83-1,6.2-4.34,6.2-8.6Z" style="fill: #647c6e"/>
        <path d="M991.67,1485.56h-1.49a.44.44,0,0,1-.45-.45v-12.65c0-.06,0-.09-.09-.12l-3.5-.88a.44.44,0,0,1-.3-.55l.36-1.39a.45.45,0,0,1,.58-.34l4.35,1.13a1.15,1.15,0,0,1,1,1.3v13.5A.46.46,0,0,1,991.67,1485.56Z" style="fill: #647c6e"/>
        <path d="M998,1470.28a.57.57,0,0,1,.54-.58h8.12a3,3,0,0,1,3,3v12.46a.46.46,0,0,1-.46.45h-1.52a.44.44,0,0,1-.42-.45v-12.56a.46.46,0,0,0-.49-.45h-6.35v13a.47.47,0,0,1-.46.45h-1.49a.46.46,0,0,1-.45-.45Z" style="fill: #647c6e"/>
        <path d="M1026.24,1485.56h-11a.46.46,0,0,1-.45-.45v-1.49a.45.45,0,0,1,.45-.46h7v-9a2,2,0,0,0-2-2h-4a.47.47,0,0,1-.46-.46v-1.52a.44.44,0,0,1,.46-.42h4a4.42,4.42,0,0,1,4.44,4.44v9h1.52a.45.45,0,0,1,.45.46v1.49A.46.46,0,0,1,1026.24,1485.56Z" style="fill: #647c6e"/>
        <path d="M1051.71,1485.56h-1.52a.44.44,0,0,1-.42-.45v-11a2,2,0,0,0-2.07-2h-6.51a.46.46,0,0,1-.45-.46v-1.52a.44.44,0,0,1,.45-.42h6.51a4.45,4.45,0,0,1,4.47,4.44v11A.47.47,0,0,1,1051.71,1485.56Z" style="fill: #647c6e"/>
        <path d="M1068.34,1485.56H1057.4a.46.46,0,0,1-.46-.45v-1.49a.45.45,0,0,1,.46-.46h7v-9a2,2,0,0,0-2-2h-4a.47.47,0,0,1-.46-.46v-1.52a.44.44,0,0,1,.46-.42h4a4.42,4.42,0,0,1,4.44,4.44v9h1.52a.46.46,0,0,1,.46.46v1.49A.47.47,0,0,1,1068.34,1485.56Z" style="fill: #647c6e"/>
        <path d="M1078.43,1479.33c-.18.19-.42.19-.67,0l-1-.91a.44.44,0,0,1,0-.61c1.89-2,1.86-2.67,1.86-5.47a.19.19,0,0,0-.22-.21h-4.56a.46.46,0,0,1-.45-.46v-1.52a.44.44,0,0,1,.45-.42h5.57a1.56,1.56,0,0,1,1.61,1.52v1.88A7.59,7.59,0,0,1,1078.43,1479.33Z" style="fill: #647c6e"/>
        <path d="M1096.92,1472.1h-2.28v13a.47.47,0,0,1-.46.45h-1.49a.44.44,0,0,1-.45-.45v-13H1086a.46.46,0,0,1-.45-.46v-1.52a.44.44,0,0,1,.45-.42h11a.44.44,0,0,1,.45.42v1.52A.46.46,0,0,1,1096.92,1472.1Z" style="fill: #647c6e"/>
        <path d="M1009.37,1533.88a.46.46,0,0,1-.67,0l-1-.91a.42.42,0,0,1,0-.61c1.88-2,1.85-2.68,1.85-5.47a.19.19,0,0,0-.21-.22h-4.56a.47.47,0,0,1-.46-.45v-1.52a.45.45,0,0,1,.46-.43h5.56a1.56,1.56,0,0,1,1.61,1.52v1.89A7.59,7.59,0,0,1,1009.37,1533.88Z" style="fill: #647c6e"/>
        <path d="M1022.68,1540.26a.42.42,0,0,1-.57.24l-1.58-.54a.46.46,0,0,1-.25-.64l5.08-12.4c.06-.16,0-.28-.15-.28h-8.15a.47.47,0,0,1-.46-.45v-7.33a.47.47,0,0,1,.46-.45h1.49a.46.46,0,0,1,.45.45v5.38h7.54a1.58,1.58,0,0,1,.64.12,1.65,1.65,0,0,1,.82,2.1Z" style="fill: #647c6e"/>
        <path d="M1042,1533.91c-.67,3.34-1.4,4.25-4.5,5.92l-4.23,2.28a.35.35,0,0,1-.51-.15l-.7-1.33a.39.39,0,0,1,.18-.58l4.5-2.37-4.26-12.71a.52.52,0,0,1,.55-.7h1.37a.57.57,0,0,1,.57.43l3.68,11.79a2.51,2.51,0,0,0,.85-1.76l1.83-10.06a.47.47,0,0,1,.51-.43h1.55a.4.4,0,0,1,.43.49Z" style="fill: #647c6e"/>
        <path d="M1068.77,1526.64h-2.28v13a.47.47,0,0,1-.46.46h-1.49a.44.44,0,0,1-.45-.46v-13h-6.26a.46.46,0,0,1-.46-.45v-1.52a.44.44,0,0,1,.46-.43h10.94a.44.44,0,0,1,.45.43v1.52A.46.46,0,0,1,1068.77,1526.64Z" style="fill: #647c6e"/>
        <path d="M1084.51,1540.11H1083a.44.44,0,0,1-.42-.46v-11a2,2,0,0,0-2.07-2H1074a.46.46,0,0,1-.46-.45v-1.52a.44.44,0,0,1,.46-.43h6.5a4.46,4.46,0,0,1,4.47,4.44v11A.47.47,0,0,1,1084.51,1540.11Z" style="fill: #647c6e"/>
        <path d="M1094.76,1533.88a.46.46,0,0,1-.67,0l-1-.91a.44.44,0,0,1,0-.61c1.88-2,1.85-2.68,1.85-5.47a.19.19,0,0,0-.21-.22h-4.56a.46.46,0,0,1-.45-.45v-1.52a.44.44,0,0,1,.45-.43h5.56a1.56,1.56,0,0,1,1.61,1.52v1.89A7.59,7.59,0,0,1,1094.76,1533.88Z" style="fill: #647c6e"/>
      </g>
      <circle cx="1126.53" cy="1477.53" r="9.12" style="fill: #e3c867"/>
      <circle cx="1126.53" cy="1530.49" r="9.12" style="fill: #647c6e"/>
      <circle cx="1126.53" cy="1422.94" r="9.12" style="fill: #954299"/>
      <g>
        <circle cx="1126.53" cy="1314.11" r="9.12" style="fill: #954299"/>
        <circle cx="1126.53" cy="1314.45" r="9.12" style="fill: #9dcbc1"/>
      </g>
      <circle cx="1126.53" cy="1259.87" r="9.12" style="fill: #f8b090"/>
      <circle cx="1126.53" cy="1368.7" r="9.12" style="fill: #3d576e"/>
    </g>
    <g>
      <g>
        <circle cx="370.92" cy="621.87" r="22.95" style="fill: #9dcbc1" onclick="blinkFunc();"/>
        <circle cx="411.84" cy="626.01" r="22.06" style="fill: #9dcbc1"/>
        <circle cx="451.31" cy="636.99" r="21.17" style="fill: #9dcbc1"/>
        <circle cx="488.41" cy="654.15" r="20.27" style="fill: #9dcbc1"/>
        <circle cx="522.19" cy="676.84" r="19.38" style="fill: #9dcbc1"/>
        <circle cx="551.73" cy="704.4" r="18.49" style="fill: #9dcbc1"/>
        <circle cx="576.09" cy="736.19" r="17.59" style="fill: #9dcbc1"/>
        <circle cx="594.34" cy="771.54" r="16.7" style="fill: #9dcbc1"/>
        <circle cx="605.53" cy="809.81" r="15.81" style="fill: #9dcbc1"/>
        <circle cx="608.74" cy="850.29" r="14.91" style="fill: #9dcbc1"/>
        <circle cx="603.3" cy="889.87" r="14.02" style="fill: #9dcbc1"/>
        <circle cx="589.85" cy="927.01" r="13.13" style="fill: #9dcbc1"/>
        <circle cx="569.43" cy="961.1" r="12.24" style="fill: #9dcbc1"/>
        <circle cx="543.06" cy="991.53" r="11.34" style="fill: #9dcbc1"/>
        <circle cx="511.78" cy="1017.7" r="10.45" style="fill: #9dcbc1"/>
        <circle cx="476.6" cy="1039" r="9.56" style="fill: #9dcbc1"/>
        <circle cx="438.57" cy="1054.83" r="8.66" style="fill: #9dcbc1"/>
        <circle cx="398.71" cy="1064.57" r="7.77" style="fill: #9dcbc1"/>
        <circle cx="358.04" cy="1067.62" r="6.88" style="fill: #9dcbc1"/>
      </g>
      <g>
        <circle cx="370.92" cy="689.16" r="22.95" style="fill: #f8b090" onclick="sisterFunc();"/>
        <circle cx="405.78" cy="693.13" r="21.75" style="fill: #f8b090"/>
        <circle cx="438.76" cy="703.71" r="20.54" style="fill: #f8b090"/>
        <circle cx="468.74" cy="720.21" r="19.34" style="fill: #f8b090"/>
        <circle cx="494.63" cy="741.92" r="18.13" style="fill: #f8b090"/>
        <circle cx="515.32" cy="768.17" r="16.93" style="fill: #f8b090"/>
        <circle cx="529.69" cy="798.25" r="15.72" style="fill: #f8b090"/>
        <circle cx="536.66" cy="831.47" r="14.51" style="fill: #f8b090"/>
        <circle cx="535.17" cy="865.68" r="13.31" style="fill: #f8b090"/>
        <circle cx="525.36" cy="897.51" r="12.1" style="fill: #f8b090"/>
        <circle cx="508.4" cy="926.36" r="10.9" style="fill: #f8b090"/>
        <circle cx="485.53" cy="951.51" r="9.69" style="fill: #f8b090"/>
        <circle cx="457.98" cy="972.25" r="8.49" style="fill: #f8b090"/>
        <circle cx="426.97" cy="987.83" r="7.28" style="fill: #f8b090"/>
        <circle cx="393.73" cy="997.55" r="6.08" style="fill: #f8b090"/>
        <circle cx="359.5" cy="1000.67" r="4.87" style="fill: #f8b090"/>
      </g>
      <g>
        <circle cx="370.92" cy="551" r="22.95" style="fill: #3d576e" onclick="lateFunc();"/>
        <circle cx="411.47" cy="554.21" r="22.29" style="fill: #3d576e"/>
        <circle cx="450.9" cy="562.61" r="21.63" style="fill: #3d576e"/>
        <circle cx="488.74" cy="575.83" r="20.98" style="fill: #3d576e"/>
        <circle cx="524.5" cy="593.51" r="20.32" style="fill: #3d576e"/>
        <circle cx="557.73" cy="615.3" r="19.66" style="fill: #3d576e"/>
        <circle cx="587.96" cy="640.82" r="19" style="fill: #3d576e"/>
        <circle cx="614.7" cy="669.72" r="18.34" style="fill: #3d576e"/>
        <circle cx="637.5" cy="701.64" r="17.68" style="fill: #3d576e"/>
        <circle cx="655.88" cy="736.2" r="17.03" style="fill: #3d576e"/>
        <circle cx="669.37" cy="773.06" r="16.37" style="fill: #3d576e"/>
        <circle cx="677.5" cy="811.84" r="15.71" style="fill: #3d576e"/>
        <circle cx="679.8" cy="852.18" r="15.05" style="fill: #3d576e"/>
        <circle cx="675.95" cy="892.05" r="14.39" style="fill: #3d576e"/>
        <circle cx="666.26" cy="930.22" r="13.73" style="fill: #3d576e"/>
        <circle cx="651.24" cy="966.33" r="13.07" style="fill: #3d576e"/>
        <circle cx="631.38" cy="1000.05" r="12.42" style="fill: #3d576e"/>
        <circle cx="607.2" cy="1031.02" r="11.76" style="fill: #3d576e"/>
        <circle cx="579.19" cy="1058.92" r="11.1" style="fill: #3d576e"/>
        <circle cx="547.86" cy="1083.39" r="10.44" style="fill: #3d576e"/>
        <circle cx="513.7" cy="1104.09" r="9.78" style="fill: #3d576e"/>
        <circle cx="477.22" cy="1120.68" r="9.12" style="fill: #3d576e"/>
        <circle cx="438.93" cy="1132.82" r="8.46" style="fill: #3d576e"/>
        <circle cx="399.31" cy="1140.15" r="7.81" style="fill: #3d576e"/>
        <circle cx="358.88" cy="1142.34" r="7.15" style="fill: #3d576e"/>
      </g>
      <g>
        <circle cx="370.92" cy="481.93" r="22.95" style="fill: #954299" onclick="surpriseFunc();"/>
        <circle cx="409.89" cy="484.43" r="22.45" style="fill: #954299"/>
        <circle cx="448.21" cy="490.82" r="21.95" style="fill: #954299"/>
        <circle cx="485.6" cy="500.9" r="21.45" style="fill: #954299"/>
        <circle cx="521.77" cy="514.46" r="20.95" style="fill: #954299"/>
        <circle cx="556.45" cy="531.3" r="20.46" style="fill: #954299"/>
        <circle cx="589.33" cy="551.21" r="19.96" style="fill: #954299"/>
        <circle cx="620.15" cy="573.98" r="19.46" style="fill: #954299"/>
        <circle cx="648.61" cy="599.41" r="18.96" style="fill: #954299"/>
        <circle cx="674.43" cy="627.28" r="18.46" style="fill: #954299"/>
        <circle cx="697.32" cy="657.4" r="17.96" style="fill: #954299"/>
        <circle cx="717" cy="689.55" r="17.46" style="fill: #954299"/>
        <circle cx="733.19" cy="723.52" r="16.96" style="fill: #954299"/>
        <circle cx="745.61" cy="759.12" r="16.46" style="fill: #954299"/>
        <circle cx="753.95" cy="796.13" r="15.96" style="fill: #954299"/>
        <circle cx="757.95" cy="834.35" r="15.46" style="fill: #954299"/>
        <circle cx="757.33" cy="873.22" r="14.96" style="fill: #954299"/>
        <circle cx="752.1" cy="911.11" r="14.47" style="fill: #954299"/>
        <circle cx="742.53" cy="947.7" r="13.97" style="fill: #954299"/>
        <circle cx="728.93" cy="982.78" r="13.47" style="fill: #954299"/>
        <circle cx="711.59" cy="1016.16" r="12.97" style="fill: #954299"/>
        <circle cx="690.81" cy="1047.63" r="12.47" style="fill: #954299"/>
        <circle cx="666.89" cy="1077" r="11.97" style="fill: #954299"/>
        <circle cx="640.11" cy="1104.07" r="11.47" style="fill: #954299"/>
        <circle cx="610.78" cy="1128.65" r="10.97" style="fill: #954299"/>
        <circle cx="579.2" cy="1150.52" r="10.47" style="fill: #954299"/>
        <circle cx="545.65" cy="1169.51" r="9.97" style="fill: #954299"/>
        <circle cx="510.44" cy="1185.4" r="9.47" style="fill: #954299"/>
        <circle cx="473.86" cy="1197.99" r="8.97" style="fill: #954299"/>
        <circle cx="436.21" cy="1207.1" r="8.47" style="fill: #954299"/>
        <circle cx="397.79" cy="1212.52" r="7.98" style="fill: #954299"/>
        <circle cx="358.89" cy="1214.05" r="7.48" style="fill: #954299"/>
      </g>
      <g>
        <circle cx="370.92" cy="404.26" r="22.95" style="fill: #e3c867" onclick="emberessedFunc();"/>
        <circle cx="406.77" cy="406.1" r="22.58" style="fill: #e3c867"/>
        <circle cx="442.29" cy="410.67" r="22.21" style="fill: #e3c867"/>
        <circle cx="477.31" cy="417.88" r="21.84" style="fill: #e3c867"/>
        <circle cx="511.69" cy="427.6" r="21.47" style="fill: #e3c867"/>
        <circle cx="545.27" cy="439.73" r="21.09" style="fill: #e3c867"/>
        <circle cx="577.89" cy="454.16" r="20.72" style="fill: #e3c867"/>
        <circle cx="609.4" cy="470.78" r="20.35" style="fill: #e3c867"/>
        <circle cx="639.63" cy="489.49" r="19.98" style="fill: #e3c867"/>
        <circle cx="668.44" cy="510.18" r="19.61" style="fill: #e3c867"/>
        <circle cx="695.67" cy="532.73" r="19.23" style="fill: #e3c867"/>
        <circle cx="721.15" cy="557.05" r="18.86" style="fill: #e3c867"/>
        <circle cx="744.75" cy="583.02" r="18.49" style="fill: #e3c867"/>
        <circle cx="766.29" cy="610.53" r="18.12" style="fill: #e3c867"/>
        <circle cx="785.62" cy="639.48" r="17.75" style="fill: #e3c867"/>
        <circle cx="802.6" cy="669.75" r="17.38" style="fill: #e3c867"/>
        <circle cx="817.05" cy="701.25" r="17" style="fill: #e3c867"/>
        <circle cx="828.83" cy="733.85" r="16.63" style="fill: #e3c867"/>
        <circle cx="837.78" cy="767.46" r="16.26" style="fill: #e3c867"/>
        <circle cx="843.74" cy="801.97" r="15.89" style="fill: #e3c867"/>
        <circle cx="846.56" cy="837.26" r="15.52" style="fill: #e3c867"/>
        <circle cx="846.09" cy="873.03" r="15.15" style="fill: #e3c867"/>
        <circle cx="842.34" cy="908.2" r="14.77" style="fill: #e3c867"/>
        <circle cx="835.47" cy="942.5" r="14.4" style="fill: #e3c867"/>
        <circle cx="825.64" cy="975.85" r="14.03" style="fill: #e3c867"/>
        <circle cx="813.01" cy="1008.12" r="13.66" style="fill: #e3c867"/>
        <circle cx="797.73" cy="1039.22" r="13.29" style="fill: #e3c867"/>
        <circle cx="779.96" cy="1069.05" r="12.92" style="fill: #e3c867"/>
        <circle cx="759.87" cy="1097.5" r="12.54" style="fill: #e3c867"/>
        <circle cx="737.61" cy="1124.45" r="12.17" style="fill: #e3c867"/>
        <circle cx="713.34" cy="1149.82" r="11.8" style="fill: #e3c867"/>
        <circle cx="687.23" cy="1173.5" r="11.43" style="fill: #e3c867"/>
        <circle cx="659.42" cy="1195.37" r="11.06" style="fill: #e3c867"/>
        <circle cx="630.08" cy="1215.34" r="10.69" style="fill: #e3c867"/>
        <circle cx="599.37" cy="1233.3" r="10.31" style="fill: #e3c867"/>
        <circle cx="567.45" cy="1249.15" r="9.94" style="fill: #e3c867"/>
        <circle cx="534.48" cy="1262.77" r="9.57" style="fill: #e3c867"/>
        <circle cx="500.61" cy="1274.08" r="9.2" style="fill: #e3c867"/>
        <circle cx="466.01" cy="1282.96" r="8.83" style="fill: #e3c867"/>
        <circle cx="430.83" cy="1289.3" r="8.46" style="fill: #e3c867"/>
        <circle cx="395.24" cy="1293.01" r="8.08" style="fill: #e3c867"/>
        <circle cx="359.38" cy="1293.98" r="7.71" style="fill: #e3c867"/>
      </g>
      <g>
        <circle cx="371.49" cy="325.95" r="23.11" style="fill: #647c6e" onclick="lecturerFunc();"/>
        <circle cx="405.5" cy="327.44" r="22.81" style="fill: #647c6e"/>
        <circle cx="439.31" cy="331.02" r="22.52" style="fill: #647c6e"/>
        <circle cx="472.82" cy="336.64" r="22.22" style="fill: #647c6e"/>
        <circle cx="505.94" cy="344.22" r="21.92" style="fill: #647c6e"/>
        <circle cx="538.56" cy="353.7" r="21.62" style="fill: #647c6e"/>
        <circle cx="570.58" cy="365.01" r="21.33" style="fill: #647c6e"/>
        <circle cx="601.92" cy="378.09" r="21.03" style="fill: #647c6e"/>
        <circle cx="632.47" cy="392.87" r="20.73" style="fill: #647c6e"/>
        <circle cx="662.13" cy="409.29" r="20.44" style="fill: #647c6e"/>
        <circle cx="690.8" cy="427.27" r="20.14" style="fill: #647c6e"/>
        <circle cx="718.39" cy="446.76" r="19.84" style="fill: #647c6e"/>
        <circle cx="744.8" cy="467.68" r="19.54" style="fill: #647c6e"/>
        <circle cx="769.94" cy="489.97" r="19.25" style="fill: #647c6e"/>
        <circle cx="793.69" cy="513.56" r="18.95" style="fill: #647c6e"/>
        <circle cx="815.97" cy="538.39" r="18.65" style="fill: #647c6e"/>
        <circle cx="836.68" cy="564.4" r="18.36" style="fill: #647c6e"/>
        <circle cx="855.72" cy="591.5" r="18.06" style="fill: #647c6e"/>
        <circle cx="872.99" cy="619.65" r="17.76" style="fill: #647c6e"/>
        <circle cx="888.39" cy="648.77" r="17.46" style="fill: #647c6e"/>
        <circle cx="901.82" cy="678.8" r="17.17" style="fill: #647c6e"/>
        <circle cx="913.2" cy="709.66" r="16.87" style="fill: #647c6e"/>
        <circle cx="922.41" cy="741.3" r="16.57" style="fill: #647c6e"/>
        <circle cx="929.37" cy="773.65" r="16.28" style="fill: #647c6e"/>
        <circle cx="933.96" cy="806.64" r="15.98" style="fill: #647c6e"/>
        <circle cx="936.11" cy="840.2" r="15.68" style="fill: #647c6e"/>
        <circle cx="935.7" cy="874.16" r="15.38" style="fill: #647c6e"/>
        <circle cx="932.77" cy="907.68" r="15.09" style="fill: #647c6e"/>
        <circle cx="927.4" cy="940.57" r="14.79" style="fill: #647c6e"/>
        <circle cx="919.69" cy="972.77" r="14.49" style="fill: #647c6e"/>
        <circle cx="909.74" cy="1004.2" r="14.2" style="fill: #647c6e"/>
        <circle cx="897.66" cy="1034.82" r="13.9" style="fill: #647c6e"/>
        <circle cx="883.54" cy="1064.54" r="13.6" style="fill: #647c6e"/>
        <circle cx="867.48" cy="1093.32" r="13.3" style="fill: #647c6e"/>
        <circle cx="849.58" cy="1121.08" r="13.01" style="fill: #647c6e"/>
        <circle cx="829.93" cy="1147.76" r="12.71" style="fill: #647c6e"/>
        <circle cx="808.65" cy="1173.29" r="12.41" style="fill: #647c6e"/>
        <circle cx="785.82" cy="1197.62" r="12.12" style="fill: #647c6e"/>
        <circle cx="761.54" cy="1220.67" r="11.82" style="fill: #647c6e"/>
        <circle cx="735.92" cy="1242.39" r="11.52" style="fill: #647c6e"/>
        <circle cx="709.05" cy="1262.7" r="11.22" style="fill: #647c6e"/>
        <circle cx="681.04" cy="1281.55" r="10.93" style="fill: #647c6e"/>
        <circle cx="651.97" cy="1298.87" r="10.63" style="fill: #647c6e"/>
        <circle cx="621.96" cy="1314.59" r="10.33" style="fill: #647c6e"/>
        <circle cx="591.1" cy="1328.66" r="10.04" style="fill: #647c6e"/>
        <circle cx="559.48" cy="1341" r="9.74" style="fill: #647c6e"/>
        <circle cx="527.21" cy="1351.56" r="9.44" style="fill: #647c6e"/>
        <circle cx="494.39" cy="1360.27" r="9.14" style="fill: #647c6e"/>
        <circle cx="461.12" cy="1367.06" r="8.85" style="fill: #647c6e"/>
        <circle cx="427.49" cy="1371.87" r="8.55" style="fill: #647c6e"/>
        <circle cx="393.6" cy="1374.64" r="8.25" style="fill: #647c6e"/>
        <circle cx="359.56" cy="1375.3" r="7.96" style="fill: #647c6e"/>
      </g>
    </g>
  </g>
  <g id="e49e1fcb-69a5-482c-9325-16e2f9525264" data-name="+">
    <g class="popup" id="sister">
      <rect x="424.6" y="666.21" width="220" height="220" style="fill: #e5e4e3;opacity: 0.85"/>
      <g>
        <path d="M457.7,744l3.57,5.28a.4.4,0,0,1-.09.6l-1.23.87a.4.4,0,0,1-.6-.09l-5.91-8.76c-1.17.84-1.44,2.1-1.44,4.11v4.17a.44.44,0,0,1-.42.45h-1.5a.46.46,0,0,1-.45-.45V746c0-2.55.63-4.56,2.58-5.94l-2.67-3.93a.4.4,0,0,1,.09-.6l1.23-.87a.4.4,0,0,1,.6.09l4.77,7,2.7-6.36a.61.61,0,0,1,.72-.48h1.26a.49.49,0,0,1,.48.72Z" style="fill: #48554e"/>
        <path d="M473.39,743.3l2.85,5.76a1.06,1.06,0,0,1-.93,1.53h-9.45a.46.46,0,0,1-.45-.45v-1.47a.46.46,0,0,1,.45-.45h7.44l-6.87-12.57a.48.48,0,0,1,.45-.72h1.41a.83.83,0,0,1,.9.51l2.91,5.4,2.58-5.43c.21-.42.36-.48.72-.48h1.38c.45,0,.69.33.48.72Z" style="fill: #48554e"/>
        <path d="M486.86,744.44a.45.45,0,0,1-.66,0l-1-.9a.43.43,0,0,1,0-.6c1.86-1.95,1.83-2.64,1.83-5.4a.19.19,0,0,0-.21-.21h-4.5a.46.46,0,0,1-.45-.45v-1.5a.44.44,0,0,1,.45-.42h5.49a1.54,1.54,0,0,1,1.59,1.5v1.86A7.49,7.49,0,0,1,486.86,744.44Z" style="fill: #48554e"/>
        <path d="M496.19,734.93c.33,0,.51.12.51.45l.18,6.36c1.86-.33,2.49-1.2,2.49-4v-2.25c0-.33.15-.51.48-.51h1.2a.48.48,0,0,1,.54.51l-.06,2.4c-.09,4-1.11,4.95-4.62,5.73l.15,4.89c5.67-.66,7.14-4,7.14-11v-2c0-.33.15-.51.48-.51h1.38a.48.48,0,0,1,.54.51l-.06,2C506.33,745,505,750.2,496,750.8a.91.91,0,0,1-1.08-.9l-.48-14.46c0-.33.15-.51.48-.51Z" style="fill: #48554e"/>
        <path d="M531.86,737.3h-2.25v12.84a.46.46,0,0,1-.45.45h-1.47a.44.44,0,0,1-.45-.45V737.3h-6.18a.46.46,0,0,1-.45-.45v-1.5a.44.44,0,0,1,.45-.42h10.8a.44.44,0,0,1,.45.42v1.5A.46.46,0,0,1,531.86,737.3Z" style="fill: #48554e"/>
        <path d="M537.77,735.5a.56.56,0,0,1,.54-.57h8a2.92,2.92,0,0,1,2.94,2.91v12.3a.46.46,0,0,1-.45.45h-1.5a.44.44,0,0,1-.42-.45V737.75a.45.45,0,0,0-.48-.45h-6.27v12.84a.46.46,0,0,1-.45.45h-1.47a.46.46,0,0,1-.45-.45Z" style="fill: #48554e"/>
        <path d="M562.67,744l3.57,5.28a.4.4,0,0,1-.09.6l-1.23.87a.4.4,0,0,1-.6-.09l-5.91-8.76c-1.17.84-1.44,2.1-1.44,4.11v4.17a.44.44,0,0,1-.42.45h-1.5a.46.46,0,0,1-.45-.45V746c0-2.55.63-4.56,2.58-5.94l-2.67-3.93a.4.4,0,0,1,.09-.6l1.23-.87a.4.4,0,0,1,.6.09l4.77,7,2.7-6.36a.61.61,0,0,1,.72-.48h1.26a.49.49,0,0,1,.48.72Z" style="fill: #48554e"/>
        <path d="M581.87,750.59H580.4a.46.46,0,0,1-.45-.45V739.31a2,2,0,0,0-2-2h-6.48a.46.46,0,0,1-.45-.45v-1.5a.44.44,0,0,1,.45-.42h6.48a4.39,4.39,0,0,1,4.41,4.38v10.83A.46.46,0,0,1,581.87,750.59Zm-8.4-5.49v5a.44.44,0,0,1-.42.45h-1.5a.46.46,0,0,1-.45-.45V745c0-.72.3-3.6.3-3.6a.4.4,0,0,1,.48-.39l1.47.15a.4.4,0,0,1,.39.48S573.47,744.44,573.47,745.1Z" style="fill: #48554e"/>
        <path d="M515.63,778a.45.45,0,0,1-.66,0l-1-.9a.43.43,0,0,1,0-.6c1.86-2,1.83-2.64,1.83-5.4a.19.19,0,0,0-.21-.21h-4.5a.46.46,0,0,1-.45-.45V769a.44.44,0,0,1,.45-.42h5.49a1.54,1.54,0,0,1,1.59,1.5v1.86A7.49,7.49,0,0,1,515.63,778Z" style="fill: #48554e"/>
        <path d="M534.11,784.19h-1.5a.46.46,0,0,1-.45-.45V772.91a2,2,0,0,0-2-2h-2.34a7.38,7.38,0,0,0-2.25,5.49,9.76,9.76,0,0,0,2.07,5.88v1.23a.7.7,0,0,1-.69.69h-3.72a.46.46,0,0,1-.45-.45v-1.2a.46.46,0,0,1,.45-.45h2a8.73,8.73,0,0,1-1.92-5.55,7.61,7.61,0,0,1,2.19-5.64h-2.1a.44.44,0,0,1-.42-.45V769a.41.41,0,0,1,.42-.42h6.78a4.37,4.37,0,0,1,4.38,4.38v10.83A.44.44,0,0,1,534.11,784.19Z" style="fill: #48554e"/>
        <path d="M544.73,784.19h-1.47a.44.44,0,0,1-.45-.45V771.26c0-.06,0-.09-.09-.12l-3.45-.87a.43.43,0,0,1-.3-.54l.36-1.38a.44.44,0,0,1,.57-.33l4.29,1.11a1.15,1.15,0,0,1,1,1.29v13.32A.46.46,0,0,1,544.73,784.19Z" style="fill: #48554e"/>
        <path d="M550.94,769.1a.56.56,0,0,1,.54-.57h8a2.92,2.92,0,0,1,2.94,2.91v12.3a.46.46,0,0,1-.45.45h-1.5a.44.44,0,0,1-.42-.45V771.35a.45.45,0,0,0-.48-.45h-6.27v12.84a.46.46,0,0,1-.45.45h-1.47a.46.46,0,0,1-.45-.45Z" style="fill: #48554e"/>
        <path d="M575.84,777.56l3.57,5.28a.4.4,0,0,1-.09.6l-1.23.87a.4.4,0,0,1-.6-.09l-5.91-8.76c-1.17.84-1.44,2.1-1.44,4.11v4.17a.44.44,0,0,1-.42.45h-1.5a.46.46,0,0,1-.45-.45v-4.17c0-2.55.63-4.56,2.58-5.94l-2.67-3.93a.4.4,0,0,1,.09-.6l1.23-.87a.4.4,0,0,1,.6.09l4.77,7,2.7-6.36a.61.61,0,0,1,.72-.48h1.26a.49.49,0,0,1,.48.72Z" style="fill: #48554e"/>
        <path d="M595.13,770.81l-1.41-.66a.41.41,0,0,1-.21-.57l.66-1.41a.4.4,0,0,1,.57-.18l1.17.54h7.71a2.09,2.09,0,0,1,2.1,2.1v11.88a1.68,1.68,0,0,1-1.68,1.68h-8.37a.56.56,0,0,1-.54-.57Zm8.22.27c0-.12-.06-.18-.21-.18h-5.7v10.92h5.7c.15,0,.21-.06.21-.21Z" style="fill: #48554e"/>
        <path d="M619.85,778.07c-.66,3.3-1.38,4.2-4.44,5.85l-4.17,2.25a.35.35,0,0,1-.51-.15L610,784.7a.39.39,0,0,1,.18-.57l4.44-2.34-4.2-12.54a.51.51,0,0,1,.54-.69h1.35a.56.56,0,0,1,.57.42l3.63,11.64a2.52,2.52,0,0,0,.84-1.74l1.8-9.93a.47.47,0,0,1,.51-.42h1.53a.39.39,0,0,1,.42.48Z" style="fill: #48554e"/>
        <path d="M521.84,849.86l-.93.9a.44.44,0,0,1-.63,0l-5.55-5.52a1.61,1.61,0,0,1,0-2.28l5.55-5.55a.44.44,0,0,1,.63,0l.9.9a.4.4,0,0,1,0,.6l-5.1,5.13,5.16,5.16A.44.44,0,0,1,521.84,849.86Z" style="fill: #48554e"/>
        <path d="M547.4,851.39h-1.5a.44.44,0,0,1-.42-.45V840.11a2,2,0,0,0-2-2H537a.46.46,0,0,1-.45-.45v-1.5a.44.44,0,0,1,.45-.42h6.42a4.39,4.39,0,0,1,4.41,4.38v10.83A.46.46,0,0,1,547.4,851.39Z" style="fill: #48554e"/>
        <path d="M558.05,851.39h-1.47a.44.44,0,0,1-.45-.45V838.46c0-.06,0-.09-.09-.12l-3.45-.87a.43.43,0,0,1-.3-.54l.36-1.38a.44.44,0,0,1,.57-.33l4.29,1.11a1.15,1.15,0,0,1,1,1.29v13.32A.46.46,0,0,1,558.05,851.39Z" style="fill: #48554e"/>
        <path d="M564.53,842.09a8.11,8.11,0,0,1,.75-4l-1.65-.78a.44.44,0,0,1-.21-.57l.66-1.41a.43.43,0,0,1,.57-.18l1.14.54H573a2.09,2.09,0,0,1,2.1,2.1v11.88a1.68,1.68,0,0,1-1.68,1.68h-9.24a.46.46,0,0,1-.45-.45v-1.47a.46.46,0,0,1,.45-.45h8.34c.15,0,.21-.06.21-.21V838.28c0-.12-.09-.18-.21-.18h-4.8a6.06,6.06,0,0,0-.84,3.63v1H569a.41.41,0,0,1,.42.42v1.41a.44.44,0,0,1-.42.45h-3.57a.84.84,0,0,1-.93-1Z" style="fill: #48554e"/>
        <path d="M585,845.24a.45.45,0,0,1-.66,0l-1-.9a.43.43,0,0,1,0-.6c1.86-2,1.83-2.64,1.83-5.4a.19.19,0,0,0-.21-.21h-4.5a.46.46,0,0,1-.45-.45v-1.5a.44.44,0,0,1,.45-.42H586a1.54,1.54,0,0,1,1.59,1.5v1.86A7.49,7.49,0,0,1,585,845.24Z" style="fill: #48554e"/>
        <path d="M605.24,840.32c0,6.24-2.43,10.65-9.66,11.34a.9.9,0,0,1-1.08-1L593.9,838l-1.47-.66a.44.44,0,0,1-.21-.57l.66-1.41a.4.4,0,0,1,.57-.18l1.23.54h8.43a2.11,2.11,0,0,1,2.13,2.1Zm-2.37-2c0-.12-.09-.18-.24-.18h-6.39l.51,11c4.77-1,6.12-4.29,6.12-8.49Z" style="fill: #48554e"/>
        <path d="M615.8,851.54a.42.42,0,0,1-.57.24l-1.56-.54a.45.45,0,0,1-.24-.63l5-12.24c.06-.15,0-.27-.15-.27h-8a.46.46,0,0,1-.45-.45v-7.23a.46.46,0,0,1,.45-.45h1.47a.46.46,0,0,1,.45.45v5.31h7.44a1.57,1.57,0,0,1,.63.12,1.63,1.63,0,0,1,.81,2.07Z" style="fill: #48554e"/>
        <path d="M511.25,855.05v-.72h112v.72Z" style="fill: #48554e"/>
      </g>
      <g>
        <line x1="445.32" y1="686.12" x2="459.28" y2="700.08" style="fill: none;stroke: #48554e;stroke-miterlimit: 10;stroke-width: 1.92px"/>
        <line x1="459.28" y1="686.12" x2="445.32" y2="700.08" style="fill: none;stroke: #48554e;stroke-miterlimit: 10;stroke-width: 1.92px"/>
      </g>
      <circle cx="614.18" cy="739.42" r="9.12" style="fill: #f8b090"/>
    </g>
    <g class="popup" id="lecturer">
      <rect x="424.6" y="302.84" width="220" height="220" style="fill: #e5e4e3;opacity: 0.85"/>
      <g>
        <path d="M507.08,387.37a.42.42,0,0,1-.57.24l-1.56-.54a.45.45,0,0,1-.24-.63l5-12.24c.06-.15,0-.27-.15-.27h-8a.46.46,0,0,1-.45-.45v-7.23a.46.46,0,0,1,.45-.45H503a.46.46,0,0,1,.45.45v5.31h7.44a1.57,1.57,0,0,1,.63.12,1.63,1.63,0,0,1,.81,2.07Z" style="fill: #48554e"/>
        <path d="M519.05,371.56c.33,0,.51.12.51.45l.18,6.36c1.86-.33,2.49-1.2,2.49-4.05v-2.25c0-.33.15-.51.48-.51h1.2a.48.48,0,0,1,.54.51l-.06,2.4c-.09,4-1.11,4.95-4.62,5.73l.15,4.89c5.67-.66,7.14-4,7.14-11v-2c0-.33.15-.51.48-.51h1.38a.48.48,0,0,1,.54.51l-.06,2c-.21,7.5-1.56,12.75-10.53,13.35a.91.91,0,0,1-1.08-.9l-.48-14.46c0-.33.15-.51.48-.51Z" style="fill: #48554e"/>
        <path d="M549.41,390.76h-1.47a.44.44,0,0,1-.45-.45v-16c0-.06,0-.09-.09-.12L544,373.3a.43.43,0,0,1-.3-.54l.36-1.38a.42.42,0,0,1,.57-.33l4.29,1.11a1.25,1.25,0,0,1,1,1.38v16.77A.46.46,0,0,1,549.41,390.76Z" style="fill: #48554e"/>
        <path d="M565.67,387.22h-10.8a.46.46,0,0,1-.45-.45V385.3a.44.44,0,0,1,.45-.45h6.93v-8.91a2,2,0,0,0-2-2h-4a.46.46,0,0,1-.45-.45V372a.44.44,0,0,1,.45-.42h4a4.37,4.37,0,0,1,4.38,4.38v8.91h1.5a.44.44,0,0,1,.45.45v1.47A.46.46,0,0,1,565.67,387.22Z" style="fill: #48554e"/>
        <path d="M581.87,387.22H580.4a.46.46,0,0,1-.45-.45V375.94a2,2,0,0,0-2-2h-6.48a.46.46,0,0,1-.45-.45V372a.44.44,0,0,1,.45-.42h6.48a4.39,4.39,0,0,1,4.41,4.38v10.83A.46.46,0,0,1,581.87,387.22Zm-8.4-5.49v5a.44.44,0,0,1-.42.45h-1.5a.46.46,0,0,1-.45-.45v-5.1c0-.72.3-3.6.3-3.6a.4.4,0,0,1,.48-.39l1.47.15a.4.4,0,0,1,.39.48S573.47,381.07,573.47,381.73Z" style="fill: #48554e"/>
        <path d="M555.32,420.82h-1.47a.46.46,0,0,1-.45-.45V409.54a2,2,0,0,0-2-2h-6.48a.46.46,0,0,1-.45-.45v-1.5a.44.44,0,0,1,.45-.42h6.48a4.39,4.39,0,0,1,4.41,4.38v10.83A.46.46,0,0,1,555.32,420.82Zm-8.4-5.49v5a.44.44,0,0,1-.42.45H545a.46.46,0,0,1-.45-.45v-5.1c0-.72.3-3.6.3-3.6a.4.4,0,0,1,.48-.39l1.47.15a.4.4,0,0,1,.39.48S546.92,414.67,546.92,415.33Z" style="fill: #48554e"/>
        <path d="M568.31,413.53l2.85,5.76a1.06,1.06,0,0,1-.93,1.53h-9.45a.46.46,0,0,1-.45-.45V418.9a.46.46,0,0,1,.45-.45h7.44l-6.87-12.57a.48.48,0,0,1,.45-.72h1.41a.83.83,0,0,1,.9.51l2.91,5.4,2.58-5.43c.21-.42.36-.48.72-.48h1.38c.45,0,.69.33.48.72Z" style="fill: #48554e"/>
        <path d="M587.36,420.82h-1.5a.44.44,0,0,1-.42-.45V409.54a2,2,0,0,0-2-2H577a.46.46,0,0,1-.45-.45v-1.5a.44.44,0,0,1,.45-.42h6.42a4.39,4.39,0,0,1,4.41,4.38v10.83A.46.46,0,0,1,587.36,420.82Z" style="fill: #48554e"/>
        <path d="M592.85,406.3a.43.43,0,0,1,0-.66l1-1a.41.41,0,0,1,.63,0l1.53,1.44c5.4-2,7.65-.57,7.83,2l.72,11.16a1.42,1.42,0,0,1-1.41,1.59h-4.41a.46.46,0,0,1-.45-.45V418.9a.46.46,0,0,1,.45-.45h3.21a.19.19,0,0,0,.21-.21l-.57-9.66c-.09-1.44-1.11-1.86-5.07-.42l-1.38,12.21a.48.48,0,0,1-.54.45h-1.35a.42.42,0,0,1-.45-.51l1.44-12.78Z" style="fill: #48554e"/>
        <path d="M620.27,420.82H618.8a.46.46,0,0,1-.45-.45V409.54a2,2,0,0,0-2-2h-6.48a.46.46,0,0,1-.45-.45v-1.5a.44.44,0,0,1,.45-.42h6.48a4.39,4.39,0,0,1,4.41,4.38v10.83A.46.46,0,0,1,620.27,420.82Zm-8.4-5.49v5a.44.44,0,0,1-.42.45H610a.46.46,0,0,1-.45-.45v-5.1c0-.72.3-3.6.3-3.6a.4.4,0,0,1,.48-.39l1.47.15a.4.4,0,0,1,.39.48S611.87,414.67,611.87,415.33Z" style="fill: #48554e"/>
        <path d="M521.84,486.49l-.93.9a.44.44,0,0,1-.63,0l-5.55-5.52a1.61,1.61,0,0,1,0-2.28l5.55-5.55a.44.44,0,0,1,.63,0l.9.9a.4.4,0,0,1,0,.6l-5.1,5.13,5.16,5.16A.43.43,0,0,1,521.84,486.49Z" style="fill: #48554e"/>
        <path d="M547.4,488h-1.5a.44.44,0,0,1-.42-.45V476.74a2,2,0,0,0-2-2H537a.46.46,0,0,1-.45-.45v-1.5a.44.44,0,0,1,.45-.42h6.42a4.39,4.39,0,0,1,4.41,4.38v10.83A.46.46,0,0,1,547.4,488Z" style="fill: #48554e"/>
        <path d="M558.05,488h-1.47a.44.44,0,0,1-.45-.45V475.09c0-.06,0-.09-.09-.12l-3.45-.87a.43.43,0,0,1-.3-.54l.36-1.38a.44.44,0,0,1,.57-.33l4.29,1.11a1.15,1.15,0,0,1,1,1.29v13.32A.46.46,0,0,1,558.05,488Z" style="fill: #48554e"/>
        <path d="M564.53,478.72a8.11,8.11,0,0,1,.75-4l-1.65-.78a.44.44,0,0,1-.21-.57l.66-1.41a.43.43,0,0,1,.57-.18l1.14.54H573a2.09,2.09,0,0,1,2.1,2.1v11.88a1.68,1.68,0,0,1-1.68,1.68h-9.24a.46.46,0,0,1-.45-.45V486.1a.46.46,0,0,1,.45-.45h8.34c.15,0,.21-.06.21-.21V474.91c0-.12-.09-.18-.21-.18h-4.8a6.06,6.06,0,0,0-.84,3.63v1H569a.41.41,0,0,1,.42.42v1.41a.44.44,0,0,1-.42.45h-3.57a.84.84,0,0,1-.93-1Z" style="fill: #48554e"/>
        <path d="M585,481.87a.45.45,0,0,1-.66,0l-1-.9a.43.43,0,0,1,0-.6c1.86-1.95,1.83-2.64,1.83-5.4a.19.19,0,0,0-.21-.21h-4.5a.46.46,0,0,1-.45-.45v-1.5a.44.44,0,0,1,.45-.42H586a1.54,1.54,0,0,1,1.59,1.5v1.86A7.49,7.49,0,0,1,585,481.87Z" style="fill: #48554e"/>
        <path d="M605.24,477c0,6.24-2.43,10.65-9.66,11.34a.9.9,0,0,1-1.08-1l-.6-12.69-1.47-.66a.44.44,0,0,1-.21-.57l.66-1.41a.4.4,0,0,1,.57-.18l1.23.54h8.43a2.11,2.11,0,0,1,2.13,2.1Zm-2.37-2c0-.12-.09-.18-.24-.18h-6.39l.51,11c4.77-1,6.12-4.29,6.12-8.49Z" style="fill: #48554e"/>
        <path d="M615.8,488.17a.42.42,0,0,1-.57.24l-1.56-.54a.45.45,0,0,1-.24-.63l5-12.24c.06-.15,0-.27-.15-.27h-8a.46.46,0,0,1-.45-.45v-7.23a.46.46,0,0,1,.45-.45h1.47a.46.46,0,0,1,.45.45v5.31h7.44a1.57,1.57,0,0,1,.63.12,1.63,1.63,0,0,1,.81,2.07Z" style="fill: #48554e"/>
        <path d="M511.25,491.68V491h112v.72Z" style="fill: #48554e"/>
      </g>
      <g>
        <line x1="445.32" y1="322.75" x2="459.28" y2="336.71" style="fill: none;stroke: #48554e;stroke-miterlimit: 10;stroke-width: 1.92px"/>
        <line x1="459.28" y1="322.75" x2="445.32" y2="336.71" style="fill: none;stroke: #48554e;stroke-miterlimit: 10;stroke-width: 1.92px"/>
      </g>
      <circle cx="614.18" cy="376.06" r="9.12" style="fill: #647c6e"/>
    </g>
    <g class="popup" id="blink">
      <rect x="424.6" y="593.54" width="220" height="220" style="fill: #e5e4e3;opacity: 0.85"/>
      <g>
        <path d="M470.21,671.24l3.57,5.28a.4.4,0,0,1-.09.6l-1.23.87a.4.4,0,0,1-.6-.09L466,669.14c-1.17.84-1.44,2.1-1.44,4.11v4.17a.44.44,0,0,1-.42.45h-1.5a.46.46,0,0,1-.45-.45v-4.17c0-2.55.63-4.56,2.58-5.94l-2.67-3.93a.4.4,0,0,1,.09-.6l1.23-.86a.4.4,0,0,1,.6.08l4.77,7,2.7-6.36a.62.62,0,0,1,.72-.48h1.26a.49.49,0,0,1,.48.72Z" style="fill: #48554e"/>
        <path d="M484.22,678a.42.42,0,0,1-.57.24l-1.56-.54a.45.45,0,0,1-.24-.63l5-12.24c.06-.15,0-.27-.15-.27h-8a.45.45,0,0,1-.45-.45v-7.22a.46.46,0,0,1,.45-.45h1.47a.46.46,0,0,1,.45.45v5.3H488a1.76,1.76,0,0,1,.63.12,1.63,1.63,0,0,1,.81,2.07Z" style="fill: #48554e"/>
        <path d="M496.19,662.21c.33,0,.51.12.51.46l.18,6.35c1.86-.33,2.49-1.2,2.49-4v-2.25c0-.33.15-.51.48-.51h1.2a.48.48,0,0,1,.54.51l-.06,2.41c-.09,4-1.11,4.94-4.62,5.72l.15,4.89c5.67-.66,7.14-4,7.14-11v-2c0-.33.15-.51.48-.51h1.38a.48.48,0,0,1,.54.51l-.06,2c-.21,7.5-1.56,12.75-10.53,13.35a.91.91,0,0,1-1.08-.9l-.48-14.46c0-.33.15-.51.48-.51Z" style="fill: #48554e"/>
        <path d="M531.86,664.58h-2.25v12.84a.46.46,0,0,1-.45.45h-1.47a.44.44,0,0,1-.45-.45V664.58h-6.18a.45.45,0,0,1-.45-.45v-1.5a.44.44,0,0,1,.45-.42h10.8a.44.44,0,0,1,.45.42v1.5A.45.45,0,0,1,531.86,664.58Z" style="fill: #48554e"/>
        <path d="M537.77,662.78a.56.56,0,0,1,.54-.57h8a2.92,2.92,0,0,1,2.94,2.92v12.29a.46.46,0,0,1-.45.45h-1.5a.44.44,0,0,1-.42-.45V665a.45.45,0,0,0-.48-.45h-6.27v12.84a.46.46,0,0,1-.45.45h-1.47a.46.46,0,0,1-.45-.45Z" style="fill: #48554e"/>
        <path d="M562.67,671.24l3.57,5.28a.4.4,0,0,1-.09.6l-1.23.87a.4.4,0,0,1-.6-.09l-5.91-8.76c-1.17.84-1.44,2.1-1.44,4.11v4.17a.44.44,0,0,1-.42.45h-1.5a.46.46,0,0,1-.45-.45v-4.17c0-2.55.63-4.56,2.58-5.94l-2.67-3.93a.4.4,0,0,1,.09-.6l1.23-.86a.4.4,0,0,1,.6.08l4.77,7,2.7-6.36a.62.62,0,0,1,.72-.48h1.26a.49.49,0,0,1,.48.72Z" style="fill: #48554e"/>
        <path d="M581.87,677.87H580.4a.46.46,0,0,1-.45-.45V666.59a2,2,0,0,0-2-2h-6.48a.45.45,0,0,1-.45-.45v-1.5a.44.44,0,0,1,.45-.42h6.48a4.4,4.4,0,0,1,4.41,4.38v10.83A.46.46,0,0,1,581.87,677.87Zm-8.4-5.49v5a.44.44,0,0,1-.42.45h-1.5a.46.46,0,0,1-.45-.45v-5.1c0-.72.3-3.6.3-3.6a.4.4,0,0,1,.48-.39l1.47.15a.4.4,0,0,1,.39.48S573.47,671.72,573.47,672.38Z" style="fill: #48554e"/>
        <path d="M565.91,706v8.58a.41.41,0,0,1-.42.42H564a.44.44,0,0,1-.45-.42v-8l-3-10.08c-.12-.42.09-.69.45-.69h1.38a.69.69,0,0,1,.78.54l1.8,7.14,4.56-7.23a.75.75,0,0,1,.78-.45h1.5a.45.45,0,0,1,.42.72Z" style="fill: #48554e"/>
        <path d="M576.59,697a.43.43,0,0,1,0-.66l1-1a.41.41,0,0,1,.63,0l1.53,1.44c5.4-2,7.65-.57,7.83,2l.72,11.16a1.42,1.42,0,0,1-1.41,1.59h-4.41A.46.46,0,0,1,582,711v-1.47a.46.46,0,0,1,.45-.45h3.21a.19.19,0,0,0,.21-.21l-.57-9.66c-.09-1.44-1.11-1.86-5.07-.42L578.81,711a.48.48,0,0,1-.54.45h-1.35a.42.42,0,0,1-.45-.51l1.44-12.78Z" style="fill: #48554e"/>
        <path d="M600.5,704.18l2.85,5.76a1.06,1.06,0,0,1-.93,1.53H593a.46.46,0,0,1-.45-.45v-1.47a.46.46,0,0,1,.45-.45h7.44l-6.87-12.57a.48.48,0,0,1,.45-.72h1.41a.83.83,0,0,1,.9.51l2.91,5.4,2.58-5.43c.21-.42.36-.48.72-.48h1.38c.45,0,.69.33.48.72Z" style="fill: #48554e"/>
        <path d="M609.35,697a.43.43,0,0,1,0-.66l1-1a.41.41,0,0,1,.63,0l1.53,1.44c5.4-2,7.65-.57,7.83,2l.72,11.16a1.42,1.42,0,0,1-1.41,1.59h-4.41a.46.46,0,0,1-.45-.45v-1.47a.46.46,0,0,1,.45-.45h3.21a.19.19,0,0,0,.21-.21l-.57-9.66c-.09-1.44-1.11-1.86-5.07-.42L611.57,711a.48.48,0,0,1-.54.45h-1.35a.42.42,0,0,1-.45-.51l1.44-12.78Z" style="fill: #48554e"/>
        <path d="M521.84,777.14l-.93.9a.44.44,0,0,1-.63,0l-5.55-5.52a1.61,1.61,0,0,1,0-2.28l5.55-5.55a.44.44,0,0,1,.63,0l.9.9a.4.4,0,0,1,0,.6l-5.1,5.13,5.16,5.16A.43.43,0,0,1,521.84,777.14Z" style="fill: #48554e"/>
        <path d="M547.4,778.67h-1.5a.44.44,0,0,1-.42-.45V767.39a2,2,0,0,0-2-2H537a.46.46,0,0,1-.45-.45v-1.5A.44.44,0,0,1,537,763h6.42a4.39,4.39,0,0,1,4.41,4.38v10.83A.46.46,0,0,1,547.4,778.67Z" style="fill: #48554e"/>
        <path d="M558.05,778.67h-1.47a.44.44,0,0,1-.45-.45V765.74c0-.06,0-.09-.09-.12l-3.45-.87a.43.43,0,0,1-.3-.54l.36-1.38a.44.44,0,0,1,.57-.33l4.29,1.11a1.15,1.15,0,0,1,1,1.29v13.32A.46.46,0,0,1,558.05,778.67Z" style="fill: #48554e"/>
        <path d="M564.53,769.37a8.11,8.11,0,0,1,.75-4l-1.65-.78a.44.44,0,0,1-.21-.57l.66-1.41a.43.43,0,0,1,.57-.18l1.14.54H573a2.09,2.09,0,0,1,2.1,2.1V777a1.68,1.68,0,0,1-1.68,1.68h-9.24a.46.46,0,0,1-.45-.45v-1.47a.46.46,0,0,1,.45-.45h8.34c.15,0,.21-.06.21-.21V765.56c0-.12-.09-.18-.21-.18h-4.8a6.06,6.06,0,0,0-.84,3.63v1H569a.41.41,0,0,1,.42.42v1.41a.44.44,0,0,1-.42.45h-3.57a.84.84,0,0,1-.93-1Z" style="fill: #48554e"/>
        <path d="M585,772.52a.45.45,0,0,1-.66,0l-1-.9a.43.43,0,0,1,0-.6c1.86-2,1.83-2.64,1.83-5.4a.19.19,0,0,0-.21-.21h-4.5a.46.46,0,0,1-.45-.45v-1.5a.44.44,0,0,1,.45-.42H586a1.54,1.54,0,0,1,1.59,1.5v1.86A7.49,7.49,0,0,1,585,772.52Z" style="fill: #48554e"/>
        <path d="M605.24,767.6c0,6.24-2.43,10.65-9.66,11.34a.9.9,0,0,1-1.08-1l-.6-12.69-1.47-.66a.44.44,0,0,1-.21-.57l.66-1.41a.4.4,0,0,1,.57-.18l1.23.54h8.43a2.11,2.11,0,0,1,2.13,2.1Zm-2.37-2c0-.12-.09-.18-.24-.18h-6.39l.51,11c4.77-1,6.12-4.29,6.12-8.49Z" style="fill: #48554e"/>
        <path d="M615.8,778.82a.42.42,0,0,1-.57.24l-1.56-.54a.45.45,0,0,1-.24-.63l5-12.24c.06-.15,0-.27-.15-.27h-8a.46.46,0,0,1-.45-.45v-7.22a.46.46,0,0,1,.45-.46h1.47a.46.46,0,0,1,.45.46V763h7.44a1.57,1.57,0,0,1,.63.12,1.63,1.63,0,0,1,.81,2.07Z" style="fill: #48554e"/>
        <path d="M511.25,782.33v-.72h112v.72Z" style="fill: #48554e"/>
      </g>
      <g>
        <line x1="445.32" y1="613.44" x2="459.29" y2="627.4" style="fill: none;stroke: #48554e;stroke-miterlimit: 10;stroke-width: 1.92px"/>
        <line x1="459.29" y1="613.44" x2="445.32" y2="627.4" style="fill: none;stroke: #48554e;stroke-miterlimit: 10;stroke-width: 1.92px"/>
      </g>
      <circle cx="614.18" cy="666.71" r="9.12" style="fill: #9dcbc1"/>
    </g>
    <g class="popup" id="surprise">
      <rect x="424.6" y="448.19" width="220" height="220" style="fill: #e5e4e3;opacity: 0.85"/>
      <g>
        <path d="M531.86,492h-2.25v12.84a.46.46,0,0,1-.45.45h-1.47a.44.44,0,0,1-.45-.45V492h-6.18a.46.46,0,0,1-.45-.45v-1.5a.44.44,0,0,1,.45-.42h10.8a.44.44,0,0,1,.45.42v1.5A.46.46,0,0,1,531.86,492Z" style="fill: #48554e"/>
        <path d="M537.77,490.22a.56.56,0,0,1,.54-.57h8a2.92,2.92,0,0,1,2.94,2.91v12.3a.46.46,0,0,1-.45.45h-1.5a.44.44,0,0,1-.42-.45V492.47a.45.45,0,0,0-.48-.45h-6.27v12.84a.46.46,0,0,1-.45.45h-1.47a.46.46,0,0,1-.45-.45Z" style="fill: #48554e"/>
        <path d="M562.67,498.68l3.57,5.28a.4.4,0,0,1-.09.6l-1.23.87a.4.4,0,0,1-.6-.09l-5.91-8.76c-1.17.84-1.44,2.1-1.44,4.11v4.17a.44.44,0,0,1-.42.45h-1.5a.46.46,0,0,1-.45-.45v-4.17c0-2.55.63-4.56,2.58-5.94l-2.67-3.93a.4.4,0,0,1,.09-.6l1.23-.87a.4.4,0,0,1,.6.09l4.77,7.05,2.7-6.36a.61.61,0,0,1,.72-.48h1.26a.49.49,0,0,1,.48.72Z" style="fill: #48554e"/>
        <path d="M581.87,505.31H580.4a.46.46,0,0,1-.45-.45V494a2,2,0,0,0-2-2h-6.48a.46.46,0,0,1-.45-.45v-1.5a.44.44,0,0,1,.45-.42h6.48a4.39,4.39,0,0,1,4.41,4.38v10.83A.46.46,0,0,1,581.87,505.31Zm-8.4-5.49v5a.44.44,0,0,1-.42.45h-1.5a.46.46,0,0,1-.45-.45v-5.1c0-.72.3-3.6.3-3.6a.4.4,0,0,1,.48-.39l1.47.15a.4.4,0,0,1,.39.48S573.47,499.16,573.47,499.82Z" style="fill: #48554e"/>
        <path d="M471.38,532.76a.45.45,0,0,1-.66,0l-1-.9a.43.43,0,0,1,0-.6c1.86-2,1.83-2.64,1.83-5.4a.19.19,0,0,0-.21-.21h-4.5a.46.46,0,0,1-.45-.45v-1.5a.44.44,0,0,1,.45-.42h5.49a1.54,1.54,0,0,1,1.59,1.5v1.86A7.49,7.49,0,0,1,471.38,532.76Z" style="fill: #48554e"/>
        <path d="M489.86,538.91h-1.5a.46.46,0,0,1-.45-.45V527.63a2,2,0,0,0-2-2h-2.34a7.38,7.38,0,0,0-2.25,5.49,9.76,9.76,0,0,0,2.07,5.88v1.23a.7.7,0,0,1-.69.69H479a.46.46,0,0,1-.45-.45v-1.2a.46.46,0,0,1,.45-.45h2a8.73,8.73,0,0,1-1.92-5.55,7.61,7.61,0,0,1,2.19-5.64h-2.1a.44.44,0,0,1-.42-.45v-1.5a.41.41,0,0,1,.42-.42h6.78a4.37,4.37,0,0,1,4.38,4.38v10.83A.44.44,0,0,1,489.86,538.91Z" style="fill: #48554e"/>
        <path d="M500.48,538.91H499a.44.44,0,0,1-.45-.45V526c0-.06,0-.09-.09-.12L495,525a.43.43,0,0,1-.3-.54l.36-1.38a.44.44,0,0,1,.57-.33l4.29,1.11a1.15,1.15,0,0,1,1,1.29v13.32A.46.46,0,0,1,500.48,538.91Z" style="fill: #48554e"/>
        <path d="M514,532.28l3.57,5.28a.4.4,0,0,1-.09.6l-1.23.87a.4.4,0,0,1-.6-.09l-5.91-8.76c-1.17.84-1.44,2.1-1.44,4.11v4.17a.44.44,0,0,1-.42.45h-1.5a.46.46,0,0,1-.45-.45v-4.17c0-2.55.63-4.56,2.58-5.94l-2.67-3.93a.4.4,0,0,1,.09-.6l1.23-.87a.4.4,0,0,1,.6.09l4.77,7.05,2.7-6.36a.61.61,0,0,1,.72-.48h1.26a.49.49,0,0,1,.48.72Z" style="fill: #48554e"/>
        <path d="M540.92,532.79c-.66,3.3-1.38,4.2-4.44,5.85l-4.17,2.25a.35.35,0,0,1-.51-.15l-.69-1.32a.39.39,0,0,1,.18-.57l4.44-2.34L531.53,524a.51.51,0,0,1,.54-.69h1.35a.56.56,0,0,1,.57.42l3.63,11.64a2.52,2.52,0,0,0,.84-1.74l1.8-9.93a.47.47,0,0,1,.51-.42h1.53a.39.39,0,0,1,.42.48Z" style="fill: #48554e"/>
        <path d="M551.6,532.76a.45.45,0,0,1-.66,0l-1-.9a.43.43,0,0,1,0-.6c1.86-2,1.83-2.64,1.83-5.4a.19.19,0,0,0-.21-.21h-4.5a.46.46,0,0,1-.45-.45v-1.5a.44.44,0,0,1,.45-.42h5.49a1.54,1.54,0,0,1,1.59,1.5v1.86A7.49,7.49,0,0,1,551.6,532.76Z" style="fill: #48554e"/>
        <path d="M570.08,538.91h-1.5a.46.46,0,0,1-.45-.45V527.63a2,2,0,0,0-2-2h-2.34a7.38,7.38,0,0,0-2.25,5.49A9.76,9.76,0,0,0,563.6,537v1.23a.7.7,0,0,1-.69.69h-3.72a.46.46,0,0,1-.45-.45v-1.2a.46.46,0,0,1,.45-.45h2a8.73,8.73,0,0,1-1.92-5.55,7.61,7.61,0,0,1,2.19-5.64h-2.1a.44.44,0,0,1-.42-.45v-1.5a.41.41,0,0,1,.42-.42h6.78a4.37,4.37,0,0,1,4.38,4.38v10.83A.44.44,0,0,1,570.08,538.91Z" style="fill: #48554e"/>
        <path d="M576.38,529.61a8.11,8.11,0,0,1,.75-4l-1.65-.78a.44.44,0,0,1-.21-.57l.66-1.41a.43.43,0,0,1,.57-.18l1.14.54h7.17a2.09,2.09,0,0,1,2.1,2.1v11.88a1.68,1.68,0,0,1-1.68,1.68H576a.46.46,0,0,1-.45-.45V537a.46.46,0,0,1,.45-.45h8.34c.15,0,.21-.06.21-.21V525.8c0-.12-.09-.18-.21-.18h-4.8a6.06,6.06,0,0,0-.84,3.63v1h2.19a.41.41,0,0,1,.42.42V532a.44.44,0,0,1-.42.45h-3.57a.84.84,0,0,1-.93-1Z" style="fill: #48554e"/>
        <path d="M603.11,538.91h-1.47a.46.46,0,0,1-.45-.45V527.63a2,2,0,0,0-2-2h-6.48a.46.46,0,0,1-.45-.45v-1.5a.44.44,0,0,1,.45-.42h6.48a4.39,4.39,0,0,1,4.41,4.38v10.83A.46.46,0,0,1,603.11,538.91Zm-8.4-5.49v5a.44.44,0,0,1-.42.45h-1.5a.46.46,0,0,1-.45-.45v-5.1c0-.72.3-3.6.3-3.6a.4.4,0,0,1,.48-.39l1.47.15a.4.4,0,0,1,.39.48S594.71,532.76,594.71,533.42Z" style="fill: #48554e"/>
        <path d="M610.61,523.25c.33,0,.51.12.51.45l.18,6.36c1.86-.33,2.49-1.2,2.49-4v-2.25c0-.33.15-.51.48-.51h1.2a.48.48,0,0,1,.54.51l-.06,2.4c-.09,4-1.11,5-4.62,5.73l.15,4.89c5.67-.66,7.14-4,7.14-11v-2c0-.33.15-.51.48-.51h1.38a.48.48,0,0,1,.54.51l-.06,2c-.21,7.5-1.56,12.75-10.53,13.35a.91.91,0,0,1-1.08-.9l-.48-14.46c0-.33.15-.51.48-.51Z" style="fill: #48554e"/>
        <path d="M560.66,572.51h-1.47a.46.46,0,0,1-.45-.45V561.23a2,2,0,0,0-2-2h-6.48a.46.46,0,0,1-.45-.45v-1.5a.44.44,0,0,1,.45-.42h6.48a4.39,4.39,0,0,1,4.41,4.38v10.83A.46.46,0,0,1,560.66,572.51Zm-8.4-5.49v5a.44.44,0,0,1-.42.45h-1.5a.46.46,0,0,1-.45-.45V567c0-.72.3-3.6.3-3.6a.4.4,0,0,1,.48-.39l1.47.15a.4.4,0,0,1,.39.48S552.26,566.36,552.26,567Z" style="fill: #48554e"/>
        <path d="M577.22,572.51h-10.8a.46.46,0,0,1-.45-.45v-1.47a.44.44,0,0,1,.45-.45h6.93v-8.91a2,2,0,0,0-2-2h-4a.46.46,0,0,1-.45-.45v-1.5a.44.44,0,0,1,.45-.42h4a4.37,4.37,0,0,1,4.38,4.38v8.91h1.5a.44.44,0,0,1,.45.45v1.47A.46.46,0,0,1,577.22,572.51Z" style="fill: #48554e"/>
        <path d="M587.72,572.51h-1.47a.44.44,0,0,1-.45-.45V559.58c0-.06,0-.09-.09-.12l-3.45-.87a.43.43,0,0,1-.3-.54l.36-1.38a.44.44,0,0,1,.57-.33l4.29,1.11a1.15,1.15,0,0,1,1,1.29v13.32A.46.46,0,0,1,587.72,572.51Z" style="fill: #48554e"/>
        <path d="M594.53,572.84a.45.45,0,0,1-.48-.45l-.72-15.09a.4.4,0,0,1,.42-.45h1.47a.4.4,0,0,1,.45.42l.6,13.11c4.77-.6,6.6-3.6,6.6-8.64v-2.22c0-.15-.06-.18-.21-.21l-3.39-.45a.38.38,0,0,1-.36-.48l.24-1.47a.41.41,0,0,1,.51-.36l3.9.54a1.71,1.71,0,0,1,1.68,1.89v2.76C605.24,568.7,601.76,572.84,594.53,572.84Z" style="fill: #48554e"/>
        <path d="M615.8,572.66a.42.42,0,0,1-.57.24l-1.56-.54a.45.45,0,0,1-.24-.63l5-12.24c.06-.15,0-.27-.15-.27h-8a.46.46,0,0,1-.45-.45v-7.23a.46.46,0,0,1,.45-.45h1.47a.46.46,0,0,1,.45.45v5.31h7.44a1.57,1.57,0,0,1,.63.12,1.63,1.63,0,0,1,.81,2.07Z" style="fill: #48554e"/>
        <path d="M521.84,638.18l-.93.9a.44.44,0,0,1-.63,0l-5.55-5.52a1.61,1.61,0,0,1,0-2.28l5.55-5.55a.44.44,0,0,1,.63,0l.9.9a.4.4,0,0,1,0,.6l-5.1,5.13,5.16,5.16A.44.44,0,0,1,521.84,638.18Z" style="fill: #48554e"/>
        <path d="M547.4,639.71h-1.5a.44.44,0,0,1-.42-.45V628.43a2,2,0,0,0-2-2H537a.46.46,0,0,1-.45-.45v-1.5a.44.44,0,0,1,.45-.42h6.42a4.39,4.39,0,0,1,4.41,4.38v10.83A.46.46,0,0,1,547.4,639.71Z" style="fill: #48554e"/>
        <path d="M558.05,639.71h-1.47a.44.44,0,0,1-.45-.45V626.78c0-.06,0-.09-.09-.12l-3.45-.87a.43.43,0,0,1-.3-.54l.36-1.38a.44.44,0,0,1,.57-.33l4.29,1.11a1.15,1.15,0,0,1,1,1.29v13.32A.46.46,0,0,1,558.05,639.71Z" style="fill: #48554e"/>
        <path d="M564.53,630.41a8.11,8.11,0,0,1,.75-4l-1.65-.78a.44.44,0,0,1-.21-.57l.66-1.41a.43.43,0,0,1,.57-.18l1.14.54H573a2.09,2.09,0,0,1,2.1,2.1V638a1.68,1.68,0,0,1-1.68,1.68h-9.24a.46.46,0,0,1-.45-.45v-1.47a.46.46,0,0,1,.45-.45h8.34c.15,0,.21-.06.21-.21V626.6c0-.12-.09-.18-.21-.18h-4.8a6.06,6.06,0,0,0-.84,3.63v1H569a.41.41,0,0,1,.42.42v1.41a.44.44,0,0,1-.42.45h-3.57a.84.84,0,0,1-.93-1Z" style="fill: #48554e"/>
        <path d="M585,633.56a.45.45,0,0,1-.66,0l-1-.9a.43.43,0,0,1,0-.6c1.86-1.95,1.83-2.64,1.83-5.4a.19.19,0,0,0-.21-.21h-4.5a.46.46,0,0,1-.45-.45v-1.5a.44.44,0,0,1,.45-.42H586a1.54,1.54,0,0,1,1.59,1.5v1.86A7.49,7.49,0,0,1,585,633.56Z" style="fill: #48554e"/>
        <path d="M605.24,628.64c0,6.24-2.43,10.65-9.66,11.34a.9.9,0,0,1-1.08-1l-.6-12.69-1.47-.66a.44.44,0,0,1-.21-.57l.66-1.41a.4.4,0,0,1,.57-.18l1.23.54h8.43a2.11,2.11,0,0,1,2.13,2.1Zm-2.37-2c0-.12-.09-.18-.24-.18h-6.39l.51,11c4.77-1,6.12-4.29,6.12-8.49Z" style="fill: #48554e"/>
        <path d="M615.8,639.86a.42.42,0,0,1-.57.24l-1.56-.54a.45.45,0,0,1-.24-.63l5-12.24c.06-.15,0-.27-.15-.27h-8a.46.46,0,0,1-.45-.45v-7.23a.46.46,0,0,1,.45-.45h1.47a.46.46,0,0,1,.45.45v5.31h7.44a1.57,1.57,0,0,1,.63.12,1.63,1.63,0,0,1,.81,2.07Z" style="fill: #48554e"/>
        <path d="M511.25,643.37v-.72h112v.72Z" style="fill: #48554e"/>
      </g>
      <g>
        <line x1="445.32" y1="468.09" x2="459.28" y2="482.06" style="fill: none;stroke: #48554e;stroke-miterlimit: 10;stroke-width: 1.92px"/>
        <line x1="459.28" y1="468.09" x2="445.32" y2="482.06" style="fill: none;stroke: #48554e;stroke-miterlimit: 10;stroke-width: 1.92px"/>
      </g>
      <circle cx="614.18" cy="494.14" r="9.12" style="fill: #954299"/>
    </g>
    <g class="popup" id="late">
      <rect x="424.6" y="520.86" width="220" height="220" style="fill: #e5e4e3;opacity: 0.85"/>
      <g>
        <path d="M515.15,605.23h-1.5a.44.44,0,0,1-.42-.45V594a2,2,0,0,0-2-2h-6.42a.46.46,0,0,1-.45-.45V590a.44.44,0,0,1,.45-.42h6.42A4.39,4.39,0,0,1,515.6,594v10.83A.46.46,0,0,1,515.15,605.23Z" style="fill: #48554e"/>
        <path d="M521.21,590.14a.56.56,0,0,1,.54-.57h8a2.92,2.92,0,0,1,2.94,2.91v12.3a.46.46,0,0,1-.45.45h-1.5a.44.44,0,0,1-.42-.45V592.39a.45.45,0,0,0-.48-.45h-6.27v12.84a.46.46,0,0,1-.45.45h-1.47a.46.46,0,0,1-.45-.45Z" style="fill: #48554e"/>
        <path d="M546.11,598.6l3.57,5.28a.4.4,0,0,1-.09.6l-1.23.87a.4.4,0,0,1-.6-.09l-5.91-8.76c-1.17.84-1.44,2.1-1.44,4.11v4.17a.44.44,0,0,1-.42.45h-1.5a.46.46,0,0,1-.45-.45v-4.17c0-2.55.63-4.56,2.58-5.94L538,590.74a.4.4,0,0,1,.09-.6l1.23-.87a.4.4,0,0,1,.6.09l4.77,7,2.7-6.36a.61.61,0,0,1,.72-.48h1.26a.49.49,0,0,1,.48.72Z" style="fill: #48554e"/>
        <path d="M554.45,590.71a.43.43,0,0,1,0-.66l1-1a.41.41,0,0,1,.63,0l1.53,1.44c5.4-2,7.65-.57,7.83,2l.72,11.16a1.42,1.42,0,0,1-1.41,1.59h-4.41a.46.46,0,0,1-.45-.45v-1.47a.46.46,0,0,1,.45-.45h3.21a.19.19,0,0,0,.21-.21l-.57-9.66c-.09-1.44-1.11-1.86-5.07-.42l-1.38,12.21a.48.48,0,0,1-.54.45h-1.35a.42.42,0,0,1-.45-.51l1.44-12.78Z" style="fill: #48554e"/>
        <path d="M581.87,605.23H580.4a.46.46,0,0,1-.45-.45V594a2,2,0,0,0-2-2h-6.48a.46.46,0,0,1-.45-.45V590a.44.44,0,0,1,.45-.42h6.48a4.39,4.39,0,0,1,4.41,4.38v10.83A.46.46,0,0,1,581.87,605.23Zm-8.4-5.49v5a.44.44,0,0,1-.42.45h-1.5a.46.46,0,0,1-.45-.45v-5.1c0-.72.3-3.6.3-3.6a.4.4,0,0,1,.48-.39l1.47.15a.4.4,0,0,1,.39.48S573.47,599.08,573.47,599.74Z" style="fill: #48554e"/>
        <path d="M521.84,704.5l-.93.9a.44.44,0,0,1-.63,0l-5.55-5.52a1.61,1.61,0,0,1,0-2.28l5.55-5.55a.44.44,0,0,1,.63,0l.9.9a.4.4,0,0,1,0,.6l-5.1,5.13,5.16,5.16A.43.43,0,0,1,521.84,704.5Z" style="fill: #48554e"/>
        <path d="M547.4,706h-1.5a.44.44,0,0,1-.42-.45V694.75a2,2,0,0,0-2-2H537a.46.46,0,0,1-.45-.45v-1.5a.44.44,0,0,1,.45-.42h6.42a4.39,4.39,0,0,1,4.41,4.38v10.83A.46.46,0,0,1,547.4,706Z" style="fill: #48554e"/>
        <path d="M558.05,706h-1.47a.44.44,0,0,1-.45-.45V693.1c0-.06,0-.09-.09-.12l-3.45-.87a.43.43,0,0,1-.3-.54l.36-1.38a.44.44,0,0,1,.57-.33l4.29,1.11a1.15,1.15,0,0,1,1,1.29v13.32A.46.46,0,0,1,558.05,706Z" style="fill: #48554e"/>
        <path d="M564.53,696.73a8.11,8.11,0,0,1,.75-4l-1.65-.78a.44.44,0,0,1-.21-.57l.66-1.41a.43.43,0,0,1,.57-.18l1.14.54H573a2.09,2.09,0,0,1,2.1,2.1v11.88a1.68,1.68,0,0,1-1.68,1.68h-9.24a.46.46,0,0,1-.45-.45v-1.47a.46.46,0,0,1,.45-.45h8.34c.15,0,.21-.06.21-.21V692.92c0-.12-.09-.18-.21-.18h-4.8a6.06,6.06,0,0,0-.84,3.63v1H569a.41.41,0,0,1,.42.42v1.41a.44.44,0,0,1-.42.45h-3.57a.84.84,0,0,1-.93-1Z" style="fill: #48554e"/>
        <path d="M585,699.88a.45.45,0,0,1-.66,0l-1-.9a.43.43,0,0,1,0-.6c1.86-2,1.83-2.64,1.83-5.4a.19.19,0,0,0-.21-.21h-4.5a.46.46,0,0,1-.45-.45v-1.5a.44.44,0,0,1,.45-.42H586a1.54,1.54,0,0,1,1.59,1.5v1.86A7.49,7.49,0,0,1,585,699.88Z" style="fill: #48554e"/>
        <path d="M605.24,695c0,6.24-2.43,10.65-9.66,11.34a.9.9,0,0,1-1.08-1l-.6-12.69-1.47-.66a.44.44,0,0,1-.21-.57l.66-1.41a.4.4,0,0,1,.57-.18l1.23.54h8.43a2.11,2.11,0,0,1,2.13,2.1Zm-2.37-2c0-.12-.09-.18-.24-.18h-6.39l.51,11c4.77-1,6.12-4.29,6.12-8.49Z" style="fill: #48554e"/>
        <path d="M615.8,706.18a.42.42,0,0,1-.57.24l-1.56-.54a.45.45,0,0,1-.24-.63l5-12.24c.06-.15,0-.27-.15-.27h-8a.46.46,0,0,1-.45-.45v-7.23a.46.46,0,0,1,.45-.45h1.47a.46.46,0,0,1,.45.45v5.31h7.44a1.57,1.57,0,0,1,.63.12,1.63,1.63,0,0,1,.81,2.07Z" style="fill: #48554e"/>
        <path d="M511.25,709.69V709h112v.72Z" style="fill: #48554e"/>
      </g>
      <g>
        <line x1="445.32" y1="540.77" x2="459.28" y2="554.73" style="fill: none;stroke: #48554e;stroke-miterlimit: 10;stroke-width: 1.92px"/>
        <line x1="459.28" y1="540.77" x2="445.32" y2="554.73" style="fill: none;stroke: #48554e;stroke-miterlimit: 10;stroke-width: 1.92px"/>
      </g>
      <circle cx="614.18" cy="594.05" r="9.12" style="fill: #3d576e"/>
    </g>
    <g class="popup" id="emberessed">
      <rect x="424.6" y="375.52" width="220" height="220" style="fill: #e5e4e3;opacity: 0.85"/>
      <g>
        <path d="M520.31,463.46h-1.5a.41.41,0,0,1-.42-.42V448.65a2,2,0,0,0-2-2h-6.09a.46.46,0,0,1-.45-.45v-1.5a.44.44,0,0,1,.45-.42h6.09a4.39,4.39,0,0,1,4.41,4.38V463A.44.44,0,0,1,520.31,463.46Z" style="fill: #48554e"/>
        <path d="M530.72,453.78a.45.45,0,0,1-.66,0l-1-.91a.41.41,0,0,1,0-.59c1.86-2,1.83-2.64,1.83-5.4a.19.19,0,0,0-.21-.21h-4.5a.46.46,0,0,1-.45-.45v-1.5a.44.44,0,0,1,.45-.42h5.49a1.54,1.54,0,0,1,1.59,1.5v1.86A7.49,7.49,0,0,1,530.72,453.78Z" style="fill: #48554e"/>
        <path d="M549.11,459.92h-10.8a.46.46,0,0,1-.45-.45V458a.45.45,0,0,1,.45-.45h6.93v-8.9a2,2,0,0,0-2-2h-4a.46.46,0,0,1-.45-.45v-1.5a.44.44,0,0,1,.45-.42h4a4.37,4.37,0,0,1,4.38,4.38v8.9h1.5a.45.45,0,0,1,.45.45v1.47A.46.46,0,0,1,549.11,459.92Z" style="fill: #48554e"/>
        <path d="M554.45,445.41a.43.43,0,0,1,0-.66l1-1a.41.41,0,0,1,.63,0l1.53,1.44c5.4-2,7.65-.57,7.83,2l.72,11.15a1.42,1.42,0,0,1-1.41,1.59h-4.41a.46.46,0,0,1-.45-.45V458a.46.46,0,0,1,.45-.45h3.21a.19.19,0,0,0,.21-.21l-.57-9.65c-.09-1.44-1.11-1.86-5.07-.42l-1.38,12.2a.48.48,0,0,1-.54.45h-1.35a.41.41,0,0,1-.45-.5l1.44-12.78Z" style="fill: #48554e"/>
        <path d="M581.87,459.92H580.4a.46.46,0,0,1-.45-.45V448.65a2,2,0,0,0-2-2h-6.48a.46.46,0,0,1-.45-.45v-1.5a.44.44,0,0,1,.45-.42h6.48a4.39,4.39,0,0,1,4.41,4.38v10.82A.46.46,0,0,1,581.87,459.92Zm-8.4-5.49v5a.44.44,0,0,1-.42.45h-1.5a.46.46,0,0,1-.45-.45v-5.09c0-.72.3-3.6.3-3.6a.41.41,0,0,1,.48-.4l1.47.16a.4.4,0,0,1,.39.48S573.47,453.78,573.47,454.43Z" style="fill: #48554e"/>
        <path d="M521.84,559.19l-.93.9a.45.45,0,0,1-.63,0l-5.55-5.53a1.6,1.6,0,0,1,0-2.27l5.55-5.55a.42.42,0,0,1,.63,0l.9.89a.41.41,0,0,1,0,.61l-5.1,5.13,5.16,5.15A.43.43,0,0,1,521.84,559.19Z" style="fill: #48554e"/>
        <path d="M547.4,560.72h-1.5a.44.44,0,0,1-.42-.45V549.45a2,2,0,0,0-2-2H537a.46.46,0,0,1-.45-.45v-1.5a.44.44,0,0,1,.45-.42h6.42a4.39,4.39,0,0,1,4.41,4.38v10.82A.46.46,0,0,1,547.4,560.72Z" style="fill: #48554e"/>
        <path d="M558.05,560.72h-1.47a.44.44,0,0,1-.45-.45V547.79s0-.08-.09-.12l-3.45-.86a.43.43,0,0,1-.3-.54l.36-1.38a.44.44,0,0,1,.57-.33l4.29,1.11a1.14,1.14,0,0,1,1,1.29v13.31A.46.46,0,0,1,558.05,560.72Z" style="fill: #48554e"/>
        <path d="M564.53,551.42a8.15,8.15,0,0,1,.75-4l-1.65-.77a.44.44,0,0,1-.21-.57l.66-1.41a.43.43,0,0,1,.57-.18l1.14.54H573a2.09,2.09,0,0,1,2.1,2.1V559a1.68,1.68,0,0,1-1.68,1.68h-9.24a.46.46,0,0,1-.45-.45V558.8a.46.46,0,0,1,.45-.45h8.34c.15,0,.21-.06.21-.21V547.62c0-.12-.09-.18-.21-.18h-4.8a6.06,6.06,0,0,0-.84,3.63v1H569a.41.41,0,0,1,.42.42v1.4a.44.44,0,0,1-.42.45h-3.57c-.57,0-.93-.26-.93-1Z" style="fill: #48554e"/>
        <path d="M585,554.58a.46.46,0,0,1-.66,0l-1-.9a.43.43,0,0,1,0-.6c1.86-1.95,1.83-2.63,1.83-5.39a.19.19,0,0,0-.21-.21h-4.5a.46.46,0,0,1-.45-.45v-1.5a.44.44,0,0,1,.45-.42H586a1.54,1.54,0,0,1,1.59,1.5v1.85A7.51,7.51,0,0,1,585,554.58Z" style="fill: #48554e"/>
        <path d="M605.24,549.66c0,6.23-2.43,10.64-9.66,11.33a.9.9,0,0,1-1.08-1l-.6-12.69-1.47-.65a.44.44,0,0,1-.21-.57l.66-1.41a.4.4,0,0,1,.57-.18l1.23.54h8.43a2.11,2.11,0,0,1,2.13,2.1Zm-2.37-2c0-.12-.09-.18-.24-.18h-6.39l.51,11c4.77-1,6.12-4.28,6.12-8.48Z" style="fill: #48554e"/>
        <path d="M615.8,560.88a.42.42,0,0,1-.57.23l-1.56-.54a.45.45,0,0,1-.24-.63l5-12.23c.06-.16,0-.27-.15-.27h-8a.46.46,0,0,1-.45-.45v-7.23a.46.46,0,0,1,.45-.45h1.47a.46.46,0,0,1,.45.45v5.31h7.44a1.57,1.57,0,0,1,.63.12,1.62,1.62,0,0,1,.81,2.06Z" style="fill: #48554e"/>
        <path d="M511.25,564.38v-.72h112v.72Z" style="fill: #48554e"/>
      </g>
      <g>
        <line x1="445.32" y1="395.42" x2="459.29" y2="409.38" style="fill: none;stroke: #48554e;stroke-miterlimit: 10;stroke-width: 1.92px"/>
        <line x1="459.29" y1="395.42" x2="445.32" y2="409.38" style="fill: none;stroke: #48554e;stroke-miterlimit: 10;stroke-width: 1.92px"/>
      </g>
      <circle cx="614.18" cy="448.77" r="9.12" style="fill: #e3c867"/>
    </g>
  </g>
  <g xmlns="http://www.w3.org/2000/svg" id="e2da663e-731d-4fe0-be53-4f293e6bd129" data-name="nav" style="&#10;">
    
    
    
    <g>
      <line x1="355.59" y1="324.49" x2="383.34" y2="324.49" style="fill: none;stroke: #f1eeec;stroke-miterlimit: 10;stroke-width: 2.69815125061961px"/>
      <line x1="369.47" y1="310.62" x2="369.47" y2="338.36" style="fill: none;stroke: #f1eeec;stroke-miterlimit: 10;stroke-width: 2.69815125061961px"/>
    </g>
    <g>
      <line x1="355.59" y1="404.26" x2="383.34" y2="404.26" style="fill: none;stroke: #f1eeec;stroke-miterlimit: 10;stroke-width: 2.69815125061961px"/>
      <line x1="369.47" y1="390.38" x2="369.47" y2="418.13" style="fill: none;stroke: #f1eeec;stroke-miterlimit: 10;stroke-width: 2.69815125061961px"/>
    </g>
    <g>
      <line x1="355.59" y1="481.93" x2="383.34" y2="481.93" style="fill: none;stroke: #f1eeec;stroke-miterlimit: 10;stroke-width: 2.69815125061961px"/>
      <line x1="369.47" y1="468.06" x2="369.47" y2="495.81" style="fill: none;stroke: #f1eeec;stroke-miterlimit: 10;stroke-width: 2.69815125061961px"/>
    </g>
    <g>
      <line x1="355.59" y1="551" x2="383.34" y2="551" style="fill: none;stroke: #f1eeec;stroke-miterlimit: 10;stroke-width: 2.69815125061961px"/>
      <line x1="369.47" y1="537.12" x2="369.47" y2="564.87" style="fill: none;stroke: #f1eeec;stroke-miterlimit: 10;stroke-width: 2.69815125061961px"/>
    </g>
    <g>
      <line x1="355.59" y1="621.87" x2="383.34" y2="621.87" style="fill: none;stroke: #f1eeec;stroke-miterlimit: 10;stroke-width: 2.69815125061961px"/>
      <line x1="369.47" y1="608" x2="369.47" y2="635.74" style="fill: none;stroke: #f1eeec;stroke-miterlimit: 10;stroke-width: 2.69815125061961px"/>
    </g>
    <g>
      <line x1="355.59" y1="689.16" x2="383.34" y2="689.16" style="fill: none;stroke: #f1eeec;stroke-miterlimit: 10;stroke-width: 2.69815125061961px"/>
      <line x1="369.47" y1="675.29" x2="369.47" y2="703.04" style="fill: none;stroke: #f1eeec;stroke-miterlimit: 10;stroke-width: 2.69815125061961px"/>
    </g>
  </g>

  <script>
  function resetAllPopups(){
    document.getElementsByClassName("popup")[0].style.opacity = "0";
    document.getElementsByClassName("popup")[1].style.opacity = "0";
    document.getElementsByClassName("popup")[2].style.opacity = "0";
    document.getElementsByClassName("popup")[3].style.opacity = "0";
    document.getElementsByClassName("popup")[4].style.opacity = "0";
    document.getElementsByClassName("popup")[5].style.opacity = "0";

    document.getElementsByClassName("popup")[0].style.pointerEvents = "none";
    document.getElementsByClassName("popup")[1].style.pointerEvents = "none";
    document.getElementsByClassName("popup")[2].style.pointerEvents = "none";
    document.getElementsByClassName("popup")[3].style.pointerEvents = "none";
    document.getElementsByClassName("popup")[4].style.pointerEvents = "none";
    document.getElementsByClassName("popup")[5].style.pointerEvents = "none";
  }
  function lecturerFunc(){
    resetAllPopups();
    window.svg = document.getElementById("lecturer");
    window.svg.style.opacity = "1";
    window.svg.style.pointerEvents = "all";
    makeCloseButton();
  }
  function blinkFunc(){
    resetAllPopups();
    window.svg = document.getElementById("blink");
    window.svg.style.opacity = "1";
    window.svg.style.pointerEvents = "all";
    makeCloseButton();
  }
  function sisterFunc(){
    resetAllPopups();
    window.svg = document.getElementById("sister");
    window.svg.style.opacity = "1";
    window.svg.style.pointerEvents = "all";
    makeCloseButton();
  }
  function surpriseFunc(){
    resetAllPopups();
    window.svg = document.getElementById("surprise");
    window.svg.style.opacity = "1";
    window.svg.style.pointerEvents = "all";
    makeCloseButton();
  }
  function lateFunc(){
    resetAllPopups();
    window.svg = document.getElementById("late");
    window.svg.style.opacity = "1";
    window.svg.style.pointerEvents = "all";
    makeCloseButton();
  }
  function emberessedFunc(){
    resetAllPopups();
    window.svg = document.getElementById("emberessed");
    window.svg.style.opacity = "1";
    window.svg.style.pointerEvents = "all";
    makeCloseButton();
  }
  
  function makeCloseButton(){
    var newElement = document.createElementNS("http://www.w3.org/2000/svg", 'rect');
    newElement.setAttribute("width","65");
    newElement.setAttribute("height","65");
    newElement.setAttribute("x",window.svg.getElementsByTagName('rect')[0].getAttribute("x"));
    newElement.setAttribute("y",window.svg.getElementsByTagName('rect')[0].getAttribute("y"));
    newElement.style.fill = "#f00";
    newElement.style.opacity = "0";
    newElement.addEventListener("click", resetAllPopups, false); 
    window.svg.appendChild(newElement);
    makeLink();
  }
  function makeLink(){
    var newElement = document.createElementNS("http://www.w3.org/2000/svg", 'rect');
    newElement.setAttribute("width",window.svg.getElementsByTagName('rect')[0].getAttribute("width"));
    newElement.setAttribute("height","80");
    newElement.setAttribute("x",window.svg.getElementsByTagName('rect')[0].getAttribute("x"));
    newElement.setAttribute("y",Number(window.svg.getElementsByTagName('rect')[0].getAttribute("height")) + Number(window.svg.getElementsByTagName('rect')[0].getAttribute("y")) - 80);
    newElement.style.fill = "#f00";
    newElement.style.opacity = "0";
    newElement.addEventListener("click", openLink, false); 
    window.svg.appendChild(newElement);
  }
  function openLink(){
    if(window.svg.id == "prolog" || window.svg.id == "prolouge"){
      parent.openLink(event, "screen_02.html");
    }
    if(window.svg.id == "first"){
      parent.openLink(event, "screen_03.html");
    }
    if(window.svg.id == "memreble" || window.svg.id == "memrable"){
      parent.openLink(event, "screen_04.html");
    }
    if(window.svg.id == "exit"){
      parent.openLink(event, "screen_05.html");
    }
    if(window.svg.id == "glowing" || window.svg.id == "juice"){
      parent.openLink(event, "screen_06.html");
    }
    if(window.svg.id == "emberessed"){
      parent.openLink(event, "screen_07.html");
    }
    if(window.svg.id == "lecturer"){
      parent.openLink(event, "screen_08.html");
    }
    if(window.svg.id == "aristo"){
      parent.openLink(event, "screen_09.html");
    }
    if(window.svg.id == "behind"){
      parent.openLink(event, "screen_10.html");
    }
    if(window.svg.id == "onion" || window.svg.id == "soup"){
      parent.openLink(event, "screen_11.html");
    }
    if(window.svg.id == "twin"){
      parent.openLink(event, "screen_12.html");
    }
    if(window.svg.id == "sister"){
      parent.openLink(event, "screen_13.html");
    }
    if(window.svg.id == "lied"){
      parent.openLink(event, "screen_14.html");
    }
    if(window.svg.id == "disapoint"){
      parent.openLink(event, "screen_15.html");
    }
    if(window.svg.id == "laugh"){
      parent.openLink(event, "screen_16.html");
    }
    if(window.svg.id == "freeze"){
      parent.openLink(event, "screen_17.html");
    }
    if(window.svg.id == "forgot"){
      parent.openLink(event, "screen_18.html");
    }
    if(window.svg.id == "mansplain"){
      parent.openLink(event, "screen_19.html");
    }
    if(window.svg.id == "late"){
      parent.openLink(event, "screen_20.html");
    }
    if(window.svg.id == "common" || window.svg.id == "commonist"){
      parent.openLink(event, "screen_21.html");
    }
    if(window.svg.id == "pomela"){
      parent.openLink(event, "screen_22.html");
    }
    if(window.svg.id == "disappoint"){
      parent.openLink(event, "screen_23.html");
    }
    if(window.svg.id == "masmas"){
      parent.openLink(event, "screen_24.html");
    }
    if(window.svg.id == "cordoroy"){
      parent.openLink(event, "screen_25.html");
    }
    if(window.svg.id == "poet"){
      parent.openLink(event, "screen_26.html");
    }
    if(window.svg.id == "shanon"){
      parent.openLink(event, "screen_27.html");
    }
    if(window.svg.id == "psycho"){
      parent.openLink(event, "screen_28.html");
    }
    if(window.svg.id == "breathe" || window.svg.id == "breath"){
      parent.openLink(event, "screen_29.html");
    }
    if(window.svg.id == "disappear"){
      parent.openLink(event, "screen_30.html");
    }
    if(window.svg.id == "blink"){
      parent.openLink(event, "screen_31.html");
    }
    if(window.svg.id == "decide"){
      parent.openLink(event, "screen_32.html");
    }
    if(window.svg.id == "wanted"){
      parent.openLink(event, "screen_33.html");
    }
    if(window.svg.id == "surprise"){
      parent.openLink(event, "screen_34.html");
    }
    if(window.svg.id == "rightwing"){
      parent.openLink(event, "screen_35.html");
    }
    if(window.svg.id == "expect"){
      parent.openLink(event, "screen_36.html");
    }
    if(window.svg.id == "cheap"){
      parent.openLink(event, "screen_37.html");
    }
    if(window.svg.id == "presuade"){
      parent.openLink(event, "screen_38.html");
    }
    if(window.svg.id == "important"){
      parent.openLink(event, "screen_39.html");
    }
    if(window.svg.id == "detective"){
      parent.openLink(event, "screen_40.html");
    }
    if(window.svg.id == "rabbi"){
      parent.openLink(event, "screen_41.html");
    }
    if(window.svg.id == "before"){
      parent.openLink(event, "screen_42.html");
    }
    if(window.svg.id == "epilouge"){
      parent.openLink(event, "screen_43.html");
    }
  }
  </script>
</svg>
