<svg xmlns="http://www.w3.org/2000/svg" xmlns:xlink="http://www.w3.org/1999/xlink" viewBox="0 0 1536 1875">
  <defs>
    <radialGradient id="ff264af1-6e46-468e-8546-06ff56248ffb" cx="1049.36" cy="494.69" r="154.96" gradientUnits="userSpaceOnUse">
      <stop offset="0.73" stop-color="#9dcbc1"/>
      <stop offset="0.76" stop-color="#9dcbc1" stop-opacity="0.97"/>
      <stop offset="0.8" stop-color="#9dcbc1" stop-opacity="0.87"/>
      <stop offset="0.85" stop-color="#9dcbc1" stop-opacity="0.71"/>
      <stop offset="0.9" stop-color="#9dcbc1" stop-opacity="0.49"/>
      <stop offset="0.96" stop-color="#9dcbc1" stop-opacity="0.22"/>
      <stop offset="1" stop-color="#9dcbc1" stop-opacity="0"/>
    </radialGradient>
    <radialGradient id="a41cd3f5-bebb-4f87-97bb-ff583e9976c7" cx="768" cy="906.51" r="464.88" gradientUnits="userSpaceOnUse">
      <stop offset="0.46" stop-color="#e3c867"/>
      <stop offset="0.62" stop-color="#e3c867" stop-opacity="0.99"/>
      <stop offset="0.7" stop-color="#e3c867" stop-opacity="0.96"/>
      <stop offset="0.76" stop-color="#e3c867" stop-opacity="0.9"/>
      <stop offset="0.81" stop-color="#e3c867" stop-opacity="0.82"/>
      <stop offset="0.85" stop-color="#e3c867" stop-opacity="0.72"/>
      <stop offset="0.89" stop-color="#e3c867" stop-opacity="0.59"/>
      <stop offset="0.93" stop-color="#e3c867" stop-opacity="0.44"/>
      <stop offset="0.96" stop-color="#e3c867" stop-opacity="0.26"/>
      <stop offset="0.99" stop-color="#e3c867" stop-opacity="0.06"/>
      <stop offset="1" stop-color="#e3c867" stop-opacity="0"/>
    </radialGradient>
  </defs>
  <g style="isolation: isolate">
    <g id="e1847246-bd14-4e0d-91bc-729391633cee" data-name="text">
      <circle cx="1049.36" cy="494.69" r="154.96" style="fill: url(#ff264af1-6e46-468e-8546-06ff56248ffb)"/>
      <circle cx="768" cy="906.51" r="464.88" style="mix-blend-mode: multiply;fill: url(#a41cd3f5-bebb-4f87-97bb-ff583e9976c7)"/>
      <g>
        <g>
          <path d="M788.39,1597a.46.46,0,0,1-.67,0l-1-.91a.44.44,0,0,1,0-.61c1.89-2,1.86-2.67,1.86-5.47a.19.19,0,0,0-.22-.21h-4.56a.47.47,0,0,1-.45-.46v-1.52a.44.44,0,0,1,.45-.42h5.57a1.55,1.55,0,0,1,1.61,1.51v1.89A7.59,7.59,0,0,1,788.39,1597Z" style="fill: #647c6e"/>
          <path d="M803.35,1587.26a.39.39,0,0,1,.55.31l.33,1.3a.51.51,0,0,1-.39.67,11,11,0,0,1-2.71.58v12.68a.44.44,0,0,1-.43.45h-1.52a.46.46,0,0,1-.45-.45v-12.68a11,11,0,0,1-2.68-.58.51.51,0,0,1-.39-.67l.33-1.3a.39.39,0,0,1,.55-.31l.76.25a9.9,9.9,0,0,0,5.29,0Z" style="fill: #647c6e"/>
          <path d="M815.66,1603.25h-6.32a.47.47,0,0,1-.46-.45v-1.49a.47.47,0,0,1,.46-.46h5.38c.18,0,.24-.06.24-.21V1590c0-.12-.09-.18-.24-.18H812a.47.47,0,0,1-.45-.46v-1.52a.44.44,0,0,1,.45-.42h3.23a2.13,2.13,0,0,1,2.12,2.12v12A1.7,1.7,0,0,1,815.66,1603.25Z" style="fill: #647c6e"/>
          <path d="M829.13,1603.25H822.9a.46.46,0,0,1-.46-.45v-1.49a.47.47,0,0,1,.46-.46h6.23a2.06,2.06,0,0,0,2.07-2.07v-7a2,2,0,0,0-2.07-2h-5.69a.47.47,0,0,1-.45-.46v-1.52a.44.44,0,0,1,.45-.42h5.69a4.43,4.43,0,0,1,4.47,4.43v7A4.47,4.47,0,0,1,829.13,1603.25Z" style="fill: #647c6e"/>
          <path d="M840.59,1587.39c.33,0,.52.12.52.45l.18,6.44c1.88-.33,2.52-1.21,2.52-4.1v-2.28c0-.33.15-.51.49-.51h1.21a.48.48,0,0,1,.55.51l-.06,2.43c-.09,4-1.12,5-4.68,5.81l.15,4.95c5.75-.67,7.24-4,7.24-11.15v-2c0-.33.15-.51.48-.51h1.4a.49.49,0,0,1,.55.51l-.06,2c-.22,7.6-1.58,12.92-10.67,13.52a.92.92,0,0,1-1.1-.91l-.48-14.65c0-.33.15-.51.48-.51Z" style="fill: #647c6e"/>
          <path d="M864.12,1596.53l3.62,5.35a.41.41,0,0,1-.1.61l-1.24.88a.41.41,0,0,1-.61-.09l-6-8.87c-1.18.85-1.46,2.12-1.46,4.16v4.23a.44.44,0,0,1-.42.45H856.4a.46.46,0,0,1-.46-.45v-4.23c0-2.58.64-4.62,2.62-6l-2.71-4a.42.42,0,0,1,.09-.61l1.25-.88a.42.42,0,0,1,.61.09l4.83,7.14,2.73-6.44a.63.63,0,0,1,.73-.48h1.28a.49.49,0,0,1,.49.72Z" style="fill: #647c6e"/>
        </g>
        <g>
          <path d="M645.64,1597a.46.46,0,0,1-.67,0l-1-.91a.44.44,0,0,1,0-.61c1.89-2,1.86-2.67,1.86-5.47a.19.19,0,0,0-.21-.21h-4.56a.47.47,0,0,1-.46-.46v-1.52a.44.44,0,0,1,.46-.42h5.56a1.55,1.55,0,0,1,1.61,1.51v1.89A7.58,7.58,0,0,1,645.64,1597Z" style="fill: #647c6e"/>
          <path d="M653.78,1588a.57.57,0,0,1,.55-.57h8.12a3,3,0,0,1,3,2.94v12.47a.47.47,0,0,1-.46.45h-1.52a.44.44,0,0,1-.43-.45v-12.56a.45.45,0,0,0-.48-.45h-6.36v13a.46.46,0,0,1-.45.45h-1.49a.47.47,0,0,1-.46-.45Z" style="fill: #647c6e"/>
          <path d="M681.32,1603.25h-1.51a.44.44,0,0,1-.43-.45v-11a2,2,0,0,0-2.07-2h-6.5a.47.47,0,0,1-.46-.46v-1.52a.44.44,0,0,1,.46-.42h6.5a4.45,4.45,0,0,1,4.47,4.43v11A.46.46,0,0,1,681.32,1603.25Z" style="fill: #647c6e"/>
          <path d="M694.28,1587.26a.38.38,0,0,1,.54.31l.34,1.3c.09.34-.06.55-.4.67a10.91,10.91,0,0,1-2.7.58v12.68a.44.44,0,0,1-.43.45h-1.52a.46.46,0,0,1-.45-.45v-12.68a11,11,0,0,1-2.68-.58c-.33-.12-.49-.33-.39-.67l.33-1.3a.39.39,0,0,1,.55-.31l.76.25a9.9,9.9,0,0,0,5.29,0Z" style="fill: #647c6e"/>
          <path d="M700.14,1588.54a.44.44,0,0,1,0-.67l1-1a.4.4,0,0,1,.63,0l1.55,1.46c5.48-2,7.76-.58,7.94,2.06l.73,11.31a1.44,1.44,0,0,1-1.43,1.61H706a.47.47,0,0,1-.46-.45v-1.49a.47.47,0,0,1,.46-.46h3.25a.2.2,0,0,0,.22-.21l-.58-9.79c-.09-1.46-1.13-1.88-5.14-.43l-1.4,12.38a.48.48,0,0,1-.54.45h-1.37a.42.42,0,0,1-.46-.52l1.46-12.94Z" style="fill: #647c6e"/>
        </g>
        <circle cx="888.57" cy="1594.79" r="9.12" style="fill: #e3c867"/>
        <circle cx="732.93" cy="1594.79" r="9.12" style="fill: #9dcbc1;mix-blend-mode: multiply"/>
      </g>
    </g>
    <g id="bb490d2e-cea7-44de-b3ba-54c438dc7480" data-name="+">
      <g>
        <rect x="668.42" y="460.32" width="417.67" height="446.87" style="fill: #e5e4e3;opacity: 0.85"/>
        <g>
          <path d="M703.84,537.1l-1.12-.53a.33.33,0,0,1-.17-.46l.53-1.13a.31.31,0,0,1,.45-.14l.94.43h6.17a1.68,1.68,0,0,1,1.68,1.68v9.51A1.34,1.34,0,0,1,711,547.8h-6.69a.45.45,0,0,1-.44-.45Zm6.58.21c0-.09,0-.14-.17-.14h-4.56v8.74h4.56c.12,0,.17,0,.17-.17Z" style="fill: #48554e"/>
          <path d="M720.16,542.88a.36.36,0,0,1-.52,0l-.77-.72a.33.33,0,0,1,0-.48c1.49-1.56,1.46-2.12,1.46-4.32a.15.15,0,0,0-.17-.17h-3.6a.37.37,0,0,1-.36-.36v-1.2a.35.35,0,0,1,.36-.34H721a1.23,1.23,0,0,1,1.27,1.2V538A6,6,0,0,1,720.16,542.88Z" style="fill: #48554e"/>
          <path d="M731.23,547.8h-5a.36.36,0,0,1-.36-.36v-1.18a.36.36,0,0,1,.36-.35h4.24c.15,0,.2,0,.2-.17v-8.43c0-.09-.08-.14-.2-.14h-2.13a.37.37,0,0,1-.36-.36v-1.2a.35.35,0,0,1,.36-.34h2.54a1.69,1.69,0,0,1,1.68,1.68v9.51A1.34,1.34,0,0,1,731.23,547.8Z" style="fill: #48554e"/>
          <path d="M741,547.8H739.8a.35.35,0,0,1-.36-.36v-10c0-.05,0-.08-.08-.1l-2.76-.7a.35.35,0,0,1-.24-.43l.29-1.1a.36.36,0,0,1,.46-.27l3.43.89a.92.92,0,0,1,.79,1v10.66A.37.37,0,0,1,741,547.8Z" style="fill: #48554e"/>
          <path d="M747,535.27c.27,0,.41.1.41.36l.14,5.09c1.49-.26,2-1,2-3.24v-1.8c0-.26.12-.41.38-.41h1a.39.39,0,0,1,.43.41l0,1.92c-.07,3.17-.88,4-3.69,4.58l.12,3.92c4.53-.53,5.71-3.17,5.71-8.81v-1.61c0-.26.12-.41.38-.41h1.11a.39.39,0,0,1,.43.41l0,1.61c-.17,6-1.25,10.2-8.42,10.68a.73.73,0,0,1-.87-.72l-.38-11.57c0-.26.12-.41.38-.41Z" style="fill: #48554e"/>
          <path d="M765.55,542.5l2.85,4.22a.32.32,0,0,1-.07.48l-1,.7a.32.32,0,0,1-.48-.08l-4.73-7c-.94.67-1.15,1.68-1.15,3.28v3.34a.35.35,0,0,1-.34.36h-1.2a.37.37,0,0,1-.36-.36V544.1c0-2,.51-3.64,2.06-4.75L759,536.21a.32.32,0,0,1,.07-.48l1-.7a.34.34,0,0,1,.49.07l3.81,5.64,2.16-5.08c.15-.36.29-.39.58-.39h1a.39.39,0,0,1,.38.58Z" style="fill: #48554e"/>
          <path d="M780.38,547.8h-1.2a.35.35,0,0,1-.34-.36v-8.66a1.61,1.61,0,0,0-1.63-1.61h-5.14a.37.37,0,0,1-.36-.36v-1.2a.35.35,0,0,1,.36-.34h5.14a3.52,3.52,0,0,1,3.53,3.51v8.66A.37.37,0,0,1,780.38,547.8Z" style="fill: #48554e"/>
          <path d="M793.46,547.8h-1.18a.37.37,0,0,1-.36-.36v-8.66a1.61,1.61,0,0,0-1.63-1.61h-5.18a.36.36,0,0,1-.36-.36v-1.2a.35.35,0,0,1,.36-.34h5.18a3.52,3.52,0,0,1,3.53,3.51v8.66A.37.37,0,0,1,793.46,547.8Zm-6.72-4.39v4a.35.35,0,0,1-.34.36h-1.2a.37.37,0,0,1-.36-.36v-4.08c0-.58.24-2.88.24-2.88a.32.32,0,0,1,.39-.31l1.17.12a.31.31,0,0,1,.31.38S786.74,542.88,786.74,543.41Z" style="fill: #48554e"/>
          <path d="M806.73,537.1l-1.13-.53a.34.34,0,0,1-.17-.46L806,535a.32.32,0,0,1,.46-.14l.93.43h6.17A1.67,1.67,0,0,1,815.2,537v9.51a1.34,1.34,0,0,1-1.34,1.34h-6.7a.44.44,0,0,1-.43-.45Zm6.58.21c0-.09,0-.14-.17-.14h-4.56v8.74h4.56c.12,0,.17,0,.17-.17Z" style="fill: #48554e"/>
          <path d="M823.05,542.88a.37.37,0,0,1-.53,0l-.77-.72a.34.34,0,0,1,0-.48c1.49-1.56,1.47-2.12,1.47-4.32a.15.15,0,0,0-.17-.17h-3.6a.37.37,0,0,1-.36-.36v-1.2a.35.35,0,0,1,.36-.34h4.39a1.23,1.23,0,0,1,1.27,1.2V538A6,6,0,0,1,823.05,542.88Z" style="fill: #48554e"/>
          <path d="M837.19,547.8H836a.35.35,0,0,1-.34-.36v-8.66a1.61,1.61,0,0,0-1.63-1.61h-5.14a.37.37,0,0,1-.36-.36v-1.2a.35.35,0,0,1,.36-.34H834a3.52,3.52,0,0,1,3.53,3.51v8.66A.37.37,0,0,1,837.19,547.8Z" style="fill: #48554e"/>
          <path d="M850.31,547.8h-8.64a.37.37,0,0,1-.36-.36v-1.18a.35.35,0,0,1,.36-.35h5.55v-7.13a1.61,1.61,0,0,0-1.61-1.61h-3.17a.37.37,0,0,1-.36-.36v-1.2a.35.35,0,0,1,.36-.34h3.17a3.49,3.49,0,0,1,3.5,3.51v7.13h1.2a.34.34,0,0,1,.36.35v1.18A.36.36,0,0,1,850.31,547.8Z" style="fill: #48554e"/>
          <path d="M863.2,537.17h-1.8v10.27a.37.37,0,0,1-.36.36h-1.17a.35.35,0,0,1-.36-.36V537.17h-5a.37.37,0,0,1-.36-.36v-1.2a.35.35,0,0,1,.36-.34h8.64a.35.35,0,0,1,.36.34v1.2A.37.37,0,0,1,863.2,537.17Z" style="fill: #48554e"/>
          <path d="M876.16,547.8H875a.36.36,0,0,1-.36-.36v-8.66a1.62,1.62,0,0,0-1.64-1.61h-5.18a.37.37,0,0,1-.36-.36v-1.2a.35.35,0,0,1,.36-.34H873a3.51,3.51,0,0,1,3.53,3.51v8.66A.37.37,0,0,1,876.16,547.8Zm-6.72-4.39v4a.35.35,0,0,1-.33.36h-1.2a.36.36,0,0,1-.36-.36v-4.08c0-.58.24-2.88.24-2.88a.31.31,0,0,1,.38-.31l1.18.12a.32.32,0,0,1,.31.38S869.44,542.88,869.44,543.41Z" style="fill: #48554e"/>
          <path d="M897,537.17h-1.8v10.27a.37.37,0,0,1-.36.36h-1.18a.36.36,0,0,1-.36-.36V537.17h-4.94a.37.37,0,0,1-.36-.36v-1.2a.35.35,0,0,1,.36-.34H897a.35.35,0,0,1,.36.34v1.2A.37.37,0,0,1,897,537.17Z" style="fill: #48554e"/>
          <path d="M901.7,535.73a.45.45,0,0,1,.43-.46h6.41a2.34,2.34,0,0,1,2.35,2.33v9.84a.37.37,0,0,1-.36.36h-1.2a.35.35,0,0,1-.34-.36v-9.91a.36.36,0,0,0-.38-.36h-5v10.27a.37.37,0,0,1-.36.36h-1.17a.36.36,0,0,1-.36-.36Z" style="fill: #48554e"/>
          <path d="M921.62,542.5l2.85,4.22a.32.32,0,0,1-.07.48l-1,.7a.32.32,0,0,1-.48-.08l-4.73-7c-.94.67-1.15,1.68-1.15,3.28v3.34a.35.35,0,0,1-.34.36h-1.2a.37.37,0,0,1-.36-.36V544.1c0-2,.5-3.64,2.06-4.75l-2.13-3.14a.32.32,0,0,1,.07-.48l1-.7a.33.33,0,0,1,.48.07l3.82,5.64,2.16-5.08a.5.5,0,0,1,.58-.39h1a.4.4,0,0,1,.39.58Z" style="fill: #48554e"/>
          <path d="M937.29,546c.09-.41.19-.48.55-.48h1.7c.24,0,.36.16.24.43l-2.06,4.68a.37.37,0,0,1-.55.22l-.58-.24a.4.4,0,0,1-.29-.53Z" style="fill: #48554e"/>
          <path d="M948.69,550.63h-1.18a.35.35,0,0,1-.36-.36V537.46c0-.05,0-.08-.07-.1l-2.76-.7a.34.34,0,0,1-.24-.43l.29-1.1a.33.33,0,0,1,.45-.27l3.44.89a1,1,0,0,1,.79,1.11v13.41A.36.36,0,0,1,948.69,550.63Z" style="fill: #48554e"/>
          <path d="M953,536.18a.34.34,0,0,1,0-.52l.77-.82a.33.33,0,0,1,.51,0l1.22,1.15c4.32-1.61,6.12-.46,6.27,1.63l.57,8.93a1.14,1.14,0,0,1-1.13,1.27h-3.53a.36.36,0,0,1-.35-.36v-1.18a.35.35,0,0,1,.35-.35h2.57a.16.16,0,0,0,.17-.17l-.46-7.73c-.07-1.15-.88-1.49-4-.34l-1.11,9.77a.38.38,0,0,1-.43.36h-1.08a.34.34,0,0,1-.36-.41L954,537.17Z" style="fill: #48554e"/>
          <path d="M972,535.18a.3.3,0,0,1,.43.24l.27,1c.07.26,0,.43-.32.53a9.27,9.27,0,0,1-2.13.45v10a.35.35,0,0,1-.34.36h-1.2a.37.37,0,0,1-.36-.36v-10a9.33,9.33,0,0,1-2.11-.45c-.26-.1-.39-.27-.31-.53l.26-1a.3.3,0,0,1,.43-.24l.6.19a7.68,7.68,0,0,0,4.18,0Z" style="fill: #48554e"/>
          <path d="M985.36,547.8h-1.18a.37.37,0,0,1-.36-.36v-8.66a1.61,1.61,0,0,0-1.63-1.61H977a.36.36,0,0,1-.36-.36v-1.2a.35.35,0,0,1,.36-.34h5.18a3.51,3.51,0,0,1,3.53,3.51v8.66A.37.37,0,0,1,985.36,547.8Zm-6.72-4.39v4a.35.35,0,0,1-.34.36h-1.2a.37.37,0,0,1-.36-.36v-4.08c0-.58.24-2.88.24-2.88a.32.32,0,0,1,.39-.31l1.17.12a.31.31,0,0,1,.31.38S978.64,542.88,978.64,543.41Z" style="fill: #48554e"/>
          <path d="M998.63,537.1l-1.13-.53a.34.34,0,0,1-.17-.46l.53-1.13a.32.32,0,0,1,.46-.14l.93.43h6.17a1.67,1.67,0,0,1,1.68,1.68v9.51a1.34,1.34,0,0,1-1.34,1.34h-6.7a.44.44,0,0,1-.43-.45Zm6.58.21c0-.09-.05-.14-.17-.14h-4.56v8.74H1005c.12,0,.17,0,.17-.17Z" style="fill: #48554e"/>
          <path d="M1018.41,542.9c-.53,2.64-1.11,3.36-3.56,4.69l-3.33,1.8a.29.29,0,0,1-.41-.12l-.55-1.06a.31.31,0,0,1,.14-.46l3.55-1.87-3.36-10a.41.41,0,0,1,.44-.55h1.08a.44.44,0,0,1,.45.33l2.91,9.31a2,2,0,0,0,.67-1.39l1.44-7.94a.38.38,0,0,1,.41-.34h1.22a.32.32,0,0,1,.34.39Z" style="fill: #48554e"/>
          <path d="M731.18,579.8H730a.36.36,0,0,1-.36-.36v-10c0-.05,0-.08-.07-.1l-2.76-.7a.34.34,0,0,1-.24-.43l.29-1.1a.36.36,0,0,1,.45-.27l3.44.89a.93.93,0,0,1,.79,1v10.66A.37.37,0,0,1,731.18,579.8Z" style="fill: #48554e"/>
          <path d="M744.5,579.8h-1.2a.37.37,0,0,1-.36-.36v-8.66a1.61,1.61,0,0,0-1.61-1.61h-1.87a5.9,5.9,0,0,0-1.8,4.39,7.82,7.82,0,0,0,1.65,4.7v1a.55.55,0,0,1-.55.55h-3a.36.36,0,0,1-.36-.36v-1a.36.36,0,0,1,.36-.36h1.58a7,7,0,0,1-1.54-4.44,6.07,6.07,0,0,1,1.76-4.51h-1.68a.35.35,0,0,1-.34-.36v-1.2a.33.33,0,0,1,.34-.34h5.42a3.49,3.49,0,0,1,3.5,3.51v8.66A.35.35,0,0,1,744.5,579.8Z" style="fill: #48554e"/>
          <path d="M752.56,574.88a.37.37,0,0,1-.53,0l-.76-.72a.33.33,0,0,1,0-.48c1.48-1.56,1.46-2.12,1.46-4.32a.15.15,0,0,0-.17-.17H749a.37.37,0,0,1-.36-.36v-1.2a.35.35,0,0,1,.36-.34h4.39a1.24,1.24,0,0,1,1.28,1.2V570A6,6,0,0,1,752.56,574.88Z" style="fill: #48554e"/>
          <path d="M764.87,574.5l2.86,4.22a.32.32,0,0,1-.07.48l-1,.7a.32.32,0,0,1-.48-.08l-4.72-7c-.94.67-1.16,1.68-1.16,3.28v3.34a.35.35,0,0,1-.33.36h-1.2a.36.36,0,0,1-.36-.36V576.1c0-2,.5-3.64,2.06-4.75l-2.13-3.14a.32.32,0,0,1,.07-.48l1-.7a.33.33,0,0,1,.48.07l3.82,5.64,2.16-5.08c.14-.36.29-.39.57-.39h1a.4.4,0,0,1,.39.58Z" style="fill: #48554e"/>
          <path d="M788,579.8h-1.2a.37.37,0,0,1-.36-.36v-8.66a1.61,1.61,0,0,0-1.61-1.61H783a5.9,5.9,0,0,0-1.8,4.39,7.77,7.77,0,0,0,1.66,4.7v1a.56.56,0,0,1-.55.55h-3a.37.37,0,0,1-.36-.36v-1a.37.37,0,0,1,.36-.36h1.58a7,7,0,0,1-1.53-4.44,6.1,6.1,0,0,1,1.75-4.51h-1.68a.35.35,0,0,1-.34-.36v-1.2a.34.34,0,0,1,.34-.34h5.42a3.5,3.5,0,0,1,3.51,3.51v8.66A.35.35,0,0,1,788,579.8Z" style="fill: #48554e"/>
          <path d="M798.74,574.5l2.85,4.22a.32.32,0,0,1-.07.48l-1,.7a.32.32,0,0,1-.48-.08l-4.73-7c-.94.67-1.15,1.68-1.15,3.28v3.34a.35.35,0,0,1-.34.36h-1.2a.37.37,0,0,1-.36-.36V576.1c0-2,.51-3.64,2.07-4.75l-2.14-3.14a.32.32,0,0,1,.07-.48l1-.7a.33.33,0,0,1,.48.07l3.81,5.64,2.16-5.08c.15-.36.29-.39.58-.39h1a.39.39,0,0,1,.38.58Z" style="fill: #48554e"/>
          <path d="M811.29,574l2.28,4.61a.84.84,0,0,1-.74,1.22h-7.56a.37.37,0,0,1-.37-.36v-1.18a.37.37,0,0,1,.37-.35h6l-5.5-10.06a.39.39,0,0,1,.36-.58h1.13a.66.66,0,0,1,.72.41l2.33,4.32,2.06-4.34c.17-.34.29-.39.58-.39H814c.36,0,.55.27.39.58Z" style="fill: #48554e"/>
          <path d="M822.5,579.8h-1.18a.35.35,0,0,1-.36-.36v-10c0-.05,0-.08-.07-.1l-2.76-.7a.34.34,0,0,1-.24-.43l.29-1.1a.36.36,0,0,1,.45-.27l3.43.89a.93.93,0,0,1,.8,1v10.66A.37.37,0,0,1,822.5,579.8Z" style="fill: #48554e"/>
          <path d="M830.7,574.88a.36.36,0,0,1-.52,0l-.77-.72a.33.33,0,0,1,0-.48c1.49-1.56,1.46-2.12,1.46-4.32a.15.15,0,0,0-.17-.17h-3.6a.37.37,0,0,1-.36-.36v-1.2a.35.35,0,0,1,.36-.34h4.4a1.23,1.23,0,0,1,1.27,1.2V570A6,6,0,0,1,830.7,574.88Z" style="fill: #48554e"/>
          <path d="M848.06,574.88a.37.37,0,0,1-.53,0l-.77-.72a.34.34,0,0,1,0-.48c1.49-1.56,1.46-2.12,1.46-4.32a.15.15,0,0,0-.16-.17h-3.6a.36.36,0,0,1-.36-.36v-1.2a.35.35,0,0,1,.36-.34h4.39a1.23,1.23,0,0,1,1.27,1.2V570A6,6,0,0,1,848.06,574.88Z" style="fill: #48554e"/>
          <path d="M859.12,579.8h-5a.37.37,0,0,1-.36-.36v-1.18a.36.36,0,0,1,.36-.35h4.25c.14,0,.19,0,.19-.17v-8.43c0-.09-.07-.14-.19-.14h-2.14a.37.37,0,0,1-.36-.36v-1.2a.35.35,0,0,1,.36-.34h2.54a1.68,1.68,0,0,1,1.68,1.68v9.51A1.34,1.34,0,0,1,859.12,579.8Z" style="fill: #48554e"/>
          <path d="M871.07,574.5l2.86,4.22a.33.33,0,0,1-.07.48l-1,.7a.32.32,0,0,1-.48-.08l-4.73-7c-.93.67-1.15,1.68-1.15,3.28v3.34a.35.35,0,0,1-.33.36H865a.36.36,0,0,1-.36-.36V576.1c0-2,.5-3.64,2.06-4.75l-2.14-3.14a.32.32,0,0,1,.08-.48l1-.7a.33.33,0,0,1,.48.07l3.82,5.64,2.16-5.08c.14-.36.29-.39.57-.39h1a.39.39,0,0,1,.38.58Z" style="fill: #48554e"/>
          <path d="M879.23,567.27c.27,0,.41.1.41.36l.14,5.09c1.49-.26,2-1,2-3.24v-1.8c0-.26.12-.41.38-.41h1a.39.39,0,0,1,.43.41l0,1.92c-.07,3.17-.88,4-3.69,4.58l.12,3.92c4.53-.53,5.71-3.17,5.71-8.81v-1.61c0-.26.12-.41.38-.41h1.11a.39.39,0,0,1,.43.41l0,1.61c-.16,6-1.24,10.2-8.42,10.68a.73.73,0,0,1-.87-.72l-.38-11.57c0-.26.12-.41.38-.41Z" style="fill: #48554e"/>
          <path d="M907.31,579.8h-1.2a.35.35,0,0,1-.33-.36v-8.66a1.62,1.62,0,0,0-1.64-1.61H899a.36.36,0,0,1-.36-.36v-1.2a.35.35,0,0,1,.36-.34h5.13a3.51,3.51,0,0,1,3.53,3.51v8.66A.37.37,0,0,1,907.31,579.8Z" style="fill: #48554e"/>
          <path d="M915.83,579.8h-1.18a.35.35,0,0,1-.35-.36v-10c0-.05,0-.08-.08-.1l-2.76-.7a.35.35,0,0,1-.24-.43l.29-1.1a.36.36,0,0,1,.46-.27l3.43.89a.92.92,0,0,1,.79,1v10.66A.37.37,0,0,1,915.83,579.8Z" style="fill: #48554e"/>
          <path d="M920.8,567.73a.45.45,0,0,1,.43-.46h6.41A2.34,2.34,0,0,1,930,569.6v9.84a.37.37,0,0,1-.36.36h-1.2a.35.35,0,0,1-.33-.36v-9.91a.36.36,0,0,0-.39-.36h-5v10.27a.36.36,0,0,1-.36.36h-1.17a.37.37,0,0,1-.36-.36Z" style="fill: #48554e"/>
          <path d="M943.12,579.8h-8.64a.37.37,0,0,1-.36-.36v-1.18a.35.35,0,0,1,.36-.35H940v-7.13a1.61,1.61,0,0,0-1.61-1.61h-3.16a.36.36,0,0,1-.36-.36v-1.2a.35.35,0,0,1,.36-.34h3.16a3.5,3.5,0,0,1,3.51,3.51v7.13h1.2a.35.35,0,0,1,.36.35v1.18A.37.37,0,0,1,943.12,579.8Z" style="fill: #48554e"/>
          <path d="M951.93,579.92a.34.34,0,0,1-.46.19l-1.25-.43a.36.36,0,0,1-.19-.5l4-9.8c.05-.12,0-.21-.12-.21h-6.43a.36.36,0,0,1-.36-.36V563a.36.36,0,0,1,.36-.36h1.17a.37.37,0,0,1,.36.36v4.25h6a1.25,1.25,0,0,1,1.15,1.75Z" style="fill: #48554e"/>
          <path d="M971.39,574.88a.37.37,0,0,1-.53,0l-.77-.72a.34.34,0,0,1,0-.48c1.49-1.56,1.47-2.12,1.47-4.32a.15.15,0,0,0-.17-.17h-3.6a.37.37,0,0,1-.36-.36v-1.2a.35.35,0,0,1,.36-.34h4.39a1.23,1.23,0,0,1,1.27,1.2V570A6,6,0,0,1,971.39,574.88Z" style="fill: #48554e"/>
          <path d="M986.17,579.8H985a.37.37,0,0,1-.37-.36v-8.66a1.61,1.61,0,0,0-1.6-1.61h-1.88a5.94,5.94,0,0,0-1.8,4.39,7.77,7.77,0,0,0,1.66,4.7v1a.55.55,0,0,1-.55.55h-3a.37.37,0,0,1-.36-.36v-1a.37.37,0,0,1,.36-.36h1.59a7,7,0,0,1-1.54-4.44,6.1,6.1,0,0,1,1.75-4.51h-1.68a.35.35,0,0,1-.33-.36v-1.2a.33.33,0,0,1,.33-.34H983a3.49,3.49,0,0,1,3.5,3.51v8.66A.35.35,0,0,1,986.17,579.8Z" style="fill: #48554e"/>
          <path d="M998.7,579.8h-1.2a.35.35,0,0,1-.33-.36v-8.66a1.62,1.62,0,0,0-1.64-1.61H990.4a.37.37,0,0,1-.36-.36v-1.2a.35.35,0,0,1,.36-.34h5.13a3.51,3.51,0,0,1,3.53,3.51v8.66A.37.37,0,0,1,998.7,579.8Z" style="fill: #48554e"/>
          <path d="M1003.77,572.36a6.41,6.41,0,0,1,.6-3.17l-1.32-.62a.36.36,0,0,1-.17-.46l.53-1.13a.34.34,0,0,1,.45-.14l.91.43h5.74a1.67,1.67,0,0,1,1.68,1.68v9.51a1.34,1.34,0,0,1-1.34,1.34h-7.4a.37.37,0,0,1-.36-.36v-1.18a.36.36,0,0,1,.36-.35h6.68c.12,0,.16,0,.16-.17v-8.43a.14.14,0,0,0-.16-.14h-3.84a4.79,4.79,0,0,0-.68,2.9v.77h1.76a.32.32,0,0,1,.33.34v1.12a.34.34,0,0,1-.33.36h-2.86c-.46,0-.74-.21-.74-.76Z" style="fill: #48554e"/>
          <path d="M1020.16,574.88a.37.37,0,0,1-.53,0l-.77-.72a.34.34,0,0,1,0-.48c1.49-1.56,1.47-2.12,1.47-4.32a.16.16,0,0,0-.17-.17h-3.6a.37.37,0,0,1-.36-.36v-1.2a.35.35,0,0,1,.36-.34H1021a1.23,1.23,0,0,1,1.27,1.2V570A6,6,0,0,1,1020.16,574.88Z" style="fill: #48554e"/>
          <path d="M1036.33,570.94c0,5-1.94,8.53-7.72,9.08a.73.73,0,0,1-.87-.77l-.48-10.15-1.17-.53a.36.36,0,0,1-.17-.46l.53-1.13a.31.31,0,0,1,.45-.14l1,.43h6.74a1.69,1.69,0,0,1,1.7,1.68Zm-1.89-1.63c0-.09-.07-.14-.19-.14h-5.12l.41,8.81c3.82-.77,4.9-3.44,4.9-6.8Z" style="fill: #48554e"/>
          <path d="M1041.73,567.27c.27,0,.41.1.41.36l.15,5.09c1.48-.26,2-1,2-3.24v-1.8c0-.26.12-.41.38-.41h1a.38.38,0,0,1,.43.41l0,1.92c-.08,3.17-.89,4-3.7,4.58l.12,3.92c4.54-.53,5.71-3.17,5.71-8.81v-1.61c0-.26.12-.41.39-.41h1.1a.39.39,0,0,1,.43.41l0,1.61c-.17,6-1.25,10.2-8.43,10.68a.72.72,0,0,1-.86-.72l-.39-11.57c0-.26.12-.41.39-.41Z" style="fill: #48554e"/>
          <path d="M713.85,611.8h-1.17a.36.36,0,0,1-.36-.36v-8.66a1.62,1.62,0,0,0-1.64-1.61H705.5a.37.37,0,0,1-.36-.36v-1.2a.35.35,0,0,1,.36-.34h5.18a3.51,3.51,0,0,1,3.53,3.51v8.66A.37.37,0,0,1,713.85,611.8Zm-6.72-4.39v4a.35.35,0,0,1-.33.36h-1.2a.37.37,0,0,1-.37-.36v-4.08c0-.58.25-2.88.25-2.88a.31.31,0,0,1,.38-.31l1.17.12a.33.33,0,0,1,.32.38S707.13,606.88,707.13,607.41Z" style="fill: #48554e"/>
          <path d="M724.19,599.18a.31.31,0,0,1,.44.24l.26,1a.41.41,0,0,1-.31.53,9.35,9.35,0,0,1-2.14.45v10a.35.35,0,0,1-.33.36h-1.2a.36.36,0,0,1-.36-.36v-10a9.41,9.41,0,0,1-2.12-.45.41.41,0,0,1-.31-.53l.27-1a.3.3,0,0,1,.43-.24l.6.19a7.64,7.64,0,0,0,4.17,0Z" style="fill: #48554e"/>
          <path d="M730.31,599.27c.27,0,.41.1.41.36l.15,5.09c1.48-.26,2-1,2-3.24v-1.8c0-.26.12-.41.38-.41h1a.38.38,0,0,1,.43.41l0,1.92c-.08,3.17-.89,4-3.7,4.58l.12,3.92c4.54-.53,5.71-3.17,5.71-8.81v-1.61c0-.26.12-.41.39-.41h1.1a.38.38,0,0,1,.43.41l0,1.61c-.17,6-1.25,10.2-8.43,10.68a.72.72,0,0,1-.86-.72l-.39-11.57c0-.26.12-.41.39-.41Z" style="fill: #48554e"/>
          <path d="M753.93,606.88a.37.37,0,0,1-.53,0l-.77-.72a.34.34,0,0,1,0-.48c1.49-1.56,1.47-2.12,1.47-4.32a.15.15,0,0,0-.17-.17h-3.6a.37.37,0,0,1-.36-.36v-1.2a.35.35,0,0,1,.36-.34h4.39a1.23,1.23,0,0,1,1.27,1.2V602A6,6,0,0,1,753.93,606.88Z" style="fill: #48554e"/>
          <path d="M768.71,611.8h-1.19a.37.37,0,0,1-.37-.36v-8.66a1.61,1.61,0,0,0-1.6-1.61h-1.88a5.94,5.94,0,0,0-1.8,4.39,7.77,7.77,0,0,0,1.66,4.7v1a.55.55,0,0,1-.55.55h-3a.37.37,0,0,1-.36-.36v-1a.37.37,0,0,1,.36-.36h1.59a7,7,0,0,1-1.54-4.44,6.1,6.1,0,0,1,1.75-4.51h-1.68a.35.35,0,0,1-.33-.36v-1.2a.33.33,0,0,1,.33-.34h5.43a3.49,3.49,0,0,1,3.5,3.51v8.66A.35.35,0,0,1,768.71,611.8Z" style="fill: #48554e"/>
          <path d="M774.57,599.27c.26,0,.41.1.41.36l.14,5.09c1.49-.26,2-1,2-3.24v-1.8c0-.26.12-.41.39-.41h1a.39.39,0,0,1,.43.41l0,1.92c-.07,3.17-.89,4-3.69,4.58l.12,3.92c4.53-.53,5.71-3.17,5.71-8.81v-1.61c0-.26.12-.41.38-.41h1.11a.39.39,0,0,1,.43.41l0,1.61c-.17,6-1.25,10.2-8.42,10.68a.73.73,0,0,1-.87-.72l-.38-11.57c0-.26.12-.41.38-.41Z" style="fill: #48554e"/>
          <path d="M795.35,611.37a.31.31,0,0,1-.31.43h-1.13a.44.44,0,0,1-.45-.31l-1.32-4.56L787.55,612a.31.31,0,0,1-.48,0l-.89-.81a.36.36,0,0,1,0-.51l5.38-5.76-1-3.62c0-.1-.07-.12-.17-.12h-1.44a.35.35,0,0,1-.33-.36v-1.2a.37.37,0,0,1,.38-.34h2a1,1,0,0,1,1.08.82Z" style="fill: #48554e"/>
          <path d="M806.73,611.8h-1.2a.35.35,0,0,1-.34-.36v-8.66a1.61,1.61,0,0,0-1.63-1.61h-5.13a.37.37,0,0,1-.37-.36v-1.2a.36.36,0,0,1,.37-.34h5.13a3.51,3.51,0,0,1,3.53,3.51v8.66A.37.37,0,0,1,806.73,611.8Z" style="fill: #48554e"/>
          <path d="M819.81,611.8h-1.18a.37.37,0,0,1-.36-.36v-8.66a1.61,1.61,0,0,0-1.63-1.61h-5.18a.37.37,0,0,1-.36-.36v-1.2a.35.35,0,0,1,.36-.34h5.18a3.51,3.51,0,0,1,3.53,3.51v8.66A.37.37,0,0,1,819.81,611.8Zm-6.72-4.39v4a.35.35,0,0,1-.34.36h-1.2a.37.37,0,0,1-.36-.36v-4.08c0-.58.24-2.88.24-2.88a.32.32,0,0,1,.39-.31l1.17.12a.33.33,0,0,1,.32.38S813.09,606.88,813.09,607.41Z" style="fill: #48554e"/>
          <path d="M833.78,609.11a1.47,1.47,0,1,1-1.47,1.47A1.48,1.48,0,0,1,833.78,609.11Z" style="fill: #48554e"/>
          <path d="M848.42,611.8h-1.18a.37.37,0,0,1-.36-.36v-8.66a1.61,1.61,0,0,0-1.63-1.61h-5.19a.37.37,0,0,1-.36-.36v-1.2a.35.35,0,0,1,.36-.34h5.19a3.52,3.52,0,0,1,3.53,3.51v8.66A.37.37,0,0,1,848.42,611.8Zm-6.72-4.39v4a.35.35,0,0,1-.34.36h-1.2a.37.37,0,0,1-.36-.36v-4.08c0-.58.24-2.88.24-2.88a.31.31,0,0,1,.38-.31l1.18.12a.31.31,0,0,1,.31.38S841.7,606.88,841.7,607.41Z" style="fill: #48554e"/>
          <path d="M856.62,606.88a.36.36,0,0,1-.52,0l-.77-.72a.33.33,0,0,1,0-.48c1.49-1.56,1.46-2.12,1.46-4.32a.15.15,0,0,0-.17-.17H853a.37.37,0,0,1-.36-.36v-1.2a.35.35,0,0,1,.36-.34h4.4a1.23,1.23,0,0,1,1.27,1.2V602A6,6,0,0,1,856.62,606.88Z" style="fill: #48554e"/>
          <path d="M866.3,606.88a.37.37,0,0,1-.53,0l-.77-.72a.34.34,0,0,1,0-.48c1.49-1.56,1.46-2.12,1.46-4.32a.15.15,0,0,0-.16-.17h-3.6a.36.36,0,0,1-.36-.36v-1.2a.35.35,0,0,1,.36-.34h4.39a1.23,1.23,0,0,1,1.27,1.2V602A6,6,0,0,1,866.3,606.88Z" style="fill: #48554e"/>
          <path d="M882.47,602.94c0,5-1.94,8.53-7.73,9.08a.72.72,0,0,1-.86-.77l-.48-10.15-1.18-.53a.35.35,0,0,1-.16-.46l.52-1.13a.33.33,0,0,1,.46-.14l1,.43h6.75a1.69,1.69,0,0,1,1.7,1.68Zm-1.89-1.63c0-.09-.07-.14-.19-.14h-5.12l.41,8.81c3.82-.77,4.9-3.44,4.9-6.8Z" style="fill: #48554e"/>
          <path d="M894.54,611.8h-1.2a.35.35,0,0,1-.33-.36v-8.66a1.61,1.61,0,0,0-1.63-1.61h-5.14a.37.37,0,0,1-.36-.36v-1.2a.35.35,0,0,1,.36-.34h5.14a3.51,3.51,0,0,1,3.52,3.51v8.66A.36.36,0,0,1,894.54,611.8Z" style="fill: #48554e"/>
          <path d="M899.61,604.36a6.52,6.52,0,0,1,.6-3.17l-1.32-.62a.36.36,0,0,1-.17-.46l.53-1.13a.35.35,0,0,1,.45-.14l.92.43h5.73A1.67,1.67,0,0,1,908,601v9.51a1.34,1.34,0,0,1-1.34,1.34H899.3a.37.37,0,0,1-.37-.36v-1.18a.37.37,0,0,1,.37-.35H906c.12,0,.17,0,.17-.17v-8.43a.15.15,0,0,0-.17-.14h-3.84a4.85,4.85,0,0,0-.67,2.9v.77h1.75a.32.32,0,0,1,.33.34v1.12a.34.34,0,0,1-.33.36h-2.86c-.46,0-.74-.21-.74-.76Z" style="fill: #48554e"/>
          <path d="M923.68,606.88a.37.37,0,0,1-.53,0l-.77-.72a.34.34,0,0,1,0-.48c1.49-1.56,1.47-2.12,1.47-4.32a.15.15,0,0,0-.17-.17h-3.6a.37.37,0,0,1-.36-.36v-1.2a.35.35,0,0,1,.36-.34h4.39a1.23,1.23,0,0,1,1.27,1.2V602A6,6,0,0,1,923.68,606.88Z" style="fill: #48554e"/>
          <path d="M935.54,606l2.28,4.61a.85.85,0,0,1-.75,1.22h-7.56a.37.37,0,0,1-.36-.36v-1.18a.36.36,0,0,1,.36-.35h6L930,599.85a.38.38,0,0,1,.36-.58h1.13a.67.67,0,0,1,.72.41L934.5,604l2.07-4.34c.17-.34.29-.39.57-.39h1.11c.36,0,.55.27.38.58Z" style="fill: #48554e"/>
          <path d="M943.07,599.73a.45.45,0,0,1,.43-.46h6.41a2.33,2.33,0,0,1,2.35,2.33v9.84a.36.36,0,0,1-.36.36h-1.2a.35.35,0,0,1-.33-.36v-9.91a.36.36,0,0,0-.39-.36h-5v10.27a.37.37,0,0,1-.36.36h-1.18a.37.37,0,0,1-.36-.36Z" style="fill: #48554e"/>
          <path d="M968,606.88a.37.37,0,0,1-.53,0l-.77-.72a.34.34,0,0,1,0-.48c1.49-1.56,1.47-2.12,1.47-4.32a.15.15,0,0,0-.17-.17h-3.6a.37.37,0,0,1-.36-.36v-1.2a.35.35,0,0,1,.36-.34h4.39a1.24,1.24,0,0,1,1.28,1.2V602A6,6,0,0,1,968,606.88Z" style="fill: #48554e"/>
          <path d="M979.1,611.8h-5a.37.37,0,0,1-.36-.36v-1.18a.36.36,0,0,1,.36-.35h4.25c.14,0,.19,0,.19-.17v-8.43c0-.09-.07-.14-.19-.14h-2.14a.37.37,0,0,1-.36-.36v-1.2a.35.35,0,0,1,.36-.34h2.55a1.69,1.69,0,0,1,1.68,1.68v9.51A1.34,1.34,0,0,1,979.1,611.8Z" style="fill: #48554e"/>
          <path d="M991.05,606.5l2.85,4.22a.32.32,0,0,1-.07.48l-1,.7a.32.32,0,0,1-.48-.08l-4.73-7c-.94.67-1.15,1.68-1.15,3.28v3.34a.35.35,0,0,1-.34.36H985a.37.37,0,0,1-.36-.36V608.1c0-2,.51-3.64,2.06-4.75l-2.13-3.14a.32.32,0,0,1,.07-.48l1-.7a.34.34,0,0,1,.49.07l3.81,5.64,2.16-5.08c.15-.36.29-.39.58-.39h1a.39.39,0,0,1,.38.58Z" style="fill: #48554e"/>
          <path d="M999.21,599.27c.26,0,.4.1.4.36l.15,5.09c1.49-.26,2-1,2-3.24v-1.8c0-.26.12-.41.39-.41h1a.39.39,0,0,1,.43.41l0,1.92c-.07,3.17-.89,4-3.7,4.58l.12,3.92c4.54-.53,5.71-3.17,5.71-8.81v-1.61c0-.26.12-.41.39-.41h1.1a.39.39,0,0,1,.44.41l0,1.61c-.17,6-1.25,10.2-8.43,10.68a.72.72,0,0,1-.86-.72l-.39-11.57c0-.26.12-.41.39-.41Z" style="fill: #48554e"/>
          <path d="M1025.46,606.5l2.86,4.22a.32.32,0,0,1-.07.48l-1,.7a.32.32,0,0,1-.48-.08l-4.72-7c-.94.67-1.16,1.68-1.16,3.28v3.34a.35.35,0,0,1-.33.36h-1.2a.36.36,0,0,1-.36-.36V608.1c0-2,.5-3.64,2.06-4.75l-2.14-3.14a.32.32,0,0,1,.08-.48l1-.7a.33.33,0,0,1,.48.07l3.82,5.64,2.16-5.08c.14-.36.29-.39.57-.39h1a.4.4,0,0,1,.39.58Z" style="fill: #48554e"/>
          <path d="M1036.26,611.8h-1.17a.35.35,0,0,1-.36-.36v-10c0-.05,0-.08-.08-.1l-2.76-.7a.35.35,0,0,1-.24-.43l.29-1.1a.36.36,0,0,1,.46-.27l3.43.89a.92.92,0,0,1,.79,1v10.66A.37.37,0,0,1,1036.26,611.8Z" style="fill: #48554e"/>
          <path d="M1049.46,611.8h-1.17a.36.36,0,0,1-.36-.36v-8.66a1.62,1.62,0,0,0-1.64-1.61h-5.18a.37.37,0,0,1-.36-.36v-1.2a.35.35,0,0,1,.36-.34h5.18a3.51,3.51,0,0,1,3.53,3.51v8.66A.37.37,0,0,1,1049.46,611.8Zm-6.72-4.39v4a.35.35,0,0,1-.33.36h-1.2a.36.36,0,0,1-.36-.36v-4.08c0-.58.24-2.88.24-2.88a.31.31,0,0,1,.38-.31l1.17.12a.33.33,0,0,1,.32.38S1042.74,606.88,1042.74,607.41Z" style="fill: #48554e"/>
          <path d="M746.71,643.8h-1.2a.37.37,0,0,1-.36-.36v-8.66a1.61,1.61,0,0,0-1.61-1.61h-1.87a5.9,5.9,0,0,0-1.8,4.39,7.82,7.82,0,0,0,1.65,4.7v1a.55.55,0,0,1-.55.55h-3a.36.36,0,0,1-.36-.36v-1a.36.36,0,0,1,.36-.36h1.58a7,7,0,0,1-1.54-4.44,6.07,6.07,0,0,1,1.76-4.51h-1.68a.35.35,0,0,1-.34-.36v-1.2a.33.33,0,0,1,.34-.34h5.42a3.5,3.5,0,0,1,3.51,3.51v8.66A.35.35,0,0,1,746.71,643.8Z" style="fill: #48554e"/>
          <path d="M755.2,643.8H754a.35.35,0,0,1-.36-.36v-10c0-.05,0-.08-.07-.1l-2.76-.7a.33.33,0,0,1-.24-.43l.28-1.1a.36.36,0,0,1,.46-.27l3.43.89a.92.92,0,0,1,.79,1v10.66A.36.36,0,0,1,755.2,643.8Z" style="fill: #48554e"/>
          <path d="M768.33,633.17h-1.8v10.27a.37.37,0,0,1-.36.36H765a.35.35,0,0,1-.36-.36V633.17h-4.95a.37.37,0,0,1-.36-.36v-1.2a.35.35,0,0,1,.36-.34h8.64a.35.35,0,0,1,.36.34v1.2A.37.37,0,0,1,768.33,633.17Z" style="fill: #48554e"/>
          <path d="M773.06,631.73a.45.45,0,0,1,.43-.46h6.41a2.33,2.33,0,0,1,2.35,2.33v9.84a.37.37,0,0,1-.36.36h-1.2a.35.35,0,0,1-.33-.36v-9.91a.36.36,0,0,0-.39-.36h-5v10.27a.37.37,0,0,1-.36.36h-1.18a.37.37,0,0,1-.36-.36Z" style="fill: #48554e"/>
          <path d="M790.77,643.8H789.6a.35.35,0,0,1-.36-.36v-10c0-.05,0-.08-.08-.1l-2.76-.7a.35.35,0,0,1-.24-.43l.29-1.1a.36.36,0,0,1,.46-.27l3.43.89a.92.92,0,0,1,.79,1v10.66A.37.37,0,0,1,790.77,643.8Z" style="fill: #48554e"/>
          <path d="M799,638.88a.37.37,0,0,1-.53,0l-.77-.72a.34.34,0,0,1,0-.48c1.49-1.56,1.47-2.12,1.47-4.32a.15.15,0,0,0-.17-.17h-3.6a.37.37,0,0,1-.36-.36v-1.2a.35.35,0,0,1,.36-.34h4.39a1.23,1.23,0,0,1,1.27,1.2V634A6,6,0,0,1,799,638.88Z" style="fill: #48554e"/>
          <path d="M805,632.18a.34.34,0,0,1,0-.52l.77-.82a.32.32,0,0,1,.5,0l1.23,1.15c4.32-1.61,6.12-.46,6.26,1.63l.58,8.93a1.14,1.14,0,0,1-1.13,1.27h-3.53a.37.37,0,0,1-.36-.36v-1.18a.36.36,0,0,1,.36-.35h2.57a.16.16,0,0,0,.17-.17l-.46-7.73c-.07-1.15-.89-1.49-4-.34l-1.11,9.77a.38.38,0,0,1-.43.36h-1.08a.33.33,0,0,1-.36-.41L806,633.17Z" style="fill: #48554e"/>
          <path d="M826.89,643.8h-1.17a.36.36,0,0,1-.36-.36v-8.66a1.62,1.62,0,0,0-1.64-1.61h-5.18a.37.37,0,0,1-.36-.36v-1.2a.35.35,0,0,1,.36-.34h5.18a3.51,3.51,0,0,1,3.53,3.51v8.66A.37.37,0,0,1,826.89,643.8Zm-6.72-4.39v4a.35.35,0,0,1-.33.36h-1.2a.37.37,0,0,1-.37-.36v-4.08c0-.58.25-2.88.25-2.88a.31.31,0,0,1,.38-.31l1.17.12a.33.33,0,0,1,.32.38S820.17,638.88,820.17,639.41Z" style="fill: #48554e"/>
          <path d="M847.89,643.8h-1.2a.37.37,0,0,1-.36-.36v-8.66a1.61,1.61,0,0,0-1.61-1.61h-1.87a5.9,5.9,0,0,0-1.8,4.39,7.77,7.77,0,0,0,1.66,4.7v1a.56.56,0,0,1-.56.55h-3a.37.37,0,0,1-.36-.36v-1a.37.37,0,0,1,.36-.36h1.58a7,7,0,0,1-1.53-4.44,6.06,6.06,0,0,1,1.75-4.51H839.3a.35.35,0,0,1-.34-.36v-1.2a.34.34,0,0,1,.34-.34h5.42a3.5,3.5,0,0,1,3.51,3.51v8.66A.35.35,0,0,1,847.89,643.8Z" style="fill: #48554e"/>
          <path d="M853.75,631.27c.26,0,.4.1.4.36l.15,5.09c1.49-.26,2-1,2-3.24v-1.8c0-.26.12-.41.38-.41h1a.39.39,0,0,1,.44.41L858,633.6c-.07,3.17-.89,4-3.7,4.58l.12,3.92c4.54-.53,5.71-3.17,5.71-8.81v-1.61c0-.26.12-.41.39-.41h1.1a.38.38,0,0,1,.43.41l0,1.61c-.17,6-1.25,10.2-8.43,10.68a.72.72,0,0,1-.86-.72l-.39-11.57c0-.26.12-.41.39-.41Z" style="fill: #48554e"/>
          <path d="M870.11,643.8h-1.17a.35.35,0,0,1-.36-.36v-10c0-.05,0-.08-.07-.1l-2.76-.7a.33.33,0,0,1-.24-.43l.28-1.1a.36.36,0,0,1,.46-.27l3.43.89a.92.92,0,0,1,.79,1v10.66A.36.36,0,0,1,870.11,643.8Z" style="fill: #48554e"/>
          <path d="M875.08,631.73a.45.45,0,0,1,.43-.46h6.41a2.33,2.33,0,0,1,2.35,2.33v9.84a.36.36,0,0,1-.36.36h-1.2a.35.35,0,0,1-.33-.36v-9.91a.36.36,0,0,0-.39-.36h-5v10.27a.37.37,0,0,1-.36.36h-1.18a.37.37,0,0,1-.36-.36Z" style="fill: #48554e"/>
          <path d="M897.47,643.8h-1.2a.37.37,0,0,1-.36-.36v-8.66a1.61,1.61,0,0,0-1.6-1.61h-1.88a5.94,5.94,0,0,0-1.8,4.39,7.77,7.77,0,0,0,1.66,4.7v1a.55.55,0,0,1-.55.55h-3a.37.37,0,0,1-.36-.36v-1a.37.37,0,0,1,.36-.36h1.59a7,7,0,0,1-1.54-4.44,6.1,6.1,0,0,1,1.75-4.51h-1.68a.35.35,0,0,1-.33-.36v-1.2a.33.33,0,0,1,.33-.34h5.43a3.49,3.49,0,0,1,3.5,3.51v8.66A.35.35,0,0,1,897.47,643.8Z" style="fill: #48554e"/>
          <path d="M906.38,643.92a.33.33,0,0,1-.46.19l-1.25-.43a.36.36,0,0,1-.19-.5l4-9.8c0-.12,0-.21-.12-.21h-6.43a.37.37,0,0,1-.36-.36V627a.37.37,0,0,1,.36-.36h1.17a.36.36,0,0,1,.36.36v4.25h6a1.25,1.25,0,0,1,1.15,1.75Z" style="fill: #48554e"/>
          <path d="M923.46,642c.1-.41.2-.48.56-.48h1.7c.24,0,.36.16.24.43l-2.06,4.68a.38.38,0,0,1-.56.22l-.57-.24a.4.4,0,0,1-.29-.53Z" style="fill: #48554e"/>
          <path d="M939.19,643.8H938a.37.37,0,0,1-.36-.36v-8.66a1.61,1.61,0,0,0-1.63-1.61h-5.19a.37.37,0,0,1-.36-.36v-1.2a.35.35,0,0,1,.36-.34H936a3.52,3.52,0,0,1,3.53,3.51v8.66A.37.37,0,0,1,939.19,643.8Zm-6.72-4.39v4a.35.35,0,0,1-.34.36h-1.2a.37.37,0,0,1-.36-.36v-4.08c0-.58.24-2.88.24-2.88a.31.31,0,0,1,.38-.31l1.18.12a.32.32,0,0,1,.31.38S932.47,638.88,932.47,639.41Z" style="fill: #48554e"/>
          <path d="M947.82,643.8h-1.17a.35.35,0,0,1-.36-.36v-10c0-.05,0-.08-.07-.1l-2.76-.7a.33.33,0,0,1-.24-.43l.28-1.1a.36.36,0,0,1,.46-.27l3.43.89a.92.92,0,0,1,.79,1v10.66A.36.36,0,0,1,947.82,643.8Z" style="fill: #48554e"/>
          <path d="M956.46,643.8h-1.17a.35.35,0,0,1-.36-.36v-10c0-.05,0-.08-.07-.1l-2.76-.7a.33.33,0,0,1-.24-.43l.28-1.1a.36.36,0,0,1,.46-.27l3.43.89a.92.92,0,0,1,.79,1v10.66A.36.36,0,0,1,956.46,643.8Z" style="fill: #48554e"/>
          <path d="M967.31,638.5l2.86,4.22a.33.33,0,0,1-.07.48l-1,.7a.32.32,0,0,1-.48-.08l-4.73-7c-.93.67-1.15,1.68-1.15,3.28v3.34a.35.35,0,0,1-.33.36h-1.2a.37.37,0,0,1-.37-.36V640.1c0-2,.51-3.64,2.07-4.75l-2.14-3.14a.33.33,0,0,1,.07-.48l1-.7a.33.33,0,0,1,.48.07l3.82,5.64,2.16-5.08c.14-.36.28-.39.57-.39h1a.39.39,0,0,1,.38.58Z" style="fill: #48554e"/>
          <path d="M982.53,643.37a.31.31,0,0,1-.31.43h-1.13a.45.45,0,0,1-.46-.31l-1.32-4.56L974.73,644a.31.31,0,0,1-.48,0l-.89-.81a.36.36,0,0,1,0-.51l5.38-5.76-1-3.62c0-.1-.07-.12-.16-.12H976.1a.35.35,0,0,1-.34-.36v-1.2a.37.37,0,0,1,.38-.34h2a1,1,0,0,1,1.08.82Z" style="fill: #48554e"/>
          <path d="M990.28,643.92a.33.33,0,0,1-.46.19l-1.24-.43a.36.36,0,0,1-.2-.5l4-9.8c.05-.12,0-.21-.12-.21h-6.43a.37.37,0,0,1-.36-.36V627a.37.37,0,0,1,.36-.36H987a.37.37,0,0,1,.36.36v4.25h6a1.27,1.27,0,0,1,.5.1,1.29,1.29,0,0,1,.65,1.65Z" style="fill: #48554e"/>
          <path d="M1014.21,643.8H1013a.35.35,0,0,1-.34-.36v-8.66a1.61,1.61,0,0,0-1.63-1.61h-5.14a.37.37,0,0,1-.36-.36v-1.2a.35.35,0,0,1,.36-.34H1011a3.52,3.52,0,0,1,3.53,3.51v8.66A.37.37,0,0,1,1014.21,643.8Z" style="fill: #48554e"/>
          <path d="M1022.73,643.8h-1.18a.35.35,0,0,1-.36-.36v-10c0-.05,0-.08-.07-.1l-2.76-.7a.34.34,0,0,1-.24-.43l.29-1.1a.35.35,0,0,1,.45-.27l3.43.89a.93.93,0,0,1,.8,1v10.66A.37.37,0,0,1,1022.73,643.8Z" style="fill: #48554e"/>
          <path d="M1035.57,631.27a1.53,1.53,0,0,1,.33.05,1.21,1.21,0,0,1,.87,1.49l-3.27,10.68a.33.33,0,0,1-.45.19l-1.25-.38a.3.3,0,0,1-.22-.41l3.05-9.51c0-.12,0-.21-.12-.21h-6.94a.37.37,0,0,1-.36-.36v-1.2a.35.35,0,0,1,.36-.34Zm-8.31,8.09c0-.58.24-2.88.24-2.88a.32.32,0,0,1,.39-.31l1.17.12a.31.31,0,0,1,.31.38s-.21,2.21-.21,2.74v6.89a.33.33,0,0,1-.36.33h-1.18a.35.35,0,0,1-.36-.33Z" style="fill: #48554e"/>
          <path d="M1040.73,632.18a.33.33,0,0,1,0-.52l.77-.82a.32.32,0,0,1,.5,0l1.23,1.15c4.32-1.61,6.12-.46,6.26,1.63l.58,8.93a1.14,1.14,0,0,1-1.13,1.27h-3.53a.37.37,0,0,1-.36-.36v-1.18a.36.36,0,0,1,.36-.35H1048a.16.16,0,0,0,.17-.17l-.46-7.73c-.07-1.15-.89-1.49-4.05-.34l-1.11,9.77a.38.38,0,0,1-.43.36H1041a.34.34,0,0,1-.36-.41l1.15-10.22Z" style="fill: #48554e"/>
          <path d="M731.66,675.8h-1.2a.37.37,0,0,1-.36-.36v-8.66a1.61,1.61,0,0,0-1.61-1.61h-1.87a5.9,5.9,0,0,0-1.8,4.39,7.77,7.77,0,0,0,1.66,4.7v1a.56.56,0,0,1-.56.55h-3a.37.37,0,0,1-.36-.36v-1a.37.37,0,0,1,.36-.36h1.58a7,7,0,0,1-1.53-4.44,6.06,6.06,0,0,1,1.75-4.51h-1.68a.35.35,0,0,1-.34-.36v-1.2a.34.34,0,0,1,.34-.34h5.42a3.5,3.5,0,0,1,3.51,3.51v8.66A.35.35,0,0,1,731.66,675.8Z" style="fill: #48554e"/>
          <path d="M740.16,675.8H739a.35.35,0,0,1-.36-.36v-10c0-.05,0-.08-.07-.1l-2.76-.7a.34.34,0,0,1-.24-.43l.29-1.1a.35.35,0,0,1,.45-.27l3.43.89a.93.93,0,0,1,.8,1v10.66A.37.37,0,0,1,740.16,675.8Z" style="fill: #48554e"/>
          <path d="M752.83,675.8h-1.2a.35.35,0,0,1-.34-.36v-8.66a1.61,1.61,0,0,0-1.63-1.61h-5.14a.37.37,0,0,1-.36-.36v-1.2a.35.35,0,0,1,.36-.34h5.14a3.52,3.52,0,0,1,3.53,3.51v8.66A.37.37,0,0,1,752.83,675.8Z" style="fill: #48554e"/>
          <path d="M761.35,675.8h-1.18a.35.35,0,0,1-.36-.36v-10c0-.05,0-.08-.07-.1l-2.76-.7a.34.34,0,0,1-.24-.43l.29-1.1a.35.35,0,0,1,.45-.27l3.43.89a.93.93,0,0,1,.8,1v10.66A.37.37,0,0,1,761.35,675.8Z" style="fill: #48554e"/>
          <path d="M766.31,663.73a.46.46,0,0,1,.44-.46h6.4a2.34,2.34,0,0,1,2.36,2.33v9.84a.37.37,0,0,1-.36.36H774a.35.35,0,0,1-.34-.36v-9.91a.36.36,0,0,0-.38-.36h-5v10.27a.37.37,0,0,1-.36.36h-1.18a.37.37,0,0,1-.36-.36Z" style="fill: #48554e"/>
          <path d="M788.64,675.8H780a.37.37,0,0,1-.36-.36v-1.18a.35.35,0,0,1,.36-.35h5.55v-7.13a1.61,1.61,0,0,0-1.61-1.61h-3.17a.37.37,0,0,1-.36-.36v-1.2a.35.35,0,0,1,.36-.34h3.17a3.49,3.49,0,0,1,3.5,3.51v7.13h1.21a.34.34,0,0,1,.35.35v1.18A.36.36,0,0,1,788.64,675.8Z" style="fill: #48554e"/>
          <path d="M801.6,675.8h-1.18a.37.37,0,0,1-.36-.36v-8.66a1.61,1.61,0,0,0-1.63-1.61h-5.19a.37.37,0,0,1-.36-.36v-1.2a.35.35,0,0,1,.36-.34h5.19a3.51,3.51,0,0,1,3.52,3.51v8.66A.36.36,0,0,1,801.6,675.8Zm-6.73-4.39v4a.35.35,0,0,1-.33.36h-1.2a.37.37,0,0,1-.36-.36v-4.08c0-.58.24-2.88.24-2.88a.31.31,0,0,1,.38-.31l1.18.12a.32.32,0,0,1,.31.38S794.87,670.88,794.87,671.41Z" style="fill: #48554e"/>
          <path d="M818.32,675.92a.32.32,0,0,1-.45.19l-1.25-.43a.36.36,0,0,1-.19-.5l4-9.8c.05-.12,0-.21-.12-.21h-6.43a.37.37,0,0,1-.36-.36V659a.37.37,0,0,1,.36-.36h1.18a.37.37,0,0,1,.36.36v4.25h6a1.24,1.24,0,0,1,.5.1,1.29,1.29,0,0,1,.65,1.65Z" style="fill: #48554e"/>
          <path d="M830.1,670.88a.36.36,0,0,1-.52,0l-.77-.72a.34.34,0,0,1,0-.48c1.49-1.56,1.46-2.12,1.46-4.32a.15.15,0,0,0-.17-.17h-3.59a.37.37,0,0,1-.37-.36v-1.2a.36.36,0,0,1,.37-.34h4.39a1.23,1.23,0,0,1,1.27,1.2V666A6,6,0,0,1,830.1,670.88Z" style="fill: #48554e"/>
          <path d="M840.62,675.92a.33.33,0,0,1-.46.19l-1.25-.43a.36.36,0,0,1-.19-.5l4-9.8c0-.12,0-.21-.12-.21h-6.43a.37.37,0,0,1-.36-.36V659a.37.37,0,0,1,.36-.36h1.17a.36.36,0,0,1,.36.36v4.25h6a1.25,1.25,0,0,1,1.15,1.75Z" style="fill: #48554e"/>
          <path d="M857.44,675.8H848.8a.37.37,0,0,1-.36-.36v-1.18a.35.35,0,0,1,.36-.35h5.55v-7.13a1.61,1.61,0,0,0-1.61-1.61h-3.17a.37.37,0,0,1-.36-.36v-1.2a.35.35,0,0,1,.36-.34h3.17a3.49,3.49,0,0,1,3.5,3.51v7.13h1.2a.35.35,0,0,1,.36.35v1.18A.37.37,0,0,1,857.44,675.8Z" style="fill: #48554e"/>
          <path d="M861.71,664.18a.33.33,0,0,1,0-.52l.77-.82a.32.32,0,0,1,.5,0l1.22,1.15c4.33-1.61,6.13-.46,6.27,1.63l.58,8.93a1.15,1.15,0,0,1-1.13,1.27h-3.53a.37.37,0,0,1-.36-.36v-1.18a.36.36,0,0,1,.36-.35h2.57a.15.15,0,0,0,.16-.17l-.45-7.73c-.07-1.15-.89-1.49-4.06-.34l-1.1,9.77a.39.39,0,0,1-.43.36H862a.33.33,0,0,1-.36-.41l1.15-10.22Z" style="fill: #48554e"/>
          <path d="M887.18,675.92a.34.34,0,0,1-.46.19l-1.25-.43a.36.36,0,0,1-.19-.5l4-9.8c.05-.12,0-.21-.12-.21h-6.43a.36.36,0,0,1-.36-.36V659a.36.36,0,0,1,.36-.36h1.17a.37.37,0,0,1,.36.36v4.25h6a1.25,1.25,0,0,1,1.15,1.75Z" style="fill: #48554e"/>
          <path d="M903.88,665.17h-1.8v10.27a.37.37,0,0,1-.36.36h-1.18a.36.36,0,0,1-.36-.36V665.17h-4.94a.37.37,0,0,1-.36-.36v-1.2a.35.35,0,0,1,.36-.34h8.64a.35.35,0,0,1,.36.34v1.2A.37.37,0,0,1,903.88,665.17Z" style="fill: #48554e"/>
          <path d="M916.89,675.8h-8.64a.37.37,0,0,1-.36-.36v-1.18a.35.35,0,0,1,.36-.35h5.54v-7.13a1.61,1.61,0,0,0-1.61-1.61H909a.36.36,0,0,1-.36-.36v-1.2a.35.35,0,0,1,.36-.34h3.16a3.5,3.5,0,0,1,3.51,3.51v7.13h1.2a.35.35,0,0,1,.36.35v1.18A.37.37,0,0,1,916.89,675.8Z" style="fill: #48554e"/>
          <path d="M924.86,670.88a.37.37,0,0,1-.53,0l-.77-.72a.34.34,0,0,1,0-.48c1.49-1.56,1.46-2.12,1.46-4.32a.15.15,0,0,0-.16-.17h-3.6a.36.36,0,0,1-.36-.36v-1.2a.35.35,0,0,1,.36-.34h4.39a1.23,1.23,0,0,1,1.27,1.2V666A6,6,0,0,1,924.86,670.88Z" style="fill: #48554e"/>
          <path d="M939.52,675.8h-1.18a.37.37,0,0,1-.36-.36v-8.66a1.61,1.61,0,0,0-1.63-1.61h-5.18a.37.37,0,0,1-.36-.36v-1.2a.35.35,0,0,1,.36-.34h5.18a3.51,3.51,0,0,1,3.53,3.51v8.66A.37.37,0,0,1,939.52,675.8Zm-6.72-4.39v4a.35.35,0,0,1-.34.36h-1.2a.37.37,0,0,1-.36-.36v-4.08c0-.58.24-2.88.24-2.88a.32.32,0,0,1,.39-.31l1.17.12a.33.33,0,0,1,.32.38S932.8,670.88,932.8,671.41Z" style="fill: #48554e"/>
          <path d="M948.57,675.92a.33.33,0,0,1-.46.19l-1.25-.43a.36.36,0,0,1-.19-.5l4-9.8c.05-.12,0-.21-.12-.21h-6.43a.36.36,0,0,1-.36-.36V659a.36.36,0,0,1,.36-.36h1.17a.36.36,0,0,1,.36.36v4.25h6a1.25,1.25,0,0,1,1.15,1.75Z" style="fill: #48554e"/>
          <path d="M972.47,678.63h-1.2a.33.33,0,0,1-.34-.33V666.78a1.61,1.61,0,0,0-1.63-1.61h-4.87a.37.37,0,0,1-.36-.36v-1.2a.35.35,0,0,1,.36-.34h4.87a3.51,3.51,0,0,1,3.53,3.51V678.3A.35.35,0,0,1,972.47,678.63Z" style="fill: #48554e"/>
          <path d="M985.26,675.8h-1.2a.35.35,0,0,1-.33-.36v-8.66a1.61,1.61,0,0,0-1.63-1.61H977a.37.37,0,0,1-.36-.36v-1.2a.35.35,0,0,1,.36-.34h5.14a3.51,3.51,0,0,1,3.52,3.51v8.66A.37.37,0,0,1,985.26,675.8Z" style="fill: #48554e"/>
          <path d="M998.27,665.17h-1.8v10.27a.37.37,0,0,1-.36.36h-1.18a.36.36,0,0,1-.36-.36V665.17h-4.94a.37.37,0,0,1-.36-.36v-1.2a.35.35,0,0,1,.36-.34h8.64a.35.35,0,0,1,.36.34v1.2A.37.37,0,0,1,998.27,665.17Z" style="fill: #48554e"/>
          <path d="M1012,673.11a1.47,1.47,0,1,1-1.47,1.47A1.48,1.48,0,0,1,1012,673.11Z" style="fill: #48554e"/>
          <path d="M1021.65,670.88a.37.37,0,0,1-.53,0l-.77-.72a.34.34,0,0,1,0-.48c1.49-1.56,1.46-2.12,1.46-4.32a.15.15,0,0,0-.16-.17h-3.6a.36.36,0,0,1-.36-.36v-1.2a.35.35,0,0,1,.36-.34h4.39a1.23,1.23,0,0,1,1.27,1.2V666A6,6,0,0,1,1021.65,670.88Z" style="fill: #48554e"/>
          <path d="M1032.16,675.92a.33.33,0,0,1-.46.19l-1.25-.43a.36.36,0,0,1-.19-.5l4-9.8c0-.12,0-.21-.12-.21h-6.43a.37.37,0,0,1-.36-.36V659a.37.37,0,0,1,.36-.36h1.17a.36.36,0,0,1,.36.36v4.25h6a1.25,1.25,0,0,1,1.15,1.75Z" style="fill: #48554e"/>
          <path d="M1041.73,663.27c.27,0,.41.1.41.36l.15,5.09c1.48-.26,2-1,2-3.24v-1.8c0-.26.12-.41.38-.41h1a.38.38,0,0,1,.43.41l0,1.92c-.08,3.17-.89,4-3.7,4.58l.12,3.92c4.54-.53,5.71-3.17,5.71-8.81v-1.61c0-.26.12-.41.39-.41h1.1a.39.39,0,0,1,.43.41l0,1.61c-.17,6-1.25,10.2-8.43,10.68a.72.72,0,0,1-.86-.72l-.39-11.57c0-.26.12-.41.39-.41Z" style="fill: #48554e"/>
          <path d="M717.12,707.8h-1.18a.35.35,0,0,1-.36-.36v-10c0-.05,0-.08-.07-.1l-2.76-.7a.34.34,0,0,1-.24-.43l.29-1.1a.35.35,0,0,1,.45-.27l3.43.89a.93.93,0,0,1,.8,1v10.66A.37.37,0,0,1,717.12,707.8Z" style="fill: #48554e"/>
          <path d="M725.32,702.88a.36.36,0,0,1-.52,0l-.77-.72a.33.33,0,0,1,0-.48c1.49-1.56,1.46-2.12,1.46-4.32a.15.15,0,0,0-.17-.17h-3.6a.37.37,0,0,1-.36-.36v-1.2a.35.35,0,0,1,.36-.34h4.39a1.23,1.23,0,0,1,1.28,1.2V698A6,6,0,0,1,725.32,702.88Z" style="fill: #48554e"/>
          <path d="M740,707.8h-1.18a.37.37,0,0,1-.36-.36v-8.66a1.61,1.61,0,0,0-1.63-1.61h-5.19a.37.37,0,0,1-.36-.36v-1.2a.35.35,0,0,1,.36-.34h5.19a3.52,3.52,0,0,1,3.53,3.51v8.66A.37.37,0,0,1,740,707.8Zm-6.72-4.39v4a.35.35,0,0,1-.34.36h-1.2a.37.37,0,0,1-.36-.36v-4.08c0-.58.24-2.88.24-2.88a.31.31,0,0,1,.38-.31l1.18.12a.31.31,0,0,1,.31.38S733.27,702.88,733.27,703.41Z" style="fill: #48554e"/>
          <path d="M754,705.11a1.47,1.47,0,1,1-1.46,1.47A1.49,1.49,0,0,1,754,705.11Z" style="fill: #48554e"/>
          <path d="M764.27,710.63H763.1a.35.35,0,0,1-.36-.36V697.46c0-.05,0-.08-.07-.1l-2.76-.7a.33.33,0,0,1-.24-.43l.28-1.1a.34.34,0,0,1,.46-.27l3.43.89a1,1,0,0,1,.79,1.11v13.41A.36.36,0,0,1,764.27,710.63Z" style="fill: #48554e"/>
          <path d="M777.35,707.8h-1.2a.37.37,0,0,1-.36-.36v-8.66a1.61,1.61,0,0,0-1.6-1.61h-1.88a5.94,5.94,0,0,0-1.8,4.39,7.77,7.77,0,0,0,1.66,4.7v1a.55.55,0,0,1-.55.55h-3a.37.37,0,0,1-.36-.36v-1a.37.37,0,0,1,.36-.36h1.59a7,7,0,0,1-1.54-4.44,6.1,6.1,0,0,1,1.75-4.51h-1.68a.35.35,0,0,1-.33-.36v-1.2a.33.33,0,0,1,.33-.34h5.43a3.49,3.49,0,0,1,3.5,3.51v8.66A.35.35,0,0,1,777.35,707.8Z" style="fill: #48554e"/>
          <path d="M785.42,702.88a.37.37,0,0,1-.53,0l-.77-.72a.34.34,0,0,1,0-.48c1.49-1.56,1.47-2.12,1.47-4.32a.16.16,0,0,0-.17-.17h-3.6a.37.37,0,0,1-.36-.36v-1.2a.35.35,0,0,1,.36-.34h4.39a1.23,1.23,0,0,1,1.27,1.2V698A6,6,0,0,1,785.42,702.88Z" style="fill: #48554e"/>
          <path d="M797.73,702.5l2.86,4.22a.32.32,0,0,1-.08.48l-1,.7a.32.32,0,0,1-.48-.08l-4.73-7c-.93.67-1.15,1.68-1.15,3.28v3.34a.35.35,0,0,1-.34.36h-1.2a.37.37,0,0,1-.36-.36V704.1c0-2,.51-3.64,2.07-4.75l-2.14-3.14a.32.32,0,0,1,.07-.48l1-.7a.33.33,0,0,1,.48.07l3.81,5.64,2.16-5.08c.15-.36.29-.39.58-.39h1a.39.39,0,0,1,.38.58Z" style="fill: #48554e"/>
          <path d="M818.42,702.5l2.85,4.22a.32.32,0,0,1-.07.48l-1,.7a.32.32,0,0,1-.48-.08l-4.73-7c-.94.67-1.15,1.68-1.15,3.28v3.34a.35.35,0,0,1-.34.36h-1.2a.37.37,0,0,1-.36-.36V704.1c0-2,.51-3.64,2.07-4.75l-2.14-3.14a.32.32,0,0,1,.07-.48l1-.7a.33.33,0,0,1,.48.07l3.81,5.64,2.16-5.08c.15-.36.29-.39.58-.39h1a.39.39,0,0,1,.38.58Z" style="fill: #48554e"/>
          <path d="M831,702l2.28,4.61a.84.84,0,0,1-.74,1.22H825a.36.36,0,0,1-.36-.36v-1.18a.36.36,0,0,1,.36-.35h5.95l-5.5-10.06a.39.39,0,0,1,.36-.58h1.13a.66.66,0,0,1,.72.41l2.33,4.32,2.06-4.34c.17-.34.29-.39.58-.39h1.1c.36,0,.55.27.39.58Z" style="fill: #48554e"/>
          <path d="M841.74,702.88a.36.36,0,0,1-.52,0l-.77-.72a.34.34,0,0,1,0-.48c1.49-1.56,1.46-2.12,1.46-4.32a.15.15,0,0,0-.17-.17h-3.6a.37.37,0,0,1-.36-.36v-1.2a.35.35,0,0,1,.36-.34h4.4a1.23,1.23,0,0,1,1.27,1.2V698A6,6,0,0,1,841.74,702.88Z" style="fill: #48554e"/>
          <path d="M859.1,702.88a.37.37,0,0,1-.53,0l-.77-.72a.34.34,0,0,1,0-.48c1.49-1.56,1.47-2.12,1.47-4.32a.16.16,0,0,0-.17-.17h-3.6a.37.37,0,0,1-.36-.36v-1.2a.35.35,0,0,1,.36-.34h4.39a1.23,1.23,0,0,1,1.27,1.2V698A6,6,0,0,1,859.1,702.88Z" style="fill: #48554e"/>
          <path d="M869.61,707.92a.33.33,0,0,1-.46.19l-1.24-.43a.36.36,0,0,1-.2-.5l4-9.8c0-.12,0-.21-.12-.21h-6.43a.37.37,0,0,1-.36-.36V691a.37.37,0,0,1,.36-.36h1.18a.37.37,0,0,1,.36.36v4.25h5.95a1.27,1.27,0,0,1,.5.1,1.29,1.29,0,0,1,.65,1.65Z" style="fill: #48554e"/>
          <path d="M879.18,695.27c.27,0,.41.1.41.36l.15,5.09c1.48-.26,2-1,2-3.24v-1.8c0-.26.12-.41.38-.41h1a.38.38,0,0,1,.43.41l0,1.92c-.08,3.17-.89,4-3.7,4.58l.12,3.92c4.54-.53,5.71-3.17,5.71-8.81v-1.61c0-.26.12-.41.39-.41h1.1a.38.38,0,0,1,.43.41l0,1.61c-.17,6-1.25,10.2-8.43,10.68a.72.72,0,0,1-.86-.72l-.39-11.57c0-.26.12-.41.39-.41Z" style="fill: #48554e"/>
          <path d="M900,708.07a.36.36,0,0,1-.38-.37l-.58-12.07a.33.33,0,0,1,.34-.36h1.17a.32.32,0,0,1,.36.34l.48,10.49c3.82-.48,5.28-2.88,5.28-6.92v-1.77c0-.12-.05-.15-.16-.17l-2.72-.36a.31.31,0,0,1-.29-.38l.2-1.18a.32.32,0,0,1,.4-.29l3.13.43a1.37,1.37,0,0,1,1.34,1.52v2.2C908.61,704.75,905.82,708.07,900,708.07Z" style="fill: #48554e"/>
          <path d="M916.22,702.88a.37.37,0,0,1-.53,0l-.77-.72a.34.34,0,0,1,0-.48c1.49-1.56,1.46-2.12,1.46-4.32a.15.15,0,0,0-.16-.17h-3.6a.36.36,0,0,1-.36-.36v-1.2a.35.35,0,0,1,.36-.34H917a1.23,1.23,0,0,1,1.27,1.2V698A6,6,0,0,1,916.22,702.88Z" style="fill: #48554e"/>
          <path d="M925.89,702.88a.37.37,0,0,1-.53,0l-.77-.72a.34.34,0,0,1,0-.48c1.49-1.56,1.47-2.12,1.47-4.32a.16.16,0,0,0-.17-.17h-3.6a.37.37,0,0,1-.36-.36v-1.2a.35.35,0,0,1,.36-.34h4.39a1.23,1.23,0,0,1,1.27,1.2V698A6,6,0,0,1,925.89,702.88Z" style="fill: #48554e"/>
          <path d="M940.48,697.17h-1.8v10.27a.37.37,0,0,1-.36.36h-1.18a.36.36,0,0,1-.36-.36V697.17h-4.94a.37.37,0,0,1-.36-.36v-1.2a.35.35,0,0,1,.36-.34h8.64a.35.35,0,0,1,.36.34v1.2A.37.37,0,0,1,940.48,697.17Z" style="fill: #48554e"/>
          <path d="M953.44,707.8h-1.18a.37.37,0,0,1-.36-.36v-8.66a1.61,1.61,0,0,0-1.63-1.61h-5.18a.37.37,0,0,1-.36-.36v-1.2a.35.35,0,0,1,.36-.34h5.18a3.51,3.51,0,0,1,3.53,3.51v8.66A.37.37,0,0,1,953.44,707.8Zm-6.72-4.39v4a.35.35,0,0,1-.34.36h-1.2a.37.37,0,0,1-.36-.36v-4.08c0-.58.24-2.88.24-2.88a.32.32,0,0,1,.39-.31l1.17.12a.33.33,0,0,1,.32.38S946.72,702.88,946.72,703.41Z" style="fill: #48554e"/>
          <path d="M959.44,695.27c.26,0,.41.1.41.36l.14,5.09c1.49-.26,2-1,2-3.24v-1.8c0-.26.12-.41.39-.41h1a.39.39,0,0,1,.43.41l0,1.92c-.07,3.17-.89,4-3.69,4.58l.12,3.92c4.53-.53,5.71-3.17,5.71-8.81v-1.61c0-.26.12-.41.38-.41h1.11a.39.39,0,0,1,.43.41l0,1.61c-.17,6-1.25,10.2-8.42,10.68a.73.73,0,0,1-.87-.72l-.38-11.57c0-.26.12-.41.38-.41Z" style="fill: #48554e"/>
          <path d="M988.17,707.8H987a.37.37,0,0,1-.36-.36v-8.66a1.61,1.61,0,0,0-1.61-1.61h-1.87a5.9,5.9,0,0,0-1.8,4.39,7.82,7.82,0,0,0,1.65,4.7v1a.55.55,0,0,1-.55.55h-3a.36.36,0,0,1-.36-.36v-1a.36.36,0,0,1,.36-.36H981a7,7,0,0,1-1.54-4.44,6.07,6.07,0,0,1,1.76-4.51h-1.68a.35.35,0,0,1-.34-.36v-1.2a.33.33,0,0,1,.34-.34H985a3.49,3.49,0,0,1,3.5,3.51v8.66A.35.35,0,0,1,988.17,707.8Z" style="fill: #48554e"/>
          <path d="M996.66,707.8h-1.17a.35.35,0,0,1-.36-.36v-10c0-.05,0-.08-.07-.1l-2.76-.7a.33.33,0,0,1-.24-.43l.28-1.1a.36.36,0,0,1,.46-.27l3.43.89a.92.92,0,0,1,.79,1v10.66A.37.37,0,0,1,996.66,707.8Z" style="fill: #48554e"/>
          <path d="M1009.34,707.8h-1.2a.35.35,0,0,1-.34-.36v-8.66a1.61,1.61,0,0,0-1.63-1.61H1001a.37.37,0,0,1-.36-.36v-1.2a.35.35,0,0,1,.36-.34h5.14a3.52,3.52,0,0,1,3.53,3.51v8.66A.37.37,0,0,1,1009.34,707.8Z" style="fill: #48554e"/>
          <path d="M1014.18,695.73a.45.45,0,0,1,.43-.46H1021a2.34,2.34,0,0,1,2.36,2.33v9.84a.37.37,0,0,1-.36.36h-1.21a.35.35,0,0,1-.33-.36v-9.91a.36.36,0,0,0-.38-.36h-5v10.27a.37.37,0,0,1-.36.36h-1.18a.37.37,0,0,1-.36-.36Z" style="fill: #48554e"/>
          <path d="M1034.1,702.5l2.86,4.22a.32.32,0,0,1-.07.48l-1,.7a.32.32,0,0,1-.48-.08l-4.73-7c-.93.67-1.15,1.68-1.15,3.28v3.34a.35.35,0,0,1-.33.36H1028a.36.36,0,0,1-.36-.36V704.1c0-2,.5-3.64,2.06-4.75l-2.14-3.14a.32.32,0,0,1,.08-.48l1-.7a.33.33,0,0,1,.48.07l3.82,5.64,2.16-5.08c.14-.36.29-.39.57-.39h1a.4.4,0,0,1,.39.58Z" style="fill: #48554e"/>
          <path d="M1049.46,707.8h-1.17a.37.37,0,0,1-.36-.36v-8.66a1.62,1.62,0,0,0-1.64-1.61h-5.18a.37.37,0,0,1-.36-.36v-1.2a.35.35,0,0,1,.36-.34h5.18a3.51,3.51,0,0,1,3.53,3.51v8.66A.37.37,0,0,1,1049.46,707.8Zm-6.72-4.39v4a.35.35,0,0,1-.33.36h-1.2a.36.36,0,0,1-.36-.36v-4.08c0-.58.24-2.88.24-2.88a.31.31,0,0,1,.38-.31l1.18.12a.32.32,0,0,1,.31.38S1042.74,702.88,1042.74,703.41Z" style="fill: #48554e"/>
          <path d="M710.71,739.8h-1.2a.35.35,0,0,1-.34-.36v-8.66a1.61,1.61,0,0,0-1.63-1.61H702.4a.37.37,0,0,1-.36-.36v-1.2a.35.35,0,0,1,.36-.34h5.14a3.52,3.52,0,0,1,3.53,3.51v8.66A.37.37,0,0,1,710.71,739.8Z" style="fill: #48554e"/>
          <path d="M719.23,739.8h-1.18a.36.36,0,0,1-.36-.36v-10c0-.05,0-.08-.07-.1l-2.76-.7a.34.34,0,0,1-.24-.43l.29-1.1a.36.36,0,0,1,.45-.27l3.44.89a.93.93,0,0,1,.79,1v10.66A.37.37,0,0,1,719.23,739.8Z" style="fill: #48554e"/>
          <path d="M724.19,727.73a.46.46,0,0,1,.44-.46H731a2.34,2.34,0,0,1,2.35,2.33v9.84a.37.37,0,0,1-.36.36h-1.2a.35.35,0,0,1-.34-.36v-9.91a.36.36,0,0,0-.38-.36h-5v10.27a.37.37,0,0,1-.36.36h-1.17a.37.37,0,0,1-.37-.36Z" style="fill: #48554e"/>
          <path d="M746.52,739.8h-8.65a.37.37,0,0,1-.36-.36v-1.18a.35.35,0,0,1,.36-.35h5.55v-7.13a1.61,1.61,0,0,0-1.61-1.61h-3.17a.37.37,0,0,1-.36-.36v-1.2a.35.35,0,0,1,.36-.34h3.17a3.49,3.49,0,0,1,3.5,3.51v7.13h1.21a.34.34,0,0,1,.35.35v1.18A.36.36,0,0,1,746.52,739.8Z" style="fill: #48554e"/>
          <path d="M759.48,739.8H758.3a.37.37,0,0,1-.36-.36v-8.66a1.61,1.61,0,0,0-1.63-1.61h-5.19a.37.37,0,0,1-.36-.36v-1.2a.35.35,0,0,1,.36-.34h5.19a3.51,3.51,0,0,1,3.52,3.51v8.66A.36.36,0,0,1,759.48,739.8Zm-6.73-4.39v4a.35.35,0,0,1-.33.36h-1.2a.37.37,0,0,1-.36-.36v-4.08c0-.58.24-2.88.24-2.88a.31.31,0,0,1,.38-.31l1.18.12a.32.32,0,0,1,.31.38S752.75,734.88,752.75,735.41Z" style="fill: #48554e"/>
          <path d="M776.2,739.92a.32.32,0,0,1-.45.19l-1.25-.43a.36.36,0,0,1-.19-.5l4-9.8c.05-.12,0-.21-.12-.21h-6.43a.37.37,0,0,1-.36-.36V723a.37.37,0,0,1,.36-.36h1.18a.37.37,0,0,1,.36.36v4.25h6a1.24,1.24,0,0,1,.5.1,1.29,1.29,0,0,1,.65,1.65Z" style="fill: #48554e"/>
          <path d="M785.78,727.27c.26,0,.41.1.41.36l.14,5.09c1.49-.26,2-1,2-3.24v-1.8c0-.26.12-.41.39-.41h1a.39.39,0,0,1,.43.41l-.05,1.92c-.07,3.17-.89,4-3.7,4.58l.12,3.92c4.54-.53,5.72-3.17,5.72-8.81v-1.61c0-.26.12-.41.38-.41h1.1a.39.39,0,0,1,.44.41l-.05,1.61c-.17,6-1.25,10.2-8.43,10.68a.72.72,0,0,1-.86-.72l-.38-11.57c0-.26.12-.41.38-.41Z" style="fill: #48554e"/>
          <path d="M814.39,739.8h-1.18a.37.37,0,0,1-.36-.36v-8.66a1.61,1.61,0,0,0-1.63-1.61H806a.37.37,0,0,1-.36-.36v-1.2a.35.35,0,0,1,.36-.34h5.19a3.52,3.52,0,0,1,3.53,3.51v8.66A.37.37,0,0,1,814.39,739.8Zm-6.72-4.39v4a.35.35,0,0,1-.34.36h-1.2a.37.37,0,0,1-.36-.36v-4.08c0-.58.24-2.88.24-2.88a.31.31,0,0,1,.38-.31l1.18.12a.32.32,0,0,1,.31.38S807.67,734.88,807.67,735.41Z" style="fill: #48554e"/>
          <path d="M827.51,729.17h-1.8v10.27a.37.37,0,0,1-.36.36h-1.17a.35.35,0,0,1-.36-.36V729.17h-5a.37.37,0,0,1-.36-.36v-1.2a.35.35,0,0,1,.36-.34h8.64a.35.35,0,0,1,.36.34v1.2A.37.37,0,0,1,827.51,729.17Z" style="fill: #48554e"/>
          <path d="M838.94,734.9c-.53,2.64-1.11,3.36-3.55,4.69l-3.34,1.8a.29.29,0,0,1-.41-.12l-.55-1.06a.31.31,0,0,1,.14-.46l3.56-1.87-3.36-10a.4.4,0,0,1,.43-.55h1.08a.43.43,0,0,1,.45.33l2.91,9.31a2,2,0,0,0,.67-1.39l1.44-7.94a.38.38,0,0,1,.41-.34H840a.31.31,0,0,1,.34.39Z" style="fill: #48554e"/>
          <path d="M852.47,739.8H851.3a.37.37,0,0,1-.36-.36v-8.66a1.61,1.61,0,0,0-1.63-1.61h-5.19a.37.37,0,0,1-.36-.36v-1.2a.35.35,0,0,1,.36-.34h5.19a3.51,3.51,0,0,1,3.52,3.51v8.66A.36.36,0,0,1,852.47,739.8Zm-6.72-4.39v4a.35.35,0,0,1-.33.36h-1.2a.36.36,0,0,1-.36-.36v-4.08c0-.58.24-2.88.24-2.88a.31.31,0,0,1,.38-.31l1.18.12a.32.32,0,0,1,.31.38S845.75,734.88,845.75,735.41Z" style="fill: #48554e"/>
          <path d="M869.2,739.92a.33.33,0,0,1-.46.19l-1.24-.43a.36.36,0,0,1-.2-.5l4-9.8c.05-.12,0-.21-.12-.21h-6.43a.37.37,0,0,1-.36-.36V723a.37.37,0,0,1,.36-.36h1.18a.37.37,0,0,1,.36.36v4.25h6a1.27,1.27,0,0,1,.5.1,1.29,1.29,0,0,1,.65,1.65Z" style="fill: #48554e"/>
          <path d="M884.44,734.9c-.53,2.64-1.1,3.36-3.55,4.69l-3.34,1.8a.29.29,0,0,1-.41-.12l-.55-1.06a.31.31,0,0,1,.15-.46l3.55-1.87-3.36-10a.4.4,0,0,1,.43-.55h1.08a.45.45,0,0,1,.46.33l2.9,9.31a2,2,0,0,0,.67-1.39l1.44-7.94a.39.39,0,0,1,.41-.34h1.22a.31.31,0,0,1,.34.39Z" style="fill: #48554e"/>
          <path d="M905.78,739.8h-1.2a.36.36,0,0,1-.36-.36v-8.66a1.61,1.61,0,0,0-1.61-1.61h-1.87a5.9,5.9,0,0,0-1.8,4.39,7.82,7.82,0,0,0,1.65,4.7v1a.55.55,0,0,1-.55.55h-3a.37.37,0,0,1-.36-.36v-1a.37.37,0,0,1,.36-.36h1.59a7,7,0,0,1-1.54-4.44,6.1,6.1,0,0,1,1.75-4.51h-1.68a.35.35,0,0,1-.33-.36v-1.2a.33.33,0,0,1,.33-.34h5.43a3.49,3.49,0,0,1,3.5,3.51v8.66A.35.35,0,0,1,905.78,739.8Z" style="fill: #48554e"/>
          <path d="M913.84,734.88a.37.37,0,0,1-.53,0l-.77-.72a.34.34,0,0,1,0-.48c1.49-1.56,1.47-2.12,1.47-4.32a.15.15,0,0,0-.17-.17h-3.6a.37.37,0,0,1-.36-.36v-1.2a.35.35,0,0,1,.36-.34h4.39a1.23,1.23,0,0,1,1.27,1.2V730A6,6,0,0,1,913.84,734.88Z" style="fill: #48554e"/>
          <path d="M924.35,739.92a.32.32,0,0,1-.45.19l-1.25-.43a.36.36,0,0,1-.19-.5l4-9.8c0-.12,0-.21-.12-.21h-6.43a.37.37,0,0,1-.36-.36V723a.37.37,0,0,1,.36-.36h1.18a.37.37,0,0,1,.36.36v4.25h5.95a1.24,1.24,0,0,1,.5.1,1.29,1.29,0,0,1,.65,1.65Z" style="fill: #48554e"/>
          <path d="M941,739.37a.31.31,0,0,1-.31.43h-1.13a.44.44,0,0,1-.45-.31l-1.32-4.56L933.18,740a.31.31,0,0,1-.48,0l-.89-.81a.36.36,0,0,1,0-.51l5.38-5.76-1-3.62c0-.1-.07-.12-.17-.12h-1.44a.35.35,0,0,1-.33-.36v-1.2a.37.37,0,0,1,.38-.34h2a1,1,0,0,1,1.08.82Z" style="fill: #48554e"/>
          <path d="M953,739.8h-1.2a.37.37,0,0,1-.36-.36v-8.66a1.61,1.61,0,0,0-1.61-1.61H948a5.9,5.9,0,0,0-1.8,4.39,7.82,7.82,0,0,0,1.65,4.7v1a.55.55,0,0,1-.55.55h-3a.37.37,0,0,1-.37-.36v-1a.37.37,0,0,1,.37-.36h1.58a7,7,0,0,1-1.54-4.44,6.07,6.07,0,0,1,1.76-4.51h-1.68a.35.35,0,0,1-.34-.36v-1.2a.33.33,0,0,1,.34-.34h5.42a3.49,3.49,0,0,1,3.5,3.51v8.66A.35.35,0,0,1,953,739.8Z" style="fill: #48554e"/>
          <path d="M966.06,739.8h-1.17a.37.37,0,0,1-.36-.36v-8.66a1.62,1.62,0,0,0-1.64-1.61h-5.18a.37.37,0,0,1-.36-.36v-1.2a.35.35,0,0,1,.36-.34h5.18a3.51,3.51,0,0,1,3.53,3.51v8.66A.36.36,0,0,1,966.06,739.8Zm-6.72-4.39v4a.35.35,0,0,1-.33.36h-1.2a.36.36,0,0,1-.36-.36v-4.08c0-.58.24-2.88.24-2.88a.31.31,0,0,1,.38-.31l1.18.12a.32.32,0,0,1,.31.38S959.34,734.88,959.34,735.41Z" style="fill: #48554e"/>
          <path d="M972.06,727.27c.27,0,.41.1.41.36l.14,5.09c1.49-.26,2-1,2-3.24v-1.8c0-.26.12-.41.38-.41h1a.39.39,0,0,1,.43.41l0,1.92c-.07,3.17-.88,4-3.69,4.58l.12,3.92c4.53-.53,5.71-3.17,5.71-8.81v-1.61c0-.26.12-.41.38-.41H980a.39.39,0,0,1,.43.41l0,1.61c-.16,6-1.24,10.2-8.42,10.68a.73.73,0,0,1-.87-.72l-.38-11.57c0-.26.12-.41.38-.41Z" style="fill: #48554e"/>
          <path d="M993.06,729.1l-1.13-.53a.33.33,0,0,1-.16-.46l.52-1.13a.33.33,0,0,1,.46-.14l.94.43h6.16a1.67,1.67,0,0,1,1.68,1.68v9.51a1.34,1.34,0,0,1-1.34,1.34h-6.7a.44.44,0,0,1-.43-.45Zm6.58.21c0-.09,0-.14-.17-.14h-4.56v8.74h4.56c.12,0,.17,0,.17-.17Z" style="fill: #48554e"/>
          <path d="M1009.38,734.88a.37.37,0,0,1-.53,0l-.76-.72a.33.33,0,0,1,0-.48c1.48-1.56,1.46-2.12,1.46-4.32a.15.15,0,0,0-.17-.17h-3.6a.37.37,0,0,1-.36-.36v-1.2a.35.35,0,0,1,.36-.34h4.39a1.24,1.24,0,0,1,1.28,1.2V730A6,6,0,0,1,1009.38,734.88Z" style="fill: #48554e"/>
          <path d="M1015.36,728.18a.34.34,0,0,1,0-.52l.77-.82a.33.33,0,0,1,.51,0l1.22,1.15c4.32-1.61,6.12-.46,6.27,1.63l.57,8.93a1.14,1.14,0,0,1-1.13,1.27H1020a.37.37,0,0,1-.36-.36v-1.18a.36.36,0,0,1,.36-.35h2.57a.16.16,0,0,0,.17-.17l-.46-7.73c-.07-1.15-.88-1.49-4-.34l-1.11,9.77a.38.38,0,0,1-.43.36h-1.08a.34.34,0,0,1-.36-.41l1.15-10.22Z" style="fill: #48554e"/>
          <path d="M1035.76,734.9c-.53,2.64-1.11,3.36-3.55,4.69l-3.34,1.8a.29.29,0,0,1-.41-.12l-.55-1.06a.31.31,0,0,1,.14-.46l3.56-1.87-3.36-10a.4.4,0,0,1,.43-.55h1.08a.43.43,0,0,1,.45.33l2.91,9.31a2,2,0,0,0,.67-1.39l1.44-7.94a.38.38,0,0,1,.41-.34h1.22a.31.31,0,0,1,.34.39Z" style="fill: #48554e"/>
          <path d="M1041.28,732.36a6.52,6.52,0,0,1,.6-3.17l-1.32-.62a.36.36,0,0,1-.17-.46l.53-1.13a.35.35,0,0,1,.45-.14l.92.43H1048a1.67,1.67,0,0,1,1.68,1.68v9.51a1.34,1.34,0,0,1-1.34,1.34H1041a.37.37,0,0,1-.37-.36v-1.18a.37.37,0,0,1,.37-.35h6.67c.12,0,.17,0,.17-.17v-8.43a.15.15,0,0,0-.17-.14h-3.84a4.85,4.85,0,0,0-.67,2.9v.77h1.75a.32.32,0,0,1,.33.34v1.12a.34.34,0,0,1-.33.36H1042c-.46,0-.74-.21-.74-.76Z" style="fill: #48554e"/>
          <path d="M745,771.8h-1.2a.35.35,0,0,1-.34-.36v-8.66a1.61,1.61,0,0,0-1.63-1.61h-5.14a.37.37,0,0,1-.36-.36v-1.2a.35.35,0,0,1,.36-.34h5.14a3.52,3.52,0,0,1,3.53,3.51v8.66A.37.37,0,0,1,745,771.8Z" style="fill: #48554e"/>
          <path d="M753.5,771.8h-1.18a.36.36,0,0,1-.36-.36v-10c0-.05,0-.08-.07-.1l-2.76-.7a.34.34,0,0,1-.24-.43l.29-1.1a.36.36,0,0,1,.45-.27l3.44.89a.93.93,0,0,1,.79,1v10.66A.37.37,0,0,1,753.5,771.8Z" style="fill: #48554e"/>
          <path d="M766.75,771.8h-8.64a.36.36,0,0,1-.36-.36v-1.18a.34.34,0,0,1,.36-.35h5.54v-7.13a1.61,1.61,0,0,0-1.61-1.61h-3.17a.37.37,0,0,1-.36-.36v-1.2a.35.35,0,0,1,.36-.34H762a3.5,3.5,0,0,1,3.51,3.51v7.13h1.2a.35.35,0,0,1,.36.35v1.18A.37.37,0,0,1,766.75,771.8Z" style="fill: #48554e"/>
          <path d="M774.71,766.88a.36.36,0,0,1-.52,0l-.77-.72a.33.33,0,0,1,0-.48c1.49-1.56,1.46-2.12,1.46-4.32a.15.15,0,0,0-.17-.17h-3.6a.37.37,0,0,1-.36-.36v-1.2a.35.35,0,0,1,.36-.34h4.4a1.23,1.23,0,0,1,1.27,1.2V762A6,6,0,0,1,774.71,766.88Z" style="fill: #48554e"/>
          <path d="M781.14,759.73a.46.46,0,0,1,.44-.46H788a2.34,2.34,0,0,1,2.35,2.33v9.84a.37.37,0,0,1-.36.36h-1.2a.35.35,0,0,1-.34-.36v-9.91a.36.36,0,0,0-.38-.36h-5v10.27a.37.37,0,0,1-.36.36h-1.17a.37.37,0,0,1-.37-.36Z" style="fill: #48554e"/>
          <path d="M803.42,771.8h-1.18a.37.37,0,0,1-.36-.36v-8.66a1.61,1.61,0,0,0-1.63-1.61h-5.19a.36.36,0,0,1-.35-.36v-1.2a.35.35,0,0,1,.35-.34h5.19a3.52,3.52,0,0,1,3.53,3.51v8.66A.37.37,0,0,1,803.42,771.8Zm-6.72-4.39v4a.35.35,0,0,1-.34.36h-1.2a.37.37,0,0,1-.36-.36v-4.08c0-.58.24-2.88.24-2.88a.32.32,0,0,1,.39-.31l1.17.12a.31.31,0,0,1,.31.38S796.7,766.88,796.7,767.41Z" style="fill: #48554e"/>
          <path d="M820.15,771.92a.34.34,0,0,1-.46.19l-1.25-.43a.36.36,0,0,1-.19-.5l4-9.8c0-.12,0-.21-.12-.21h-6.43a.36.36,0,0,1-.36-.36V755a.36.36,0,0,1,.36-.36h1.17a.37.37,0,0,1,.36.36v4.25h6a1.32,1.32,0,0,1,.51.1,1.3,1.3,0,0,1,.65,1.65Z" style="fill: #48554e"/>
          <path d="M835.39,766.9c-.53,2.64-1.11,3.36-3.56,4.69l-3.33,1.8a.29.29,0,0,1-.41-.12l-.55-1.06a.31.31,0,0,1,.14-.46l3.55-1.87-3.36-10a.41.41,0,0,1,.43-.55h1.08a.45.45,0,0,1,.46.33l2.9,9.31a2,2,0,0,0,.68-1.39l1.44-7.94a.38.38,0,0,1,.41-.34h1.22a.31.31,0,0,1,.33.39Z" style="fill: #48554e"/>
          <path d="M851.61,766.88a.37.37,0,0,1-.53,0l-.77-.72a.34.34,0,0,1,0-.48c1.49-1.56,1.47-2.12,1.47-4.32a.16.16,0,0,0-.17-.17H848a.37.37,0,0,1-.36-.36v-1.2a.35.35,0,0,1,.36-.34h4.39a1.23,1.23,0,0,1,1.27,1.2V762A6,6,0,0,1,851.61,766.88Z" style="fill: #48554e"/>
          <path d="M866.39,771.8h-1.2a.37.37,0,0,1-.36-.36v-8.66a1.61,1.61,0,0,0-1.6-1.61h-1.88a5.94,5.94,0,0,0-1.8,4.39,7.77,7.77,0,0,0,1.66,4.7v1a.56.56,0,0,1-.55.55h-3a.37.37,0,0,1-.36-.36v-1a.37.37,0,0,1,.36-.36h1.59a7,7,0,0,1-1.54-4.44,6.1,6.1,0,0,1,1.75-4.51H857.8a.35.35,0,0,1-.34-.36v-1.2a.34.34,0,0,1,.34-.34h5.43a3.49,3.49,0,0,1,3.5,3.51v8.66A.35.35,0,0,1,866.39,771.8Z" style="fill: #48554e"/>
          <path d="M871.22,759.73a.45.45,0,0,1,.43-.46h6.41a2.34,2.34,0,0,1,2.35,2.33v9.84a.37.37,0,0,1-.36.36h-1.2a.35.35,0,0,1-.34-.36v-9.91a.35.35,0,0,0-.38-.36h-5v10.27a.37.37,0,0,1-.36.36h-1.17a.36.36,0,0,1-.36-.36Z" style="fill: #48554e"/>
          <path d="M884.8,760.18a.33.33,0,0,1,0-.52l.76-.82a.33.33,0,0,1,.51,0l1.22,1.15c4.32-1.61,6.12-.46,6.27,1.63l.57,8.93A1.14,1.14,0,0,1,893,771.8h-3.52a.37.37,0,0,1-.36-.36v-1.18a.36.36,0,0,1,.36-.35H892a.16.16,0,0,0,.17-.17l-.45-7.73c-.07-1.15-.89-1.49-4.06-.34l-1.1,9.77a.4.4,0,0,1-.44.36h-1.08a.34.34,0,0,1-.36-.41l1.16-10.22Z" style="fill: #48554e"/>
          <path d="M899.54,759.27c.26,0,.4.1.4.36l.15,5.09c1.49-.26,2-1,2-3.24v-1.8c0-.26.12-.41.38-.41h1a.39.39,0,0,1,.44.41l-.05,1.92c-.07,3.17-.89,4-3.7,4.58l.12,3.92c4.54-.53,5.71-3.17,5.71-8.81v-1.61c0-.26.12-.41.39-.41h1.1a.38.38,0,0,1,.43.41l0,1.61c-.17,6-1.25,10.2-8.43,10.68a.72.72,0,0,1-.86-.72l-.39-11.57c0-.26.12-.41.39-.41Z" style="fill: #48554e"/>
          <path d="M921.23,769.11a1.47,1.47,0,1,1-1.46,1.47A1.48,1.48,0,0,1,921.23,769.11Z" style="fill: #48554e"/>
          <path d="M930.88,766.88a.37.37,0,0,1-.53,0l-.77-.72a.34.34,0,0,1,0-.48c1.49-1.56,1.47-2.12,1.47-4.32a.15.15,0,0,0-.17-.17h-3.6a.37.37,0,0,1-.36-.36v-1.2a.35.35,0,0,1,.36-.34h4.39a1.23,1.23,0,0,1,1.27,1.2V762A6,6,0,0,1,930.88,766.88Z" style="fill: #48554e"/>
          <path d="M945.66,771.8h-1.2a.37.37,0,0,1-.36-.36v-8.66a1.61,1.61,0,0,0-1.6-1.61h-1.88a5.94,5.94,0,0,0-1.8,4.39,7.77,7.77,0,0,0,1.66,4.7v1a.55.55,0,0,1-.55.55h-3a.37.37,0,0,1-.36-.36v-1a.37.37,0,0,1,.36-.36h1.59a7,7,0,0,1-1.54-4.44,6.1,6.1,0,0,1,1.75-4.51h-1.68a.35.35,0,0,1-.34-.36v-1.2a.34.34,0,0,1,.34-.34h5.43a3.49,3.49,0,0,1,3.5,3.51v8.66A.35.35,0,0,1,945.66,771.8Z" style="fill: #48554e"/>
          <path d="M954.16,771.8H953a.36.36,0,0,1-.36-.36v-10c0-.05,0-.08-.07-.1l-2.76-.7a.34.34,0,0,1-.24-.43l.29-1.1a.36.36,0,0,1,.46-.27l3.43.89a.93.93,0,0,1,.79,1v10.66A.37.37,0,0,1,954.16,771.8Z" style="fill: #48554e"/>
          <path d="M965,766.5l2.85,4.22a.32.32,0,0,1-.07.48l-1,.7a.32.32,0,0,1-.48-.08l-4.73-7c-.94.67-1.15,1.68-1.15,3.28v3.34a.35.35,0,0,1-.34.36h-1.2a.37.37,0,0,1-.36-.36V768.1c0-2,.51-3.64,2.06-4.75l-2.13-3.14a.32.32,0,0,1,.07-.48l1-.7a.34.34,0,0,1,.49.07l3.81,5.64,2.16-5.08c.15-.36.29-.39.58-.39h1a.39.39,0,0,1,.38.58Z" style="fill: #48554e"/>
          <path d="M988.05,771.8h-1.18a.37.37,0,0,1-.36-.36v-8.66a1.61,1.61,0,0,0-1.63-1.61h-5.19a.37.37,0,0,1-.36-.36v-1.2a.35.35,0,0,1,.36-.34h5.19a3.52,3.52,0,0,1,3.53,3.51v8.66A.37.37,0,0,1,988.05,771.8Zm-6.72-4.39v4a.35.35,0,0,1-.34.36h-1.2a.37.37,0,0,1-.36-.36v-4.08c0-.58.24-2.88.24-2.88a.31.31,0,0,1,.38-.31l1.18.12a.31.31,0,0,1,.31.38S981.33,766.88,981.33,767.41Z" style="fill: #48554e"/>
          <path d="M999.71,766.9c-.53,2.64-1.1,3.36-3.55,4.69l-3.34,1.8a.29.29,0,0,1-.41-.12l-.55-1.06a.31.31,0,0,1,.15-.46l3.55-1.87-3.36-10a.4.4,0,0,1,.43-.55h1.08a.45.45,0,0,1,.46.33l2.9,9.31a2,2,0,0,0,.67-1.39l1.44-7.94a.39.39,0,0,1,.41-.34h1.22a.31.31,0,0,1,.34.39Z" style="fill: #48554e"/>
          <path d="M1008.25,766.88a.36.36,0,0,1-.52,0l-.77-.72a.33.33,0,0,1,0-.48c1.49-1.56,1.46-2.12,1.46-4.32a.15.15,0,0,0-.17-.17h-3.6a.37.37,0,0,1-.36-.36v-1.2a.35.35,0,0,1,.36-.34h4.4a1.23,1.23,0,0,1,1.27,1.2V762A6,6,0,0,1,1008.25,766.88Z" style="fill: #48554e"/>
          <path d="M1023,771.8h-1.2a.37.37,0,0,1-.36-.36v-8.66a1.61,1.61,0,0,0-1.61-1.61H1018a5.9,5.9,0,0,0-1.8,4.39,7.82,7.82,0,0,0,1.65,4.7v1a.55.55,0,0,1-.55.55h-3a.36.36,0,0,1-.36-.36v-1a.36.36,0,0,1,.36-.36h1.58a7,7,0,0,1-1.54-4.44,6.07,6.07,0,0,1,1.76-4.51h-1.68a.35.35,0,0,1-.34-.36v-1.2a.33.33,0,0,1,.34-.34h5.42a3.5,3.5,0,0,1,3.51,3.51v8.66A.35.35,0,0,1,1023,771.8Z" style="fill: #48554e"/>
          <path d="M1028.08,764.36a6.52,6.52,0,0,1,.6-3.17l-1.32-.62a.36.36,0,0,1-.17-.46l.53-1.13a.35.35,0,0,1,.45-.14l.92.43h5.73a1.67,1.67,0,0,1,1.68,1.68v9.51a1.34,1.34,0,0,1-1.34,1.34h-7.39a.36.36,0,0,1-.36-.36v-1.18a.36.36,0,0,1,.36-.35h6.67c.12,0,.17,0,.17-.17v-8.43a.15.15,0,0,0-.17-.14h-3.84a4.85,4.85,0,0,0-.67,2.9v.77h1.75a.32.32,0,0,1,.33.34v1.12a.34.34,0,0,1-.33.36h-2.86a.66.66,0,0,1-.74-.76Z" style="fill: #48554e"/>
          <path d="M1049.46,771.8h-1.17a.36.36,0,0,1-.36-.36v-8.66a1.62,1.62,0,0,0-1.64-1.61h-5.18a.37.37,0,0,1-.36-.36v-1.2a.35.35,0,0,1,.36-.34h5.18a3.51,3.51,0,0,1,3.53,3.51v8.66A.37.37,0,0,1,1049.46,771.8Zm-6.72-4.39v4a.35.35,0,0,1-.33.36h-1.2a.36.36,0,0,1-.36-.36v-4.08c0-.58.24-2.88.24-2.88a.31.31,0,0,1,.38-.31l1.17.12a.33.33,0,0,1,.32.38S1042.74,766.88,1042.74,767.41Z" style="fill: #48554e"/>
          <path d="M851.66,801.11a1.47,1.47,0,1,1-1.47,1.47A1.48,1.48,0,0,1,851.66,801.11Z" style="fill: #48554e"/>
          <path d="M861.74,803.8h-1.18a.35.35,0,0,1-.36-.36v-10c0-.05,0-.08-.07-.1l-2.76-.7a.34.34,0,0,1-.24-.43l.29-1.1a.35.35,0,0,1,.45-.27l3.43.89a.93.93,0,0,1,.8,1v10.66A.37.37,0,0,1,861.74,803.8Z" style="fill: #48554e"/>
          <path d="M871.34,803.8h-5a.37.37,0,0,1-.36-.36v-1.18a.36.36,0,0,1,.36-.35h4.25c.15,0,.19,0,.19-.17v-8.43c0-.09-.07-.14-.19-.14h-2.13a.36.36,0,0,1-.36-.36v-1.2a.35.35,0,0,1,.36-.34H871a1.69,1.69,0,0,1,1.68,1.68v9.51A1.34,1.34,0,0,1,871.34,803.8Z" style="fill: #48554e"/>
          <path d="M880.65,798.88a.37.37,0,0,1-.53,0l-.77-.72a.34.34,0,0,1,0-.48c1.49-1.56,1.47-2.12,1.47-4.32a.16.16,0,0,0-.17-.17h-3.6a.37.37,0,0,1-.36-.36v-1.2a.35.35,0,0,1,.36-.34h4.39a1.23,1.23,0,0,1,1.27,1.2V794A6,6,0,0,1,880.65,798.88Z" style="fill: #48554e"/>
          <path d="M891.71,803.8h-5a.37.37,0,0,1-.36-.36v-1.18a.36.36,0,0,1,.36-.35H891c.14,0,.19,0,.19-.17v-8.43c0-.09-.07-.14-.19-.14h-2.14a.37.37,0,0,1-.36-.36v-1.2a.35.35,0,0,1,.36-.34h2.55a1.69,1.69,0,0,1,1.68,1.68v9.51A1.34,1.34,0,0,1,891.71,803.8Z" style="fill: #48554e"/>
          <path d="M901,798.88a.36.36,0,0,1-.52,0l-.77-.72a.33.33,0,0,1,0-.48c1.49-1.56,1.46-2.12,1.46-4.32a.15.15,0,0,0-.17-.17h-3.6a.37.37,0,0,1-.36-.36v-1.2a.35.35,0,0,1,.36-.34h4.4a1.23,1.23,0,0,1,1.27,1.2V794A6,6,0,0,1,901,798.88Z" style="fill: #48554e"/>
          <path d="M915.74,803.8H907.1a.36.36,0,0,1-.36-.36v-1.18a.34.34,0,0,1,.36-.35h5.54v-7.13a1.61,1.61,0,0,0-1.61-1.61h-3.17a.37.37,0,0,1-.36-.36v-1.2a.35.35,0,0,1,.36-.34H911a3.5,3.5,0,0,1,3.51,3.51v7.13h1.2a.35.35,0,0,1,.36.35v1.18A.37.37,0,0,1,915.74,803.8Z" style="fill: #48554e"/>
          <path d="M935.85,803.8h-1.2a.35.35,0,0,1-.34-.36v-8.66a1.61,1.61,0,0,0-1.63-1.61h-5.14a.37.37,0,0,1-.36-.36v-1.2a.35.35,0,0,1,.36-.34h5.14a3.52,3.52,0,0,1,3.53,3.51v8.66A.37.37,0,0,1,935.85,803.8Z" style="fill: #48554e"/>
          <path d="M946.12,798l2.28,4.61a.84.84,0,0,1-.74,1.22H940.1a.36.36,0,0,1-.36-.36v-1.18a.36.36,0,0,1,.36-.35h5.95l-5.5-10.06a.39.39,0,0,1,.36-.58H942a.66.66,0,0,1,.72.41l2.33,4.32,2.06-4.34c.17-.34.29-.39.58-.39h1.1c.36,0,.56.27.39.58Z" style="fill: #48554e"/>
          <path d="M957.33,803.8h-1.18a.35.35,0,0,1-.36-.36v-10c0-.05,0-.08-.07-.1l-2.76-.7a.34.34,0,0,1-.24-.43l.29-1.1a.36.36,0,0,1,.45-.27l3.43.89a.93.93,0,0,1,.8,1v10.66A.37.37,0,0,1,957.33,803.8Z" style="fill: #48554e"/>
          <path d="M966.93,803.8h-5a.36.36,0,0,1-.36-.36v-1.18a.36.36,0,0,1,.36-.35h4.24c.15,0,.2,0,.2-.17v-8.43c0-.09-.08-.14-.2-.14h-2.13a.37.37,0,0,1-.36-.36v-1.2a.35.35,0,0,1,.36-.34h2.54a1.69,1.69,0,0,1,1.68,1.68v9.51A1.34,1.34,0,0,1,966.93,803.8Z" style="fill: #48554e"/>
          <path d="M974,791.27c.26,0,.41.1.41.36l.14,5.09c1.49-.26,2-1,2-3.24v-1.8c0-.26.12-.41.39-.41h1a.39.39,0,0,1,.43.41l-.05,1.92c-.07,3.17-.88,4-3.69,4.58l.12,3.92c4.53-.53,5.71-3.17,5.71-8.81v-1.61c0-.26.12-.41.38-.41h1.11a.39.39,0,0,1,.43.41l-.05,1.61c-.17,6-1.25,10.2-8.42,10.68a.73.73,0,0,1-.87-.72l-.38-11.57c0-.26.12-.41.38-.41Z" style="fill: #48554e"/>
          <path d="M994.26,791a.36.36,0,0,1,.46-.14l.91.43h5.74a1.68,1.68,0,0,1,1.68,1.68V806.3a.33.33,0,0,1-.34.33h-1.2a.35.35,0,0,1-.36-.33v-13c0-.09-.07-.14-.17-.14h-3.79a7.05,7.05,0,0,0-.67,3.19v.48h1.7a.33.33,0,0,1,.34.34v1.12a.34.34,0,0,1-.34.36h-2.85a.67.67,0,0,1-.75-.76v-1.54a8.76,8.76,0,0,1,.6-3.17l-1.32-.62a.33.33,0,0,1-.17-.46Z" style="fill: #48554e"/>
          <path d="M1017.52,794.94c0,5-1.95,8.53-7.73,9.08a.72.72,0,0,1-.86-.77l-.48-10.15-1.18-.53a.36.36,0,0,1-.17-.46l.53-1.13a.32.32,0,0,1,.46-.14l1,.43h6.74a1.7,1.7,0,0,1,1.71,1.68Zm-1.9-1.63c0-.09-.07-.14-.19-.14h-5.11l.41,8.81c3.81-.77,4.89-3.44,4.89-6.8Z" style="fill: #48554e"/>
          <path d="M1025.56,803.8h-1.18a.36.36,0,0,1-.36-.36v-10c0-.05,0-.08-.07-.1l-2.76-.7a.34.34,0,0,1-.24-.43l.29-1.1a.36.36,0,0,1,.45-.27l3.44.89a.93.93,0,0,1,.79,1v10.66A.37.37,0,0,1,1025.56,803.8Z" style="fill: #48554e"/>
          <path d="M1035.16,803.8h-5a.36.36,0,0,1-.36-.36v-1.18a.36.36,0,0,1,.36-.35h4.24c.15,0,.2,0,.2-.17v-8.43c0-.09-.08-.14-.2-.14h-2.13a.37.37,0,0,1-.36-.36v-1.2a.35.35,0,0,1,.36-.34h2.54a1.69,1.69,0,0,1,1.68,1.68v9.51A1.34,1.34,0,0,1,1035.16,803.8Z" style="fill: #48554e"/>
          <path d="M1049.46,803.8h-1.17a.37.37,0,0,1-.36-.36v-8.66a1.62,1.62,0,0,0-1.64-1.61h-5.18a.37.37,0,0,1-.36-.36v-1.2a.35.35,0,0,1,.36-.34h5.18a3.51,3.51,0,0,1,3.53,3.51v8.66A.37.37,0,0,1,1049.46,803.8Zm-6.72-4.39v4a.35.35,0,0,1-.33.36h-1.2a.36.36,0,0,1-.36-.36v-4.08c0-.58.24-2.88.24-2.88a.31.31,0,0,1,.38-.31l1.18.12a.32.32,0,0,1,.31.38S1042.74,798.88,1042.74,799.41Z" style="fill: #48554e"/>
          <path d="M785,866.58l-.75.72a.34.34,0,0,1-.5,0l-4.44-4.42a1.27,1.27,0,0,1,0-1.82l4.44-4.44a.35.35,0,0,1,.5,0l.72.72a.32.32,0,0,1,0,.48l-4.08,4.1,4.13,4.13A.36.36,0,0,1,785,866.58Z" style="fill: #48554e"/>
          <path d="M806,867.8h-1.17a.37.37,0,0,1-.36-.36v-8.66a1.62,1.62,0,0,0-1.64-1.61h-5.18a.37.37,0,0,1-.36-.36v-1.2a.35.35,0,0,1,.36-.34h5.18a3.51,3.51,0,0,1,3.53,3.51v8.66A.37.37,0,0,1,806,867.8Zm-6.72-4.39v4a.35.35,0,0,1-.33.36h-1.2a.36.36,0,0,1-.36-.36v-4.08c0-.58.24-2.88.24-2.88a.31.31,0,0,1,.38-.31l1.18.12a.32.32,0,0,1,.31.38S799.24,862.88,799.24,863.41Z" style="fill: #48554e"/>
          <path d="M819.21,867.8h-8.64a.37.37,0,0,1-.36-.36v-1.18a.35.35,0,0,1,.36-.35h5.54v-7.13a1.61,1.61,0,0,0-1.6-1.61h-3.17a.36.36,0,0,1-.36-.36v-1.2a.35.35,0,0,1,.36-.34h3.17a3.49,3.49,0,0,1,3.5,3.51v7.13h1.2a.35.35,0,0,1,.36.35v1.18A.37.37,0,0,1,819.21,867.8Z" style="fill: #48554e"/>
          <path d="M827.61,867.8h-1.18a.36.36,0,0,1-.36-.36v-10c0-.05,0-.08-.07-.1l-2.76-.7a.34.34,0,0,1-.24-.43l.29-1.1a.36.36,0,0,1,.46-.27l3.43.89a.93.93,0,0,1,.79,1v10.66A.37.37,0,0,1,827.61,867.8Z" style="fill: #48554e"/>
          <path d="M833.06,868.07a.37.37,0,0,1-.39-.37l-.57-12.07a.32.32,0,0,1,.33-.36h1.18a.33.33,0,0,1,.36.34l.48,10.49c3.82-.48,5.28-2.88,5.28-6.92v-1.77c0-.12-.05-.15-.17-.17l-2.71-.36a.31.31,0,0,1-.29-.38l.19-1.18a.33.33,0,0,1,.41-.29l3.12.43a1.38,1.38,0,0,1,1.35,1.52v2.2C841.63,864.75,838.84,868.07,833.06,868.07Z" style="fill: #48554e"/>
          <path d="M850.07,867.92a.32.32,0,0,1-.45.19l-1.25-.43a.36.36,0,0,1-.19-.5l4-9.8c.05-.12,0-.21-.11-.21h-6.44a.37.37,0,0,1-.36-.36V851a.37.37,0,0,1,.36-.36h1.18a.37.37,0,0,1,.36.36v4.25h6a1.32,1.32,0,0,1,.51.1,1.3,1.3,0,0,1,.64,1.65Z" style="fill: #48554e"/>
          <path d="M869.54,862.88a.37.37,0,0,1-.53,0l-.77-.72a.34.34,0,0,1,0-.48c1.49-1.56,1.46-2.12,1.46-4.32a.15.15,0,0,0-.16-.17h-3.6a.36.36,0,0,1-.36-.36v-1.2a.35.35,0,0,1,.36-.34h4.39a1.23,1.23,0,0,1,1.27,1.2V858A6,6,0,0,1,869.54,862.88Z" style="fill: #48554e"/>
          <path d="M884.32,867.8h-1.2a.37.37,0,0,1-.36-.36v-8.66a1.61,1.61,0,0,0-1.61-1.61h-1.87a5.9,5.9,0,0,0-1.8,4.39,7.77,7.77,0,0,0,1.66,4.7v1a.56.56,0,0,1-.56.55h-3a.37.37,0,0,1-.36-.36v-1a.37.37,0,0,1,.36-.36h1.58a7,7,0,0,1-1.53-4.44,6.06,6.06,0,0,1,1.75-4.51h-1.68a.35.35,0,0,1-.34-.36v-1.2a.34.34,0,0,1,.34-.34h5.42a3.5,3.5,0,0,1,3.51,3.51v8.66A.35.35,0,0,1,884.32,867.8Z" style="fill: #48554e"/>
          <path d="M892.82,867.8h-1.18a.35.35,0,0,1-.36-.36v-10c0-.05,0-.08-.07-.1l-2.76-.7a.34.34,0,0,1-.24-.43l.29-1.1a.35.35,0,0,1,.45-.27l3.43.89a.93.93,0,0,1,.8,1v10.66A.37.37,0,0,1,892.82,867.8Z" style="fill: #48554e"/>
          <path d="M903.66,862.5l2.86,4.22a.32.32,0,0,1-.07.48l-1,.7a.32.32,0,0,1-.48-.08l-4.72-7c-.94.67-1.16,1.68-1.16,3.28v3.34a.35.35,0,0,1-.33.36h-1.2a.37.37,0,0,1-.36-.36V864.1c0-2,.5-3.64,2.06-4.75l-2.13-3.14a.32.32,0,0,1,.07-.48l1-.7a.33.33,0,0,1,.48.07l3.82,5.64,2.16-5.08c.14-.36.29-.39.57-.39h1a.4.4,0,0,1,.39.58Z" style="fill: #48554e"/>
          <path d="M925.17,862.9c-.53,2.64-1.11,3.36-3.55,4.69l-3.34,1.8a.29.29,0,0,1-.41-.12l-.55-1.06a.31.31,0,0,1,.14-.46l3.56-1.87-3.36-10a.4.4,0,0,1,.43-.55h1.08a.43.43,0,0,1,.45.33l2.91,9.31a2,2,0,0,0,.67-1.39l1.44-7.94a.38.38,0,0,1,.41-.34h1.22a.31.31,0,0,1,.34.39Z" style="fill: #48554e"/>
          <path d="M933.71,862.88a.37.37,0,0,1-.53,0l-.76-.72a.33.33,0,0,1,0-.48c1.48-1.56,1.46-2.12,1.46-4.32a.15.15,0,0,0-.17-.17h-3.6a.37.37,0,0,1-.36-.36v-1.2a.35.35,0,0,1,.36-.34h4.39a1.24,1.24,0,0,1,1.28,1.2V858A6,6,0,0,1,933.71,862.88Z" style="fill: #48554e"/>
          <path d="M948.5,867.8h-1.2a.36.36,0,0,1-.36-.36v-8.66a1.61,1.61,0,0,0-1.61-1.61h-1.87a5.9,5.9,0,0,0-1.8,4.39,7.82,7.82,0,0,0,1.65,4.7v1a.55.55,0,0,1-.55.55h-3a.37.37,0,0,1-.36-.36v-1a.37.37,0,0,1,.36-.36h1.59a7,7,0,0,1-1.54-4.44,6.1,6.1,0,0,1,1.75-4.51H939.9a.35.35,0,0,1-.33-.36v-1.2a.33.33,0,0,1,.33-.34h5.43a3.49,3.49,0,0,1,3.5,3.51v8.66A.35.35,0,0,1,948.5,867.8Z" style="fill: #48554e"/>
          <path d="M953.53,860.36a6.42,6.42,0,0,1,.61-3.17l-1.33-.62a.35.35,0,0,1-.16-.46l.53-1.13a.34.34,0,0,1,.45-.14l.91.43h5.74A1.67,1.67,0,0,1,962,857v9.51a1.34,1.34,0,0,1-1.34,1.34h-7.4a.37.37,0,0,1-.36-.36v-1.18a.36.36,0,0,1,.36-.35h6.68c.12,0,.16,0,.16-.17v-8.43a.14.14,0,0,0-.16-.14h-3.84a4.79,4.79,0,0,0-.68,2.9v.77h1.76a.32.32,0,0,1,.33.34v1.12a.34.34,0,0,1-.33.36h-2.86a.67.67,0,0,1-.75-.76Z" style="fill: #48554e"/>
          <path d="M974.92,867.8h-1.18a.37.37,0,0,1-.36-.36v-8.66a1.61,1.61,0,0,0-1.63-1.61h-5.18a.37.37,0,0,1-.36-.36v-1.2a.35.35,0,0,1,.36-.34h5.18a3.51,3.51,0,0,1,3.53,3.51v8.66A.37.37,0,0,1,974.92,867.8Zm-6.72-4.39v4a.35.35,0,0,1-.34.36h-1.2a.37.37,0,0,1-.36-.36v-4.08c0-.58.24-2.88.24-2.88a.32.32,0,0,1,.39-.31l1.17.12a.33.33,0,0,1,.32.38S968.2,862.88,968.2,863.41Z" style="fill: #48554e"/>
          <path d="M980.92,855.27c.26,0,.41.1.41.36l.14,5.09c1.49-.26,2-1,2-3.24v-1.8c0-.26.12-.41.39-.41h1a.39.39,0,0,1,.43.41l0,1.92c-.07,3.17-.89,4-3.69,4.58l.12,3.92c4.53-.53,5.71-3.17,5.71-8.81v-1.61c0-.26.12-.41.38-.41h1.11a.39.39,0,0,1,.43.41l0,1.61c-.17,6-1.25,10.2-8.42,10.68a.73.73,0,0,1-.87-.72l-.38-11.57c0-.26.12-.41.38-.41Z" style="fill: #48554e"/>
          <path d="M1009.46,857.17h-1.81v10.27a.36.36,0,0,1-.35.36h-1.18a.35.35,0,0,1-.36-.36V857.17h-5a.37.37,0,0,1-.36-.36v-1.2a.35.35,0,0,1,.36-.34h8.65a.35.35,0,0,1,.36.34v1.2A.37.37,0,0,1,1009.46,857.17Z" style="fill: #48554e"/>
          <path d="M1014.18,855.73a.45.45,0,0,1,.43-.46H1021a2.34,2.34,0,0,1,2.36,2.33v9.84a.37.37,0,0,1-.36.36h-1.21a.35.35,0,0,1-.33-.36v-9.91a.36.36,0,0,0-.38-.36h-5v10.27a.37.37,0,0,1-.36.36h-1.18a.37.37,0,0,1-.36-.36Z" style="fill: #48554e"/>
          <path d="M1034.1,862.5l2.86,4.22a.32.32,0,0,1-.07.48l-1,.7a.32.32,0,0,1-.48-.08l-4.73-7c-.93.67-1.15,1.68-1.15,3.28v3.34a.35.35,0,0,1-.33.36H1028a.36.36,0,0,1-.36-.36V864.1c0-2,.5-3.64,2.06-4.75l-2.14-3.14a.32.32,0,0,1,.08-.48l1-.7a.33.33,0,0,1,.48.07l3.82,5.64,2.16-5.08c.14-.36.29-.39.57-.39h1a.4.4,0,0,1,.39.58Z" style="fill: #48554e"/>
          <path d="M1049.46,867.8h-1.17a.37.37,0,0,1-.36-.36v-8.66a1.62,1.62,0,0,0-1.64-1.61h-5.18a.37.37,0,0,1-.36-.36v-1.2a.35.35,0,0,1,.36-.34h5.18a3.51,3.51,0,0,1,3.53,3.51v8.66A.37.37,0,0,1,1049.46,867.8Zm-6.72-4.39v4a.35.35,0,0,1-.33.36h-1.2a.36.36,0,0,1-.36-.36v-4.08c0-.58.24-2.88.24-2.88a.31.31,0,0,1,.38-.31l1.18.12a.32.32,0,0,1,.31.38S1042.74,862.88,1042.74,863.41Z" style="fill: #48554e"/>
          <path d="M776.51,870.73v-.58h275.38v.58Z" style="fill: #48554e"/>
        </g>
        <g>
          <line x1="698.42" y1="490.32" x2="712.38" y2="504.28" style="fill: none;stroke: #48554e;stroke-miterlimit: 10;stroke-width: 1.92px"/>
          <line x1="712.38" y1="490.32" x2="698.42" y2="504.28" style="fill: none;stroke: #48554e;stroke-miterlimit: 10;stroke-width: 1.92px"/>
        </g>
        <circle cx="1042.77" cy="537.48" r="9.12" style="fill: #9dcbc1;mix-blend-mode: multiply"/>
      </g>
      <g>
        <rect x="404.07" y="1030.64" width="417.67" height="412.43" style="fill: #e5e4e3;opacity: 0.85"/>
        <text transform="translate(482.61 1118.09)" style="font-size: 24px;fill: #48554e;font-family: ArbelHagilda"><tspan xml:space="preserve">        </tspan><tspan x="9.38" y="32" xml:space="preserve">  .  </tspan><tspan x="-34.54" y="64" xml:space="preserve">     </tspan><tspan x="-9.7" y="96" xml:space="preserve">  .   </tspan><tspan x="-18.12" y="128" xml:space="preserve">     </tspan><tspan x="-44.54" y="160" xml:space="preserve">  ,   </tspan><tspan x="14.86" y="192" xml:space="preserve">     </tspan><tspan x="-22.2" y="224"> .     .</tspan><tspan style="text-decoration: underline"><tspan x="154.51" y="288">&gt; </tspan></tspan></text>
        <g>
          <line x1="434.07" y1="1060.64" x2="448.03" y2="1074.6" style="fill: none;stroke: #48554e;stroke-miterlimit: 10;stroke-width: 1.92px"/>
          <line x1="448.03" y1="1060.64" x2="434.07" y2="1074.6" style="fill: none;stroke: #48554e;stroke-miterlimit: 10;stroke-width: 1.92px"/>
        </g>
        <circle cx="778.41" cy="1107.79" r="9.12" style="fill: #e3c867"/>
      </g>
    </g>
  </g>
</svg>
