<svg id="ba141bad-1ea6-4c0d-81f3-e88854b2527e" data-name="text" xmlns="http://www.w3.org/2000/svg" xmlns:xlink="http://www.w3.org/1999/xlink" viewBox="0 0 1536 1875">
  <defs>
    <radialGradient id="b9984309-22d0-441c-839a-f544e5411c1f" data-name="New Gradient Swatch copy 12" cx="1040.67" cy="436.47" r="78.49" gradientUnits="userSpaceOnUse">
      <stop offset="0.2" stop-color="#f8b090"/>
      <stop offset="0.27" stop-color="#f8b090" stop-opacity="0.97"/>
      <stop offset="0.38" stop-color="#f8b090" stop-opacity="0.89"/>
      <stop offset="0.5" stop-color="#f8b090" stop-opacity="0.77"/>
      <stop offset="0.64" stop-color="#f8b090" stop-opacity="0.59"/>
      <stop offset="0.79" stop-color="#f8b090" stop-opacity="0.36"/>
      <stop offset="0.96" stop-color="#f8b090" stop-opacity="0.08"/>
      <stop offset="1" stop-color="#f8b090" stop-opacity="0"/>
    </radialGradient>
    <radialGradient id="f95d43cf-3ffc-45cc-a927-42ab296da76b" data-name="New Gradient Swatch copy 2" cx="768" cy="436.47" r="78.49" gradientUnits="userSpaceOnUse">
      <stop offset="0.2" stop-color="#9dcbc1"/>
      <stop offset="0.28" stop-color="#9dcbc1" stop-opacity="0.97"/>
      <stop offset="0.4" stop-color="#9dcbc1" stop-opacity="0.87"/>
      <stop offset="0.54" stop-color="#9dcbc1" stop-opacity="0.71"/>
      <stop offset="0.7" stop-color="#9dcbc1" stop-opacity="0.49"/>
      <stop offset="0.88" stop-color="#9dcbc1" stop-opacity="0.22"/>
      <stop offset="1" stop-color="#9dcbc1" stop-opacity="0"/>
    </radialGradient>
    <radialGradient id="a9f7c850-02ff-48c0-9657-1202e3597268" cx="495.33" cy="436.47" r="78.49" xlink:href="#b9984309-22d0-441c-839a-f544e5411c1f"/>
    <radialGradient id="acdcbeef-949f-434c-8d84-8f537cd351cf" cx="1040.67" cy="656.36" r="78.49" xlink:href="#f95d43cf-3ffc-45cc-a927-42ab296da76b"/>
    <radialGradient id="ef47575d-5a31-4430-aec0-ab604ca7230b" data-name="New Gradient Swatch copy 11" cx="768" cy="656.36" r="78.49" gradientUnits="userSpaceOnUse">
      <stop offset="0.2" stop-color="#e3c867"/>
      <stop offset="0.28" stop-color="#e3c867" stop-opacity="0.97"/>
      <stop offset="0.39" stop-color="#e3c867" stop-opacity="0.88"/>
      <stop offset="0.52" stop-color="#e3c867" stop-opacity="0.74"/>
      <stop offset="0.67" stop-color="#e3c867" stop-opacity="0.55"/>
      <stop offset="0.83" stop-color="#e3c867" stop-opacity="0.3"/>
      <stop offset="1" stop-color="#e3c867" stop-opacity="0"/>
    </radialGradient>
    <radialGradient id="a2134cd4-5f6c-4b37-9a23-0c59a7415b49" cx="495.33" cy="656.36" r="78.49" xlink:href="#ef47575d-5a31-4430-aec0-ab604ca7230b"/>
    <radialGradient id="a03dfcff-314a-48f8-a56c-aead6401cef0" cx="1040.67" cy="876.26" r="78.49" xlink:href="#ef47575d-5a31-4430-aec0-ab604ca7230b"/>
    <radialGradient id="e12cdc51-3df9-4efe-98f7-6c74d69a0f3d" cx="768" cy="876.26" r="78.49" xlink:href="#ef47575d-5a31-4430-aec0-ab604ca7230b"/>
    <radialGradient id="a7ca55ec-99d2-445f-95b3-e399ad78ba07" cx="495.33" cy="876.26" r="78.49" xlink:href="#ef47575d-5a31-4430-aec0-ab604ca7230b"/>
    <radialGradient id="a03676c0-4254-4de1-bd97-020bb43df9bc" cx="1040.67" cy="1096.16" r="78.49" xlink:href="#ef47575d-5a31-4430-aec0-ab604ca7230b"/>
    <radialGradient id="a22fd74f-4f5e-428f-8cde-4a38b5db8a1b" cx="768" cy="1096.16" r="78.49" xlink:href="#f95d43cf-3ffc-45cc-a927-42ab296da76b"/>
    <radialGradient id="a05e73d3-2307-4dca-b4fe-fb7a915bedf4" cx="495.33" cy="1096.16" r="78.49" xlink:href="#f95d43cf-3ffc-45cc-a927-42ab296da76b"/>
    <radialGradient id="efd71418-2f11-4322-8c2f-9ee07c46099f" cx="1040.67" cy="1316.05" r="78.49" xlink:href="#ef47575d-5a31-4430-aec0-ab604ca7230b"/>
    <radialGradient id="f57289c3-bab7-4d7a-a106-0e7a25d192e8" cx="768" cy="1316.05" r="78.49" xlink:href="#ef47575d-5a31-4430-aec0-ab604ca7230b"/>
    <radialGradient id="ac234df1-82d9-43df-805f-44b31e8db17d" cx="495.33" cy="1316.05" r="78.49" xlink:href="#ef47575d-5a31-4430-aec0-ab604ca7230b"/>
  </defs>
  <g>
    <g>
      <path d="M890.69,1603.25h-1.52a.47.47,0,0,1-.46-.46v-11a2,2,0,0,0-2-2H884.3a7.49,7.49,0,0,0-2.28,5.56,9.91,9.91,0,0,0,2.1,6v1.24a.7.7,0,0,1-.7.7h-3.77a.46.46,0,0,1-.45-.46v-1.21a.47.47,0,0,1,.45-.46h2a8.84,8.84,0,0,1-1.95-5.62,7.68,7.68,0,0,1,2.22-5.71H879.8a.44.44,0,0,1-.42-.46v-1.52a.42.42,0,0,1,.42-.43h6.87a4.42,4.42,0,0,1,4.44,4.44v11A.44.44,0,0,1,890.69,1603.25Z" style="fill: #647c6e"/>
      <path d="M900.9,1597a.46.46,0,0,1-.67,0l-1-.91a.44.44,0,0,1,0-.61c1.88-2,1.85-2.68,1.85-5.47a.19.19,0,0,0-.21-.21h-4.56a.47.47,0,0,1-.45-.46v-1.52a.44.44,0,0,1,.45-.43h5.56a1.57,1.57,0,0,1,1.62,1.52v1.89A7.59,7.59,0,0,1,900.9,1597Z" style="fill: #647c6e"/>
      <path d="M916.5,1596.53l3.61,5.35a.41.41,0,0,1-.09.61l-1.24.88a.41.41,0,0,1-.61-.09l-6-8.87c-1.19.85-1.46,2.12-1.46,4.16v4.22a.44.44,0,0,1-.43.46h-1.51a.47.47,0,0,1-.46-.46v-4.22c0-2.58.64-4.62,2.61-6l-2.7-4a.42.42,0,0,1,.09-.61l1.25-.88a.4.4,0,0,1,.6.09l4.84,7.14,2.73-6.44a.62.62,0,0,1,.73-.49h1.28a.49.49,0,0,1,.48.73Z" style="fill: #647c6e"/>
      <path d="M932.4,1595.86l2.88,5.84a1.07,1.07,0,0,1-.94,1.55h-9.57a.47.47,0,0,1-.46-.46v-1.48a.47.47,0,0,1,.46-.46h7.53l-7-12.74a.49.49,0,0,1,.46-.73h1.43a.85.85,0,0,1,.91.52l3,5.47,2.61-5.5c.22-.43.37-.49.73-.49h1.4c.46,0,.7.34.49.73Z" style="fill: #647c6e"/>
      <path d="M941.94,1588a.57.57,0,0,1,.55-.58h8.11a3,3,0,0,1,3,2.95v12.46a.46.46,0,0,1-.45.46h-1.52a.44.44,0,0,1-.43-.46v-12.55a.45.45,0,0,0-.48-.45h-6.36v13a.46.46,0,0,1-.45.46H942.4a.47.47,0,0,1-.46-.46Z" style="fill: #647c6e"/>
    </g>
    <g>
      <path d="M747.63,1603.25h-1.49a.47.47,0,0,1-.46-.46v-11a2,2,0,0,0-2.07-2h-6.56a.48.48,0,0,1-.46-.46v-1.52a.45.45,0,0,1,.46-.43h6.56a4.45,4.45,0,0,1,4.47,4.44v11A.46.46,0,0,1,747.63,1603.25Zm-8.51-5.56v5.1a.45.45,0,0,1-.43.46h-1.52a.47.47,0,0,1-.46-.46v-5.16c0-.73.31-3.65.31-3.65a.41.41,0,0,1,.48-.4l1.49.16a.41.41,0,0,1,.4.48S739.12,1597,739.12,1597.69Z" style="fill: #647c6e"/>
      <path d="M759.09,1603.4a.43.43,0,0,1-.58.25l-1.58-.55a.46.46,0,0,1-.24-.64l5.07-12.4c.06-.15,0-.27-.15-.27h-8.15a.47.47,0,0,1-.45-.46V1582a.46.46,0,0,1,.45-.45H755a.46.46,0,0,1,.46.45v5.38H763a1.5,1.5,0,0,1,.64.13,1.64,1.64,0,0,1,.82,2.09Z" style="fill: #647c6e"/>
      <path d="M769.33,1588.54a.44.44,0,0,1,0-.67l1-1a.4.4,0,0,1,.63,0l1.55,1.46c5.47-2,7.75-.58,7.94,2.06l.73,11.31a1.44,1.44,0,0,1-1.43,1.61h-4.47a.47.47,0,0,1-.46-.46v-1.48a.47.47,0,0,1,.46-.46h3.25a.19.19,0,0,0,.21-.21l-.57-9.79c-.09-1.46-1.13-1.89-5.14-.43l-1.4,12.37a.49.49,0,0,1-.54.46h-1.37a.42.42,0,0,1-.46-.52l1.46-12.94Z" style="fill: #647c6e"/>
      <path d="M788,1587.38c.33,0,.51.13.51.46l.19,6.44c1.88-.33,2.52-1.21,2.52-4.1v-2.28c0-.33.15-.52.49-.52h1.21a.49.49,0,0,1,.55.52l-.06,2.43c-.09,4-1.13,5-4.68,5.81l.15,4.95c5.74-.67,7.23-4,7.23-11.15v-2c0-.33.16-.52.49-.52H798a.49.49,0,0,1,.54.52l-.06,2c-.21,7.6-1.58,12.92-10.66,13.52a.92.92,0,0,1-1.1-.91l-.49-14.65c0-.33.16-.52.49-.52Z" style="fill: #647c6e"/>
    </g>
    <circle cx="975.14" cy="1594.79" r="9.12" style="fill: #f8b090"/>
    <circle cx="819.5" cy="1594.79" r="9.12" style="fill: #9dcbc1"/>
    <g>
      <path d="M555.75,1589.69l-1.43-.66a.42.42,0,0,1-.21-.58l.67-1.43a.4.4,0,0,1,.57-.18l1.19.54h7.81a2.12,2.12,0,0,1,2.13,2.13v12a1.7,1.7,0,0,1-1.7,1.7H556.3a.57.57,0,0,1-.55-.58Zm8.33.28c0-.12-.06-.18-.21-.18h-5.78v11.06h5.78c.15,0,.21-.06.21-.21Z" style="fill: #647c6e"/>
      <path d="M576.42,1597a.46.46,0,0,1-.67,0l-1-.91a.44.44,0,0,1,0-.61c1.88-2,1.85-2.68,1.85-5.47a.19.19,0,0,0-.21-.21h-4.56a.47.47,0,0,1-.45-.46v-1.52a.44.44,0,0,1,.45-.43h5.56a1.57,1.57,0,0,1,1.62,1.52v1.89A7.59,7.59,0,0,1,576.42,1597Z" style="fill: #647c6e"/>
      <path d="M588.67,1597a.46.46,0,0,1-.67,0l-1-.91a.44.44,0,0,1,0-.61c1.89-2,1.85-2.68,1.85-5.47a.19.19,0,0,0-.21-.21h-4.56a.47.47,0,0,1-.45-.46v-1.52a.44.44,0,0,1,.45-.43h5.56a1.57,1.57,0,0,1,1.62,1.52v1.89A7.59,7.59,0,0,1,588.67,1597Z" style="fill: #647c6e"/>
      <path d="M609.16,1592c0,6.33-2.46,10.79-9.79,11.49a.91.91,0,0,1-1.09-1l-.61-12.86-1.49-.66a.46.46,0,0,1-.21-.58l.67-1.43a.41.41,0,0,1,.58-.18l1.24.54H607a2.14,2.14,0,0,1,2.16,2.13Zm-2.4-2.06c0-.12-.09-.18-.24-.18H600l.52,11.15c4.83-1,6.2-4.35,6.2-8.6Z" style="fill: #647c6e"/>
      <path d="M620.56,1603.25h-6.32a.47.47,0,0,1-.46-.46v-1.48a.47.47,0,0,1,.46-.46h5.38c.18,0,.24-.06.24-.21V1590c0-.12-.09-.18-.24-.18h-2.71a.47.47,0,0,1-.45-.46v-1.52a.44.44,0,0,1,.45-.43h3.23a2.14,2.14,0,0,1,2.12,2.13v12A1.7,1.7,0,0,1,620.56,1603.25Z" style="fill: #647c6e"/>
      <path d="M634,1603.25H627.8a.47.47,0,0,1-.46-.46v-1.48a.47.47,0,0,1,.46-.46H634a2.06,2.06,0,0,0,2.07-2.07v-7a2,2,0,0,0-2.07-2h-5.68a.47.47,0,0,1-.46-.46v-1.52a.45.45,0,0,1,.46-.43H634a4.44,4.44,0,0,1,4.47,4.44v7A4.48,4.48,0,0,1,634,1603.25Z" style="fill: #647c6e"/>
      <path d="M643.61,1588.54a.42.42,0,0,1,0-.67l1-1a.41.41,0,0,1,.64,0l1.55,1.46c5.47-2,7.75-.58,7.93,2.06l.73,11.31a1.44,1.44,0,0,1-1.43,1.61H649.5a.46.46,0,0,1-.45-.46v-1.48a.46.46,0,0,1,.45-.46h3.25a.19.19,0,0,0,.22-.21l-.58-9.79c-.09-1.46-1.13-1.89-5.14-.43l-1.4,12.37a.49.49,0,0,1-.54.46h-1.37a.43.43,0,0,1-.46-.52l1.46-12.94Z" style="fill: #647c6e"/>
    </g>
    <circle cx="676.39" cy="1594.79" r="9.12" style="fill: #e3c867"/>
  </g>
  <g>
    <circle onclick="clothClick('data_cloth_01.html');" cx="1040.67" cy="436.47" r="78.49" style="fill: url(#b9984309-22d0-441c-839a-f544e5411c1f)"/>
    <circle cx="768" cy="436.47" r="78.49" style="fill: url(#f95d43cf-3ffc-45cc-a927-42ab296da76b)"/>
    <circle cx="495.33" cy="436.47" r="78.49" style="fill: url(#a9f7c850-02ff-48c0-9657-1202e3597268)"/>
    <circle cx="1040.67" cy="656.36" r="78.49" style="fill: url(#acdcbeef-949f-434c-8d84-8f537cd351cf)"/>
    <circle cx="768" cy="656.36" r="78.49" style="fill: url(#ef47575d-5a31-4430-aec0-ab604ca7230b)"/>
    <circle cx="495.33" cy="656.36" r="78.49" style="fill: url(#a2134cd4-5f6c-4b37-9a23-0c59a7415b49)"/>
    <circle cx="1040.67" cy="876.26" r="78.49" style="fill: url(#a03dfcff-314a-48f8-a56c-aead6401cef0)"/>
    <circle cx="768" cy="876.26" r="78.49" style="fill: url(#e12cdc51-3df9-4efe-98f7-6c74d69a0f3d)"/>
    <circle cx="495.33" cy="876.26" r="78.49" style="fill: url(#a7ca55ec-99d2-445f-95b3-e399ad78ba07)"/>
    <circle cx="1040.67" cy="1096.16" r="78.49" style="fill: url(#a03676c0-4254-4de1-bd97-020bb43df9bc)"/>
    <circle cx="768" cy="1096.16" r="78.49" style="fill: url(#a22fd74f-4f5e-428f-8cde-4a38b5db8a1b)"/>
    <circle cx="495.33" cy="1096.16" r="78.49" style="fill: url(#a05e73d3-2307-4dca-b4fe-fb7a915bedf4)"/>
    <circle cx="1040.67" cy="1316.05" r="78.49" style="fill: url(#efd71418-2f11-4322-8c2f-9ee07c46099f)"/>
    <circle cx="768" cy="1316.05" r="78.49" style="fill: url(#f57289c3-bab7-4d7a-a106-0e7a25d192e8)"/>
    <circle cx="495.33" cy="1316.05" r="78.49" style="fill: url(#ac234df1-82d9-43df-805f-44b31e8db17d)"/>
    <line x1="904.33" y1="327.1" x2="904.33" y2="1426.58" style="fill: none;stroke: #647c6e;stroke-miterlimit: 10;stroke-width: 2.18135196459353px"/>
    <line x1="631.67" y1="327.1" x2="631.67" y2="1426.58" style="fill: none;stroke: #647c6e;stroke-miterlimit: 10;stroke-width: 2.18135196459353px"/>
    <g>
      <line x1="926.15" y1="547" x2="1155.19" y2="547" style="fill: none;stroke: #647c6e;stroke-miterlimit: 10;stroke-width: 2.18135196459353px"/>
      <line x1="380.81" y1="547" x2="609.85" y2="547" style="fill: none;stroke: #647c6e;stroke-miterlimit: 10;stroke-width: 2.18135196459353px"/>
      <line x1="653.48" y1="547" x2="882.52" y2="547" style="fill: none;stroke: #647c6e;stroke-miterlimit: 10;stroke-width: 2.18135196459353px"/>
    </g>
    <g>
      <line x1="926.15" y1="766.89" x2="1155.19" y2="766.89" style="fill: none;stroke: #647c6e;stroke-miterlimit: 10;stroke-width: 2.18135196459353px"/>
      <line x1="380.81" y1="766.89" x2="609.85" y2="766.89" style="fill: none;stroke: #647c6e;stroke-miterlimit: 10;stroke-width: 2.18135196459353px"/>
      <line x1="653.48" y1="766.89" x2="882.52" y2="766.89" style="fill: none;stroke: #647c6e;stroke-miterlimit: 10;stroke-width: 2.18135196459353px"/>
    </g>
    <g>
      <line x1="926.15" y1="986.79" x2="1155.19" y2="986.79" style="fill: none;stroke: #647c6e;stroke-miterlimit: 10;stroke-width: 2.18135196459353px"/>
      <line x1="380.81" y1="986.79" x2="609.85" y2="986.79" style="fill: none;stroke: #647c6e;stroke-miterlimit: 10;stroke-width: 2.18135196459353px"/>
      <line x1="653.48" y1="986.79" x2="882.52" y2="986.79" style="fill: none;stroke: #647c6e;stroke-miterlimit: 10;stroke-width: 2.18135196459353px"/>
    </g>
    <g>
      <line x1="926.15" y1="1206.68" x2="1155.19" y2="1206.68" style="fill: none;stroke: #647c6e;stroke-miterlimit: 10;stroke-width: 2.18135196459353px"/>
      <line x1="380.81" y1="1206.68" x2="609.85" y2="1206.68" style="fill: none;stroke: #647c6e;stroke-miterlimit: 10;stroke-width: 2.18135196459353px"/>
      <line x1="653.48" y1="1206.68" x2="882.52" y2="1206.68" style="fill: none;stroke: #647c6e;stroke-miterlimit: 10;stroke-width: 2.18135196459353px"/>
    </g>
    <g>
      <line x1="926.15" y1="1426.58" x2="1155.19" y2="1426.58" style="fill: none;stroke: #647c6e;stroke-miterlimit: 10;stroke-width: 2.18135196459353px"/>
      <line x1="380.81" y1="1426.58" x2="609.85" y2="1426.58" style="fill: none;stroke: #647c6e;stroke-miterlimit: 10;stroke-width: 2.18135196459353px"/>
      <line x1="653.48" y1="1426.58" x2="882.52" y2="1426.58" style="fill: none;stroke: #647c6e;stroke-miterlimit: 10;stroke-width: 2.18135196459353px"/>
    </g>
    <g>
      <g>
        <path d="M1008,423.16c3.63,0,6.61,2.65,6.61,5.92v8.35c0,3.27-3,5.92-6.61,5.92h-5.23a.72.72,0,0,1-.69-.69V423.85a.72.72,0,0,1,.69-.69ZM1008,441c2.16,0,4.09-1.6,4.09-3.53v-8.38c0-1.93-1.93-3.5-4.09-3.5h-3.31V441Z" style="fill: #647c6e"/>
        <path d="M1020.21,428.72c0-3.27,3-5.89,6.61-5.89s6.74,2.62,6.74,5.89v9.13c0,3.27-3,5.89-6.74,5.89s-6.61-2.62-6.61-5.89Zm10.77,0c0-1.93-1.93-3.5-4.09-3.5s-4.09,1.57-4.09,3.5v9.19c0,1.93,1.93,3.5,4.09,3.5s4.09-1.57,4.09-3.5Z" style="fill: #647c6e"/>
        <path d="M1042.1,439.68a2,2,0,1,1-2,2A2,2,0,0,1,1042.1,439.68Z" style="fill: #647c6e"/>
        <path d="M1049.66,433.27c0-4.74,1.48-10.47,6.58-10.47s6.57,5.73,6.57,10.47-1.47,10.53-6.57,10.53S1049.66,438.05,1049.66,433.27Zm10.37,0c0-2.85-.39-8.18-3.79-8.18s-3.8,5.33-3.8,8.18.4,8.24,3.8,8.24S1060,436.21,1060,433.27Z" style="fill: #647c6e"/>
        <path d="M1068.12,425.45a.54.54,0,0,1,.36-.69l4.9-1.79a1.17,1.17,0,0,1,1.64,1.11V441h4a.52.52,0,0,1,.53.52v1.34a.52.52,0,0,1-.53.53h-11.12a.52.52,0,0,1-.52-.53v-1.34a.52.52,0,0,1,.52-.52h4.51V426l-3.17,1.18a.48.48,0,0,1-.65-.3Z" style="fill: #647c6e"/>
      </g>
      <g>
        <path d="M735.49,423.16c3.63,0,6.6,2.65,6.6,5.92v8.35c0,3.27-3,5.92-6.6,5.92h-5.24a.71.71,0,0,1-.68-.69V423.85a.71.71,0,0,1,.68-.69Zm-.07,17.8c2.16,0,4.09-1.6,4.09-3.53v-8.38c0-1.93-1.93-3.5-4.09-3.5h-3.3V441Z" style="fill: #647c6e"/>
        <path d="M747.66,428.72c0-3.27,3-5.89,6.61-5.89s6.74,2.62,6.74,5.89v9.13c0,3.27-3,5.89-6.74,5.89s-6.61-2.62-6.61-5.89Zm10.76,0c0-1.93-1.93-3.5-4.09-3.5s-4.09,1.57-4.09,3.5v9.19c0,1.93,1.93,3.5,4.09,3.5s4.09-1.57,4.09-3.5Z" style="fill: #647c6e"/>
        <path d="M769.55,439.68a2,2,0,1,1-2,2A2,2,0,0,1,769.55,439.68Z" style="fill: #647c6e"/>
        <path d="M777.11,433.27c0-4.74,1.47-10.47,6.57-10.47s6.58,5.73,6.58,10.47-1.47,10.53-6.58,10.53S777.11,438.05,777.11,433.27Zm10.37,0c0-2.85-.4-8.18-3.8-8.18s-3.79,5.33-3.79,8.18.39,8.24,3.79,8.24S787.48,436.21,787.48,433.27Z" style="fill: #647c6e"/>
        <path d="M805.11,439.85a.52.52,0,0,1,.53-.53h.94a.52.52,0,0,1,.53.53v3.07a.46.46,0,0,1-.43.43H795.56a.72.72,0,0,1-.69-.69v-1.9l7-7.29c2.19-2.29,2.71-3.47,2.68-5.11a3.36,3.36,0,0,0-3.47-3.14,4.75,4.75,0,0,0-4.35,2.69.67.67,0,0,1-1,.22l-.69-.42a.71.71,0,0,1-.23-.92,6.51,6.51,0,0,1,6.25-4c3,0,6.15,2,6.22,5.53.06,2.42-1.21,4.48-3.18,6.38L797.65,441h7.46Z" style="fill: #647c6e"/>
      </g>
      <g>
        <path d="M462.69,423.16c3.63,0,6.61,2.65,6.61,5.92v8.35c0,3.27-3,5.92-6.61,5.92h-5.23a.71.71,0,0,1-.69-.69V423.85a.71.71,0,0,1,.69-.69Zm-.07,17.8c2.16,0,4.09-1.6,4.09-3.53v-8.38c0-1.93-1.93-3.5-4.09-3.5h-3.3V441Z" style="fill: #647c6e"/>
        <path d="M474.86,428.72c0-3.27,3-5.89,6.61-5.89s6.74,2.62,6.74,5.89v9.13c0,3.27-3,5.89-6.74,5.89s-6.61-2.62-6.61-5.89Zm10.76,0c0-1.93-1.93-3.5-4.08-3.5s-4.09,1.57-4.09,3.5v9.19c0,1.93,1.93,3.5,4.09,3.5s4.08-1.57,4.08-3.5Z" style="fill: #647c6e"/>
        <path d="M496.75,439.68a2,2,0,1,1-2,2A2,2,0,0,1,496.75,439.68Z" style="fill: #647c6e"/>
        <path d="M504.31,433.27c0-4.74,1.47-10.47,6.58-10.47s6.57,5.73,6.57,10.47S516,443.8,510.89,443.8,504.31,438.05,504.31,433.27Zm10.37,0c0-2.85-.39-8.18-3.79-8.18s-3.8,5.33-3.8,8.18.39,8.24,3.8,8.24S514.68,436.21,514.68,433.27Z" style="fill: #647c6e"/>
        <path d="M523.29,425.55a.58.58,0,0,1-.56-.59v-1.21a.56.56,0,0,1,.56-.59h9.88a.55.55,0,0,1,.55.56v2l-4.35,4.74a6.22,6.22,0,0,1,5.53,6.44,6.66,6.66,0,0,1-6.81,6.87,7.18,7.18,0,0,1-5.85-3,.72.72,0,0,1,.1-1l.49-.43a.71.71,0,0,1,1,.07,5.33,5.33,0,0,0,4.08,2,4.35,4.35,0,0,0,4.39-4.41,4.15,4.15,0,0,0-4.29-4.32h-.85c-.33,0-.55-.07-.62-.36l-.36-1.57,4.74-5.17Z" style="fill: #647c6e"/>
      </g>
    </g>
    <g>
      <g>
        <path d="M1007.63,643.06c3.64,0,6.61,2.65,6.61,5.92v8.34c0,3.27-3,5.92-6.61,5.92h-5.23a.71.71,0,0,1-.69-.68V643.74a.71.71,0,0,1,.69-.68Zm-.06,17.79c2.16,0,4.09-1.6,4.09-3.53V649c0-1.93-1.93-3.5-4.09-3.5h-3.31v15.4Z" style="fill: #647c6e"/>
        <path d="M1019.81,648.62c0-3.27,3-5.89,6.61-5.89s6.73,2.62,6.73,5.89v9.13c0,3.27-3,5.88-6.73,5.88s-6.61-2.61-6.61-5.88Zm10.76,0c0-1.93-1.93-3.5-4.09-3.5s-4.09,1.57-4.09,3.5v9.19c0,1.93,1.93,3.5,4.09,3.5s4.09-1.57,4.09-3.5Z" style="fill: #647c6e"/>
        <path d="M1041.7,659.58a2,2,0,1,1-2,2A2,2,0,0,1,1041.7,659.58Z" style="fill: #647c6e"/>
        <path d="M1049.25,653.17c0-4.75,1.48-10.47,6.58-10.47s6.58,5.72,6.58,10.47-1.48,10.53-6.58,10.53S1049.25,657.94,1049.25,653.17Zm10.38,0c0-2.85-.4-8.18-3.8-8.18s-3.79,5.33-3.79,8.18.39,8.24,3.79,8.24S1059.63,656.11,1059.63,653.17Z" style="fill: #647c6e"/>
        <path d="M1077.36,643.06a.71.71,0,0,1,.65.75v11.84h2.1a.52.52,0,0,1,.52.53v1.17a.52.52,0,0,1-.52.53H1078V661h2.1a.52.52,0,0,1,.52.53v1.21a.52.52,0,0,1-.52.52h-7.89a.52.52,0,0,1-.52-.52v-1.21a.52.52,0,0,1,.52-.53h3.31v-3.1h-7.86a.72.72,0,0,1-.68-.69v-1.8l7.39-12.17a.87.87,0,0,1,1-.46Zm-1.83,12.59V645.58l-6.09,10.07Z" style="fill: #647c6e"/>
      </g>
      <g>
        <path d="M735.37,643.06c3.63,0,6.61,2.65,6.61,5.92v8.34c0,3.27-3,5.92-6.61,5.92h-5.23a.71.71,0,0,1-.69-.68V643.74a.71.71,0,0,1,.69-.68Zm-.06,17.79c2.16,0,4.09-1.6,4.09-3.53V649c0-1.93-1.93-3.5-4.09-3.5H732v15.4Z" style="fill: #647c6e"/>
        <path d="M747.54,648.62c0-3.27,3-5.89,6.61-5.89s6.74,2.62,6.74,5.89v9.13c0,3.27-3,5.88-6.74,5.88s-6.61-2.61-6.61-5.88Zm10.77,0c0-1.93-1.93-3.5-4.09-3.5s-4.09,1.57-4.09,3.5v9.19c0,1.93,1.93,3.5,4.09,3.5s4.09-1.57,4.09-3.5Z" style="fill: #647c6e"/>
        <path d="M769.43,659.58a2,2,0,1,1-2,2A2,2,0,0,1,769.43,659.58Z" style="fill: #647c6e"/>
        <path d="M777,653.17c0-4.75,1.48-10.47,6.58-10.47s6.57,5.72,6.57,10.47-1.47,10.53-6.57,10.53S777,657.94,777,653.17Zm10.37,0c0-2.85-.39-8.18-3.79-8.18s-3.8,5.33-3.8,8.18.4,8.24,3.8,8.24S787.36,656.11,787.36,653.17Z" style="fill: #647c6e"/>
        <path d="M800.65,661.28a4.35,4.35,0,0,0,4.38-4.42,4.15,4.15,0,0,0-4.28-4.32,5.51,5.51,0,0,0-3.14,1,1,1,0,0,1-1.15.06l-1-.55v-9.43a.55.55,0,0,1,.56-.55h9.42a.56.56,0,0,1,.55.59v1.21a.58.58,0,0,1-.55.59H798V651a7.2,7.2,0,0,1,3.14-.72,6.38,6.38,0,0,1,6.47,6.58,6.66,6.66,0,0,1-6.8,6.87,7.22,7.22,0,0,1-5.86-3,.74.74,0,0,1,.1-1.05l.49-.42a.71.71,0,0,1,1,.06A5.36,5.36,0,0,0,800.65,661.28Z" style="fill: #647c6e"/>
      </g>
      <g>
        <path d="M462.64,643.06c3.63,0,6.61,2.65,6.61,5.92v8.34c0,3.27-3,5.92-6.61,5.92h-5.23a.71.71,0,0,1-.69-.68V643.74a.71.71,0,0,1,.69-.68Zm-.06,17.79c2.16,0,4.09-1.6,4.09-3.53V649c0-1.93-1.93-3.5-4.09-3.5h-3.31v15.4Z" style="fill: #647c6e"/>
        <path d="M474.81,648.62c0-3.27,3-5.89,6.61-5.89s6.74,2.62,6.74,5.89v9.13c0,3.27-3,5.88-6.74,5.88s-6.61-2.61-6.61-5.88Zm10.77,0c0-1.93-1.93-3.5-4.09-3.5s-4.09,1.57-4.09,3.5v9.19c0,1.93,1.93,3.5,4.09,3.5s4.09-1.57,4.09-3.5Z" style="fill: #647c6e"/>
        <path d="M496.7,659.58a2,2,0,1,1-2,2A2,2,0,0,1,496.7,659.58Z" style="fill: #647c6e"/>
        <path d="M504.26,653.17c0-4.75,1.47-10.47,6.58-10.47s6.57,5.72,6.57,10.47-1.47,10.53-6.57,10.53S504.26,657.94,504.26,653.17Zm10.37,0c0-2.85-.39-8.18-3.79-8.18s-3.8,5.33-3.8,8.18.39,8.24,3.8,8.24S514.63,656.11,514.63,653.17Z" style="fill: #647c6e"/>
        <path d="M532.79,642.73a.57.57,0,0,1,.62.62v.79a.55.55,0,0,1-.62.59c-4.25,0-7.79,3.27-8.14,8.17a5.16,5.16,0,0,1,4.28-2.32c3.37,0,6,3,6,6.58a6.28,6.28,0,0,1-6.05,6.54,6,6,0,0,1-5-2.45,10.67,10.67,0,0,1-1.86-6.61,12.72,12.72,0,0,1,2.81-8.67,9.51,9.51,0,0,1,7.33-3.24Zm-4.09,18.71c2.1,0,3.67-1.93,3.67-4.28s-1.57-4.22-3.67-4.22a3.94,3.94,0,0,0-3.7,4.22C525,659.51,526.58,661.44,528.7,661.44Z" style="fill: #647c6e"/>
      </g>
    </g>
    <g>
      <g>
        <path d="M1008.34,863c3.63,0,6.61,2.65,6.61,5.93v8.34c0,3.27-3,5.92-6.61,5.92h-5.24a.71.71,0,0,1-.68-.69V863.64a.71.71,0,0,1,.68-.69Zm-.07,17.8c2.16,0,4.09-1.6,4.09-3.53v-8.38c0-1.93-1.93-3.5-4.09-3.5H1005v15.41Z" style="fill: #647c6e"/>
        <path d="M1020.51,868.52c0-3.28,3-5.89,6.61-5.89s6.74,2.61,6.74,5.89v9.12c0,3.27-3,5.89-6.74,5.89s-6.61-2.62-6.61-5.89Zm10.76,0c0-1.93-1.93-3.5-4.09-3.5s-4.09,1.57-4.09,3.5v9.2c0,1.93,1.93,3.5,4.09,3.5s4.09-1.57,4.09-3.5Z" style="fill: #647c6e"/>
        <path d="M1042.4,879.47a2,2,0,1,1-2,2A2,2,0,0,1,1042.4,879.47Z" style="fill: #647c6e"/>
        <path d="M1050,873.06c0-4.74,1.47-10.47,6.57-10.47s6.58,5.73,6.58,10.47-1.47,10.54-6.58,10.54S1050,877.84,1050,873.06Zm10.37,0c0-2.84-.4-8.18-3.8-8.18s-3.79,5.34-3.79,8.18.39,8.25,3.79,8.25S1060.33,876,1060.33,873.06Z" style="fill: #647c6e"/>
        <path d="M1077.18,865.34h-7.49v1.31a.52.52,0,0,1-.53.52h-1a.52.52,0,0,1-.52-.52v-3a.72.72,0,0,1,.69-.69h10.27a1.27,1.27,0,0,1,1.21,1.7l-5.4,17.93c-.13.49-.46.56-.85.56h-1.34a.53.53,0,0,1-.52-.75Z" style="fill: #647c6e"/>
      </g>
      <g>
        <path d="M735.32,863c3.64,0,6.61,2.65,6.61,5.93v8.34c0,3.27-3,5.92-6.61,5.92h-5.23a.72.72,0,0,1-.69-.69V863.64a.72.72,0,0,1,.69-.69Zm-.06,17.8c2.16,0,4.09-1.6,4.09-3.53v-8.38c0-1.93-1.93-3.5-4.09-3.5H732v15.41Z" style="fill: #647c6e"/>
        <path d="M747.5,868.52c0-3.28,3-5.89,6.6-5.89s6.74,2.61,6.74,5.89v9.12c0,3.27-3,5.89-6.74,5.89s-6.6-2.62-6.6-5.89Zm10.76,0c0-1.93-1.93-3.5-4.09-3.5s-4.09,1.57-4.09,3.5v9.2c0,1.93,1.93,3.5,4.09,3.5s4.09-1.57,4.09-3.5Z" style="fill: #647c6e"/>
        <path d="M769.39,879.47a2,2,0,1,1-2,2A2,2,0,0,1,769.39,879.47Z" style="fill: #647c6e"/>
        <path d="M776.94,873.06c0-4.74,1.48-10.47,6.58-10.47s6.58,5.73,6.58,10.47-1.48,10.54-6.58,10.54S776.94,877.84,776.94,873.06Zm10.38,0c0-2.84-.4-8.18-3.8-8.18s-3.79,5.34-3.79,8.18.39,8.25,3.79,8.25S787.32,876,787.32,873.06Z" style="fill: #647c6e"/>
        <path d="M797.75,872.83a5.31,5.31,0,0,1-2.84-4.64,6,6,0,0,1,6.21-5.66c3.5,0,6.28,2.55,6.28,5.66a5.31,5.31,0,0,1-2.84,4.64,5.17,5.17,0,0,1,3,4.81,6.48,6.48,0,0,1-12.92,0A5.2,5.2,0,0,1,797.75,872.83Zm3.37,8.51a3.68,3.68,0,1,0-3.83-3.66A3.77,3.77,0,0,0,801.12,881.34Zm0-9.55a3.55,3.55,0,1,0-3.66-3.54A3.63,3.63,0,0,0,801.12,871.79Z" style="fill: #647c6e"/>
      </g>
      <g>
        <path d="M462.64,863c3.63,0,6.61,2.65,6.61,5.93v8.34c0,3.27-3,5.92-6.61,5.92h-5.23a.72.72,0,0,1-.69-.69V863.64a.72.72,0,0,1,.69-.69Zm-.06,17.8c2.16,0,4.09-1.6,4.09-3.53v-8.38c0-1.93-1.93-3.5-4.09-3.5h-3.31v15.41Z" style="fill: #647c6e"/>
        <path d="M474.81,868.52c0-3.28,3-5.89,6.61-5.89s6.74,2.61,6.74,5.89v9.12c0,3.27-3,5.89-6.74,5.89s-6.61-2.62-6.61-5.89Zm10.77,0c0-1.93-1.93-3.5-4.09-3.5s-4.09,1.57-4.09,3.5v9.2c0,1.93,1.93,3.5,4.09,3.5s4.09-1.57,4.09-3.5Z" style="fill: #647c6e"/>
        <path d="M496.7,879.47a2,2,0,1,1-2,2A2,2,0,0,1,496.7,879.47Z" style="fill: #647c6e"/>
        <path d="M504.26,873.06c0-4.74,1.47-10.47,6.58-10.47s6.57,5.73,6.57,10.47-1.47,10.54-6.57,10.54S504.26,877.84,504.26,873.06Zm10.37,0c0-2.84-.39-8.18-3.79-8.18s-3.8,5.34-3.8,8.18.39,8.25,3.8,8.25S514.63,876,514.63,873.06Z" style="fill: #647c6e"/>
        <path d="M524.15,883.47a.57.57,0,0,1-.62-.63v-.78a.55.55,0,0,1,.62-.59c4.26,0,7.79-3.24,8.15-8.15a5.16,5.16,0,0,1-4.29,2.33c-3.36,0-6-3-6-6.58a6.28,6.28,0,0,1,6-6.54,6,6,0,0,1,5,2.45,10.68,10.68,0,0,1,1.87,6.61,12.69,12.69,0,0,1-2.81,8.64,9.51,9.51,0,0,1-7.33,3.24Zm4.09-18.68c-2.09,0-3.66,1.93-3.66,4.28s1.57,4.22,3.66,4.22a3.94,3.94,0,0,0,3.7-4.22C531.94,866.72,530.37,864.79,528.24,864.79Z" style="fill: #647c6e"/>
      </g>
    </g>
    <g>
      <g>
        <path d="M1008,1082.85c3.63,0,6.61,2.65,6.61,5.92v8.34c0,3.28-3,5.93-6.61,5.93h-5.23a.72.72,0,0,1-.69-.69v-18.81a.72.72,0,0,1,.69-.69Zm-.06,17.8c2.16,0,4.09-1.61,4.09-3.54v-8.37c0-1.93-1.93-3.5-4.09-3.5h-3.31v15.41Z" style="fill: #647c6e"/>
        <path d="M1020.21,1088.41c0-3.27,3-5.89,6.61-5.89s6.74,2.62,6.74,5.89v9.13c0,3.27-3,5.89-6.74,5.89s-6.61-2.62-6.61-5.89Zm10.77,0c0-1.93-1.93-3.5-4.09-3.5s-4.09,1.57-4.09,3.5v9.19c0,1.93,1.93,3.5,4.09,3.5s4.09-1.57,4.09-3.5Z" style="fill: #647c6e"/>
        <path d="M1042.1,1099.37a2,2,0,1,1-2,2A2,2,0,0,1,1042.1,1099.37Z" style="fill: #647c6e"/>
        <path d="M1050.38,1085.14a.55.55,0,0,1,.36-.69l4.91-1.8a1.18,1.18,0,0,1,1.64,1.12v16.88h4a.52.52,0,0,1,.52.52v1.34a.52.52,0,0,1-.52.53h-11.12a.52.52,0,0,1-.53-.53v-1.34a.52.52,0,0,1,.53-.52h4.51v-15l-3.17,1.17a.48.48,0,0,1-.66-.29Z" style="fill: #647c6e"/>
        <path d="M1067.07,1093c0-4.74,1.47-10.47,6.58-10.47s6.57,5.73,6.57,10.47-1.47,10.53-6.57,10.53S1067.07,1097.74,1067.07,1093Zm10.37,0c0-2.85-.39-8.18-3.79-8.18s-3.8,5.33-3.8,8.18.39,8.24,3.8,8.24S1077.44,1095.9,1077.44,1093Z" style="fill: #647c6e"/>
      </g>
      <g>
        <path d="M735.54,1082.85c3.63,0,6.6,2.65,6.6,5.92v8.34c0,3.28-3,5.93-6.6,5.93H730.3a.72.72,0,0,1-.69-.69v-18.81a.72.72,0,0,1,.69-.69Zm-.07,17.8c2.16,0,4.09-1.61,4.09-3.54v-8.37c0-1.93-1.93-3.5-4.09-3.5h-3.3v15.41Z" style="fill: #647c6e"/>
        <path d="M747.71,1088.41c0-3.27,3-5.89,6.61-5.89s6.73,2.62,6.73,5.89v9.13c0,3.27-3,5.89-6.73,5.89s-6.61-2.62-6.61-5.89Zm10.76,0c0-1.93-1.93-3.5-4.09-3.5s-4.09,1.57-4.09,3.5v9.19c0,1.93,1.93,3.5,4.09,3.5s4.09-1.57,4.09-3.5Z" style="fill: #647c6e"/>
        <path d="M769.6,1099.37a2,2,0,1,1-2,2A2,2,0,0,1,769.6,1099.37Z" style="fill: #647c6e"/>
        <path d="M777.88,1085.14a.54.54,0,0,1,.36-.69l4.9-1.8a1.18,1.18,0,0,1,1.64,1.12v16.88h4a.52.52,0,0,1,.53.52v1.34a.52.52,0,0,1-.53.53H777.68a.51.51,0,0,1-.52-.53v-1.34a.51.51,0,0,1,.52-.52h4.51v-15l-3.17,1.17a.47.47,0,0,1-.65-.29Z" style="fill: #647c6e"/>
        <path d="M795.28,1085.14a.55.55,0,0,1,.36-.69l4.91-1.8a1.17,1.17,0,0,1,1.63,1.12v16.88h4a.52.52,0,0,1,.52.52v1.34a.52.52,0,0,1-.52.53H795.08a.52.52,0,0,1-.52-.53v-1.34a.52.52,0,0,1,.52-.52h4.52v-15l-3.17,1.17a.48.48,0,0,1-.66-.29Z" style="fill: #647c6e"/>
      </g>
      <g>
        <path d="M463,1082.85c3.64,0,6.61,2.65,6.61,5.92v8.34c0,3.28-3,5.93-6.61,5.93h-5.23a.72.72,0,0,1-.69-.69v-18.81a.72.72,0,0,1,.69-.69Zm-.06,17.8c2.16,0,4.09-1.61,4.09-3.54v-8.37c0-1.93-1.93-3.5-4.09-3.5h-3.31v15.41Z" style="fill: #647c6e"/>
        <path d="M475.16,1088.41c0-3.27,3-5.89,6.6-5.89s6.74,2.62,6.74,5.89v9.13c0,3.27-3,5.89-6.74,5.89s-6.6-2.62-6.6-5.89Zm10.76,0c0-1.93-1.93-3.5-4.09-3.5s-4.09,1.57-4.09,3.5v9.19c0,1.93,1.93,3.5,4.09,3.5s4.09-1.57,4.09-3.5Z" style="fill: #647c6e"/>
        <path d="M497.05,1099.37a2,2,0,1,1-2,2A2,2,0,0,1,497.05,1099.37Z" style="fill: #647c6e"/>
        <path d="M505.32,1085.14a.55.55,0,0,1,.36-.69l4.91-1.8a1.18,1.18,0,0,1,1.64,1.12v16.88h4a.51.51,0,0,1,.52.52v1.34a.51.51,0,0,1-.52.53H505.13a.52.52,0,0,1-.53-.53v-1.34a.52.52,0,0,1,.53-.52h4.51v-15l-3.17,1.17a.46.46,0,0,1-.65-.29Z" style="fill: #647c6e"/>
        <path d="M532.28,1099.53a.52.52,0,0,1,.53-.52h.94a.52.52,0,0,1,.53.52v3.08a.46.46,0,0,1-.43.43H522.73a.72.72,0,0,1-.69-.69v-1.9l7-7.29c2.19-2.29,2.71-3.47,2.68-5.11a3.36,3.36,0,0,0-3.47-3.14,4.75,4.75,0,0,0-4.35,2.68.67.67,0,0,1-1,.23l-.69-.42a.72.72,0,0,1-.23-.92,6.51,6.51,0,0,1,6.25-4c3,0,6.15,2,6.22,5.53.06,2.42-1.21,4.48-3.18,6.38l-6.51,6.28h7.46Z" style="fill: #647c6e"/>
      </g>
    </g>
    <g>
      <g>
        <path d="M1008.19,1302.75c3.63,0,6.61,2.65,6.61,5.92V1317c0,3.27-3,5.92-6.61,5.92H1003a.71.71,0,0,1-.69-.68v-18.82a.7.7,0,0,1,.69-.68Zm-.07,17.79c2.16,0,4.09-1.6,4.09-3.53v-8.37c0-1.93-1.93-3.5-4.09-3.5h-3.3v15.4Z" style="fill: #647c6e"/>
        <path d="M1020.36,1308.31c0-3.27,3-5.89,6.61-5.89s6.74,2.62,6.74,5.89v9.13c0,3.27-3,5.88-6.74,5.88s-6.61-2.61-6.61-5.88Zm10.76,0c0-1.93-1.93-3.5-4.08-3.5s-4.09,1.57-4.09,3.5v9.19c0,1.93,1.93,3.5,4.09,3.5s4.08-1.57,4.08-3.5Z" style="fill: #647c6e"/>
        <path d="M1042.25,1319.27a2,2,0,1,1-2,2A2,2,0,0,1,1042.25,1319.27Z" style="fill: #647c6e"/>
        <path d="M1050.53,1305a.54.54,0,0,1,.36-.69l4.91-1.8a1.17,1.17,0,0,1,1.63,1.11v16.88h4a.52.52,0,0,1,.52.53v1.34a.52.52,0,0,1-.52.52h-11.13a.52.52,0,0,1-.52-.52v-1.34a.52.52,0,0,1,.52-.53h4.52v-15l-3.18,1.18a.47.47,0,0,1-.65-.29Z" style="fill: #647c6e"/>
        <path d="M1068.46,1305.14a.59.59,0,0,1-.56-.59v-1.21a.57.57,0,0,1,.56-.59h9.88a.56.56,0,0,1,.56.55v2l-4.36,4.75a6.21,6.21,0,0,1,5.53,6.44,6.66,6.66,0,0,1-6.8,6.87,7.22,7.22,0,0,1-5.86-3,.74.74,0,0,1,.1-1.05l.49-.42a.71.71,0,0,1,1,.06,5.36,5.36,0,0,0,4.09,2,4.35,4.35,0,0,0,4.38-4.42,4.15,4.15,0,0,0-4.28-4.32h-.86c-.32,0-.55-.06-.62-.36l-.36-1.57,4.75-5.16Z" style="fill: #647c6e"/>
      </g>
      <g>
        <path d="M735.13,1302.75c3.63,0,6.61,2.65,6.61,5.92V1317c0,3.27-3,5.92-6.61,5.92h-5.24a.71.71,0,0,1-.68-.68v-18.82a.7.7,0,0,1,.68-.68Zm-.07,17.79c2.16,0,4.09-1.6,4.09-3.53v-8.37c0-1.93-1.93-3.5-4.09-3.5h-3.3v15.4Z" style="fill: #647c6e"/>
        <path d="M747.3,1308.31c0-3.27,3-5.89,6.61-5.89s6.74,2.62,6.74,5.89v9.13c0,3.27-3,5.88-6.74,5.88s-6.61-2.61-6.61-5.88Zm10.76,0c0-1.93-1.93-3.5-4.09-3.5s-4.09,1.57-4.09,3.5v9.19c0,1.93,1.93,3.5,4.09,3.5s4.09-1.57,4.09-3.5Z" style="fill: #647c6e"/>
        <path d="M769.19,1319.27a2,2,0,1,1-2,2A2,2,0,0,1,769.19,1319.27Z" style="fill: #647c6e"/>
        <path d="M777.47,1305a.54.54,0,0,1,.36-.69l4.9-1.8a1.18,1.18,0,0,1,1.64,1.11v16.88h4a.52.52,0,0,1,.53.53v1.34a.52.52,0,0,1-.53.52H777.27a.52.52,0,0,1-.52-.52v-1.34a.52.52,0,0,1,.52-.53h4.52v-15l-3.18,1.18a.47.47,0,0,1-.65-.29Z" style="fill: #647c6e"/>
        <path d="M804.52,1302.75a.71.71,0,0,1,.66.75v11.84h2.09a.52.52,0,0,1,.53.53V1317a.52.52,0,0,1-.53.53h-2.09v3.1h2.09a.52.52,0,0,1,.53.53v1.21a.52.52,0,0,1-.53.52h-7.88a.52.52,0,0,1-.53-.52v-1.21a.52.52,0,0,1,.53-.53h3.3v-3.1h-7.85a.72.72,0,0,1-.69-.69v-1.8l7.4-12.17a.87.87,0,0,1,1-.46Zm-1.83,12.59v-10.07l-6.08,10.07Z" style="fill: #647c6e"/>
      </g>
      <g>
        <path d="M462.87,1302.75c3.63,0,6.61,2.65,6.61,5.92V1317c0,3.27-3,5.92-6.61,5.92h-5.24a.71.71,0,0,1-.68-.68v-18.82a.7.7,0,0,1,.68-.68Zm-.07,17.79c2.16,0,4.09-1.6,4.09-3.53v-8.37c0-1.93-1.93-3.5-4.09-3.5h-3.3v15.4Z" style="fill: #647c6e"/>
        <path d="M475,1308.31c0-3.27,3-5.89,6.61-5.89s6.74,2.62,6.74,5.89v9.13c0,3.27-3,5.88-6.74,5.88s-6.61-2.61-6.61-5.88Zm10.76,0c0-1.93-1.93-3.5-4.09-3.5s-4.08,1.57-4.08,3.5v9.19c0,1.93,1.93,3.5,4.08,3.5s4.09-1.57,4.09-3.5Z" style="fill: #647c6e"/>
        <path d="M496.93,1319.27a2,2,0,1,1-2,2A2,2,0,0,1,496.93,1319.27Z" style="fill: #647c6e"/>
        <path d="M505.21,1305a.54.54,0,0,1,.36-.69l4.91-1.8a1.17,1.17,0,0,1,1.63,1.11v16.88h4a.52.52,0,0,1,.52.53v1.34a.52.52,0,0,1-.52.52H505a.52.52,0,0,1-.52-.52v-1.34a.52.52,0,0,1,.52-.53h4.52v-15l-3.18,1.18a.47.47,0,0,1-.65-.29Z" style="fill: #647c6e"/>
        <path d="M527.82,1321a4.35,4.35,0,0,0,4.38-4.42,4.15,4.15,0,0,0-4.28-4.32,5.56,5.56,0,0,0-3.15,1,1,1,0,0,1-1.14.06l-1-.55v-9.43a.55.55,0,0,1,.55-.55h9.43a.56.56,0,0,1,.55.59v1.21a.58.58,0,0,1-.55.59h-7.5v5.52a7.26,7.26,0,0,1,3.14-.72,6.39,6.39,0,0,1,6.48,6.58,6.66,6.66,0,0,1-6.8,6.87,7.22,7.22,0,0,1-5.86-3,.74.74,0,0,1,.1-1.05l.49-.42a.71.71,0,0,1,1.05.06A5.35,5.35,0,0,0,527.82,1321Z" style="fill: #647c6e"/>
      </g>
    </g>
    <g>
      <line x1="926.15" y1="327.1" x2="1155.19" y2="327.1" style="fill: none;stroke: #647c6e;stroke-miterlimit: 10;stroke-width: 2.18135196459353px"/>
      <line x1="380.81" y1="327.1" x2="609.85" y2="327.1" style="fill: none;stroke: #647c6e;stroke-miterlimit: 10;stroke-width: 2.18135196459353px"/>
      <line x1="653.48" y1="327.1" x2="882.52" y2="327.1" style="fill: none;stroke: #647c6e;stroke-miterlimit: 10;stroke-width: 2.18135196459353px"/>
    </g>
  </g>
  <script>
  function clothClick(x){
    parent.openCloth(x);
  }
  </script>
</svg>
