<svg xmlns="http://www.w3.org/2000/svg" xmlns:xlink="http://www.w3.org/1999/xlink" viewBox="0 0 880.23 1055.63"><defs><style>.cls-1{fill:#f59774;}</style></defs><g id="Layer_2" data-name="Layer 2"><g id="_" data-name="+"><image width="1429" height="1205" transform="translate(0 59.03) scale(0.18)" xlink:href="../../stories-ipad/pro-1.jpg"/><image width="1430" height="1579" transform="translate(622.83 267.31) scale(0.18)" xlink:href="../../stories-ipad/pro-2.jpg"/><image width="1429" height="1765" transform="translate(46.25 737.93) scale(0.18)" xlink:href="../../stories-ipad/pro-3.jpg"/><path class="cls-1" d="M152.16,20.07A2.1,2.1,0,0,0,150.08,18h-3a9.47,9.47,0,0,0-2.72,7,13.35,13.35,0,0,0,2.9,8v2a1.7,1.7,0,0,1-1.67,1.68h-5.76a.83.83,0,0,1-.86-.82V33.12a.86.86,0,0,1,.91-.81h2a12.37,12.37,0,0,1-2.26-7.16A11.16,11.16,0,0,1,141.92,18h-1.86a.83.83,0,0,1-.86-.82V14a.87.87,0,0,1,.91-.82h10A6.9,6.9,0,0,1,157,20.12V35.84a.87.87,0,0,1-.82.91H153a.87.87,0,0,1-.82-.91Z" transform="translate(0 -13.18)"/><path class="cls-1" d="M172.51,28.09l-1.82-1.72a1,1,0,0,1,0-1.5c2.13-2.17,2.54-3.62,2.54-6.88h-6.39a.8.8,0,0,1-.86-.82V14a.87.87,0,0,1,.91-.82H175a3,3,0,0,1,3,2.9v2.59a11.92,11.92,0,0,1-4,9.38A1.11,1.11,0,0,1,172.51,28.09Z" transform="translate(0 -13.18)"/><path class="cls-1" d="M188.82,18a.83.83,0,0,1-.86-.82V14a.86.86,0,0,1,.9-.82h6a6.87,6.87,0,0,1,6.89,6.94V31.94h1.86a.86.86,0,0,1,.9.82v3.17a.83.83,0,0,1-.86.82H187.46a.83.83,0,0,1-.86-.82V32.76a.87.87,0,0,1,.9-.82H197V20.07A2.1,2.1,0,0,0,194.89,18Z" transform="translate(0 -13.18)"/><path class="cls-1" d="M226.65,20.07A2.12,2.12,0,0,0,224.52,18h-9.78a.81.81,0,0,1-.87-.82V14a.87.87,0,0,1,.91-.82h9.7a6.91,6.91,0,0,1,7,6.94V35.84a.87.87,0,0,1-.82.91h-3.17a.87.87,0,0,1-.82-.91ZM215.51,22.7l2.9.18a.91.91,0,0,1,.9,1.09s-.5,4.35-.5,5.16v6.71a.86.86,0,0,1-.81.91h-3.17a.87.87,0,0,1-.82-.91V29c0-.95.5-5.53.5-5.53A.84.84,0,0,1,215.51,22.7Z" transform="translate(0 -13.18)"/><path class="cls-1" d="M56.51,61.53a3.68,3.68,0,0,1,3.72,3.72V82a3.06,3.06,0,0,1-3.09,3.08H45.45a1.68,1.68,0,0,1-1.63-1.63V66.11L41.69,65a.9.9,0,0,1-.41-1.22l1.18-2.67a.9.9,0,0,1,1.22-.37l1.5.77Zm-1.09,4.81H48.58v14h6.84Z" transform="translate(0 -13.18)"/><path class="cls-1" d="M76,76.44l-1.82-1.72a1,1,0,0,1,0-1.49c2.14-2.18,2.54-3.63,2.54-6.89H70.37a.8.8,0,0,1-.86-.82V62.35a.87.87,0,0,1,.91-.82h8.16a3,3,0,0,1,3,2.9V67a11.91,11.91,0,0,1-4,9.38A1.1,1.1,0,0,1,76,76.44Z" transform="translate(0 -13.18)"/><path class="cls-1" d="M90.9,80.3h7.57v-14H94.62a.81.81,0,0,1-.87-.82V62.35a.87.87,0,0,1,.91-.82H99.6a3.74,3.74,0,0,1,3.72,3.72V82a3.06,3.06,0,0,1-3.08,3.08H90.9a.79.79,0,0,1-.86-.82V81.11a.86.86,0,0,1,.9-.81Z" transform="translate(0 -13.18)"/><path class="cls-1" d="M112.65,65.34a1,1,0,0,1-.68-1.22l.68-2.63a1,1,0,0,1,1.22-.68l6.48,1.63a2.25,2.25,0,0,1,1.91,2.45v19.3a.87.87,0,0,1-.82.91h-3.17a.87.87,0,0,1-.82-.91V66.61Z" transform="translate(0 -13.18)"/><path class="cls-1" d="M133.63,66.07l-2.13-1.91a.93.93,0,0,1,0-1.31l1.81-2a.92.92,0,0,1,1.36-.09l2.63,2.35c2.67-1.35,11.19-4.16,11.6,4l.73,14.77a2.85,2.85,0,0,1-2.86,3.22h-5.71a.82.82,0,0,1-.86-.82V81.11a.86.86,0,0,1,.91-.81h3.76l-.59-12.6c-.14-2.9-4-1.27-6-.46l-2.08,17.09a.78.78,0,0,1-.91.77h-3c-.68,0-.91-.5-.86-1Z" transform="translate(0 -13.18)"/><path class="cls-1" d="M159.27,62.53a.9.9,0,0,1,1-1h2.62a1,1,0,0,1,1.09,1l.95,17.72c5.76-1.09,7.57-4.94,7.53-9.56l0-4.31-4-.5a1,1,0,0,1-.86-1.22l.41-2.58c.09-.64.5-.91,1.22-.82l5,.64a3.19,3.19,0,0,1,3.08,3.35v5.21c0,8.11-4.67,14.23-14.37,14.91-1.13.09-2.49-.13-2.58-2.22Z" transform="translate(0 -13.18)"/><path class="cls-1" d="M187.37,61.53h15.36a2.62,2.62,0,0,1,2.67,2.68,4.07,4.07,0,0,1-.22,1.13l-5.8,19c-.18.54-.59.72-1.23.5l-3.12-1a1,1,0,0,1-.5-1.27l5.3-16.27H187.37a.79.79,0,0,1-.86-.82V62.35a.86.86,0,0,1,.9-.82Zm.77,9.52,2.9.18a.91.91,0,0,1,.9,1.09s-.49,4.35-.49,5.17V89.18a.86.86,0,0,1-.82.9h-3.17a.86.86,0,0,1-.82-.9V77.4c0-1,.5-5.53.5-5.53A.85.85,0,0,1,188.14,71.05Z" transform="translate(0 -13.18)"/><path class="cls-1" d="M216,66.34a.83.83,0,0,1-.86-.82V62.35a.87.87,0,0,1,.91-.82h6A6.88,6.88,0,0,1,229,68.47V80.3h1.85a.86.86,0,0,1,.91.81v3.17a.82.82,0,0,1-.86.82H214.64a.83.83,0,0,1-.86-.82V81.11a.86.86,0,0,1,.91-.81h9.47V68.42a2.1,2.1,0,0,0-2.08-2.08Z" transform="translate(0 -13.18)"/><path class="cls-1" d="M708.59,553.58a1,1,0,0,1-.68-1.23l.68-2.62a1,1,0,0,1,1.22-.68l6.48,1.63a2.25,2.25,0,0,1,1.9,2.44v24.43a.86.86,0,0,1-.81.91h-3.17a.87.87,0,0,1-.82-.91v-22.7Z" transform="translate(0 -13.18)"/><path class="cls-1" d="M726.71,553.58a1,1,0,0,1-.68-1.23l.68-2.62a1,1,0,0,1,1.22-.68l6.48,1.63a2.25,2.25,0,0,1,1.91,2.44v19.31a.87.87,0,0,1-.82.91h-3.17a.87.87,0,0,1-.82-.91V554.85Z" transform="translate(0 -13.18)"/><path class="cls-1" d="M746.1,573.34a.8.8,0,0,1-.86-.82v-3.17a.87.87,0,0,1,.91-.82h9.11a2.17,2.17,0,0,0,2.17-2.17v-9.7a2.16,2.16,0,0,0-2.17-2.08h-8.43a.8.8,0,0,1-.86-.82v-3.17a.86.86,0,0,1,.9-.82h8.39a6.88,6.88,0,0,1,6.93,6.94v9.65a6.91,6.91,0,0,1-6.93,7Z" transform="translate(0 -13.18)"/><path class="cls-1" d="M777.69,564.68,775.87,563a1,1,0,0,1,0-1.5c2.13-2.17,2.54-3.62,2.54-6.88H772a.8.8,0,0,1-.86-.82v-3.17a.87.87,0,0,1,.91-.82h8.15a3,3,0,0,1,3,2.9v2.59a11.92,11.92,0,0,1-4,9.38A1.11,1.11,0,0,1,777.69,564.68Z" transform="translate(0 -13.18)"/><path class="cls-1" d="M805,556.66a2.1,2.1,0,0,0-2.08-2.08h-3a9.47,9.47,0,0,0-2.72,7,13.35,13.35,0,0,0,2.9,8v2a1.71,1.71,0,0,1-1.68,1.68h-5.75a.83.83,0,0,1-.86-.82v-2.81a.85.85,0,0,1,.9-.81h2a12.37,12.37,0,0,1-2.26-7.16,11.16,11.16,0,0,1,2.31-7.16h-1.86a.83.83,0,0,1-.86-.82v-3.17a.87.87,0,0,1,.91-.82h10a6.89,6.89,0,0,1,6.88,6.94v15.72a.86.86,0,0,1-.81.91h-3.17a.87.87,0,0,1-.82-.91Z" transform="translate(0 -13.18)"/><path class="cls-1" d="M832.15,556.66a2.12,2.12,0,0,0-2.13-2.08h-9.79a.8.8,0,0,1-.86-.82v-3.17a.87.87,0,0,1,.91-.82H830a6.92,6.92,0,0,1,7,6.94v15.72a.87.87,0,0,1-.82.91H833a.87.87,0,0,1-.82-.91ZM821,559.29l2.9.18a.91.91,0,0,1,.91,1.09s-.5,4.35-.5,5.16v6.71a.86.86,0,0,1-.81.91h-3.18a.86.86,0,0,1-.81-.91v-6.8c0-1,.5-5.53.5-5.53A.83.83,0,0,1,821,559.29Z" transform="translate(0 -13.18)"/><path class="cls-1" d="M628.16,601.93a1,1,0,0,1-.68-1.22l.68-2.63a1,1,0,0,1,1.22-.68l6.48,1.63a2.25,2.25,0,0,1,1.9,2.45v19.3a.86.86,0,0,1-.81.91h-3.17a.87.87,0,0,1-.82-.91V603.2Z" transform="translate(0 -13.18)"/><path class="cls-1" d="M648.91,602.93a.83.83,0,0,1-.86-.82v-3.17a.87.87,0,0,1,.9-.82h6a6.88,6.88,0,0,1,6.89,6.94v11.83h1.86a.86.86,0,0,1,.91.81v3.17a.83.83,0,0,1-.87.82H647.55a.82.82,0,0,1-.86-.82V617.7a.86.86,0,0,1,.91-.81h9.47V605a2.11,2.11,0,0,0-2.09-2.08Z" transform="translate(0 -13.18)"/><path class="cls-1" d="M696.71,613l-1.81-1.72a1,1,0,0,1,0-1.49c2.13-2.18,2.54-3.63,2.54-6.89h-6.39a.8.8,0,0,1-.86-.82v-3.17a.87.87,0,0,1,.9-.82h8.16a3,3,0,0,1,3,2.9v2.59a11.92,11.92,0,0,1-4,9.38A1.12,1.12,0,0,1,696.71,613Z" transform="translate(0 -13.18)"/><path class="cls-1" d="M724,605a2.11,2.11,0,0,0-2.09-2.08h-3a9.47,9.47,0,0,0-2.72,7,13.29,13.29,0,0,0,2.9,8v2a1.71,1.71,0,0,1-1.68,1.68h-5.75a.83.83,0,0,1-.87-.82v-2.81a.86.86,0,0,1,.91-.81h2a12.39,12.39,0,0,1-2.27-7.16,11.18,11.18,0,0,1,2.32-7.16h-1.86a.83.83,0,0,1-.86-.82v-3.17a.86.86,0,0,1,.9-.82h10a6.9,6.9,0,0,1,6.89,6.94v15.72a.86.86,0,0,1-.81.91h-3.18a.86.86,0,0,1-.81-.91Z" transform="translate(0 -13.18)"/><path class="cls-1" d="M751.86,620.78a.87.87,0,0,1-.82.91h-3.17a.86.86,0,0,1-.81-.91V602.93h-8.48a.8.8,0,0,1-.86-.82v-3.17a.87.87,0,0,1,.91-.82H754.8a.87.87,0,0,1,.91.82v3.17a.8.8,0,0,1-.86.82h-3Z" transform="translate(0 -13.18)"/><path class="cls-1" d="M767,602.66l-2.13-1.91a.93.93,0,0,1,0-1.31l1.81-2a.92.92,0,0,1,1.36-.09l2.63,2.35c2.68-1.35,11.19-4.16,11.6,4l.73,14.77a2.85,2.85,0,0,1-2.86,3.22h-5.71a.82.82,0,0,1-.86-.82V617.7a.86.86,0,0,1,.91-.81h3.76l-.59-12.6c-.14-2.9-4-1.27-6-.46l-2.08,17.09a.78.78,0,0,1-.91.77h-3c-.68,0-.91-.5-.86-1Z" transform="translate(0 -13.18)"/><path class="cls-1" d="M797.35,621.19a1,1,0,0,1-.5-1.27l6.93-17h-10.6a1.41,1.41,0,0,1-1.36-1.41V591a.86.86,0,0,1,.82-.9h3.17a.85.85,0,0,1,.81.9v7.16h10.16a2.63,2.63,0,0,1,2.67,2.68,3,3,0,0,1-.27,1.13l-7.62,20a.85.85,0,0,1-1.22.49Z" transform="translate(0 -13.18)"/><path class="cls-1" d="M818.6,599.08a.88.88,0,0,1,.95-1H822a.87.87,0,0,1,.95.91l.28,9c1.85-.54,2.71-1.58,2.62-5.25l-.09-3.63a.88.88,0,0,1,1-1h2.17a.85.85,0,0,1,.95,1l-.09,5c0,2.9-1.13,6.25-6.52,7.39l.22,5.62c6.94-1.05,9.16-5.44,9.16-14.64v-3.35c0-.64.27-1,1-1h2.67a.86.86,0,0,1,1,1l0,3.35c-.27,10.74-2.72,18.13-15.5,19.58a2.14,2.14,0,0,1-2.36-2Z" transform="translate(0 -13.18)"/><path class="cls-1" d="M45.83,317.84a1.34,1.34,0,1,1-1.33,1.35A1.37,1.37,0,0,1,45.83,317.84Z" transform="translate(0 -13.18)"/><path class="cls-1" d="M51.29,312.79a.33.33,0,0,1-.35-.33v-1.27a.34.34,0,0,1,.36-.33h2.43a2.76,2.76,0,0,1,2.77,2.79v4.76h.75a.34.34,0,0,1,.36.33V320a.33.33,0,0,1-.34.33H50.74a.34.34,0,0,1-.35-.33v-1.27a.35.35,0,0,1,.37-.33h3.81v-4.78a.85.85,0,0,0-.84-.84Z" transform="translate(0 -13.18)"/><path class="cls-1" d="M61,310a.37.37,0,0,1,.38-.4h1.15a.4.4,0,0,1,.38.4v4.63a.39.39,0,0,1-.38.38H61.41a.37.37,0,0,1-.38-.38Zm3.1,0a.37.37,0,0,1,.38-.4h1.15a.4.4,0,0,1,.38.4v4.63a.39.39,0,0,1-.38.38H64.51a.37.37,0,0,1-.38-.38Z" transform="translate(0 -13.18)"/><path class="cls-1" d="M72,316.86l-.73-.7a.39.39,0,0,1,0-.6,3.21,3.21,0,0,0,1-2.77H69.71a.32.32,0,0,1-.35-.33v-1.27a.35.35,0,0,1,.37-.33H73a1.19,1.19,0,0,1,1.2,1.17v1a4.81,4.81,0,0,1-1.62,3.78A.46.46,0,0,1,72,316.86Z" transform="translate(0 -13.18)"/><path class="cls-1" d="M88.64,313.63a.85.85,0,0,0-.86-.84H83.84a.31.31,0,0,1-.34-.33v-1.27a.34.34,0,0,1,.36-.33h3.9a2.78,2.78,0,0,1,2.81,2.79V320a.34.34,0,0,1-.33.36H89a.35.35,0,0,1-.33-.36Zm-4.49,1.06,1.17.07a.37.37,0,0,1,.37.44s-.2,1.75-.2,2.08V320a.35.35,0,0,1-.33.36H83.88a.35.35,0,0,1-.33-.36v-2.74c0-.38.2-2.22.2-2.22A.34.34,0,0,1,84.15,314.69Z" transform="translate(0 -13.18)"/><path class="cls-1" d="M99,313.63a.85.85,0,0,0-.84-.84H97a3.8,3.8,0,0,0-1.1,2.83,5.33,5.33,0,0,0,1.17,3.22v.83a.69.69,0,0,1-.68.67H94.06a.34.34,0,0,1-.35-.33v-1.13a.36.36,0,0,1,.37-.33h.82a4.94,4.94,0,0,1-.91-2.88,4.46,4.46,0,0,1,.93-2.88h-.75a.33.33,0,0,1-.35-.33v-1.27a.35.35,0,0,1,.37-.33h4a2.77,2.77,0,0,1,2.77,2.79V320a.35.35,0,0,1-.33.36H99.36A.34.34,0,0,1,99,320Z" transform="translate(0 -13.18)"/><path class="cls-1" d="M106.68,316.86l-.73-.7a.39.39,0,0,1,0-.6,3.21,3.21,0,0,0,1-2.77H104.4a.33.33,0,0,1-.35-.33v-1.27a.35.35,0,0,1,.37-.33h3.28a1.19,1.19,0,0,1,1.2,1.17v1a4.77,4.77,0,0,1-1.62,3.78A.46.46,0,0,1,106.68,316.86Z" transform="translate(0 -13.18)"/><path class="cls-1" d="M112.15,320.34a.32.32,0,0,1-.34-.33v-1.27a.34.34,0,0,1,.36-.33h3.67a.88.88,0,0,0,.87-.88v-3.9a.86.86,0,0,0-.87-.84h-3.4a.31.31,0,0,1-.34-.33v-1.27a.34.34,0,0,1,.36-.33h3.38a2.77,2.77,0,0,1,2.79,2.79v3.88a2.78,2.78,0,0,1-2.79,2.81Z" transform="translate(0 -13.18)"/><path class="cls-1" d="M133.53,320a.35.35,0,0,1-.33.36h-1.28a.34.34,0,0,1-.32-.36v-7.19h-3.42a.31.31,0,0,1-.34-.33v-1.27a.34.34,0,0,1,.36-.33h6.51a.35.35,0,0,1,.37.33v1.27a.32.32,0,0,1-.35.33h-1.2Z" transform="translate(0 -13.18)"/><path class="cls-1" d="M137.72,320.34a.35.35,0,0,1,.17-.49l2.44-1.3L138,311.41a.41.41,0,0,1,.4-.55h1a.52.52,0,0,1,.58.38l1.86,6.24,1.13-6.18c.05-.31.24-.44.57-.44h.94a.46.46,0,0,1,.48.55l-1.06,5.21a4.23,4.23,0,0,1-2.63,3.52l-2.46,1.35a.37.37,0,0,1-.49-.13Z" transform="translate(0 -13.18)"/><path class="cls-1" d="M159.83,310.86a1.47,1.47,0,0,1,1.49,1.49v6.75a1.23,1.23,0,0,1-1.24,1.24h-4.7a.68.68,0,0,1-.66-.66v-7l-.85-.44a.37.37,0,0,1-.17-.49l.48-1.08a.36.36,0,0,1,.49-.14l.6.31Zm-.44,1.93h-2.75v5.62h2.75Z" transform="translate(0 -13.18)"/><path class="cls-1" d="M164.83,311.24a.35.35,0,0,1,.38-.38h1a.34.34,0,0,1,.38.36l.11,3.61c.75-.22,1.09-.63,1.06-2.11l0-1.46a.35.35,0,0,1,.38-.4H169a.33.33,0,0,1,.38.38l0,2c0,1.16-.46,2.51-2.63,3l.09,2.26c2.79-.42,3.68-2.19,3.68-5.89v-1.35c0-.25.11-.38.39-.38h1.07a.35.35,0,0,1,.39.38l0,1.35c-.11,4.32-1.1,7.29-6.24,7.88a.87.87,0,0,1-.95-.8Z" transform="translate(0 -13.18)"/><path class="cls-1" d="M181.57,312.39a.39.39,0,0,1-.27-.49l.27-1.06a.39.39,0,0,1,.5-.27l2.6.65a.91.91,0,0,1,.77,1V320a.35.35,0,0,1-.33.36h-1.28a.34.34,0,0,1-.32-.36V312.9Z" transform="translate(0 -13.18)"/><path class="cls-1" d="M188.8,318.41h3v-5.62h-1.55a.33.33,0,0,1-.35-.33v-1.27a.35.35,0,0,1,.37-.33h2a1.49,1.49,0,0,1,1.49,1.49v6.75a1.23,1.23,0,0,1-1.24,1.24H188.8a.33.33,0,0,1-.35-.33v-1.27a.34.34,0,0,1,.36-.33Z" transform="translate(0 -13.18)"/><path class="cls-1" d="M201.85,313.63a.85.85,0,0,0-.85-.84h-3.85a.33.33,0,0,1-.35-.33v-1.27a.35.35,0,0,1,.37-.33H201a2.78,2.78,0,0,1,2.81,2.79V320a.35.35,0,0,1-.33.36h-1.28a.35.35,0,0,1-.33-.36Z" transform="translate(0 -13.18)"/><path class="cls-1" d="M210.43,315.27l-.7-2.48h-1.07a.33.33,0,0,1-.35-.33v-1.27a.35.35,0,0,1,.37-.33h1.58a1,1,0,0,1,1.1.75l2.44,8.31a.31.31,0,0,1-.33.42h-1.26a.37.37,0,0,1-.41-.31l-.79-2.74-3,3.23a.34.34,0,0,1-.51,0l-.91-.84a.37.37,0,0,1,0-.47Z" transform="translate(0 -13.18)"/><path class="cls-1" d="M54.15,339.14a.34.34,0,0,1-.35-.33v-1.28a.35.35,0,0,1,.37-.32h2.42A2.76,2.76,0,0,1,59.37,340v4.76h.74a.36.36,0,0,1,.37.33v1.28a.34.34,0,0,1-.35.33H53.6a.33.33,0,0,1-.34-.33v-1.28a.35.35,0,0,1,.36-.33h3.81V340a.85.85,0,0,0-.84-.84Z" transform="translate(0 -13.18)"/><path class="cls-1" d="M63.53,338.74a.41.41,0,0,1-.28-.5l.28-1.05a.39.39,0,0,1,.49-.28l2.61.66a.91.91,0,0,1,.76,1v7.77a.35.35,0,0,1-.33.37H65.79a.35.35,0,0,1-.33-.37v-7.07Z" transform="translate(0 -13.18)"/><path class="cls-1" d="M72.85,346.32a.36.36,0,0,1-.33.37H71.26a.36.36,0,0,1-.33-.37l0-8.44a.7.7,0,0,1,.67-.67h4.49a2,2,0,0,1,2,2v7.16a.36.36,0,0,1-.33.37H76.47a.35.35,0,0,1-.32-.37v-7.18h-3.3Z" transform="translate(0 -13.18)"/><path class="cls-1" d="M86.34,340a.85.85,0,0,0-.85-.84H81.64a.33.33,0,0,1-.35-.33v-1.28a.35.35,0,0,1,.37-.32h3.81A2.77,2.77,0,0,1,88.28,340v6.33a.36.36,0,0,1-.33.37H86.67a.36.36,0,0,1-.33-.37Z" transform="translate(0 -13.18)"/><path class="cls-1" d="M93.6,346.49a.39.39,0,0,1-.2-.51l2.79-6.84H91.93a.57.57,0,0,1-.55-.57v-4.25a.34.34,0,0,1,.33-.36H93a.34.34,0,0,1,.33.36v2.89H97.4a1,1,0,0,1,1.07,1.07,1.27,1.27,0,0,1-.11.46l-3.06,8a.34.34,0,0,1-.49.2Z" transform="translate(0 -13.18)"/><path class="cls-1" d="M107.56,338.74a.41.41,0,0,1-.28-.5l.28-1.05a.39.39,0,0,1,.49-.28l2.61.66a.91.91,0,0,1,.76,1v7.77a.35.35,0,0,1-.33.37h-1.27a.36.36,0,0,1-.33-.37v-7.07Z" transform="translate(0 -13.18)"/><path class="cls-1" d="M114.78,344.75h3v-5.61h-1.55a.32.32,0,0,1-.34-.33v-1.28a.34.34,0,0,1,.36-.32h2a1.5,1.5,0,0,1,1.5,1.49v6.75a1.23,1.23,0,0,1-1.24,1.24h-3.76a.33.33,0,0,1-.35-.33v-1.28a.36.36,0,0,1,.37-.33Z" transform="translate(0 -13.18)"/><path class="cls-1" d="M127.84,340a.86.86,0,0,0-.86-.84h-3.85a.32.32,0,0,1-.34-.33v-1.28a.34.34,0,0,1,.36-.32H127a2.77,2.77,0,0,1,2.81,2.78v6.33a.36.36,0,0,1-.33.37h-1.27a.35.35,0,0,1-.33-.37Z" transform="translate(0 -13.18)"/><path class="cls-1" d="M133.77,339.14a.34.34,0,0,1-.35-.33v-1.28a.34.34,0,0,1,.37-.32h2.42A2.75,2.75,0,0,1,139,340v4.76h.75a.35.35,0,0,1,.36.33v1.28a.33.33,0,0,1-.34.33h-6.53a.34.34,0,0,1-.35-.33v-1.28a.36.36,0,0,1,.37-.33h3.81V340a.85.85,0,0,0-.84-.84Z" transform="translate(0 -13.18)"/><path class="cls-1" d="M142.76,346.69a.36.36,0,0,1,.16-.5l2.45-1.29L143,337.75a.4.4,0,0,1,.4-.54h1c.33,0,.49.1.58.38l1.86,6.23,1.13-6.18c.06-.31.24-.43.57-.43h1a.44.44,0,0,1,.47.54L148.9,343a4.22,4.22,0,0,1-2.62,3.52l-2.46,1.35a.39.39,0,0,1-.5-.13Z" transform="translate(0 -13.18)"/><path class="cls-1" d="M163.66,340a.85.85,0,0,0-.86-.84h-3.64a.33.33,0,0,1-.35-.33v-1.28a.34.34,0,0,1,.36-.32h3.61a2.77,2.77,0,0,1,2.81,2.78v8.34a.34.34,0,0,1-.33.36H164a.35.35,0,0,1-.33-.36Z" transform="translate(0 -13.18)"/><path class="cls-1" d="M169.23,346.69a.32.32,0,0,1-.35-.33v-1.28a.35.35,0,0,1,.36-.33h3.67a.87.87,0,0,0,.87-.87V340a.86.86,0,0,0-.87-.84h-3.39a.33.33,0,0,1-.35-.33v-1.28a.35.35,0,0,1,.37-.32h3.37A2.76,2.76,0,0,1,175.7,340v3.89a2.78,2.78,0,0,1-2.79,2.81Z" transform="translate(0 -13.18)"/><path class="cls-1" d="M189.87,340a.85.85,0,0,0-.86-.84h-3.84a.33.33,0,0,1-.35-.33v-1.28a.34.34,0,0,1,.36-.32H189a2.77,2.77,0,0,1,2.8,2.78v6.33a.35.35,0,0,1-.32.37H190.2a.36.36,0,0,1-.33-.37Z" transform="translate(0 -13.18)"/><path class="cls-1" d="M197.31,346.32a.35.35,0,0,1-.32.37h-1.26a.36.36,0,0,1-.33-.37l0-8.44a.7.7,0,0,1,.67-.67h4.49a2,2,0,0,1,1.95,2v7.16a.36.36,0,0,1-.33.37h-1.26a.36.36,0,0,1-.33-.37v-7.18h-3.3Z" transform="translate(0 -13.18)"/><path class="cls-1" d="M208.42,341.87a3,3,0,0,0-.45,1.92v2.53a.36.36,0,0,1-.33.37h-1.26a.36.36,0,0,1-.33-.37v-2.53a4.34,4.34,0,0,1,1.35-3.47L206,338.21a.4.4,0,0,1,0-.48l1-.73a.37.37,0,0,1,.51.06l2.55,3.76,1.5-3.31a.43.43,0,0,1,.45-.3h1.1c.36,0,.56.27.42.56l-2.28,4.81,2,3a.37.37,0,0,1-.05.47l-1,.73a.35.35,0,0,1-.51-.05Z" transform="translate(0 -13.18)"/><path class="cls-1" d="M162.66,370.54a1.34,1.34,0,1,1-1.33,1.34A1.36,1.36,0,0,1,162.66,370.54Z" transform="translate(0 -13.18)"/><path class="cls-1" d="M169.44,372.83a.38.38,0,0,1-.2-.51l2.79-6.84h-4.27a.56.56,0,0,1-.54-.56v-4.25a.34.34,0,0,1,.33-.36h1.27a.34.34,0,0,1,.33.36v2.88h4.09a1.05,1.05,0,0,1,1.07,1.08,1.18,1.18,0,0,1-.11.45l-3.06,8a.34.34,0,0,1-.49.21Z" transform="translate(0 -13.18)"/><path class="cls-1" d="M179.77,369.55l-.73-.69a.38.38,0,0,1,0-.6,3.25,3.25,0,0,0,1-2.78h-2.57a.32.32,0,0,1-.35-.32v-1.28a.35.35,0,0,1,.37-.33h3.28a1.19,1.19,0,0,1,1.2,1.17v1a4.8,4.8,0,0,1-1.62,3.77A.45.45,0,0,1,179.77,369.55Z" transform="translate(0 -13.18)"/><path class="cls-1" d="M185.79,365.48a.33.33,0,0,1-.35-.32v-1.28a.35.35,0,0,1,.36-.33h2.43a2.76,2.76,0,0,1,2.77,2.79v4.76h.75a.35.35,0,0,1,.36.33v1.28a.32.32,0,0,1-.34.32h-6.53a.33.33,0,0,1-.35-.32v-1.28a.36.36,0,0,1,.37-.33h3.81v-4.78a.85.85,0,0,0-.84-.84Z" transform="translate(0 -13.18)"/><path class="cls-1" d="M195.67,363.55h6.18a1.06,1.06,0,0,1,1.08,1.08,1.63,1.63,0,0,1-.09.45l-2.33,7.64c-.08.22-.24.3-.5.2l-1.26-.38a.4.4,0,0,1-.2-.51l2.14-6.55h-5a.31.31,0,0,1-.34-.32v-1.28a.35.35,0,0,1,.36-.33Zm.31,3.83,1.17.07a.37.37,0,0,1,.36.44s-.2,1.75-.2,2.08v4.7a.34.34,0,0,1-.32.37h-1.28a.35.35,0,0,1-.33-.37v-4.74c0-.38.2-2.22.2-2.22A.34.34,0,0,1,196,367.38Z" transform="translate(0 -13.18)"/><path class="cls-1" d="M206.74,365.38l-.85-.77a.37.37,0,0,1,0-.53l.73-.82a.36.36,0,0,1,.54,0l1.06.95c1.08-.55,4.5-1.68,4.67,1.62l.29,5.95A1.14,1.14,0,0,1,212,373h-2.3a.32.32,0,0,1-.34-.32v-1.28a.35.35,0,0,1,.36-.33h1.52L211,366c-.06-1.17-1.62-.51-2.43-.18l-.84,6.87a.31.31,0,0,1-.36.31h-1.2c-.28,0-.37-.2-.35-.42Z" transform="translate(0 -13.18)"/><path class="cls-1" d="M738.19,650.35a.85.85,0,0,0-.86-.84h-3.84a.33.33,0,0,1-.35-.33V647.9a.34.34,0,0,1,.37-.32h3.81a2.77,2.77,0,0,1,2.8,2.78v6.33a.35.35,0,0,1-.32.37h-1.28a.36.36,0,0,1-.33-.37Z" transform="translate(0 -13.18)"/><path class="cls-1" d="M743.41,649a.36.36,0,0,1-.16-.49l.47-1.08a.35.35,0,0,1,.49-.14l.6.31H749a1.47,1.47,0,0,1,1.48,1.49v6.75a1.21,1.21,0,0,1-1.26,1.24h-5.43a.32.32,0,0,1-.35-.33v-1.28a.35.35,0,0,1,.36-.33h4.74v-5.61h-2.42a2.91,2.91,0,0,0-.33,1.66v.31h.93a.35.35,0,0,1,.37.33V653a.33.33,0,0,1-.35.33h-2a.74.74,0,0,1-.84-.84v-.94a4.64,4.64,0,0,1,.39-2.08Z" transform="translate(0 -13.18)"/><path class="cls-1" d="M755.36,656.27l-.33-6.85-.86-.44a.36.36,0,0,1-.16-.49l.47-1.08a.35.35,0,0,1,.49-.14l.6.31h4.86a1.49,1.49,0,0,1,1.51,1.49v2.1c0,2.09-.77,5.56-5.55,6C755.94,657.2,755.39,657.11,755.36,656.27Zm4.65-6.76h-3.07l.26,5.6c2-.28,2.81-1.7,2.81-3.56Z" transform="translate(0 -13.18)"/><path class="cls-1" d="M776.46,650.35a.85.85,0,0,0-.84-.84H774.4a3.8,3.8,0,0,0-1.1,2.82,5.36,5.36,0,0,0,1.17,3.23v.82a.69.69,0,0,1-.67.68h-2.32a.34.34,0,0,1-.35-.33V655.6a.36.36,0,0,1,.37-.33h.82a4.94,4.94,0,0,1-.91-2.88,4.46,4.46,0,0,1,.93-2.88h-.75a.34.34,0,0,1-.35-.33V647.9a.35.35,0,0,1,.37-.32h4a2.77,2.77,0,0,1,2.77,2.78v6.33a.36.36,0,0,1-.33.37h-1.27a.35.35,0,0,1-.33-.37Z" transform="translate(0 -13.18)"/><path class="cls-1" d="M784.1,653.57l-.73-.69a.39.39,0,0,1,0-.6,3.22,3.22,0,0,0,1-2.77h-2.57a.32.32,0,0,1-.34-.33V647.9a.34.34,0,0,1,.36-.32h3.28a1.19,1.19,0,0,1,1.21,1.16v1a4.8,4.8,0,0,1-1.63,3.78A.44.44,0,0,1,784.1,653.57Z" transform="translate(0 -13.18)"/><path class="cls-1" d="M790.12,649.51a.34.34,0,0,1-.35-.33V647.9a.35.35,0,0,1,.37-.32h2.42a2.76,2.76,0,0,1,2.78,2.78v4.76h.74a.36.36,0,0,1,.37.33v1.28a.34.34,0,0,1-.35.33h-6.53a.33.33,0,0,1-.34-.33v-1.28a.35.35,0,0,1,.36-.33h3.81v-4.77a.85.85,0,0,0-.84-.84Z" transform="translate(0 -13.18)"/><path class="cls-1" d="M807.36,654.56a1.34,1.34,0,1,1-1.33,1.35A1.37,1.37,0,0,1,807.36,654.56Z" transform="translate(0 -13.18)"/><path class="cls-1" d="M816.77,650.35a.85.85,0,0,0-.86-.84h-3.65a.32.32,0,0,1-.34-.33V647.9a.34.34,0,0,1,.36-.32h3.61a2.77,2.77,0,0,1,2.81,2.78v8.34a.35.35,0,0,1-.33.36H817.1a.34.34,0,0,1-.33-.36Z" transform="translate(0 -13.18)"/><path class="cls-1" d="M824.21,656.86a.39.39,0,0,1-.2-.51l2.79-6.84h-4.27a.56.56,0,0,1-.54-.57v-4.25a.34.34,0,0,1,.32-.36h1.28a.35.35,0,0,1,.33.36v2.89H828a1.05,1.05,0,0,1,1.08,1.07,1.27,1.27,0,0,1-.11.46l-3.06,8a.36.36,0,0,1-.5.2Z" transform="translate(0 -13.18)"/><path class="cls-1" d="M832.13,649a.37.37,0,0,1-.17-.49l.48-1.08a.35.35,0,0,1,.49-.14l.6.31h4.16a1.47,1.47,0,0,1,1.48,1.49v6.75a1.21,1.21,0,0,1-1.26,1.24h-5.44a.32.32,0,0,1-.34-.33v-1.28a.35.35,0,0,1,.36-.33h4.74v-5.61h-2.42a2.91,2.91,0,0,0-.33,1.66v.31h.93a.34.34,0,0,1,.36.33V653a.31.31,0,0,1-.34.33h-2a.74.74,0,0,1-.84-.84v-.94a4.77,4.77,0,0,1,.38-2.08Z" transform="translate(0 -13.18)"/><path class="cls-1" d="M719.92,676.69a.86.86,0,0,0-.84-.84h-1.23a3.84,3.84,0,0,0-1.09,2.83,5.38,5.38,0,0,0,1.17,3.23v.82a.69.69,0,0,1-.68.67h-2.31a.33.33,0,0,1-.35-.32v-1.14a.35.35,0,0,1,.37-.32h.82a5,5,0,0,1-.92-2.88,4.55,4.55,0,0,1,.93-2.89h-.74a.33.33,0,0,1-.35-.32v-1.28a.35.35,0,0,1,.36-.33h4a2.77,2.77,0,0,1,2.77,2.79V683a.35.35,0,0,1-.33.36h-1.28a.34.34,0,0,1-.32-.36Z" transform="translate(0 -13.18)"/><path class="cls-1" d="M725,675.45a.39.39,0,0,1-.28-.49l.28-1.06a.4.4,0,0,1,.49-.27l2.61.66a.89.89,0,0,1,.76,1V683a.34.34,0,0,1-.33.36h-1.27a.35.35,0,0,1-.33-.36V676Z" transform="translate(0 -13.18)"/><path class="cls-1" d="M732.21,681.47h3v-5.62h-1.55a.32.32,0,0,1-.35-.32v-1.28a.35.35,0,0,1,.36-.33h2a1.51,1.51,0,0,1,1.5,1.5v6.74A1.23,1.23,0,0,1,736,683.4h-3.76a.32.32,0,0,1-.35-.32V681.8a.36.36,0,0,1,.37-.33Z" transform="translate(0 -13.18)"/><path class="cls-1" d="M741.29,675.85a.32.32,0,0,1-.34-.32v-1.28a.35.35,0,0,1,.36-.33h2.43a2.76,2.76,0,0,1,2.77,2.79v4.76h.75a.35.35,0,0,1,.36.33v1.28a.33.33,0,0,1-.35.32h-6.52a.33.33,0,0,1-.35-.32V681.8a.35.35,0,0,1,.36-.33h3.82v-4.78a.86.86,0,0,0-.84-.84Z" transform="translate(0 -13.18)"/><path class="cls-1" d="M752.88,683.2a.37.37,0,0,1-.2-.51l2.78-6.84H751.2a.56.56,0,0,1-.55-.56V671a.35.35,0,0,1,.33-.36h1.28a.34.34,0,0,1,.32.36v2.88h4.09a1.05,1.05,0,0,1,1.07,1.08,1,1,0,0,1-.11.45l-3.06,8a.34.34,0,0,1-.49.21Z" transform="translate(0 -13.18)"/><path class="cls-1" d="M769.4,679.92l-.73-.69a.39.39,0,0,1,0-.6,3.23,3.23,0,0,0,1-2.78h-2.57a.32.32,0,0,1-.35-.32v-1.28a.36.36,0,0,1,.37-.33h3.28a1.19,1.19,0,0,1,1.2,1.17v1A4.77,4.77,0,0,1,770,679.9.45.45,0,0,1,769.4,679.92Z" transform="translate(0 -13.18)"/><path class="cls-1" d="M774.85,674.32a.37.37,0,0,1,.39-.4h1.06a.4.4,0,0,1,.43.4l.39,7.13a3.45,3.45,0,0,0,3-3.85l0-1.73-1.6-.2a.4.4,0,0,1-.35-.49l.17-1c0-.25.2-.36.49-.33l2,.26a1.29,1.29,0,0,1,1.24,1.35v2.09c0,3.27-1.88,5.73-5.78,6-.46,0-1,0-1-.89Z" transform="translate(0 -13.18)"/><path class="cls-1" d="M786.69,682.62l-.33-6.86-.85-.43a.38.38,0,0,1-.17-.5l.48-1.07a.36.36,0,0,1,.49-.15l.6.31h4.85a1.49,1.49,0,0,1,1.51,1.5v2.09c0,2.1-.76,5.57-5.54,6A.84.84,0,0,1,786.69,682.62Zm4.65-6.77h-3.06l.25,5.6c2-.27,2.81-1.69,2.81-3.55Z" transform="translate(0 -13.18)"/><path class="cls-1" d="M798.86,679.92l-.73-.69a.39.39,0,0,1,0-.6,3.25,3.25,0,0,0,1-2.78h-2.57a.32.32,0,0,1-.35-.32v-1.28a.36.36,0,0,1,.37-.33h3.28a1.19,1.19,0,0,1,1.2,1.17v1a4.8,4.8,0,0,1-1.62,3.77A.45.45,0,0,1,798.86,679.92Z" transform="translate(0 -13.18)"/><path class="cls-1" d="M804.31,674.32a.36.36,0,0,1,.38-.4h1.06a.41.41,0,0,1,.44.4l.38,7.13a3.45,3.45,0,0,0,3-3.85l0-1.73-1.6-.2a.4.4,0,0,1-.35-.49l.16-1c0-.25.21-.36.5-.33l2,.26a1.28,1.28,0,0,1,1.24,1.35v2.09c0,3.27-1.88,5.73-5.78,6a.84.84,0,0,1-1-.89Z" transform="translate(0 -13.18)"/><path class="cls-1" d="M817.13,679.92l-.73-.69a.39.39,0,0,1,0-.6,3.23,3.23,0,0,0,1-2.78h-2.58a.31.31,0,0,1-.34-.32v-1.28a.35.35,0,0,1,.36-.33h3.28a1.2,1.2,0,0,1,1.21,1.17v1a4.8,4.8,0,0,1-1.62,3.77A.46.46,0,0,1,817.13,679.92Z" transform="translate(0 -13.18)"/><path class="cls-1" d="M824.48,683.2a.38.38,0,0,1-.2-.51l2.79-6.84h-4.26a.56.56,0,0,1-.55-.56V671a.35.35,0,0,1,.33-.36h1.27a.34.34,0,0,1,.33.36v2.88h4.09a1.05,1.05,0,0,1,1.07,1.08,1,1,0,0,1-.11.45l-3.06,8a.34.34,0,0,1-.49.21Z" transform="translate(0 -13.18)"/><path class="cls-1" d="M834.7,678.59a3,3,0,0,0-.46,1.91V683a.34.34,0,0,1-.33.36h-1.25a.34.34,0,0,1-.33-.36V680.5a4.29,4.29,0,0,1,1.35-3.46l-1.44-2.12a.37.37,0,0,1,0-.47l1-.73a.36.36,0,0,1,.51.06l2.55,3.75,1.5-3.3a.44.44,0,0,1,.45-.31h1.1c.36,0,.56.28.41.57l-2.27,4.81,2,3a.38.38,0,0,1-.06.47l-1,.73a.35.35,0,0,1-.51,0Z" transform="translate(0 -13.18)"/></g></g></svg>