<svg id="_" data-name="+" xmlns="http://www.w3.org/2000/svg" viewBox="0 0 880.32 1055.63"><path d="M152.25,6.88a2.1,2.1,0,0,0-2.08-2.08h-3a9.47,9.47,0,0,0-2.72,7,13.4,13.4,0,0,0,2.9,8v2a1.69,1.69,0,0,1-1.67,1.68h-5.76a.82.82,0,0,1-.86-.81V19.94a.87.87,0,0,1,.91-.82h2A12.35,12.35,0,0,1,139.7,12,11.18,11.18,0,0,1,142,4.8h-1.86a.82.82,0,0,1-.86-.82V.81A.86.86,0,0,1,140.2,0h10a6.9,6.9,0,0,1,6.89,6.93V22.66a.87.87,0,0,1-.82.9h-3.17a.86.86,0,0,1-.82-.9Z" style="fill:#f59774"/><path d="M172.6,14.91l-1.82-1.73a1,1,0,0,1,0-1.49c2.13-2.18,2.54-3.63,2.54-6.89h-6.39a.79.79,0,0,1-.86-.82V.81A.86.86,0,0,1,167,0h8.15a3,3,0,0,1,3,2.9V5.48a11.9,11.9,0,0,1-4,9.38A1.12,1.12,0,0,1,172.6,14.91Z" style="fill:#f59774"/><path d="M188.91,4.8a.82.82,0,0,1-.86-.82V.81A.85.85,0,0,1,189,0h6a6.87,6.87,0,0,1,6.89,6.93V18.76h1.86a.85.85,0,0,1,.9.81v3.18a.82.82,0,0,1-.86.81H187.55a.82.82,0,0,1-.86-.81V19.57a.86.86,0,0,1,.9-.81h9.47V6.88A2.1,2.1,0,0,0,195,4.8Z" style="fill:#f59774"/><path d="M226.74,6.88a2.12,2.12,0,0,0-2.13-2.08h-9.78A.81.81,0,0,1,214,4V.81a.86.86,0,0,1,.91-.81h9.7a6.91,6.91,0,0,1,7,6.93V22.66a.86.86,0,0,1-.82.9h-3.17a.87.87,0,0,1-.82-.9ZM215.6,9.51l2.9.18a.91.91,0,0,1,.9,1.09s-.5,4.35-.5,5.17v6.71a.86.86,0,0,1-.81.9h-3.17a.86.86,0,0,1-.82-.9v-6.8c0-.95.5-5.53.5-5.53A.84.84,0,0,1,215.6,9.51Z" style="fill:#f59774"/><path d="M56.6,48.35a3.67,3.67,0,0,1,3.72,3.71V68.83a3.06,3.06,0,0,1-3.09,3.08H45.54a1.68,1.68,0,0,1-1.63-1.63V52.93l-2.13-1.09a.92.92,0,0,1-.41-1.23l1.18-2.67a.9.9,0,0,1,1.22-.36l1.5.77Zm-1.09,4.8H48.67v14h6.84Z" style="fill:#f59774"/><path d="M76.13,63.26l-1.82-1.72a1,1,0,0,1,0-1.5c2.14-2.18,2.54-3.63,2.54-6.89H70.46a.8.8,0,0,1-.86-.81V49.16a.86.86,0,0,1,.91-.81h8.16a3,3,0,0,1,3,2.9v2.58a11.91,11.91,0,0,1-4,9.38A1.09,1.09,0,0,1,76.13,63.26Z" style="fill:#f59774"/><path d="M91,67.11h7.57v-14H94.71a.8.8,0,0,1-.87-.81V49.16a.86.86,0,0,1,.91-.81h4.94a3.73,3.73,0,0,1,3.72,3.71V68.83a3.06,3.06,0,0,1-3.08,3.08H91a.79.79,0,0,1-.86-.81V67.93a.86.86,0,0,1,.9-.82Z" style="fill:#f59774"/><path d="M112.74,52.16a1,1,0,0,1-.68-1.23l.68-2.63a1,1,0,0,1,1.22-.68l6.48,1.63a2.26,2.26,0,0,1,1.91,2.45V71a.86.86,0,0,1-.82.9h-3.17a.86.86,0,0,1-.82-.9V53.42Z" style="fill:#f59774"/><path d="M133.72,52.88,131.59,51a.94.94,0,0,1,0-1.32l1.81-2a.92.92,0,0,1,1.36-.09l2.63,2.36c2.67-1.36,11.19-4.17,11.6,4l.73,14.78a2.85,2.85,0,0,1-2.86,3.21h-5.71a.82.82,0,0,1-.86-.81V67.93a.87.87,0,0,1,.91-.82H145l-.59-12.6c-.14-2.9-4-1.27-6-.45l-2.08,17.08a.78.78,0,0,1-.91.77h-3c-.68,0-.91-.49-.86-1Z" style="fill:#f59774"/><path d="M159.36,49.35a.9.9,0,0,1,1-1h2.62a1,1,0,0,1,1.09,1L165,67.06c5.76-1.08,7.57-4.94,7.53-9.56l0-4.3-4-.5a1,1,0,0,1-.86-1.22l.41-2.59c.09-.63.5-.9,1.22-.81l5,.63a3.2,3.2,0,0,1,3.08,3.35v5.22c0,8.11-4.67,14.23-14.37,14.91-1.13.09-2.49-.14-2.58-2.22Z" style="fill:#f59774"/><path d="M187.46,48.35h15.36A2.61,2.61,0,0,1,205.49,51a4.06,4.06,0,0,1-.22,1.14l-5.8,19c-.18.55-.59.73-1.23.5l-3.12-1a1,1,0,0,1-.5-1.27l5.3-16.27H187.46a.79.79,0,0,1-.86-.81V49.16a.85.85,0,0,1,.9-.81Zm.77,9.51,2.9.19a.9.9,0,0,1,.9,1.08s-.49,4.35-.49,5.17V76a.87.87,0,0,1-.82.91h-3.17a.87.87,0,0,1-.82-.91V64.21c0-.95.5-5.53.5-5.53A.85.85,0,0,1,188.23,57.86Z" style="fill:#f59774"/><path d="M216.09,53.15a.83.83,0,0,1-.86-.81V49.16a.86.86,0,0,1,.91-.81h6a6.87,6.87,0,0,1,6.89,6.93V67.11h1.85a.87.87,0,0,1,.91.82V71.1a.82.82,0,0,1-.86.81H214.73a.83.83,0,0,1-.86-.81V67.93a.87.87,0,0,1,.91-.82h9.47V55.24a2.11,2.11,0,0,0-2.08-2.09Z" style="fill:#f59774"/><path d="M708.68,540.39a1,1,0,0,1-.68-1.22l.68-2.63a1,1,0,0,1,1.22-.68l6.48,1.63a2.25,2.25,0,0,1,1.9,2.45v24.43a.86.86,0,0,1-.81.9H714.3a.86.86,0,0,1-.82-.9V541.66Z" style="fill:#f59774"/><path d="M726.8,540.39a1,1,0,0,1-.68-1.22l.68-2.63a1,1,0,0,1,1.22-.68l6.48,1.63a2.25,2.25,0,0,1,1.91,2.45v19.3a.87.87,0,0,1-.82.91h-3.17a.87.87,0,0,1-.82-.91V541.66Z" style="fill:#f59774"/><path d="M746.19,560.15a.8.8,0,0,1-.86-.81v-3.18a.86.86,0,0,1,.91-.81h9.11a2.18,2.18,0,0,0,2.17-2.18v-9.7a2.16,2.16,0,0,0-2.17-2.08h-8.43a.79.79,0,0,1-.86-.82V537.4a.85.85,0,0,1,.9-.81h8.39a6.87,6.87,0,0,1,6.93,6.93v9.65a6.91,6.91,0,0,1-6.93,7Z" style="fill:#f59774"/><path d="M777.78,551.5,776,549.77a1,1,0,0,1,0-1.49c2.13-2.18,2.54-3.63,2.54-6.89h-6.39a.79.79,0,0,1-.86-.82V537.4a.86.86,0,0,1,.91-.81h8.15a3,3,0,0,1,3,2.9v2.58a11.9,11.9,0,0,1-4,9.38A1.12,1.12,0,0,1,777.78,551.5Z" style="fill:#f59774"/><path d="M805.1,543.47a2.1,2.1,0,0,0-2.08-2.08h-3a9.47,9.47,0,0,0-2.72,7,13.4,13.4,0,0,0,2.9,8v2a1.7,1.7,0,0,1-1.68,1.68h-5.75a.82.82,0,0,1-.86-.81v-2.81a.86.86,0,0,1,.9-.82h2a12.35,12.35,0,0,1-2.26-7.16,11.18,11.18,0,0,1,2.31-7.16H793a.82.82,0,0,1-.86-.82V537.4a.86.86,0,0,1,.91-.81h10a6.89,6.89,0,0,1,6.88,6.93v15.72a.86.86,0,0,1-.81.91h-3.17a.87.87,0,0,1-.82-.91Z" style="fill:#f59774"/><path d="M832.24,543.47a2.12,2.12,0,0,0-2.13-2.08h-9.79a.8.8,0,0,1-.86-.82V537.4a.86.86,0,0,1,.91-.81h9.7a6.92,6.92,0,0,1,7,6.93v15.72a.87.87,0,0,1-.82.91h-3.17a.87.87,0,0,1-.82-.91Zm-11.15,2.63,2.9.18a.92.92,0,0,1,.91,1.09s-.5,4.35-.5,5.17v6.7a.86.86,0,0,1-.81.91h-3.18a.86.86,0,0,1-.81-.91v-6.79c0-1,.5-5.53.5-5.53A.83.83,0,0,1,821.09,546.1Z" style="fill:#f59774"/><path d="M628.25,588.74a1,1,0,0,1-.68-1.22l.68-2.63a1,1,0,0,1,1.22-.68l6.48,1.63a2.25,2.25,0,0,1,1.9,2.45V607.6a.85.85,0,0,1-.81.9h-3.17a.86.86,0,0,1-.82-.9V590Z" style="fill:#f59774"/><path d="M649,589.74a.82.82,0,0,1-.86-.81v-3.18a.86.86,0,0,1,.9-.81h6a6.87,6.87,0,0,1,6.89,6.93V603.7h1.86a.87.87,0,0,1,.91.82v3.17a.83.83,0,0,1-.87.81H647.64a.82.82,0,0,1-.86-.81v-3.17a.87.87,0,0,1,.91-.82h9.47V591.83a2.11,2.11,0,0,0-2.09-2.09Z" style="fill:#f59774"/><path d="M696.8,599.85,695,598.13a1,1,0,0,1,0-1.5c2.13-2.18,2.54-3.63,2.54-6.89h-6.39a.79.79,0,0,1-.86-.81v-3.18a.86.86,0,0,1,.9-.81h8.16a3,3,0,0,1,3,2.9v2.58a11.9,11.9,0,0,1-4,9.38A1.11,1.11,0,0,1,696.8,599.85Z" style="fill:#f59774"/><path d="M724.13,591.83a2.11,2.11,0,0,0-2.09-2.09h-3a9.49,9.49,0,0,0-2.72,7,13.33,13.33,0,0,0,2.9,8v2a1.7,1.7,0,0,1-1.68,1.67h-5.75a.83.83,0,0,1-.87-.81v-2.81a.87.87,0,0,1,.91-.82h2a12.35,12.35,0,0,1-2.27-7.16,11.2,11.2,0,0,1,2.32-7.16H712a.82.82,0,0,1-.86-.81v-3.18a.85.85,0,0,1,.9-.81h10a6.89,6.89,0,0,1,6.89,6.93V607.6a.85.85,0,0,1-.81.9h-3.18a.85.85,0,0,1-.81-.9Z" style="fill:#f59774"/><path d="M752,607.6a.86.86,0,0,1-.82.9H748a.85.85,0,0,1-.81-.9V589.74h-8.48a.8.8,0,0,1-.86-.81v-3.18a.86.86,0,0,1,.91-.81h16.17a.86.86,0,0,1,.91.81v3.18a.79.79,0,0,1-.86.81h-3Z" style="fill:#f59774"/><path d="M767.08,589.47l-2.13-1.9a.94.94,0,0,1,0-1.32l1.81-2a.92.92,0,0,1,1.36-.09l2.63,2.36c2.68-1.36,11.19-4.17,11.6,4l.73,14.78a2.85,2.85,0,0,1-2.86,3.21h-5.71a.82.82,0,0,1-.86-.81v-3.17a.87.87,0,0,1,.91-.82h3.76l-.59-12.6c-.14-2.9-4-1.27-6-.45l-2.08,17.08a.78.78,0,0,1-.91.77h-3c-.68,0-.91-.49-.86-1Z" style="fill:#f59774"/><path d="M797.44,608a1,1,0,0,1-.5-1.27l6.93-17h-10.6a1.4,1.4,0,0,1-1.36-1.4V577.78a.87.87,0,0,1,.82-.91h3.17a.86.86,0,0,1,.81.91v7.16h10.16a2.62,2.62,0,0,1,2.67,2.67,2.89,2.89,0,0,1-.27,1.13l-7.62,20a.85.85,0,0,1-1.22.5Z" style="fill:#f59774"/><path d="M818.69,585.89a.88.88,0,0,1,.95-.95H822a.86.86,0,0,1,1,.9l.28,9c1.85-.55,2.71-1.59,2.62-5.26l-.09-3.62a.88.88,0,0,1,1-1h2.17a.84.84,0,0,1,1,.95l-.09,5c0,2.91-1.13,6.26-6.52,7.39l.22,5.62c6.94-1,9.16-5.44,9.16-14.64v-3.35c0-.63.27-.95,1-.95h2.67a.85.85,0,0,1,1,.95l0,3.35c-.27,10.74-2.72,18.13-15.5,19.58a2.14,2.14,0,0,1-2.36-2Z" style="fill:#f59774"/><path d="M45.92,304.66A1.34,1.34,0,1,1,44.59,306,1.37,1.37,0,0,1,45.92,304.66Z" style="fill:#f59774"/><path d="M51.38,299.61a.34.34,0,0,1-.35-.33V298a.35.35,0,0,1,.36-.33h2.43a2.76,2.76,0,0,1,2.77,2.79v4.76h.75a.35.35,0,0,1,.36.33v1.28a.32.32,0,0,1-.34.32H50.83a.33.33,0,0,1-.35-.32v-1.28a.36.36,0,0,1,.37-.33h3.81v-4.78a.84.84,0,0,0-.84-.83Z" style="fill:#f59774"/><path d="M61.12,296.85a.37.37,0,0,1,.38-.4h1.15a.4.4,0,0,1,.38.4v4.63a.4.4,0,0,1-.38.39H61.5a.38.38,0,0,1-.38-.39Zm3.1,0a.37.37,0,0,1,.38-.4h1.15a.4.4,0,0,1,.38.4v4.63a.4.4,0,0,1-.38.39H64.6a.38.38,0,0,1-.38-.39Z" style="fill:#f59774"/><path d="M72.08,303.67l-.73-.69a.39.39,0,0,1,0-.6,3.22,3.22,0,0,0,1-2.77H69.8a.33.33,0,0,1-.35-.33V298a.36.36,0,0,1,.37-.33H73.1a1.19,1.19,0,0,1,1.2,1.17v1a4.8,4.8,0,0,1-1.62,3.77A.43.43,0,0,1,72.08,303.67Z" style="fill:#f59774"/><path d="M88.73,300.44a.85.85,0,0,0-.86-.83H83.93a.32.32,0,0,1-.34-.33V298a.35.35,0,0,1,.36-.33h3.9a2.78,2.78,0,0,1,2.81,2.79v6.33a.34.34,0,0,1-.33.36H89.06a.35.35,0,0,1-.33-.36Zm-4.49,1.06,1.17.07a.38.38,0,0,1,.37.44s-.2,1.75-.2,2.08v2.7a.35.35,0,0,1-.33.36H84a.35.35,0,0,1-.33-.36v-2.74c0-.38.2-2.22.2-2.22A.34.34,0,0,1,84.24,301.5Z" style="fill:#f59774"/><path d="M99.13,300.44a.85.85,0,0,0-.84-.83H97.07a3.76,3.76,0,0,0-1.1,2.82,5.38,5.38,0,0,0,1.17,3.23v.82a.69.69,0,0,1-.68.67H94.15a.33.33,0,0,1-.35-.32V305.7a.35.35,0,0,1,.37-.33H95a5,5,0,0,1-.91-2.88,4.44,4.44,0,0,1,.93-2.88h-.75a.34.34,0,0,1-.35-.33V298a.36.36,0,0,1,.37-.33h4a2.77,2.77,0,0,1,2.77,2.79v6.33a.35.35,0,0,1-.33.36H99.45a.34.34,0,0,1-.32-.36Z" style="fill:#f59774"/><path d="M106.77,303.67,106,303a.39.39,0,0,1,0-.6,3.22,3.22,0,0,0,1-2.77h-2.57a.33.33,0,0,1-.35-.33V298a.36.36,0,0,1,.37-.33h3.28a1.19,1.19,0,0,1,1.2,1.17v1a4.77,4.77,0,0,1-1.62,3.77A.43.43,0,0,1,106.77,303.67Z" style="fill:#f59774"/><path d="M112.24,307.15a.31.31,0,0,1-.34-.32v-1.28a.35.35,0,0,1,.36-.33h3.67a.87.87,0,0,0,.87-.87v-3.91a.86.86,0,0,0-.87-.83h-3.4a.32.32,0,0,1-.34-.33V298a.35.35,0,0,1,.36-.33h3.38a2.77,2.77,0,0,1,2.79,2.79v3.89a2.78,2.78,0,0,1-2.79,2.8Z" style="fill:#f59774"/><path d="M133.62,306.79a.35.35,0,0,1-.33.36H132a.34.34,0,0,1-.32-.36v-7.18h-3.42a.32.32,0,0,1-.34-.33V298a.35.35,0,0,1,.36-.33h6.51a.36.36,0,0,1,.37.33v1.28a.33.33,0,0,1-.35.33h-1.2Z" style="fill:#f59774"/><path d="M137.81,307.15a.35.35,0,0,1,.17-.49l2.44-1.29-2.33-7.15a.41.41,0,0,1,.4-.55h1a.52.52,0,0,1,.58.39l1.86,6.23,1.13-6.18c.05-.31.24-.44.57-.44h.94a.46.46,0,0,1,.48.55L144,303.43a4.22,4.22,0,0,1-2.63,3.52l-2.46,1.35a.38.38,0,0,1-.49-.12Z" style="fill:#f59774"/><path d="M159.92,297.67a1.48,1.48,0,0,1,1.49,1.5v6.74a1.22,1.22,0,0,1-1.24,1.24h-4.7a.68.68,0,0,1-.66-.65v-7l-.85-.43a.38.38,0,0,1-.17-.5l.48-1.07a.37.37,0,0,1,.49-.15l.6.31Zm-.44,1.94h-2.75v5.61h2.75Z" style="fill:#f59774"/><path d="M164.92,298.06a.36.36,0,0,1,.38-.39h1a.35.35,0,0,1,.38.37l.11,3.61c.75-.22,1.09-.64,1.06-2.12l0-1.46a.35.35,0,0,1,.38-.4H169c.24,0,.38.11.38.39l0,2a2.84,2.84,0,0,1-2.63,3l.09,2.26c2.79-.41,3.68-2.18,3.68-5.89v-1.34c0-.26.11-.39.39-.39H172a.36.36,0,0,1,.39.39l0,1.34c-.11,4.33-1.1,7.3-6.24,7.88a.86.86,0,0,1-1-.8Z" style="fill:#f59774"/><path d="M181.66,299.2a.39.39,0,0,1-.27-.49l.27-1.06a.41.41,0,0,1,.5-.27l2.6.66a.9.9,0,0,1,.77,1v7.77a.35.35,0,0,1-.33.36h-1.28a.34.34,0,0,1-.32-.36v-7.08Z" style="fill:#f59774"/><path d="M188.89,305.22h3v-5.61h-1.55a.33.33,0,0,1-.35-.33V298a.36.36,0,0,1,.37-.33h2a1.5,1.5,0,0,1,1.49,1.5v6.74a1.23,1.23,0,0,1-1.24,1.24h-3.75a.32.32,0,0,1-.35-.32v-1.28a.35.35,0,0,1,.36-.33Z" style="fill:#f59774"/><path d="M201.94,300.44a.85.85,0,0,0-.85-.83h-3.85a.33.33,0,0,1-.35-.33V298a.36.36,0,0,1,.37-.33h3.81a2.78,2.78,0,0,1,2.81,2.79v6.33a.35.35,0,0,1-.33.36h-1.28a.35.35,0,0,1-.33-.36Z" style="fill:#f59774"/><path d="M210.52,302.09l-.7-2.48h-1.07a.34.34,0,0,1-.35-.33V298a.36.36,0,0,1,.37-.33h1.58a1,1,0,0,1,1.1.75l2.44,8.31a.31.31,0,0,1-.33.42H212.3a.36.36,0,0,1-.41-.31l-.79-2.73-3,3.23a.36.36,0,0,1-.51,0l-.91-.84a.39.39,0,0,1,0-.48Z" style="fill:#f59774"/><path d="M54.24,326a.33.33,0,0,1-.35-.33v-1.27a.36.36,0,0,1,.37-.33h2.42a2.77,2.77,0,0,1,2.78,2.79v4.76h.74a.35.35,0,0,1,.37.33v1.27a.33.33,0,0,1-.35.33H53.69a.32.32,0,0,1-.34-.33V331.9a.34.34,0,0,1,.36-.33h3.81v-4.78a.85.85,0,0,0-.84-.84Z" style="fill:#f59774"/><path d="M63.62,325.55a.39.39,0,0,1-.28-.49l.28-1.06a.38.38,0,0,1,.49-.27l2.61.65a.91.91,0,0,1,.76,1v7.77a.34.34,0,0,1-.33.36H65.88a.34.34,0,0,1-.33-.36v-7.08Z" style="fill:#f59774"/><path d="M72.94,333.14a.35.35,0,0,1-.33.36H71.35a.35.35,0,0,1-.33-.36l0-8.45a.71.71,0,0,1,.67-.67H76.2a2,2,0,0,1,2,2v7.17a.35.35,0,0,1-.33.36H76.56a.34.34,0,0,1-.32-.36V326h-3.3Z" style="fill:#f59774"/><path d="M86.43,326.79a.85.85,0,0,0-.85-.84H81.73a.32.32,0,0,1-.35-.33v-1.27a.36.36,0,0,1,.37-.33h3.81a2.78,2.78,0,0,1,2.81,2.79v6.33a.35.35,0,0,1-.33.36H86.76a.35.35,0,0,1-.33-.36Z" style="fill:#f59774"/><path d="M93.69,333.3a.38.38,0,0,1-.2-.51L96.28,326H92a.56.56,0,0,1-.55-.56v-4.25a.35.35,0,0,1,.33-.37h1.27a.35.35,0,0,1,.33.37V324h4.09a1.05,1.05,0,0,1,1.07,1.07,1.23,1.23,0,0,1-.11.46l-3.06,8a.34.34,0,0,1-.49.2Z" style="fill:#f59774"/><path d="M107.65,325.55a.39.39,0,0,1-.28-.49l.28-1.06a.38.38,0,0,1,.49-.27l2.61.65a.91.91,0,0,1,.76,1v7.77a.34.34,0,0,1-.33.36h-1.27a.35.35,0,0,1-.33-.36v-7.08Z" style="fill:#f59774"/><path d="M114.87,331.57h3V326h-1.55a.31.31,0,0,1-.34-.33v-1.27a.35.35,0,0,1,.36-.33h2a1.51,1.51,0,0,1,1.5,1.49v6.75a1.23,1.23,0,0,1-1.24,1.24h-3.76a.32.32,0,0,1-.35-.33V331.9a.35.35,0,0,1,.37-.33Z" style="fill:#f59774"/><path d="M127.93,326.79a.86.86,0,0,0-.86-.84h-3.85a.31.31,0,0,1-.34-.33v-1.27a.35.35,0,0,1,.36-.33h3.81a2.78,2.78,0,0,1,2.81,2.79v6.33a.35.35,0,0,1-.33.36h-1.27a.34.34,0,0,1-.33-.36Z" style="fill:#f59774"/><path d="M133.86,326a.33.33,0,0,1-.35-.33v-1.27a.35.35,0,0,1,.37-.33h2.42a2.76,2.76,0,0,1,2.77,2.79v4.76h.75a.34.34,0,0,1,.36.33v1.27a.32.32,0,0,1-.34.33h-6.53a.33.33,0,0,1-.35-.33V331.9a.35.35,0,0,1,.37-.33h3.81v-4.78a.85.85,0,0,0-.84-.84Z" style="fill:#f59774"/><path d="M142.85,333.5A.34.34,0,0,1,143,333l2.45-1.3-2.34-7.14a.41.41,0,0,1,.4-.55h1a.51.51,0,0,1,.58.38l1.86,6.24,1.13-6.18a.5.5,0,0,1,.57-.44h1a.45.45,0,0,1,.47.55L149,329.78a4.22,4.22,0,0,1-2.62,3.52l-2.46,1.35a.38.38,0,0,1-.5-.13Z" style="fill:#f59774"/><path d="M163.75,326.79a.85.85,0,0,0-.86-.84h-3.64a.32.32,0,0,1-.35-.33v-1.27a.35.35,0,0,1,.36-.33h3.61a2.78,2.78,0,0,1,2.81,2.79v8.33a.35.35,0,0,1-.33.37h-1.27a.36.36,0,0,1-.33-.37Z" style="fill:#f59774"/><path d="M169.32,333.5a.32.32,0,0,1-.35-.33V331.9a.34.34,0,0,1,.36-.33H173a.87.87,0,0,0,.87-.88v-3.9A.86.86,0,0,0,173,326h-3.39a.32.32,0,0,1-.35-.33v-1.27a.36.36,0,0,1,.37-.33H173a2.77,2.77,0,0,1,2.79,2.79v3.88A2.78,2.78,0,0,1,173,333.5Z" style="fill:#f59774"/><path d="M190,326.79a.85.85,0,0,0-.86-.84h-3.84a.32.32,0,0,1-.35-.33v-1.27a.35.35,0,0,1,.36-.33h3.82a2.78,2.78,0,0,1,2.8,2.79v6.33a.34.34,0,0,1-.32.36h-1.28a.35.35,0,0,1-.33-.36Z" style="fill:#f59774"/><path d="M197.4,333.14a.34.34,0,0,1-.32.36h-1.26a.35.35,0,0,1-.33-.36l0-8.45a.71.71,0,0,1,.67-.67h4.49a2,2,0,0,1,2,2v7.17a.35.35,0,0,1-.33.36H201a.35.35,0,0,1-.33-.36V326h-3.3Z" style="fill:#f59774"/><path d="M208.51,328.69a3,3,0,0,0-.45,1.91v2.54a.35.35,0,0,1-.33.36h-1.26a.35.35,0,0,1-.33-.36V330.6a4.31,4.31,0,0,1,1.35-3.46L206.05,325a.39.39,0,0,1,0-.47l1-.73a.37.37,0,0,1,.51.05l2.55,3.76,1.5-3.3a.44.44,0,0,1,.45-.31h1.1c.36,0,.56.27.42.56l-2.28,4.82,2,3a.37.37,0,0,1-.05.47l-1,.73a.35.35,0,0,1-.51-.06Z" style="fill:#f59774"/><path d="M162.75,357.35a1.34,1.34,0,1,1-1.33,1.35A1.37,1.37,0,0,1,162.75,357.35Z" style="fill:#f59774"/><path d="M169.53,359.65a.39.39,0,0,1-.2-.51l2.79-6.84h-4.27a.56.56,0,0,1-.54-.57v-4.25a.34.34,0,0,1,.33-.36h1.27a.34.34,0,0,1,.33.36v2.89h4.09a1,1,0,0,1,1.07,1.07,1.27,1.27,0,0,1-.11.46l-3.06,8a.34.34,0,0,1-.49.2Z" style="fill:#f59774"/><path d="M179.86,356.36l-.73-.69a.38.38,0,0,1,0-.6,3.23,3.23,0,0,0,1-2.77h-2.57a.33.33,0,0,1-.35-.33v-1.28a.34.34,0,0,1,.37-.32h3.28a1.19,1.19,0,0,1,1.2,1.16v1a4.82,4.82,0,0,1-1.62,3.78A.45.45,0,0,1,179.86,356.36Z" style="fill:#f59774"/><path d="M185.88,352.3a.34.34,0,0,1-.35-.33v-1.28a.34.34,0,0,1,.36-.32h2.43a2.76,2.76,0,0,1,2.77,2.79v4.75h.75a.35.35,0,0,1,.36.33v1.28a.33.33,0,0,1-.34.33h-6.53a.34.34,0,0,1-.35-.33v-1.28a.36.36,0,0,1,.37-.33h3.81v-4.77a.85.85,0,0,0-.84-.84Z" style="fill:#f59774"/><path d="M195.76,350.37h6.18a1,1,0,0,1,1.08,1.07,1.77,1.77,0,0,1-.09.46l-2.33,7.64c-.08.22-.24.29-.5.2l-1.26-.38a.42.42,0,0,1-.2-.52l2.14-6.54h-5a.32.32,0,0,1-.34-.33v-1.28a.34.34,0,0,1,.36-.32Zm.31,3.83,1.17.07a.36.36,0,0,1,.36.44s-.2,1.75-.2,2.07v4.71a.34.34,0,0,1-.32.36H195.8a.35.35,0,0,1-.33-.36v-4.74c0-.39.2-2.23.2-2.23A.33.33,0,0,1,196.07,354.2Z" style="fill:#f59774"/><path d="M206.83,352.19l-.85-.77a.37.37,0,0,1,0-.53l.73-.82a.36.36,0,0,1,.54,0l1.06.95c1.08-.55,4.5-1.68,4.67,1.62l.29,5.94a1.14,1.14,0,0,1-1.15,1.3h-2.3a.33.33,0,0,1-.34-.33v-1.28a.35.35,0,0,1,.36-.33h1.52l-.24-5.06c-.06-1.17-1.62-.51-2.43-.19l-.84,6.88a.31.31,0,0,1-.36.31h-1.2c-.28,0-.37-.2-.35-.42Z" style="fill:#f59774"/><path d="M738.28,637.16a.86.86,0,0,0-.86-.84h-3.84a.32.32,0,0,1-.35-.33v-1.27a.35.35,0,0,1,.37-.33h3.81a2.78,2.78,0,0,1,2.8,2.79v6.33a.34.34,0,0,1-.32.36h-1.28a.35.35,0,0,1-.33-.36Z" style="fill:#f59774"/><path d="M743.5,635.79a.36.36,0,0,1-.16-.49l.47-1.07a.36.36,0,0,1,.49-.15l.6.31h4.16a1.48,1.48,0,0,1,1.48,1.49v6.75a1.21,1.21,0,0,1-1.26,1.24h-5.43a.32.32,0,0,1-.35-.33v-1.27a.34.34,0,0,1,.36-.33h4.74v-5.62h-2.42a2.93,2.93,0,0,0-.33,1.66v.31h.93a.36.36,0,0,1,.37.33v1.15a.33.33,0,0,1-.35.33h-2a.75.75,0,0,1-.84-.84v-1a4.66,4.66,0,0,1,.39-2.08Z" style="fill:#f59774"/><path d="M755.45,643.09l-.33-6.86-.86-.44a.36.36,0,0,1-.16-.49l.47-1.07a.36.36,0,0,1,.49-.15l.6.31h4.86a1.5,1.5,0,0,1,1.51,1.49V638c0,2.1-.77,5.56-5.55,6C756,644,755.48,643.93,755.45,643.09Zm4.65-6.77H757l.26,5.6c2-.27,2.81-1.7,2.81-3.56Z" style="fill:#f59774"/><path d="M776.55,637.16a.86.86,0,0,0-.84-.84h-1.22a3.84,3.84,0,0,0-1.1,2.83,5.38,5.38,0,0,0,1.17,3.23v.82a.68.68,0,0,1-.67.67h-2.32a.33.33,0,0,1-.35-.33v-1.13a.36.36,0,0,1,.37-.33h.82a4.92,4.92,0,0,1-.91-2.88,4.46,4.46,0,0,1,.93-2.88h-.75a.33.33,0,0,1-.35-.33v-1.27a.36.36,0,0,1,.37-.33h4a2.77,2.77,0,0,1,2.77,2.79v6.33a.35.35,0,0,1-.33.36h-1.27a.34.34,0,0,1-.33-.36Z" style="fill:#f59774"/><path d="M784.19,640.39l-.73-.69a.4.4,0,0,1,0-.61,3.2,3.2,0,0,0,1-2.77h-2.57a.31.31,0,0,1-.34-.33v-1.27a.35.35,0,0,1,.36-.33h3.28a1.2,1.2,0,0,1,1.21,1.17v1a4.78,4.78,0,0,1-1.63,3.77A.45.45,0,0,1,784.19,640.39Z" style="fill:#f59774"/><path d="M790.21,636.32a.33.33,0,0,1-.35-.33v-1.27a.36.36,0,0,1,.37-.33h2.42a2.77,2.77,0,0,1,2.78,2.79v4.76h.74a.35.35,0,0,1,.37.33v1.27a.33.33,0,0,1-.35.33h-6.53a.32.32,0,0,1-.34-.33v-1.27a.34.34,0,0,1,.36-.33h3.81v-4.78a.85.85,0,0,0-.84-.84Z" style="fill:#f59774"/><path d="M807.45,641.37a1.34,1.34,0,1,1-1.33,1.35A1.37,1.37,0,0,1,807.45,641.37Z" style="fill:#f59774"/><path d="M816.86,637.16a.86.86,0,0,0-.86-.84h-3.65A.31.31,0,0,1,812,636v-1.27a.35.35,0,0,1,.36-.33H816a2.78,2.78,0,0,1,2.81,2.79v8.33a.36.36,0,0,1-.33.37h-1.27a.35.35,0,0,1-.33-.37Z" style="fill:#f59774"/><path d="M824.3,643.67a.38.38,0,0,1-.2-.51l2.79-6.84h-4.27a.56.56,0,0,1-.54-.56v-4.25a.35.35,0,0,1,.32-.37h1.28a.36.36,0,0,1,.33.37v2.88h4.08a1.06,1.06,0,0,1,1.08,1.08,1.22,1.22,0,0,1-.11.45L826,644a.36.36,0,0,1-.5.2Z" style="fill:#f59774"/><path d="M832.22,635.79a.37.37,0,0,1-.17-.49l.48-1.07a.36.36,0,0,1,.49-.15l.6.31h4.16a1.48,1.48,0,0,1,1.48,1.49v6.75a1.21,1.21,0,0,1-1.26,1.24h-5.44a.31.31,0,0,1-.34-.33v-1.27a.34.34,0,0,1,.36-.33h4.74v-5.62H834.9a2.93,2.93,0,0,0-.33,1.66v.31h.93a.35.35,0,0,1,.36.33v1.15a.32.32,0,0,1-.34.33h-2a.75.75,0,0,1-.84-.84v-1a4.79,4.79,0,0,1,.38-2.08Z" style="fill:#f59774"/><path d="M720,663.51a.85.85,0,0,0-.84-.84h-1.23a3.82,3.82,0,0,0-1.09,2.83,5.35,5.35,0,0,0,1.17,3.22v.82a.69.69,0,0,1-.68.68H715a.34.34,0,0,1-.35-.33v-1.13a.36.36,0,0,1,.37-.33h.82a5,5,0,0,1-.92-2.88,4.52,4.52,0,0,1,.93-2.88h-.74a.34.34,0,0,1-.35-.33v-1.28a.34.34,0,0,1,.36-.32h4a2.77,2.77,0,0,1,2.77,2.79v6.32a.36.36,0,0,1-.33.37h-1.28a.35.35,0,0,1-.32-.37Z" style="fill:#f59774"/><path d="M725.08,662.27a.4.4,0,0,1-.28-.49l.28-1.06a.39.39,0,0,1,.49-.28l2.61.66a.91.91,0,0,1,.76,1v7.76a.35.35,0,0,1-.33.37h-1.27a.36.36,0,0,1-.33-.37v-7.07Z" style="fill:#f59774"/><path d="M732.3,668.28h3.05v-5.61H733.8a.33.33,0,0,1-.35-.33v-1.28a.34.34,0,0,1,.36-.32h2a1.5,1.5,0,0,1,1.5,1.49V669a1.23,1.23,0,0,1-1.24,1.24H732.3a.33.33,0,0,1-.35-.33v-1.28a.36.36,0,0,1,.37-.33Z" style="fill:#f59774"/><path d="M741.38,662.67a.33.33,0,0,1-.34-.33v-1.28a.34.34,0,0,1,.36-.32h2.43a2.76,2.76,0,0,1,2.77,2.79v4.75h.75a.35.35,0,0,1,.36.33v1.28a.34.34,0,0,1-.35.33h-6.52a.34.34,0,0,1-.35-.33v-1.28a.35.35,0,0,1,.36-.33h3.82v-4.77a.85.85,0,0,0-.84-.84Z" style="fill:#f59774"/><path d="M753,670a.37.37,0,0,1-.2-.51l2.78-6.84h-4.26a.57.57,0,0,1-.55-.57v-4.25a.35.35,0,0,1,.33-.36h1.28a.34.34,0,0,1,.32.36v2.89h4.09a1,1,0,0,1,1.07,1.07,1.09,1.09,0,0,1-.11.46l-3.06,8a.34.34,0,0,1-.49.2Z" style="fill:#f59774"/><path d="M769.49,666.74l-.73-.7a.39.39,0,0,1,0-.6,3.21,3.21,0,0,0,1-2.77h-2.57a.33.33,0,0,1-.35-.33v-1.28a.35.35,0,0,1,.37-.32h3.28a1.18,1.18,0,0,1,1.2,1.16v1a4.79,4.79,0,0,1-1.62,3.78A.46.46,0,0,1,769.49,666.74Z" style="fill:#f59774"/><path d="M774.94,661.14a.37.37,0,0,1,.39-.4h1.06a.39.39,0,0,1,.43.4l.39,7.13a3.45,3.45,0,0,0,3-3.85l0-1.73-1.6-.2a.41.41,0,0,1-.35-.5l.17-1c0-.25.2-.36.49-.32l2,.25a1.29,1.29,0,0,1,1.24,1.35v2.1c0,3.26-1.88,5.72-5.78,6-.46,0-1-.06-1-.9Z" style="fill:#f59774"/><path d="M786.78,669.43l-.33-6.85-.85-.44a.37.37,0,0,1-.17-.49l.48-1.08a.35.35,0,0,1,.49-.14l.6.31h4.85a1.49,1.49,0,0,1,1.51,1.49v2.1c0,2.1-.76,5.56-5.54,6C787.37,670.36,786.82,670.27,786.78,669.43Zm4.65-6.76h-3.06l.25,5.6c2-.28,2.81-1.7,2.81-3.56Z" style="fill:#f59774"/><path d="M799,666.74l-.73-.7a.39.39,0,0,1,0-.6,3.23,3.23,0,0,0,1-2.77h-2.57a.33.33,0,0,1-.35-.33v-1.28a.35.35,0,0,1,.37-.32H800a1.19,1.19,0,0,1,1.2,1.16v1a4.82,4.82,0,0,1-1.62,3.78A.46.46,0,0,1,799,666.74Z" style="fill:#f59774"/><path d="M804.4,661.14a.36.36,0,0,1,.38-.4h1.06a.4.4,0,0,1,.44.4l.38,7.13a3.45,3.45,0,0,0,3-3.85l0-1.73-1.6-.2a.41.41,0,0,1-.35-.5l.16-1c0-.25.21-.36.5-.32l2,.25a1.28,1.28,0,0,1,1.24,1.35v2.1c0,3.26-1.88,5.72-5.78,6-.45,0-1-.06-1-.9Z" style="fill:#f59774"/><path d="M817.22,666.74l-.73-.7a.39.39,0,0,1,0-.6,3.21,3.21,0,0,0,1-2.77h-2.58a.32.32,0,0,1-.34-.33v-1.28a.34.34,0,0,1,.36-.32h3.28a1.19,1.19,0,0,1,1.21,1.16v1a4.82,4.82,0,0,1-1.62,3.78A.47.47,0,0,1,817.22,666.74Z" style="fill:#f59774"/><path d="M824.57,670a.39.39,0,0,1-.2-.51l2.79-6.84H822.9a.57.57,0,0,1-.55-.57v-4.25a.35.35,0,0,1,.33-.36H824a.34.34,0,0,1,.33.36v2.89h4.09a1,1,0,0,1,1.07,1.07,1.09,1.09,0,0,1-.11.46l-3.06,8a.34.34,0,0,1-.49.2Z" style="fill:#f59774"/><path d="M834.79,665.4a3,3,0,0,0-.46,1.92v2.53a.35.35,0,0,1-.33.37h-1.25a.35.35,0,0,1-.33-.37v-2.53a4.31,4.31,0,0,1,1.35-3.47l-1.44-2.11a.39.39,0,0,1,0-.48l1-.72a.36.36,0,0,1,.51.05l2.55,3.76,1.5-3.3a.44.44,0,0,1,.45-.31h1.1c.36,0,.56.27.41.56l-2.27,4.81,2,3a.39.39,0,0,1-.06.48l-1,.73a.36.36,0,0,1-.51-.06Z" style="fill:#f59774"/></svg>