<svg xmlns="http://www.w3.org/2000/svg" viewBox="0 0 1536 1875">
  <g id="b1282904-dfe5-497b-ba2f-0f3f0e77906f" data-name="+">
    <g>
      <path d="M502.07,728.87a3,3,0,0,0-.45,1.92v2.53a.36.36,0,0,1-.33.37H500a.36.36,0,0,1-.33-.37v-2.53a4.34,4.34,0,0,1,1.35-3.47l-1.44-2.11a.4.4,0,0,1,.05-.48l1-.73a.37.37,0,0,1,.51.06l2.55,3.76,1.5-3.3a.44.44,0,0,1,.45-.31h1.1c.36,0,.56.27.42.56l-2.28,4.81,2,3a.39.39,0,0,1-.05.48l-1,.73a.36.36,0,0,1-.51-.06Z" style="fill: #f59774"/>
      <path d="M512.43,730.2l-.73-.69a.39.39,0,0,1,0-.6,3.21,3.21,0,0,0,1-2.77h-2.57a.32.32,0,0,1-.34-.33v-1.28a.34.34,0,0,1,.36-.32h3.28a1.19,1.19,0,0,1,1.21,1.16v1a4.8,4.8,0,0,1-1.63,3.78A.44.44,0,0,1,512.43,730.2Z" style="fill: #f59774"/>
      <path d="M522.88,727a.85.85,0,0,0-.85-.84h-3.94a.33.33,0,0,1-.35-.33v-1.28a.34.34,0,0,1,.37-.32H522a2.78,2.78,0,0,1,2.81,2.79v6.32a.36.36,0,0,1-.33.37h-1.28a.36.36,0,0,1-.33-.37ZM518.4,728l1.16.07a.37.37,0,0,1,.37.44s-.2,1.75-.2,2.07v2.7a.36.36,0,0,1-.33.37h-1.28a.35.35,0,0,1-.32-.37v-2.73c0-.39.2-2.23.2-2.23A.33.33,0,0,1,518.4,728Z" style="fill: #f59774"/>
      <path d="M539.48,727a.85.85,0,0,0-.86-.84h-3.94a.32.32,0,0,1-.34-.33v-1.28a.34.34,0,0,1,.36-.32h3.91a2.78,2.78,0,0,1,2.8,2.79v6.32a.35.35,0,0,1-.33.37h-1.27a.36.36,0,0,1-.33-.37ZM535,728l1.17.07a.37.37,0,0,1,.37.44s-.2,1.75-.2,2.07v2.7a.36.36,0,0,1-.33.37h-1.28a.36.36,0,0,1-.33-.37v-2.73c0-.39.2-2.23.2-2.23A.33.33,0,0,1,535,728Z" style="fill: #f59774"/>
      <path d="M545.54,726l-.86-.77a.37.37,0,0,1,0-.53l.73-.82a.37.37,0,0,1,.55,0l1,1c1.08-.55,4.51-1.68,4.67,1.62l.29,5.94a1.14,1.14,0,0,1-1.15,1.3h-2.29a.34.34,0,0,1-.35-.33v-1.28a.36.36,0,0,1,.37-.33h1.51l-.24-5.06c-.05-1.17-1.62-.52-2.42-.19l-.84,6.88a.32.32,0,0,1-.37.31H545c-.27,0-.36-.2-.35-.42Z" style="fill: #f59774"/>
      <path d="M557.57,730.2l-.72-.69a.38.38,0,0,1,0-.6,3.23,3.23,0,0,0,1-2.77H555.3a.33.33,0,0,1-.35-.33v-1.28a.34.34,0,0,1,.36-.32h3.29a1.19,1.19,0,0,1,1.2,1.16v1a4.82,4.82,0,0,1-1.62,3.78A.46.46,0,0,1,557.57,730.2Z" style="fill: #f59774"/>
      <path d="M562.34,733.69a.34.34,0,0,1,.16-.49l2.44-1.3-2.33-7.15a.4.4,0,0,1,.4-.54h1a.51.51,0,0,1,.58.38l1.86,6.24,1.13-6.19c.06-.31.24-.43.57-.43h.94a.45.45,0,0,1,.48.54L568.48,730a4.24,4.24,0,0,1-2.62,3.52l-2.47,1.35a.38.38,0,0,1-.49-.13Z" style="fill: #f59774"/>
      <path d="M572.5,731.75h3v-5.61H574a.32.32,0,0,1-.34-.33v-1.28a.34.34,0,0,1,.36-.32h2a1.49,1.49,0,0,1,1.49,1.49v6.75a1.23,1.23,0,0,1-1.24,1.24H572.5a.33.33,0,0,1-.35-.33v-1.28a.35.35,0,0,1,.36-.33Z" style="fill: #f59774"/>
      <path d="M589.37,728.87a3,3,0,0,0-.46,1.92v2.53a.35.35,0,0,1-.33.37h-1.26a.35.35,0,0,1-.32-.37v-2.53a4.31,4.31,0,0,1,1.35-3.47l-1.44-2.11a.39.39,0,0,1,.05-.48l1-.73a.38.38,0,0,1,.52.06l2.55,3.76,1.49-3.3a.44.44,0,0,1,.46-.31h1.09c.37,0,.57.27.42.56l-2.28,4.81,2,3a.39.39,0,0,1-.06.48l-1,.73a.36.36,0,0,1-.51-.06Z" style="fill: #f59774"/>
      <path d="M599.36,733.49a.39.39,0,0,1-.2-.51l2.79-6.84h-4.26a.57.57,0,0,1-.55-.57v-4.25a.34.34,0,0,1,.33-.36h1.27a.34.34,0,0,1,.33.36v2.89h4.09a1,1,0,0,1,1.07,1.07,1.27,1.27,0,0,1-.11.46l-3.06,8a.34.34,0,0,1-.49.2Z" style="fill: #f59774"/>
      <path d="M612.42,727a.85.85,0,0,0-.86-.84h-3.94a.32.32,0,0,1-.34-.33v-1.28a.34.34,0,0,1,.36-.32h3.91a2.78,2.78,0,0,1,2.8,2.79v6.32a.35.35,0,0,1-.32.37h-1.28a.36.36,0,0,1-.33-.37ZM607.94,728l1.16.07a.37.37,0,0,1,.37.44s-.2,1.75-.2,2.07v2.7a.36.36,0,0,1-.33.37h-1.28a.36.36,0,0,1-.33-.37v-2.73c0-.39.2-2.23.2-2.23A.34.34,0,0,1,607.94,728Z" style="fill: #f59774"/>
      <path d="M629,727a.85.85,0,0,0-.84-.84H627a3.8,3.8,0,0,0-1.1,2.82,5.36,5.36,0,0,0,1.17,3.23V733a.69.69,0,0,1-.67.68H624a.34.34,0,0,1-.35-.33v-1.13a.36.36,0,0,1,.37-.33h.82A4.94,4.94,0,0,1,624,729a4.52,4.52,0,0,1,.93-2.88h-.75a.34.34,0,0,1-.35-.33v-1.28a.35.35,0,0,1,.37-.32h4A2.77,2.77,0,0,1,631,727v6.32a.35.35,0,0,1-.33.37h-1.27a.36.36,0,0,1-.33-.37Z" style="fill: #f59774"/>
      <path d="M635.06,726l-.86-.77a.37.37,0,0,1,0-.53l.73-.82a.37.37,0,0,1,.55,0l1,1c1.08-.55,4.51-1.68,4.67,1.62l.29,5.94a1.14,1.14,0,0,1-1.14,1.3h-2.3a.34.34,0,0,1-.35-.33v-1.28a.36.36,0,0,1,.37-.33h1.51l-.24-5.06c-.05-1.17-1.62-.52-2.42-.19l-.84,6.88a.32.32,0,0,1-.37.31h-1.2c-.27,0-.36-.2-.35-.42Z" style="fill: #f59774"/>
      <path d="M647,728.87a3,3,0,0,0-.46,1.92v2.53a.36.36,0,0,1-.33.37h-1.26a.35.35,0,0,1-.32-.37v-2.53a4.31,4.31,0,0,1,1.35-3.47l-1.44-2.11a.39.39,0,0,1,.05-.48l1-.73a.37.37,0,0,1,.51.06l2.56,3.76,1.49-3.3a.44.44,0,0,1,.46-.31h1.09c.37,0,.57.27.42.56l-2.28,4.81,2,3a.39.39,0,0,1-.06.48l-1,.73a.36.36,0,0,1-.51-.06Z" style="fill: #f59774"/>
      <path d="M660.08,727a.85.85,0,0,0-.86-.84h-3.94a.32.32,0,0,1-.34-.33v-1.28a.34.34,0,0,1,.36-.32h3.91A2.78,2.78,0,0,1,662,727v6.32a.35.35,0,0,1-.32.37h-1.28a.36.36,0,0,1-.33-.37ZM655.6,728l1.16.07a.37.37,0,0,1,.37.44s-.2,1.75-.2,2.07v2.7a.36.36,0,0,1-.33.37h-1.28a.36.36,0,0,1-.33-.37v-2.73c0-.39.2-2.23.2-2.23A.34.34,0,0,1,655.6,728Z" style="fill: #f59774"/>
      <path d="M471.52,755.22a3,3,0,0,0-.45,1.91v2.54a.35.35,0,0,1-.33.36h-1.26a.35.35,0,0,1-.33-.36v-2.54a4.32,4.32,0,0,1,1.35-3.46l-1.44-2.11a.4.4,0,0,1,.05-.48l1-.73a.36.36,0,0,1,.51.06l2.55,3.75,1.5-3.3a.44.44,0,0,1,.45-.31h1.1c.36,0,.56.28.42.57l-2.28,4.81,2,3a.37.37,0,0,1-.05.47l-1,.73a.35.35,0,0,1-.51,0Z" style="fill: #f59774"/>
      <path d="M481.52,759.83a.38.38,0,0,1-.2-.51l2.79-6.83h-4.27a.57.57,0,0,1-.55-.57v-4.25a.35.35,0,0,1,.33-.36h1.28a.35.35,0,0,1,.33.36v2.88h4.08a1.06,1.06,0,0,1,1.08,1.08,1.18,1.18,0,0,1-.11.45l-3.07,8a.34.34,0,0,1-.49.21Z" style="fill: #f59774"/>
      <path d="M498,756.55l-.73-.69a.39.39,0,0,1,0-.6,3.22,3.22,0,0,0,1-2.77h-2.57a.32.32,0,0,1-.34-.33v-1.28a.35.35,0,0,1,.36-.33h3.28a1.2,1.2,0,0,1,1.21,1.17v1a4.78,4.78,0,0,1-1.63,3.77A.43.43,0,0,1,498,756.55Z" style="fill: #f59774"/>
      <path d="M505.39,759.83a.38.38,0,0,1-.2-.51l2.79-6.83h-4.26a.57.57,0,0,1-.55-.57v-4.25a.34.34,0,0,1,.33-.36h1.27a.34.34,0,0,1,.33.36v2.88h4.09a1.05,1.05,0,0,1,1.07,1.08,1,1,0,0,1-.11.45l-3.06,8a.34.34,0,0,1-.49.21Z" style="fill: #f59774"/>
      <path d="M513.4,750.94a.36.36,0,0,1,.38-.39h1a.35.35,0,0,1,.38.37l.11,3.61c.75-.22,1.1-.64,1.06-2.12l0-1.46a.36.36,0,0,1,.39-.4h.87c.24,0,.38.11.38.39l0,2a2.84,2.84,0,0,1-2.63,3l.09,2.26c2.79-.42,3.69-2.18,3.69-5.89v-1.34c0-.26.11-.39.38-.39h1.08a.35.35,0,0,1,.38.39l0,1.34c-.11,4.33-1.09,7.3-6.24,7.88a.86.86,0,0,1-1-.8Z" style="fill: #f59774"/>
      <path d="M536.18,750.55a1.49,1.49,0,0,1,1.5,1.5v6.74a1.23,1.23,0,0,1-1.24,1.24h-4.71a.68.68,0,0,1-.66-.65v-7l-.85-.43a.38.38,0,0,1-.17-.5l.48-1.07a.37.37,0,0,1,.49-.15l.6.31Zm-.44,1.94H533v5.61h2.75Z" style="fill: #f59774"/>
      <path d="M543.49,756.55l-.72-.69a.38.38,0,0,1,0-.6,3.24,3.24,0,0,0,1-2.77h-2.57a.33.33,0,0,1-.35-.33v-1.28a.35.35,0,0,1,.36-.33h3.29a1.19,1.19,0,0,1,1.2,1.17v1a4.8,4.8,0,0,1-1.62,3.77A.45.45,0,0,1,543.49,756.55Z" style="fill: #f59774"/>
      <path d="M554.22,759.67a.35.35,0,0,1-.33.36h-1.28a.34.34,0,0,1-.32-.36v-7.18h-3.41a.33.33,0,0,1-.35-.33v-1.28a.35.35,0,0,1,.37-.33h6.5a.35.35,0,0,1,.37.33v1.28a.33.33,0,0,1-.35.33h-1.2Z" style="fill: #f59774"/>
      <path d="M558.8,752.08a.38.38,0,0,1-.27-.49l.27-1.06a.4.4,0,0,1,.49-.27l2.61.66a.89.89,0,0,1,.76,1v7.77a.34.34,0,0,1-.32.36h-1.28a.35.35,0,0,1-.33-.36v-7.08Z" style="fill: #f59774"/>
      <path d="M571.31,759.67a.35.35,0,0,1-.33.36h-1.27a.34.34,0,0,1-.33-.36v-7.18H566a.33.33,0,0,1-.35-.33v-1.28a.36.36,0,0,1,.37-.33h6.51a.35.35,0,0,1,.36.33v1.28a.33.33,0,0,1-.35.33h-1.2Z" style="fill: #f59774"/>
      <path d="M581.2,753.32a.85.85,0,0,0-.86-.83H576.4a.33.33,0,0,1-.35-.33v-1.28a.36.36,0,0,1,.37-.33h3.9a2.78,2.78,0,0,1,2.81,2.79v6.33a.35.35,0,0,1-.33.36h-1.28a.34.34,0,0,1-.32-.36Zm-4.49,1.06,1.17.07a.37.37,0,0,1,.36.44s-.2,1.75-.2,2.08v2.7a.34.34,0,0,1-.33.36h-1.27a.34.34,0,0,1-.33-.36v-2.74c0-.38.2-2.22.2-2.22A.34.34,0,0,1,576.71,754.38Z" style="fill: #f59774"/>
      <path d="M586.29,752.08a.39.39,0,0,1-.28-.49l.28-1.06a.4.4,0,0,1,.49-.27l2.61.66a.9.9,0,0,1,.76,1v7.77a.34.34,0,0,1-.33.36h-1.27a.34.34,0,0,1-.33-.36v-7.08Z" style="fill: #f59774"/>
      <path d="M604.73,753.32a.85.85,0,0,0-.84-.83h-1.23a3.8,3.8,0,0,0-1.09,2.82,5.38,5.38,0,0,0,1.17,3.23v.82a.69.69,0,0,1-.68.67h-2.31a.33.33,0,0,1-.35-.32v-1.13a.35.35,0,0,1,.37-.33h.82a5,5,0,0,1-.92-2.88,4.5,4.5,0,0,1,.93-2.88h-.74a.34.34,0,0,1-.35-.33v-1.28a.35.35,0,0,1,.36-.33h4a2.77,2.77,0,0,1,2.77,2.79v6.33a.35.35,0,0,1-.33.36h-1.28a.34.34,0,0,1-.32-.36Z" style="fill: #f59774"/>
      <path d="M609.8,752.08a.39.39,0,0,1-.28-.49l.28-1.06a.4.4,0,0,1,.49-.27l2.61.66a.89.89,0,0,1,.76,1v7.77a.34.34,0,0,1-.33.36h-1.27a.35.35,0,0,1-.33-.36v-7.08Z" style="fill: #f59774"/>
      <path d="M622.31,759.67a.35.35,0,0,1-.33.36H620.7a.35.35,0,0,1-.33-.36v-7.18H617a.32.32,0,0,1-.34-.33v-1.28a.35.35,0,0,1,.36-.33h6.51a.36.36,0,0,1,.37.33v1.28a.33.33,0,0,1-.35.33h-1.2Z" style="fill: #f59774"/>
      <path d="M626.89,752.08a.39.39,0,0,1-.28-.49l.28-1.06a.4.4,0,0,1,.49-.27l2.61.66a.89.89,0,0,1,.76,1v7.77a.34.34,0,0,1-.32.36h-1.28a.35.35,0,0,1-.33-.36v-7.08Z" style="fill: #f59774"/>
      <path d="M639.4,759.67a.35.35,0,0,1-.33.36h-1.28a.34.34,0,0,1-.32-.36v-7.18h-3.41a.33.33,0,0,1-.35-.33v-1.28a.35.35,0,0,1,.36-.33h6.51a.36.36,0,0,1,.37.33v1.28a.33.33,0,0,1-.35.33h-1.2Z" style="fill: #f59774"/>
      <path d="M649.28,753.32a.85.85,0,0,0-.85-.83h-3.94a.33.33,0,0,1-.35-.33v-1.28a.36.36,0,0,1,.37-.33h3.9a2.78,2.78,0,0,1,2.81,2.79v6.33a.35.35,0,0,1-.33.36h-1.28a.35.35,0,0,1-.33-.36Zm-4.48,1.06,1.17.07a.37.37,0,0,1,.36.44s-.2,1.75-.2,2.08v2.7a.35.35,0,0,1-.33.36h-1.27a.34.34,0,0,1-.33-.36v-2.74c0-.38.2-2.22.2-2.22A.34.34,0,0,1,644.8,754.38Z" style="fill: #f59774"/>
      <path d="M654.63,750.94a.36.36,0,0,1,.38-.39h1a.35.35,0,0,1,.38.37l.11,3.61c.75-.22,1.1-.64,1.06-2.12l0-1.46a.36.36,0,0,1,.39-.4h.87c.24,0,.38.11.38.39l0,2a2.84,2.84,0,0,1-2.63,3l.09,2.26c2.79-.42,3.69-2.18,3.69-5.89v-1.34c0-.26.11-.39.38-.39h1.07a.35.35,0,0,1,.39.39l0,1.34c-.11,4.33-1.09,7.3-6.24,7.88a.86.86,0,0,1-1-.8Z" style="fill: #f59774"/>
      <path d="M524.78,783.88a1.34,1.34,0,1,1-1.33,1.35A1.37,1.37,0,0,1,524.78,783.88Z" style="fill: #f59774"/>
      <path d="M531.93,782.9l-.73-.7a.39.39,0,0,1,0-.6,3.21,3.21,0,0,0,1-2.77h-2.57a.31.31,0,0,1-.34-.33v-1.27a.34.34,0,0,1,.36-.33H533a1.19,1.19,0,0,1,1.2,1.17v1a4.77,4.77,0,0,1-1.62,3.77A.45.45,0,0,1,531.93,782.9Z" style="fill: #f59774"/>
      <path d="M542.38,779.67a.85.85,0,0,0-.84-.84h-1.22a3.84,3.84,0,0,0-1.09,2.83,5.36,5.36,0,0,0,1.16,3.23v.82a.68.68,0,0,1-.67.67H537.4a.32.32,0,0,1-.34-.33v-1.13a.35.35,0,0,1,.36-.33h.82a4.92,4.92,0,0,1-.91-2.88,4.52,4.52,0,0,1,.93-2.88h-.75a.32.32,0,0,1-.34-.33v-1.27a.34.34,0,0,1,.36-.33h4a2.77,2.77,0,0,1,2.77,2.79V786a.34.34,0,0,1-.33.36h-1.27a.35.35,0,0,1-.33-.36Z" style="fill: #f59774"/>
      <path d="M547.45,778.43a.39.39,0,0,1-.27-.49l.27-1.06a.39.39,0,0,1,.5-.27l2.6.65a.91.91,0,0,1,.77,1V786a.35.35,0,0,1-.33.36h-1.28a.34.34,0,0,1-.32-.36v-7.08Z" style="fill: #f59774"/>
      <path d="M556.85,781.57a3,3,0,0,0-.46,1.91V786a.35.35,0,0,1-.33.36H554.8a.34.34,0,0,1-.32-.36v-2.54a4.3,4.3,0,0,1,1.34-3.46l-1.44-2.12a.39.39,0,0,1,.06-.47l1-.73a.37.37,0,0,1,.51,0l2.56,3.76,1.49-3.3a.44.44,0,0,1,.46-.31h1.09c.37,0,.57.27.42.56l-2.28,4.82,2,3a.39.39,0,0,1-.06.48l-1,.73a.35.35,0,0,1-.51-.06Z" style="fill: #f59774"/>
      <path d="M576.87,776.9a1.48,1.48,0,0,1,1.5,1.49v6.75a1.23,1.23,0,0,1-1.24,1.24h-4.71a.68.68,0,0,1-.65-.66v-7l-.86-.44a.37.37,0,0,1-.17-.49l.48-1.07a.36.36,0,0,1,.49-.15l.6.31Zm-.44,1.93h-2.75v5.62h2.75Z" style="fill: #f59774"/>
      <path d="M584.19,782.9l-.73-.7a.39.39,0,0,1,0-.6,3.21,3.21,0,0,0,1-2.77h-2.57a.32.32,0,0,1-.35-.33v-1.27a.35.35,0,0,1,.37-.33h3.28a1.19,1.19,0,0,1,1.2,1.17v1a4.8,4.8,0,0,1-1.62,3.77A.45.45,0,0,1,584.19,782.9Z" style="fill: #f59774"/>
      <path d="M594.18,779.67a.85.85,0,0,0-.85-.84h-3.85a.32.32,0,0,1-.35-.33v-1.27a.35.35,0,0,1,.37-.33h3.81a2.78,2.78,0,0,1,2.81,2.79V786a.35.35,0,0,1-.33.36h-1.28a.35.35,0,0,1-.33-.36Z" style="fill: #f59774"/>
      <path d="M601.81,782.9l-.73-.7a.39.39,0,0,1,0-.6,3.21,3.21,0,0,0,1-2.77h-2.57a.32.32,0,0,1-.35-.33v-1.27a.35.35,0,0,1,.37-.33h3.28a1.19,1.19,0,0,1,1.2,1.17v1a4.8,4.8,0,0,1-1.62,3.77A.45.45,0,0,1,601.81,782.9Z" style="fill: #f59774"/>
      <path d="M607.28,786.38a.32.32,0,0,1-.35-.33v-1.27a.35.35,0,0,1,.37-.33H611a.87.87,0,0,0,.88-.88v-3.9a.87.87,0,0,0-.88-.84h-3.39a.31.31,0,0,1-.34-.33v-1.27a.34.34,0,0,1,.36-.33H611a2.77,2.77,0,0,1,2.79,2.79v3.88a2.78,2.78,0,0,1-2.79,2.81Z" style="fill: #f59774"/>
      <path d="M617.84,778.72,617,778a.39.39,0,0,1,0-.53l.73-.82a.36.36,0,0,1,.55,0l1.06.95c1.07-.55,4.5-1.68,4.67,1.62l.29,6a1.15,1.15,0,0,1-1.15,1.29h-2.3a.33.33,0,0,1-.35-.33v-1.27a.35.35,0,0,1,.37-.33h1.51l-.23-5.07c-.06-1.17-1.63-.51-2.43-.18l-.84,6.87a.31.31,0,0,1-.36.31h-1.21c-.27,0-.36-.2-.34-.42Z" style="fill: #f59774"/>
      <path d="M633.76,777.28a.35.35,0,0,1,.39-.38h1a.35.35,0,0,1,.39.36l.11,3.61c.74-.21,1.09-.63,1-2.11l0-1.46c0-.26.12-.4.38-.4h.87a.34.34,0,0,1,.39.38l0,2a2.84,2.84,0,0,1-2.62,3l.09,2.26c2.79-.42,3.68-2.19,3.68-5.89v-1.35a.33.33,0,0,1,.38-.38h1.08a.34.34,0,0,1,.38.38l0,1.35c-.11,4.32-1.09,7.29-6.23,7.88a.87.87,0,0,1-1-.8Z" style="fill: #f59774"/>
      <path d="M645.27,778.72l-.85-.76a.37.37,0,0,1,0-.53l.73-.82a.35.35,0,0,1,.54,0l1.06.95c1.07-.55,4.5-1.68,4.67,1.62l.29,6a1.14,1.14,0,0,1-1.15,1.29h-2.3a.32.32,0,0,1-.34-.33v-1.27a.34.34,0,0,1,.36-.33h1.51l-.23-5.07c-.06-1.17-1.63-.51-2.43-.18l-.84,6.87a.31.31,0,0,1-.36.31h-1.2c-.28,0-.37-.2-.35-.42Z" style="fill: #f59774"/>
      <path d="M655.71,778.72l-.86-.76a.37.37,0,0,1,0-.53l.73-.82a.36.36,0,0,1,.55,0l1,.95c1.08-.55,4.51-1.68,4.67,1.62l.29,6a1.14,1.14,0,0,1-1.15,1.29H658.7a.33.33,0,0,1-.35-.33v-1.27a.34.34,0,0,1,.36-.33h1.52l-.24-5.07c0-1.17-1.62-.51-2.42-.18l-.84,6.87a.32.32,0,0,1-.37.31h-1.2a.34.34,0,0,1-.35-.42Z" style="fill: #f59774"/>
      <path d="M456.84,806a.86.86,0,0,0-.86-.84h-3.85a.33.33,0,0,1-.35-.33v-1.28a.35.35,0,0,1,.37-.32H456a2.78,2.78,0,0,1,2.81,2.79v6.32a.36.36,0,0,1-.33.37h-1.28a.35.35,0,0,1-.32-.37Z" style="fill: #f59774"/>
      <path d="M464.46,809.25l-.73-.7a.39.39,0,0,1,0-.6,3.21,3.21,0,0,0,1-2.77h-2.57a.32.32,0,0,1-.34-.33v-1.28a.34.34,0,0,1,.36-.32h3.28a1.19,1.19,0,0,1,1.21,1.16v1a4.8,4.8,0,0,1-1.63,3.78A.46.46,0,0,1,464.46,809.25Z" style="fill: #f59774"/>
      <path d="M469.93,812.73a.32.32,0,0,1-.34-.33v-1.28a.35.35,0,0,1,.36-.33h3.67a.87.87,0,0,0,.87-.87V806a.86.86,0,0,0-.87-.84h-3.39a.33.33,0,0,1-.35-.33v-1.28a.34.34,0,0,1,.36-.32h3.38a2.77,2.77,0,0,1,2.79,2.79v3.88a2.78,2.78,0,0,1-2.79,2.81Z" style="fill: #f59774"/>
      <path d="M484.83,806a.85.85,0,0,0-.85-.84H480a.33.33,0,0,1-.35-.33v-1.28a.35.35,0,0,1,.37-.32H484a2.78,2.78,0,0,1,2.81,2.79v6.32a.36.36,0,0,1-.33.37h-1.28a.36.36,0,0,1-.33-.37Zm-4.48,1.06,1.17.07a.37.37,0,0,1,.36.44s-.2,1.75-.2,2.07v2.7a.36.36,0,0,1-.33.37h-1.27a.35.35,0,0,1-.33-.37v-2.73c0-.38.2-2.23.2-2.23A.33.33,0,0,1,480.35,807.08Z" style="fill: #f59774"/>
      <path d="M492.13,812.53a.39.39,0,0,1-.2-.51l2.79-6.84h-4.27a.56.56,0,0,1-.54-.57v-4.25a.34.34,0,0,1,.32-.36h1.28a.35.35,0,0,1,.33.36v2.89h4.08a1,1,0,0,1,1.08,1.07,1.27,1.27,0,0,1-.11.46l-3.06,8a.35.35,0,0,1-.5.2Z" style="fill: #f59774"/>
      <path d="M508.66,809.25l-.73-.7a.38.38,0,0,1,0-.6,3.23,3.23,0,0,0,1-2.77h-2.57a.33.33,0,0,1-.35-.33v-1.28a.34.34,0,0,1,.37-.32h3.28a1.19,1.19,0,0,1,1.2,1.16v1a4.82,4.82,0,0,1-1.62,3.78A.46.46,0,0,1,508.66,809.25Z" style="fill: #f59774"/>
      <path d="M519.11,806a.85.85,0,0,0-.84-.84h-1.22A3.8,3.8,0,0,0,516,808a5.36,5.36,0,0,0,1.17,3.23v.82a.69.69,0,0,1-.68.68h-2.31a.34.34,0,0,1-.35-.33v-1.13a.36.36,0,0,1,.37-.33H515a4.94,4.94,0,0,1-.91-2.88,4.46,4.46,0,0,1,.93-2.88h-.75a.34.34,0,0,1-.35-.33v-1.28a.35.35,0,0,1,.37-.32h4A2.77,2.77,0,0,1,521,806v6.32a.36.36,0,0,1-.33.37h-1.27a.35.35,0,0,1-.33-.37Z" style="fill: #f59774"/>
      <path d="M525.15,805.07l-.86-.77a.37.37,0,0,1,0-.53L525,803a.37.37,0,0,1,.55,0l1,1c1.08-.55,4.51-1.68,4.67,1.62l.29,5.94a1.14,1.14,0,0,1-1.15,1.3h-2.29a.34.34,0,0,1-.35-.33v-1.28a.35.35,0,0,1,.36-.33h1.52l-.24-5.06c0-1.17-1.62-.52-2.42-.19l-.84,6.88a.32.32,0,0,1-.37.31h-1.2c-.28,0-.37-.2-.35-.42Z" style="fill: #f59774"/>
      <path d="M534.94,812.73a.33.33,0,0,1-.35-.33v-1.28a.36.36,0,0,1,.37-.33h3.66a.87.87,0,0,0,.88-.87V806a.87.87,0,0,0-.88-.84h-3.39a.32.32,0,0,1-.34-.33v-1.28a.34.34,0,0,1,.36-.32h3.37a2.77,2.77,0,0,1,2.79,2.79v3.88a2.78,2.78,0,0,1-2.79,2.81Z" style="fill: #f59774"/>
      <path d="M546.12,811.94l-.33-6.85-.85-.44a.36.36,0,0,1-.17-.49l.48-1.08a.35.35,0,0,1,.49-.14l.6.31h4.85a1.49,1.49,0,0,1,1.51,1.49v2.1c0,2.09-.76,5.56-5.54,6C546.7,812.87,546.16,812.78,546.12,811.94Zm4.65-6.76h-3.06l.25,5.6c2-.28,2.81-1.7,2.81-3.56Z" style="fill: #f59774"/>
      <path d="M561,806a.85.85,0,0,0-.86-.84h-3.93a.33.33,0,0,1-.35-.33v-1.28a.34.34,0,0,1,.36-.32h3.91A2.78,2.78,0,0,1,563,806v6.32a.35.35,0,0,1-.32.37h-1.28a.36.36,0,0,1-.33-.37Zm-4.48,1.06,1.16.07a.37.37,0,0,1,.37.44s-.2,1.75-.2,2.07v2.7a.36.36,0,0,1-.33.37h-1.28a.36.36,0,0,1-.33-.37v-2.73c0-.38.2-2.23.2-2.23A.34.34,0,0,1,556.54,807.08Z" style="fill: #f59774"/>
      <path d="M566.37,803.63a.35.35,0,0,1,.38-.38h1a.35.35,0,0,1,.38.36l.11,3.61c.75-.22,1.09-.64,1.06-2.11l0-1.46a.35.35,0,0,1,.38-.4h.88a.33.33,0,0,1,.38.38l0,2a2.85,2.85,0,0,1-2.63,3l.09,2.26c2.79-.42,3.68-2.19,3.68-5.89v-1.35c0-.26.11-.38.39-.38h1.07a.35.35,0,0,1,.39.38l0,1.35c-.11,4.32-1.1,7.29-6.24,7.88a.87.87,0,0,1-1-.81Z" style="fill: #f59774"/>
      <path d="M588.42,806a.85.85,0,0,0-.84-.84h-1.22a3.8,3.8,0,0,0-1.1,2.82,5.36,5.36,0,0,0,1.17,3.23v.82a.69.69,0,0,1-.67.68h-2.32a.34.34,0,0,1-.35-.33v-1.13a.36.36,0,0,1,.37-.33h.82a4.94,4.94,0,0,1-.91-2.88,4.46,4.46,0,0,1,.93-2.88h-.75a.34.34,0,0,1-.35-.33v-1.28a.35.35,0,0,1,.37-.32h4a2.77,2.77,0,0,1,2.77,2.79v6.32a.36.36,0,0,1-.33.37h-1.27a.35.35,0,0,1-.33-.37Z" style="fill: #f59774"/>
      <path d="M594.36,805.18a.33.33,0,0,1-.34-.33v-1.28a.34.34,0,0,1,.36-.32h2.43a2.76,2.76,0,0,1,2.77,2.79v4.75h.75a.35.35,0,0,1,.36.33v1.28a.33.33,0,0,1-.34.33h-6.53a.34.34,0,0,1-.35-.33v-1.28a.36.36,0,0,1,.37-.33h3.81V806a.85.85,0,0,0-.84-.84Z" style="fill: #f59774"/>
      <path d="M604,803.63a.35.35,0,0,1,.38-.38h1a.35.35,0,0,1,.38.36l.11,3.61c.74-.22,1.09-.64,1.06-2.11l0-1.46a.35.35,0,0,1,.38-.4h.88a.34.34,0,0,1,.38.38l0,2a2.84,2.84,0,0,1-2.62,3l.09,2.26c2.79-.42,3.68-2.19,3.68-5.89v-1.35c0-.26.11-.38.38-.38h1.08a.34.34,0,0,1,.38.38V805c-.11,4.32-1.1,7.29-6.24,7.88a.87.87,0,0,1-1-.81Z" style="fill: #f59774"/>
      <path d="M614.54,804.78a.39.39,0,0,1-.27-.49l.27-1.06A.39.39,0,0,1,615,803l2.61.66a.9.9,0,0,1,.76,1v7.77a.35.35,0,0,1-.32.37H616.8a.36.36,0,0,1-.33-.37v-7.07Z" style="fill: #f59774"/>
      <path d="M623.86,812.36a.36.36,0,0,1-.33.37h-1.26a.36.36,0,0,1-.33-.37l0-8.44a.71.71,0,0,1,.68-.67h4.48a2,2,0,0,1,2,2v7.16a.35.35,0,0,1-.32.37h-1.26a.36.36,0,0,1-.33-.37v-7.18h-3.3Z" style="fill: #f59774"/>
      <path d="M641.28,809.25l-.73-.7a.39.39,0,0,1,0-.6,3.23,3.23,0,0,0,1-2.77H639a.33.33,0,0,1-.35-.33v-1.28a.35.35,0,0,1,.37-.32h3.28a1.19,1.19,0,0,1,1.2,1.16v1a4.82,4.82,0,0,1-1.62,3.78A.46.46,0,0,1,641.28,809.25Z" style="fill: #f59774"/>
      <path d="M646.71,810.79h3v-5.61h-1.55a.33.33,0,0,1-.35-.33v-1.28a.35.35,0,0,1,.37-.32h2a1.5,1.5,0,0,1,1.5,1.49v6.75a1.23,1.23,0,0,1-1.24,1.24h-3.76a.32.32,0,0,1-.34-.33v-1.28a.35.35,0,0,1,.36-.33Z" style="fill: #f59774"/>
      <path d="M657.38,807.91a3,3,0,0,0-.45,1.92v2.53a.36.36,0,0,1-.33.37h-1.26a.36.36,0,0,1-.33-.37v-2.53a4.34,4.34,0,0,1,1.35-3.47l-1.44-2.11a.39.39,0,0,1,.06-.48l1-.73a.37.37,0,0,1,.51.06l2.55,3.76,1.5-3.3a.44.44,0,0,1,.46-.31h1.09c.36,0,.56.27.42.56l-2.28,4.81,2,3a.39.39,0,0,1-.05.48l-1,.73a.36.36,0,0,1-.51-.06Z" style="fill: #f59774"/>
      <path d="M485.31,839.07a.34.34,0,0,1,.16-.49l2.45-1.29-2.34-7.15a.41.41,0,0,1,.4-.55h1a.51.51,0,0,1,.58.39l1.86,6.23,1.14-6.18a.48.48,0,0,1,.56-.44h1a.45.45,0,0,1,.47.55l-1.06,5.21a4.21,4.21,0,0,1-2.62,3.52l-2.46,1.35a.39.39,0,0,1-.5-.12Z" style="fill: #f59774"/>
      <path d="M495.18,831.12a.39.39,0,0,1-.28-.49l.28-1.06a.4.4,0,0,1,.49-.27l2.61.66a.89.89,0,0,1,.76,1v7.77a.34.34,0,0,1-.32.36h-1.28a.35.35,0,0,1-.33-.36v-7.08Z" style="fill: #f59774"/>
      <path d="M503.07,831.42l-.85-.77a.37.37,0,0,1,0-.53l.73-.82a.36.36,0,0,1,.54,0l1.06,1c1.08-.55,4.51-1.67,4.67,1.62l.29,5.95a1.14,1.14,0,0,1-1.15,1.29h-2.29a.32.32,0,0,1-.35-.32v-1.28a.35.35,0,0,1,.36-.33h1.52l-.24-5.07c-.05-1.16-1.62-.51-2.42-.18l-.84,6.87a.31.31,0,0,1-.37.31h-1.2a.33.33,0,0,1-.35-.41Z" style="fill: #f59774"/>
      <path d="M512.8,830a.35.35,0,0,1,.38-.39h1a.35.35,0,0,1,.38.37l.11,3.61c.75-.22,1.09-.64,1.06-2.12l0-1.46a.35.35,0,0,1,.38-.4h.88a.34.34,0,0,1,.38.39l0,2a2.83,2.83,0,0,1-2.62,3l.09,2.26c2.79-.42,3.68-2.18,3.68-5.89V830c0-.26.11-.39.39-.39h1.07a.35.35,0,0,1,.38.39v1.34c-.11,4.33-1.1,7.3-6.24,7.88a.86.86,0,0,1-1-.8Z" style="fill: #f59774"/>
      <path d="M525.55,838.87a.37.37,0,0,1-.2-.51l2.78-6.83h-4.26a.57.57,0,0,1-.55-.57v-4.25a.35.35,0,0,1,.33-.36h1.28a.34.34,0,0,1,.32.36v2.88h4.09a1.05,1.05,0,0,1,1.07,1.08,1,1,0,0,1-.11.45l-3.06,8a.34.34,0,0,1-.49.21Z" style="fill: #f59774"/>
      <path d="M542.07,835.59l-.73-.69a.39.39,0,0,1,0-.6,3.22,3.22,0,0,0,1-2.77h-2.57a.33.33,0,0,1-.35-.33v-1.28a.36.36,0,0,1,.37-.33h3.28a1.19,1.19,0,0,1,1.2,1.17v1a4.77,4.77,0,0,1-1.62,3.77A.43.43,0,0,1,542.07,835.59Z" style="fill: #f59774"/>
      <path d="M552.79,838.71a.34.34,0,0,1-.32.36h-1.28a.35.35,0,0,1-.33-.36v-7.18h-3.41a.32.32,0,0,1-.34-.33v-1.28a.35.35,0,0,1,.36-.33H554a.35.35,0,0,1,.36.33v1.28a.32.32,0,0,1-.34.33h-1.21Z" style="fill: #f59774"/>
      <path d="M557.7,839.07a.31.31,0,0,1-.34-.32v-1.28a.35.35,0,0,1,.36-.33h3.67a.87.87,0,0,0,.87-.87v-3.91a.86.86,0,0,0-.87-.83H558a.32.32,0,0,1-.34-.33v-1.28a.35.35,0,0,1,.36-.33h3.38a2.77,2.77,0,0,1,2.79,2.79v3.89a2.78,2.78,0,0,1-2.79,2.8Z" style="fill: #f59774"/>
      <path d="M574,829.59h6.18a1.06,1.06,0,0,1,1.08,1.08,1.63,1.63,0,0,1-.09.45l-2.34,7.64c-.07.22-.24.3-.49.2l-1.26-.38a.4.4,0,0,1-.2-.51l2.13-6.54h-5a.33.33,0,0,1-.35-.33v-1.28a.36.36,0,0,1,.37-.33Zm.31,3.83,1.17.07a.37.37,0,0,1,.36.44s-.2,1.75-.2,2.08v4.7a.35.35,0,0,1-.33.37h-1.27a.34.34,0,0,1-.33-.37V836c0-.38.2-2.22.2-2.22A.34.34,0,0,1,574.32,833.42Z" style="fill: #f59774"/>
      <path d="M589,832.36a.85.85,0,0,0-.85-.83h-3.85a.33.33,0,0,1-.35-.33v-1.28a.36.36,0,0,1,.37-.33h3.81a2.78,2.78,0,0,1,2.81,2.79v6.33a.35.35,0,0,1-.33.36h-1.28a.35.35,0,0,1-.33-.36Z" style="fill: #f59774"/>
      <path d="M601.1,831.53a.34.34,0,0,1-.35-.33v-1.28a.35.35,0,0,1,.36-.33h2.43a2.76,2.76,0,0,1,2.77,2.79v4.76h.75a.35.35,0,0,1,.36.33v1.28a.32.32,0,0,1-.34.32h-6.53a.33.33,0,0,1-.35-.32v-1.28a.36.36,0,0,1,.37-.33h3.81v-4.78a.85.85,0,0,0-.84-.83Z" style="fill: #f59774"/>
      <path d="M613,835.59l-.73-.69a.39.39,0,0,1,0-.6,3.22,3.22,0,0,0,1-2.77h-2.57a.32.32,0,0,1-.34-.33v-1.28a.35.35,0,0,1,.36-.33h3.28a1.2,1.2,0,0,1,1.21,1.17v1a4.78,4.78,0,0,1-1.63,3.77A.43.43,0,0,1,613,835.59Z" style="fill: #f59774"/>
      <path d="M619.06,831.53a.34.34,0,0,1-.35-.33v-1.28a.36.36,0,0,1,.37-.33h2.42a2.77,2.77,0,0,1,2.78,2.79v4.76H625a.36.36,0,0,1,.37.33v1.28a.33.33,0,0,1-.35.32h-6.53a.32.32,0,0,1-.34-.32v-1.28a.35.35,0,0,1,.36-.33h3.81v-4.78a.84.84,0,0,0-.84-.83Z" style="fill: #f59774"/>
      <path d="M633.29,832.36a.85.85,0,0,0-.86-.83h-3.85a.32.32,0,0,1-.34-.33v-1.28a.35.35,0,0,1,.36-.33h3.81a2.78,2.78,0,0,1,2.81,2.79v6.33a.35.35,0,0,1-.33.36h-1.28a.34.34,0,0,1-.32-.36Z" style="fill: #f59774"/>
      <path d="M649.85,832.36a.84.84,0,0,0-.84-.83h-1.22a3.8,3.8,0,0,0-1.1,2.82,5.38,5.38,0,0,0,1.17,3.23v.82a.68.68,0,0,1-.67.67h-2.32a.33.33,0,0,1-.35-.32v-1.13a.35.35,0,0,1,.37-.33h.82a5,5,0,0,1-.91-2.88,4.5,4.5,0,0,1,.93-2.88H645a.34.34,0,0,1-.35-.33v-1.28a.36.36,0,0,1,.37-.33h4a2.77,2.77,0,0,1,2.77,2.79v6.33a.34.34,0,0,1-.33.36h-1.27a.34.34,0,0,1-.33-.36Z" style="fill: #f59774"/>
      <path d="M657.38,834.26a3,3,0,0,0-.45,1.91v2.54a.35.35,0,0,1-.33.36h-1.26a.35.35,0,0,1-.33-.36v-2.54a4.32,4.32,0,0,1,1.35-3.46l-1.44-2.11a.39.39,0,0,1,.06-.48l1-.73a.36.36,0,0,1,.51.06L659,833.2l1.5-3.3a.44.44,0,0,1,.46-.31h1.09c.36,0,.56.28.42.57L660.21,835l2,3a.37.37,0,0,1-.05.47l-1,.73a.35.35,0,0,1-.51-.05Z" style="fill: #f59774"/>
      <path d="M495.92,858.71a.85.85,0,0,0-.85-.84h-3.94a.32.32,0,0,1-.35-.33v-1.27a.35.35,0,0,1,.37-.33h3.9a2.78,2.78,0,0,1,2.81,2.79v6.33a.35.35,0,0,1-.33.36h-1.28a.35.35,0,0,1-.33-.36Zm-4.48,1.06,1.17.07a.37.37,0,0,1,.36.44s-.2,1.75-.2,2.08v2.7a.35.35,0,0,1-.33.36h-1.28a.34.34,0,0,1-.32-.36v-2.74c0-.38.2-2.22.2-2.22A.34.34,0,0,1,491.44,859.77Z" style="fill: #f59774"/>
      <path d="M501.31,863.49h3v-5.62H502.8a.33.33,0,0,1-.35-.33v-1.27a.35.35,0,0,1,.37-.33h2a1.5,1.5,0,0,1,1.49,1.49v6.75a1.23,1.23,0,0,1-1.24,1.24h-3.75a.32.32,0,0,1-.35-.33v-1.27a.34.34,0,0,1,.36-.33Z" style="fill: #f59774"/>
      <path d="M512.08,861.94l-.72-.69a.38.38,0,0,1,0-.61,3.23,3.23,0,0,0,1-2.77h-2.57a.32.32,0,0,1-.35-.33v-1.27a.34.34,0,0,1,.36-.33h3.29a1.19,1.19,0,0,1,1.2,1.17v1a4.8,4.8,0,0,1-1.62,3.77A.46.46,0,0,1,512.08,861.94Z" style="fill: #f59774"/>
      <path d="M520.75,860.35l-.69-2.48H519a.33.33,0,0,1-.35-.33v-1.27a.35.35,0,0,1,.37-.33h1.58a1,1,0,0,1,1.1.75l2.44,8.31a.31.31,0,0,1-.33.42h-1.25a.38.38,0,0,1-.42-.31l-.79-2.73-3,3.22a.35.35,0,0,1-.51,0l-.92-.84a.39.39,0,0,1,0-.47Z" style="fill: #f59774"/>
      <path d="M526.82,863.49h3v-5.62h-1.55a.32.32,0,0,1-.35-.33v-1.27a.35.35,0,0,1,.37-.33h2a1.5,1.5,0,0,1,1.5,1.49v6.75a1.23,1.23,0,0,1-1.24,1.24h-3.76a.31.31,0,0,1-.34-.33v-1.27a.34.34,0,0,1,.36-.33Z" style="fill: #f59774"/>
      <path d="M536,857.76l-.86-.76a.37.37,0,0,1,0-.53l.73-.82a.36.36,0,0,1,.55,0l1.06.95c1.07-.55,4.5-1.68,4.66,1.62l.29,6a1.14,1.14,0,0,1-1.14,1.29H539a.33.33,0,0,1-.35-.33v-1.27a.35.35,0,0,1,.37-.33h1.51l-.24-5.07c0-1.17-1.62-.51-2.42-.18l-.84,6.87a.32.32,0,0,1-.37.31h-1.2c-.27,0-.36-.2-.35-.42Z" style="fill: #f59774"/>
      <path d="M550.77,858.71a.85.85,0,0,0-.86-.84H546a.32.32,0,0,1-.35-.33v-1.27a.34.34,0,0,1,.36-.33h3.91a2.78,2.78,0,0,1,2.8,2.79v6.33a.34.34,0,0,1-.32.36H551.1a.35.35,0,0,1-.33-.36Zm-4.48,1.06,1.16.07a.37.37,0,0,1,.37.44s-.2,1.75-.2,2.08v2.7a.35.35,0,0,1-.33.36H546a.35.35,0,0,1-.33-.36v-2.74c0-.38.2-2.22.2-2.22A.34.34,0,0,1,546.29,859.77Z" style="fill: #f59774"/>
      <path d="M567.37,858.71a.85.85,0,0,0-.84-.84h-1.22a3.84,3.84,0,0,0-1.1,2.83,5.38,5.38,0,0,0,1.17,3.23v.82a.68.68,0,0,1-.67.67h-2.32a.33.33,0,0,1-.35-.33V864a.36.36,0,0,1,.37-.33h.82a4.92,4.92,0,0,1-.91-2.88,4.52,4.52,0,0,1,.93-2.88h-.75a.33.33,0,0,1-.35-.33v-1.27a.35.35,0,0,1,.37-.33h4a2.77,2.77,0,0,1,2.77,2.79v6.33a.34.34,0,0,1-.33.36H567.7a.35.35,0,0,1-.33-.36Z" style="fill: #f59774"/>
      <path d="M574.9,860.61a3,3,0,0,0-.45,1.91v2.54a.35.35,0,0,1-.33.36h-1.26a.35.35,0,0,1-.33-.36v-2.54a4.31,4.31,0,0,1,1.35-3.46l-1.44-2.12a.38.38,0,0,1,.06-.47l1-.73a.37.37,0,0,1,.51,0l2.55,3.76,1.5-3.3a.44.44,0,0,1,.45-.31h1.1c.36,0,.56.27.42.56l-2.28,4.82,2,3a.39.39,0,0,1,0,.48l-1,.73a.35.35,0,0,1-.51-.06Z" style="fill: #f59774"/>
      <path d="M594.2,858.71a.85.85,0,0,0-.84-.84h-1.22a3.84,3.84,0,0,0-1.09,2.83,5.36,5.36,0,0,0,1.16,3.23v.82a.68.68,0,0,1-.67.67h-2.32a.32.32,0,0,1-.34-.33V864a.35.35,0,0,1,.36-.33h.82a4.92,4.92,0,0,1-.91-2.88,4.52,4.52,0,0,1,.93-2.88h-.75a.33.33,0,0,1-.35-.33v-1.27a.35.35,0,0,1,.37-.33h4a2.77,2.77,0,0,1,2.77,2.79v6.33a.34.34,0,0,1-.33.36h-1.27a.35.35,0,0,1-.33-.36Z" style="fill: #f59774"/>
      <path d="M599.27,857.47A.38.38,0,0,1,599,857l.27-1.06a.38.38,0,0,1,.49-.27l2.61.65a.91.91,0,0,1,.77,1v7.77a.35.35,0,0,1-.33.36h-1.28a.35.35,0,0,1-.33-.36V858Z" style="fill: #f59774"/>
      <path d="M608.59,865.06a.35.35,0,0,1-.33.36H607a.34.34,0,0,1-.32-.36v-8.45a.71.71,0,0,1,.68-.67h4.49a2,2,0,0,1,1.95,1.95v7.17a.35.35,0,0,1-.33.36h-1.26a.35.35,0,0,1-.33-.36v-7.19h-3.3Z" style="fill: #f59774"/>
      <path d="M617.4,857.34a.36.36,0,0,1-.16-.49l.47-1.07a.36.36,0,0,1,.49-.15l.61.31H623a1.48,1.48,0,0,1,1.48,1.49v6.75a1.21,1.21,0,0,1-1.26,1.24h-5.43a.32.32,0,0,1-.35-.33v-1.27a.35.35,0,0,1,.37-.33h4.74v-5.62h-2.43a2.93,2.93,0,0,0-.33,1.66v.31h.93a.36.36,0,0,1,.37.33v1.15a.33.33,0,0,1-.35.33h-2a.74.74,0,0,1-.83-.84v-.95a4.65,4.65,0,0,1,.38-2.08Z" style="fill: #f59774"/>
      <path d="M639.27,858.71a.85.85,0,0,0-.84-.84h-1.22a3.84,3.84,0,0,0-1.1,2.83,5.38,5.38,0,0,0,1.17,3.23v.82a.68.68,0,0,1-.67.67h-2.32a.33.33,0,0,1-.35-.33V864a.36.36,0,0,1,.37-.33h.82a4.92,4.92,0,0,1-.91-2.88,4.52,4.52,0,0,1,.93-2.88h-.75a.33.33,0,0,1-.35-.33v-1.27a.35.35,0,0,1,.37-.33h4a2.77,2.77,0,0,1,2.77,2.79v6.33a.34.34,0,0,1-.33.36H639.6a.35.35,0,0,1-.33-.36Z" style="fill: #f59774"/>
      <path d="M650.71,863.89a1.07,1.07,0,0,1-1,1.53h-5.25a.33.33,0,0,1-.35-.33v-1.27a.35.35,0,0,1,.37-.33h3.92l-3.81-7a.36.36,0,0,1,.32-.55h1.21a.64.64,0,0,1,.65.38l1.41,2.7,1.27-2.77a.45.45,0,0,1,.46-.31h1.22c.35,0,.55.25.38.56L649.23,861Z" style="fill: #f59774"/>
      <path d="M655.07,855.94h6.18a1,1,0,0,1,1.07,1.07,1.38,1.38,0,0,1-.09.46l-2.33,7.64c-.07.22-.24.29-.49.2l-1.26-.38a.39.39,0,0,1-.2-.51l2.13-6.55h-5a.32.32,0,0,1-.35-.33v-1.27a.34.34,0,0,1,.36-.33Zm.31,3.83,1.16.07a.37.37,0,0,1,.37.44s-.2,1.75-.2,2.08v4.7a.36.36,0,0,1-.33.37H655.1a.35.35,0,0,1-.32-.37v-4.74c0-.38.2-2.22.2-2.22A.33.33,0,0,1,655.38,859.77Z" style="fill: #f59774"/>
      <path d="M461.87,881.46a.38.38,0,0,1,.38-.4h1.15a.41.41,0,0,1,.39.4v4.64a.4.4,0,0,1-.39.38h-1.15a.37.37,0,0,1-.38-.38Zm3.1,0a.38.38,0,0,1,.38-.4h1.15a.41.41,0,0,1,.39.4v4.64a.4.4,0,0,1-.39.38h-1.15a.37.37,0,0,1-.38-.38Z" style="fill: #f59774"/>
      <path d="M475.09,885.06a.85.85,0,0,0-.85-.84h-3.65a.33.33,0,0,1-.35-.33v-1.28a.35.35,0,0,1,.37-.32h3.61a2.78,2.78,0,0,1,2.81,2.79v8.33a.35.35,0,0,1-.33.36h-1.28a.35.35,0,0,1-.33-.36Z" style="fill: #f59774"/>
      <path d="M482.54,891.57a.37.37,0,0,1-.2-.51l2.79-6.84h-4.27a.57.57,0,0,1-.55-.57V879.4a.35.35,0,0,1,.33-.36h1.28a.34.34,0,0,1,.32.36v2.89h4.09a1,1,0,0,1,1.07,1.07,1.24,1.24,0,0,1-.1.46l-3.07,8a.34.34,0,0,1-.49.2Z" style="fill: #f59774"/>
      <path d="M496.65,890.24a1.06,1.06,0,0,1-1,1.53h-5.25a.33.33,0,0,1-.35-.33v-1.28a.35.35,0,0,1,.36-.33h3.92l-3.81-7a.36.36,0,0,1,.33-.54h1.2a.65.65,0,0,1,.66.38l1.4,2.7,1.28-2.77a.44.44,0,0,1,.46-.31h1.22c.35,0,.55.25.38.56l-2.31,4.52Z" style="fill: #f59774"/>
      <path d="M503,887a3,3,0,0,0-.46,1.92v2.53a.36.36,0,0,1-.33.37h-1.26a.35.35,0,0,1-.32-.37v-2.53a4.34,4.34,0,0,1,1.34-3.47l-1.44-2.11a.4.4,0,0,1,.06-.48l1-.73a.37.37,0,0,1,.51.06l2.56,3.76,1.49-3.3a.44.44,0,0,1,.46-.31h1.09c.37,0,.57.27.42.56l-2.28,4.81,2,3a.39.39,0,0,1-.06.48l-1,.73a.36.36,0,0,1-.51-.06Z" style="fill: #f59774"/>
      <path d="M517.83,884.22a.34.34,0,0,1-.35-.33v-1.28a.35.35,0,0,1,.37-.32h2.43a2.77,2.77,0,0,1,2.77,2.79v4.75h.74a.36.36,0,0,1,.37.33v1.28a.34.34,0,0,1-.35.33h-6.53a.33.33,0,0,1-.34-.33v-1.28a.35.35,0,0,1,.36-.33h3.81v-4.77a.84.84,0,0,0-.83-.84Z" style="fill: #f59774"/>
      <path d="M527.21,883.82a.4.4,0,0,1-.28-.49l.28-1.06a.39.39,0,0,1,.49-.28l2.61.66a.91.91,0,0,1,.76,1v7.77a.35.35,0,0,1-.33.37h-1.27a.35.35,0,0,1-.33-.37v-7.07Z" style="fill: #f59774"/>
      <path d="M539,885.06a.85.85,0,0,0-.86-.84h-3.85a.32.32,0,0,1-.34-.33v-1.28a.34.34,0,0,1,.36-.32h3.81a2.78,2.78,0,0,1,2.81,2.79v6.32a.35.35,0,0,1-.33.37h-1.27a.35.35,0,0,1-.33-.37Z" style="fill: #f59774"/>
      <path d="M544.55,882.29h6.18a1,1,0,0,1,1.08,1.07,1.77,1.77,0,0,1-.09.46l-2.33,7.64c-.08.22-.24.29-.5.2l-1.26-.38a.42.42,0,0,1-.2-.52l2.14-6.54h-5a.32.32,0,0,1-.34-.33v-1.28a.34.34,0,0,1,.36-.32Zm.31,3.83,1.17.07a.36.36,0,0,1,.36.44s-.2,1.75-.2,2.07v4.71a.34.34,0,0,1-.32.36h-1.28a.35.35,0,0,1-.33-.36v-4.74c0-.38.2-2.23.2-2.23A.33.33,0,0,1,544.86,886.12Z" style="fill: #f59774"/>
      <path d="M555.53,884.22a.33.33,0,0,1-.34-.33v-1.28a.34.34,0,0,1,.36-.32H558a2.76,2.76,0,0,1,2.77,2.79v4.75h.75a.35.35,0,0,1,.36.33v1.28a.34.34,0,0,1-.35.33H555a.33.33,0,0,1-.35-.33v-1.28a.35.35,0,0,1,.36-.33h3.82v-4.77a.85.85,0,0,0-.84-.84Z" style="fill: #f59774"/>
      <path d="M572.37,890.25a.48.48,0,0,1,.53-.43h1.4c.29,0,.46.2.35.45L573,894a.32.32,0,0,1-.46.14l-.71-.31c-.22-.09-.27-.25-.22-.49Z" style="fill: #f59774"/>
      <path d="M577.82,883.82a.39.39,0,0,1-.27-.49l.27-1.06a.39.39,0,0,1,.49-.28l2.61.66a.91.91,0,0,1,.77,1v7.77a.36.36,0,0,1-.33.37h-1.28a.36.36,0,0,1-.33-.37v-7.07Z" style="fill: #f59774"/>
      <path d="M585,889.83h3.05v-5.61h-1.55a.33.33,0,0,1-.35-.33v-1.28a.35.35,0,0,1,.37-.32h2a1.49,1.49,0,0,1,1.49,1.49v6.75a1.23,1.23,0,0,1-1.24,1.24H585a.32.32,0,0,1-.34-.33v-1.28a.35.35,0,0,1,.36-.33Z" style="fill: #f59774"/>
      <path d="M593.62,881.46a.38.38,0,0,1,.38-.4h1.15a.4.4,0,0,1,.38.4v4.64a.39.39,0,0,1-.38.38H594a.37.37,0,0,1-.38-.38Zm3.1,0a.38.38,0,0,1,.38-.4h1.15a.4.4,0,0,1,.38.4v4.64a.39.39,0,0,1-.38.38H597.1a.37.37,0,0,1-.38-.38Z" style="fill: #f59774"/>
      <path d="M613.52,885.06a.85.85,0,0,0-.84-.84h-1.23a3.8,3.8,0,0,0-1.09,2.82,5.36,5.36,0,0,0,1.17,3.23v.82a.69.69,0,0,1-.68.68h-2.31a.34.34,0,0,1-.35-.33v-1.13a.36.36,0,0,1,.37-.33h.82a5,5,0,0,1-.92-2.88,4.52,4.52,0,0,1,.93-2.88h-.74a.34.34,0,0,1-.35-.33v-1.28a.34.34,0,0,1,.36-.32h4a2.77,2.77,0,0,1,2.77,2.79v6.32a.36.36,0,0,1-.33.37h-1.28a.35.35,0,0,1-.32-.37Z" style="fill: #f59774"/>
      <path d="M623.44,885.06a.86.86,0,0,0-.86-.84h-3.85a.32.32,0,0,1-.34-.33v-1.28a.34.34,0,0,1,.36-.32h3.81a2.78,2.78,0,0,1,2.81,2.79v6.32a.36.36,0,0,1-.33.37h-1.27a.35.35,0,0,1-.33-.37Z" style="fill: #f59774"/>
      <path d="M630.19,884.38a5.15,5.15,0,0,1-1.41-.33c-.33-.14-.43-.31-.34-.63l.25-.92c.09-.29.31-.36.64-.25a5.56,5.56,0,0,0,3.65,0c.33-.11.54,0,.63.25l.26.92c.09.32,0,.49-.35.63a5,5,0,0,1-1.4.33v7a.36.36,0,0,1-.33.37h-1.27a.35.35,0,0,1-.33-.37Z" style="fill: #f59774"/>
      <path d="M636.81,883.82a.39.39,0,0,1-.27-.49l.27-1.06a.39.39,0,0,1,.49-.28l2.61.66a.9.9,0,0,1,.76,1v7.77a.35.35,0,0,1-.32.37h-1.28a.36.36,0,0,1-.33-.37v-7.07Z" style="fill: #f59774"/>
      <path d="M646.13,891.4a.36.36,0,0,1-.33.37h-1.26a.36.36,0,0,1-.33-.37l0-8.44a.71.71,0,0,1,.68-.67h4.48a2,2,0,0,1,2,2v7.16a.35.35,0,0,1-.32.37h-1.26a.36.36,0,0,1-.33-.37v-7.18h-3.3Z" style="fill: #f59774"/>
      <path d="M660.08,885.06a.85.85,0,0,0-.86-.84h-3.94a.32.32,0,0,1-.34-.33v-1.28a.34.34,0,0,1,.36-.32h3.91a2.78,2.78,0,0,1,2.8,2.79v6.32a.35.35,0,0,1-.32.37h-1.28a.36.36,0,0,1-.33-.37Zm-4.48,1.06,1.16.07a.37.37,0,0,1,.37.44s-.2,1.75-.2,2.07v2.7a.36.36,0,0,1-.33.37h-1.28a.36.36,0,0,1-.33-.37v-2.73c0-.38.2-2.23.2-2.23A.34.34,0,0,1,655.6,886.12Z" style="fill: #f59774"/>
      <path d="M491.48,915.62a1.34,1.34,0,1,1-1.34,1.35A1.37,1.37,0,0,1,491.48,915.62Z" style="fill: #f59774"/>
      <path d="M498.52,913.3a3,3,0,0,0-.46,1.91v2.54a.35.35,0,0,1-.33.36h-1.26a.34.34,0,0,1-.32-.36v-2.54a4.32,4.32,0,0,1,1.34-3.46l-1.44-2.11a.39.39,0,0,1,.06-.48l1-.73a.36.36,0,0,1,.51.06l2.56,3.75,1.49-3.3a.44.44,0,0,1,.46-.31h1.09c.37,0,.57.28.42.57L501.34,914l2,3a.38.38,0,0,1-.06.47l-1,.73a.35.35,0,0,1-.51,0Z" style="fill: #f59774"/>
      <path d="M507.18,910.57a.34.34,0,0,1-.35-.33V909a.36.36,0,0,1,.37-.33h2.42a2.77,2.77,0,0,1,2.78,2.79v4.76h.74a.36.36,0,0,1,.37.33v1.28a.33.33,0,0,1-.35.32h-6.53a.32.32,0,0,1-.34-.32v-1.28a.35.35,0,0,1,.36-.33h3.81V911.4a.84.84,0,0,0-.84-.83Z" style="fill: #f59774"/>
      <path d="M521.86,911.4a.85.85,0,0,0-.86-.83h-3.93a.32.32,0,0,1-.35-.33V909a.35.35,0,0,1,.36-.33H521a2.78,2.78,0,0,1,2.8,2.79v6.33a.34.34,0,0,1-.32.36h-1.28a.35.35,0,0,1-.33-.36Zm-4.48,1.06,1.16.07a.38.38,0,0,1,.37.44s-.2,1.75-.2,2.08v2.7a.35.35,0,0,1-.33.36H517.1a.35.35,0,0,1-.33-.36V915c0-.38.2-2.22.2-2.22A.34.34,0,0,1,517.38,912.46Z" style="fill: #f59774"/>
      <path d="M535.72,914.63l-.72-.69a.37.37,0,0,1,0-.6,3.24,3.24,0,0,0,1-2.77h-2.58a.32.32,0,0,1-.34-.33V909a.35.35,0,0,1,.36-.33h3.29a1.19,1.19,0,0,1,1.2,1.17v1a4.8,4.8,0,0,1-1.62,3.77A.45.45,0,0,1,535.72,914.63Z" style="fill: #f59774"/>
      <path d="M546.17,911.4a.84.84,0,0,0-.83-.83h-1.23a3.8,3.8,0,0,0-1.09,2.82,5.38,5.38,0,0,0,1.17,3.23v.82a.69.69,0,0,1-.68.67H541.2a.33.33,0,0,1-.35-.32v-1.13a.34.34,0,0,1,.36-.33H542a5,5,0,0,1-.92-2.88,4.5,4.5,0,0,1,.93-2.88h-.74a.34.34,0,0,1-.35-.33V909a.35.35,0,0,1,.36-.33h4a2.77,2.77,0,0,1,2.77,2.79v6.33a.35.35,0,0,1-.33.36H546.5a.35.35,0,0,1-.33-.36Z" style="fill: #f59774"/>
      <path d="M553.64,917.75a.35.35,0,0,1-.33.36h-1.26a.35.35,0,0,1-.33-.36l0-8.44a.71.71,0,0,1,.67-.68h4.49a2,2,0,0,1,2,2v7.17a.35.35,0,0,1-.33.36h-1.26a.34.34,0,0,1-.32-.36v-7.18h-3.3Z" style="fill: #f59774"/>
      <path d="M562.45,910a.38.38,0,0,1-.17-.5l.48-1.07a.36.36,0,0,1,.49-.15l.6.31H568a1.47,1.47,0,0,1,1.47,1.5v6.74a1.21,1.21,0,0,1-1.25,1.24h-5.44a.31.31,0,0,1-.34-.32v-1.28a.35.35,0,0,1,.36-.33h4.74v-5.61h-2.42a2.88,2.88,0,0,0-.33,1.65v.31h.93a.35.35,0,0,1,.36.33V914a.32.32,0,0,1-.34.33h-2a.75.75,0,0,1-.84-.84v-1a4.82,4.82,0,0,1,.38-2.08Z" style="fill: #f59774"/>
      <path d="M573.06,909a.36.36,0,0,1,.38-.39h1a.35.35,0,0,1,.38.37l.11,3.61c.75-.22,1.1-.64,1.06-2.12l0-1.46a.35.35,0,0,1,.38-.4h.87a.34.34,0,0,1,.39.39l0,2a2.84,2.84,0,0,1-2.63,3l.09,2.26c2.79-.42,3.69-2.18,3.69-5.89V909c0-.26.11-.39.38-.39h1.08a.35.35,0,0,1,.38.39l0,1.34c-.11,4.33-1.09,7.3-6.23,7.88a.86.86,0,0,1-.95-.8Z" style="fill: #f59774"/>
      <path d="M584.57,910.46l-.86-.77a.39.39,0,0,1,0-.53l.73-.82a.38.38,0,0,1,.55,0l1.06,1c1.07-.55,4.5-1.67,4.67,1.62l.29,6a1.15,1.15,0,0,1-1.15,1.29h-2.3a.32.32,0,0,1-.34-.32v-1.28a.35.35,0,0,1,.36-.33h1.51l-.23-5.07c-.06-1.16-1.63-.51-2.43-.18l-.84,6.87a.31.31,0,0,1-.36.31H584c-.27,0-.36-.2-.34-.41Z" style="fill: #f59774"/>
      <path d="M599.34,911.4a.85.85,0,0,0-.85-.83h-3.94a.33.33,0,0,1-.35-.33V909a.36.36,0,0,1,.37-.33h3.9a2.78,2.78,0,0,1,2.81,2.79v6.33a.35.35,0,0,1-.33.36h-1.28a.35.35,0,0,1-.33-.36Zm-4.48,1.06,1.17.07a.37.37,0,0,1,.36.44s-.2,1.75-.2,2.08v2.7a.35.35,0,0,1-.33.36h-1.28a.34.34,0,0,1-.32-.36V915c0-.38.2-2.22.2-2.22A.34.34,0,0,1,594.86,912.46Z" style="fill: #f59774"/>
      <path d="M610.25,918.11a.34.34,0,0,1,.17-.49l2.44-1.29-2.33-7.15a.41.41,0,0,1,.4-.55h1a.52.52,0,0,1,.59.39l1.86,6.23,1.13-6.18a.48.48,0,0,1,.56-.44h1a.46.46,0,0,1,.48.55l-1.06,5.21a4.22,4.22,0,0,1-2.63,3.52l-2.46,1.35a.38.38,0,0,1-.49-.12Z" style="fill: #f59774"/>
      <path d="M620.12,910.16a.38.38,0,0,1-.27-.49l.27-1.06a.4.4,0,0,1,.49-.27l2.61.66a.9.9,0,0,1,.77,1v7.77a.35.35,0,0,1-.33.36h-1.28a.35.35,0,0,1-.33-.36v-7.08Z" style="fill: #f59774"/>
      <path d="M631.9,911.4a.85.85,0,0,0-.86-.83H627.2a.33.33,0,0,1-.35-.33V909a.35.35,0,0,1,.37-.33H631a2.78,2.78,0,0,1,2.8,2.79v6.33a.34.34,0,0,1-.32.36h-1.28a.35.35,0,0,1-.33-.36Z" style="fill: #f59774"/>
      <path d="M639.53,914.63l-.73-.69a.38.38,0,0,1,0-.6,3.24,3.24,0,0,0,1-2.77h-2.57a.33.33,0,0,1-.35-.33V909a.36.36,0,0,1,.37-.33h3.28a1.19,1.19,0,0,1,1.2,1.17v1a4.8,4.8,0,0,1-1.62,3.77A.44.44,0,0,1,639.53,914.63Z" style="fill: #f59774"/>
      <path d="M647.13,913.3a3,3,0,0,0-.45,1.91v2.54a.35.35,0,0,1-.33.36h-1.26a.35.35,0,0,1-.33-.36v-2.54a4.32,4.32,0,0,1,1.35-3.46l-1.44-2.11a.39.39,0,0,1,.06-.48l1-.73a.36.36,0,0,1,.51.06l2.55,3.75,1.5-3.3a.44.44,0,0,1,.46-.31h1.09c.36,0,.56.28.42.57L650,914l2,3a.37.37,0,0,1-.05.47l-1,.73a.35.35,0,0,1-.51,0Z" style="fill: #f59774"/>
      <path d="M655.8,910.57a.34.34,0,0,1-.35-.33V909a.35.35,0,0,1,.37-.33h2.42a2.76,2.76,0,0,1,2.77,2.79v4.76h.75a.35.35,0,0,1,.36.33v1.28a.32.32,0,0,1-.34.32h-6.53a.33.33,0,0,1-.35-.32v-1.28a.36.36,0,0,1,.37-.33h3.81V911.4a.84.84,0,0,0-.84-.83Z" style="fill: #f59774"/>
      <path d="M609.94,970.44a.36.36,0,0,1-.33.37h-1.27a.35.35,0,0,1-.33-.37v-7.18H604.6a.33.33,0,0,1-.35-.33v-1.28a.35.35,0,0,1,.37-.32h6.51a.34.34,0,0,1,.36.32v1.28a.33.33,0,0,1-.35.33h-1.2Z" style="fill: #f59774"/>
      <path d="M614.52,962.86a.39.39,0,0,1-.27-.49l.27-1.06A.39.39,0,0,1,615,961l2.61.66a.91.91,0,0,1,.77,1v7.77a.36.36,0,0,1-.33.37h-1.28a.36.36,0,0,1-.33-.37v-7.07Z" style="fill: #f59774"/>
      <path d="M621.07,970.81a.34.34,0,0,1,.16-.49l2.45-1.3-2.34-7.15a.4.4,0,0,1,.4-.54h1a.51.51,0,0,1,.58.38l1.86,6.24,1.13-6.19c.06-.31.24-.43.57-.43h.95a.44.44,0,0,1,.47.54l-1.06,5.22a4.22,4.22,0,0,1-2.62,3.52L622.13,972a.39.39,0,0,1-.5-.13Z" style="fill: #f59774"/>
      <path d="M642,964.1a.85.85,0,0,0-.86-.84h-3.64a.32.32,0,0,1-.35-.33v-1.28a.34.34,0,0,1,.36-.32h3.61a2.78,2.78,0,0,1,2.81,2.79v8.33a.34.34,0,0,1-.33.36H642.3a.34.34,0,0,1-.33-.36Z" style="fill: #f59774"/>
      <path d="M649.78,967.33l-.73-.7a.39.39,0,0,1,0-.6,3.23,3.23,0,0,0,1-2.77H647.5a.33.33,0,0,1-.35-.33v-1.28a.35.35,0,0,1,.37-.32h3.28a1.19,1.19,0,0,1,1.2,1.16v1a4.82,4.82,0,0,1-1.62,3.78A.46.46,0,0,1,649.78,967.33Z" style="fill: #f59774"/>
      <path d="M657.38,966a3,3,0,0,0-.45,1.92v2.53a.36.36,0,0,1-.33.37h-1.26a.36.36,0,0,1-.33-.37v-2.53a4.34,4.34,0,0,1,1.35-3.47l-1.44-2.11a.39.39,0,0,1,.06-.48l1-.73a.37.37,0,0,1,.51.06l2.55,3.76,1.5-3.3a.44.44,0,0,1,.46-.31h1.09c.36,0,.56.27.42.56l-2.28,4.81,2,3a.39.39,0,0,1-.05.48l-1,.73a.36.36,0,0,1-.51-.06Z" style="fill: #f59774"/>
      <path d="M603.18,973v-.44h60.44V973Z" style="fill: #f59774"/>
      <path d="M539.83,991.88l3.26-3.26a.4.4,0,0,1,.57,0l.71.71a.39.39,0,0,1,0,.53l-2.85,2.9,2.85,2.9a.39.39,0,0,1,0,.53l-.71.71a.4.4,0,0,1-.57,0l-3.26-3.27a1.22,1.22,0,0,1-.33-.87A1.26,1.26,0,0,1,539.83,991.88Z" style="fill: #f59774"/>
      <path d="M560.07,987.67a1.49,1.49,0,0,1,1.5,1.5v6.74a1.23,1.23,0,0,1-1.24,1.24h-4.71a.68.68,0,0,1-.65-.65v-7l-.86-.43a.36.36,0,0,1-.16-.5l.47-1.07a.37.37,0,0,1,.49-.15l.6.31Zm-.43,1.94h-2.76v5.61h2.76Z" style="fill: #f59774"/>
      <path d="M567.39,993.67l-.73-.69a.39.39,0,0,1,0-.6,3.22,3.22,0,0,0,1-2.77h-2.57a.33.33,0,0,1-.35-.33V988a.36.36,0,0,1,.37-.33h3.28a1.19,1.19,0,0,1,1.2,1.17v1a4.8,4.8,0,0,1-1.62,3.77A.43.43,0,0,1,567.39,993.67Z" style="fill: #f59774"/>
      <path d="M577.38,990.44a.85.85,0,0,0-.85-.83h-3.85a.33.33,0,0,1-.35-.33V988a.36.36,0,0,1,.37-.33h3.81a2.78,2.78,0,0,1,2.81,2.79v6.33a.35.35,0,0,1-.33.36h-1.28a.35.35,0,0,1-.33-.36Z" style="fill: #f59774"/>
      <path d="M582.44,989.2a.39.39,0,0,1-.28-.49l.28-1.06a.4.4,0,0,1,.49-.27l2.61.66a.89.89,0,0,1,.76,1v7.77a.34.34,0,0,1-.33.36H584.7a.35.35,0,0,1-.33-.36v-7.08Z" style="fill: #f59774"/>
      <path d="M591.76,996.79a.35.35,0,0,1-.33.36h-1.26a.35.35,0,0,1-.33-.36l0-8.44a.72.72,0,0,1,.68-.68H595a2,2,0,0,1,2,2v7.17a.34.34,0,0,1-.33.36h-1.25a.34.34,0,0,1-.33-.36v-7.18h-3.3Z" style="fill: #f59774"/>
      <path d="M601.28,989.61a.34.34,0,0,1-.35-.33V988a.36.36,0,0,1,.37-.33h2.42a2.76,2.76,0,0,1,2.77,2.79v4.76h.75a.36.36,0,0,1,.37.33v1.28a.33.33,0,0,1-.35.32h-6.53a.32.32,0,0,1-.34-.32v-1.28a.35.35,0,0,1,.36-.33h3.81v-4.78a.84.84,0,0,0-.84-.83Z" style="fill: #f59774"/>
      <path d="M619.43,993.67l-.73-.69a.39.39,0,0,1,0-.6,3.24,3.24,0,0,0,1-2.77h-2.57a.33.33,0,0,1-.35-.33V988a.36.36,0,0,1,.37-.33h3.28a1.19,1.19,0,0,1,1.2,1.17v1a4.8,4.8,0,0,1-1.62,3.77A.44.44,0,0,1,619.43,993.67Z" style="fill: #f59774"/>
      <path d="M629.88,990.44a.85.85,0,0,0-.84-.83h-1.22a3.8,3.8,0,0,0-1.1,2.82,5.38,5.38,0,0,0,1.17,3.23v.82a.69.69,0,0,1-.68.67H624.9a.33.33,0,0,1-.35-.32V995.7a.35.35,0,0,1,.37-.33h.82a5,5,0,0,1-.91-2.88,4.44,4.44,0,0,1,.93-2.88H625a.34.34,0,0,1-.35-.33V988a.36.36,0,0,1,.37-.33h4a2.77,2.77,0,0,1,2.77,2.79v6.33a.35.35,0,0,1-.33.36H630.2a.34.34,0,0,1-.32-.36Z" style="fill: #f59774"/>
      <path d="M639.8,990.44a.85.85,0,0,0-.86-.83H635.1a.33.33,0,0,1-.35-.33V988a.35.35,0,0,1,.36-.33h3.81a2.78,2.78,0,0,1,2.81,2.79v6.33a.34.34,0,0,1-.33.36h-1.27a.35.35,0,0,1-.33-.36Z" style="fill: #f59774"/>
      <path d="M645.18,997.15a.31.31,0,0,1-.34-.32v-1.28a.35.35,0,0,1,.36-.33h3.66a.87.87,0,0,0,.88-.87v-3.91a.87.87,0,0,0-.88-.83h-3.39a.32.32,0,0,1-.34-.33V988a.35.35,0,0,1,.36-.33h3.37a2.76,2.76,0,0,1,2.79,2.79v3.89a2.77,2.77,0,0,1-2.79,2.8Z" style="fill: #f59774"/>
      <path d="M660.08,990.44a.85.85,0,0,0-.85-.83h-3.94a.33.33,0,0,1-.35-.33V988a.35.35,0,0,1,.36-.33h3.91a2.77,2.77,0,0,1,2.8,2.79v6.33a.34.34,0,0,1-.32.36h-1.28a.35.35,0,0,1-.33-.36Zm-4.48,1.06,1.16.07a.38.38,0,0,1,.37.44s-.2,1.75-.2,2.08v2.7a.35.35,0,0,1-.33.36h-1.28a.35.35,0,0,1-.33-.36v-2.74c0-.38.2-2.22.2-2.22A.34.34,0,0,1,655.6,991.5Z" style="fill: #f59774"/>
      <path d="M537.93,999.38v-.44H663.62v.44Z" style="fill: #f59774"/>
    </g>
    <rect x="502.4" y="932.01" width="183.29" height="99.71" style="fill: #f59774;opacity: 0"/>
  </g>
</svg>
